G75*
%MOIN*%
%OFA0B0*%
%FSLAX25Y25*%
%IPPOS*%
%LPD*%
%AMOC8*
5,1,8,0,0,1.08239X$1,22.5*
%
%ADD10OC8,0.07100*%
%ADD11C,0.07100*%
%ADD12OC8,0.05600*%
%ADD13C,0.06800*%
%ADD14C,0.05600*%
%ADD15R,0.07400X0.07400*%
%ADD16C,0.07400*%
D10*
X0027000Y0027884D03*
X0027000Y0092884D03*
X0107000Y0092884D03*
X0107000Y0027884D03*
X0187000Y0027884D03*
X0187000Y0092884D03*
D11*
X0187000Y0102884D03*
X0187000Y0037884D03*
X0107000Y0037884D03*
X0107000Y0102884D03*
X0027000Y0102884D03*
X0027000Y0037884D03*
D12*
X0027000Y0057884D03*
X0067000Y0057884D03*
X0107000Y0057884D03*
X0147000Y0057884D03*
X0187000Y0057884D03*
X0227000Y0057884D03*
X0272000Y0072884D03*
X0287000Y0097884D03*
X0297000Y0097884D03*
X0307000Y0107884D03*
X0307000Y0147884D03*
X0227000Y0122884D03*
X0187000Y0122884D03*
X0147000Y0122884D03*
X0107000Y0122884D03*
X0067000Y0122884D03*
X0027000Y0122884D03*
X0112000Y0192884D03*
X0122000Y0192884D03*
X0122000Y0212884D03*
X0112000Y0212884D03*
X0272000Y0032884D03*
X0287000Y0032884D03*
X0297000Y0032884D03*
D13*
X0242800Y0023984D02*
X0236800Y0023984D01*
X0236800Y0041784D02*
X0242800Y0041784D01*
X0217200Y0041784D02*
X0211200Y0041784D01*
X0211200Y0023984D02*
X0217200Y0023984D01*
X0162800Y0023984D02*
X0156800Y0023984D01*
X0156800Y0041784D02*
X0162800Y0041784D01*
X0137200Y0041784D02*
X0131200Y0041784D01*
X0131200Y0023984D02*
X0137200Y0023984D01*
X0082800Y0023984D02*
X0076800Y0023984D01*
X0076800Y0041784D02*
X0082800Y0041784D01*
X0057200Y0041784D02*
X0051200Y0041784D01*
X0051200Y0023984D02*
X0057200Y0023984D01*
X0057200Y0088984D02*
X0051200Y0088984D01*
X0051200Y0106784D02*
X0057200Y0106784D01*
X0076800Y0106784D02*
X0082800Y0106784D01*
X0082800Y0088984D02*
X0076800Y0088984D01*
X0131200Y0088984D02*
X0137200Y0088984D01*
X0137200Y0106784D02*
X0131200Y0106784D01*
X0156800Y0106784D02*
X0162800Y0106784D01*
X0162800Y0088984D02*
X0156800Y0088984D01*
X0211200Y0088984D02*
X0217200Y0088984D01*
X0236800Y0088984D02*
X0242800Y0088984D01*
X0242800Y0106784D02*
X0236800Y0106784D01*
X0217200Y0106784D02*
X0211200Y0106784D01*
X0329000Y0102884D02*
X0335000Y0102884D01*
X0335000Y0092884D02*
X0329000Y0092884D01*
X0329000Y0082884D02*
X0335000Y0082884D01*
X0335000Y0112884D02*
X0329000Y0112884D01*
X0329000Y0137884D02*
X0335000Y0137884D01*
X0335000Y0147884D02*
X0329000Y0147884D01*
X0329000Y0157884D02*
X0335000Y0157884D01*
X0335000Y0167884D02*
X0329000Y0167884D01*
X0329000Y0192884D02*
X0335000Y0192884D01*
X0335000Y0202884D02*
X0329000Y0202884D01*
X0329000Y0212884D02*
X0335000Y0212884D01*
X0335000Y0222884D02*
X0329000Y0222884D01*
X0329000Y0242884D02*
X0335000Y0242884D01*
X0335000Y0252884D02*
X0329000Y0252884D01*
X0329000Y0262884D02*
X0335000Y0262884D01*
X0335000Y0272884D02*
X0329000Y0272884D01*
X0329000Y0282884D02*
X0335000Y0282884D01*
X0335000Y0292884D02*
X0329000Y0292884D01*
X0120000Y0292884D02*
X0114000Y0292884D01*
X0114000Y0282884D02*
X0120000Y0282884D01*
X0120000Y0272884D02*
X0114000Y0272884D01*
X0114000Y0262884D02*
X0120000Y0262884D01*
X0120000Y0252884D02*
X0114000Y0252884D01*
X0114000Y0302884D02*
X0120000Y0302884D01*
X0030000Y0292884D02*
X0024000Y0292884D01*
X0024000Y0282884D02*
X0030000Y0282884D01*
X0030000Y0237884D02*
X0024000Y0237884D01*
X0024000Y0227884D02*
X0030000Y0227884D01*
X0030000Y0217884D02*
X0024000Y0217884D01*
X0024000Y0207884D02*
X0030000Y0207884D01*
D14*
X0142000Y0212384D03*
X0142000Y0193384D03*
D15*
X0187000Y0292884D03*
D16*
X0187000Y0282884D03*
X0187000Y0272884D03*
X0187000Y0262884D03*
X0187000Y0252884D03*
X0187000Y0242884D03*
X0187000Y0232884D03*
X0187000Y0222884D03*
X0187000Y0212884D03*
X0187000Y0202884D03*
X0187000Y0192884D03*
X0187000Y0182884D03*
X0187000Y0172884D03*
X0187000Y0162884D03*
X0217000Y0162884D03*
X0217000Y0172884D03*
X0217000Y0182884D03*
X0217000Y0192884D03*
X0217000Y0202884D03*
X0217000Y0212884D03*
X0217000Y0222884D03*
X0217000Y0232884D03*
X0217000Y0242884D03*
X0217000Y0252884D03*
X0217000Y0262884D03*
X0217000Y0272884D03*
X0217000Y0282884D03*
X0217000Y0292884D03*
M02*
