G75*
%MOIN*%
%OFA0B0*%
%FSLAX25Y25*%
%IPPOS*%
%LPD*%
%AMOC8*
5,1,8,0,0,1.08239X$1,22.5*
%
%ADD10C,0.00000*%
%ADD11OC8,0.06300*%
%ADD12C,0.06300*%
%ADD13OC8,0.04800*%
%ADD14C,0.06000*%
%ADD15C,0.04800*%
%ADD16R,0.06600X0.06600*%
%ADD17C,0.06600*%
%ADD18C,0.02000*%
%ADD19C,0.03562*%
D10*
X0002000Y0002884D02*
X0002000Y0327884D01*
X0352000Y0327884D01*
X0352000Y0002884D01*
X0002000Y0002884D01*
D11*
X0027000Y0027884D03*
X0027000Y0092884D03*
X0107000Y0092884D03*
X0107000Y0027884D03*
X0187000Y0027884D03*
X0187000Y0092884D03*
D12*
X0187000Y0102884D03*
X0187000Y0037884D03*
X0107000Y0037884D03*
X0107000Y0102884D03*
X0027000Y0102884D03*
X0027000Y0037884D03*
D13*
X0027000Y0057884D03*
X0067000Y0057884D03*
X0107000Y0057884D03*
X0147000Y0057884D03*
X0187000Y0057884D03*
X0227000Y0057884D03*
X0272000Y0072884D03*
X0287000Y0097884D03*
X0297000Y0097884D03*
X0307000Y0107884D03*
X0307000Y0147884D03*
X0227000Y0122884D03*
X0187000Y0122884D03*
X0147000Y0122884D03*
X0107000Y0122884D03*
X0067000Y0122884D03*
X0027000Y0122884D03*
X0112000Y0192884D03*
X0122000Y0192884D03*
X0122000Y0212884D03*
X0112000Y0212884D03*
X0272000Y0032884D03*
X0287000Y0032884D03*
X0297000Y0032884D03*
D14*
X0242800Y0023984D02*
X0236800Y0023984D01*
X0236800Y0041784D02*
X0242800Y0041784D01*
X0217200Y0041784D02*
X0211200Y0041784D01*
X0211200Y0023984D02*
X0217200Y0023984D01*
X0162800Y0023984D02*
X0156800Y0023984D01*
X0156800Y0041784D02*
X0162800Y0041784D01*
X0137200Y0041784D02*
X0131200Y0041784D01*
X0131200Y0023984D02*
X0137200Y0023984D01*
X0082800Y0023984D02*
X0076800Y0023984D01*
X0076800Y0041784D02*
X0082800Y0041784D01*
X0057200Y0041784D02*
X0051200Y0041784D01*
X0051200Y0023984D02*
X0057200Y0023984D01*
X0057200Y0088984D02*
X0051200Y0088984D01*
X0051200Y0106784D02*
X0057200Y0106784D01*
X0076800Y0106784D02*
X0082800Y0106784D01*
X0082800Y0088984D02*
X0076800Y0088984D01*
X0131200Y0088984D02*
X0137200Y0088984D01*
X0137200Y0106784D02*
X0131200Y0106784D01*
X0156800Y0106784D02*
X0162800Y0106784D01*
X0162800Y0088984D02*
X0156800Y0088984D01*
X0211200Y0088984D02*
X0217200Y0088984D01*
X0236800Y0088984D02*
X0242800Y0088984D01*
X0242800Y0106784D02*
X0236800Y0106784D01*
X0217200Y0106784D02*
X0211200Y0106784D01*
X0329000Y0102884D02*
X0335000Y0102884D01*
X0335000Y0092884D02*
X0329000Y0092884D01*
X0329000Y0082884D02*
X0335000Y0082884D01*
X0335000Y0112884D02*
X0329000Y0112884D01*
X0329000Y0137884D02*
X0335000Y0137884D01*
X0335000Y0147884D02*
X0329000Y0147884D01*
X0329000Y0157884D02*
X0335000Y0157884D01*
X0335000Y0167884D02*
X0329000Y0167884D01*
X0329000Y0192884D02*
X0335000Y0192884D01*
X0335000Y0202884D02*
X0329000Y0202884D01*
X0329000Y0212884D02*
X0335000Y0212884D01*
X0335000Y0222884D02*
X0329000Y0222884D01*
X0329000Y0242884D02*
X0335000Y0242884D01*
X0335000Y0252884D02*
X0329000Y0252884D01*
X0329000Y0262884D02*
X0335000Y0262884D01*
X0335000Y0272884D02*
X0329000Y0272884D01*
X0329000Y0282884D02*
X0335000Y0282884D01*
X0335000Y0292884D02*
X0329000Y0292884D01*
X0120000Y0292884D02*
X0114000Y0292884D01*
X0114000Y0282884D02*
X0120000Y0282884D01*
X0120000Y0272884D02*
X0114000Y0272884D01*
X0114000Y0262884D02*
X0120000Y0262884D01*
X0120000Y0252884D02*
X0114000Y0252884D01*
X0114000Y0302884D02*
X0120000Y0302884D01*
X0030000Y0292884D02*
X0024000Y0292884D01*
X0024000Y0282884D02*
X0030000Y0282884D01*
X0030000Y0237884D02*
X0024000Y0237884D01*
X0024000Y0227884D02*
X0030000Y0227884D01*
X0030000Y0217884D02*
X0024000Y0217884D01*
X0024000Y0207884D02*
X0030000Y0207884D01*
D15*
X0142000Y0212384D03*
X0142000Y0193384D03*
D16*
X0187000Y0292884D03*
D17*
X0187000Y0282884D03*
X0187000Y0272884D03*
X0187000Y0262884D03*
X0187000Y0252884D03*
X0187000Y0242884D03*
X0187000Y0232884D03*
X0187000Y0222884D03*
X0187000Y0212884D03*
X0187000Y0202884D03*
X0187000Y0192884D03*
X0187000Y0182884D03*
X0187000Y0172884D03*
X0187000Y0162884D03*
X0217000Y0162884D03*
X0217000Y0172884D03*
X0217000Y0182884D03*
X0217000Y0192884D03*
X0217000Y0202884D03*
X0217000Y0212884D03*
X0217000Y0222884D03*
X0217000Y0232884D03*
X0217000Y0242884D03*
X0217000Y0252884D03*
X0217000Y0262884D03*
X0217000Y0272884D03*
X0217000Y0282884D03*
X0217000Y0292884D03*
D18*
X0287000Y0292884D01*
X0287000Y0282884D01*
X0332000Y0282884D01*
X0332000Y0272884D02*
X0277000Y0272884D01*
X0277000Y0282884D01*
X0217000Y0282884D01*
X0217000Y0272884D02*
X0267000Y0272884D01*
X0267000Y0262884D01*
X0332000Y0262884D01*
X0319005Y0254884D02*
X0319000Y0254873D01*
X0319000Y0250895D01*
X0320247Y0247884D01*
X0319000Y0244873D01*
X0319000Y0240895D01*
X0320522Y0237220D01*
X0323335Y0234407D01*
X0327011Y0232884D01*
X0323335Y0231362D01*
X0320522Y0228549D01*
X0319000Y0224873D01*
X0319000Y0220895D01*
X0320247Y0217884D01*
X0319000Y0214873D01*
X0319000Y0210895D01*
X0319005Y0210884D01*
X0315409Y0210884D01*
X0315000Y0210715D01*
X0315000Y0254476D01*
X0314831Y0254884D01*
X0319005Y0254884D01*
X0319000Y0254697D02*
X0314908Y0254697D01*
X0315000Y0252698D02*
X0319000Y0252698D01*
X0319081Y0250700D02*
X0315000Y0250700D01*
X0315000Y0248701D02*
X0319909Y0248701D01*
X0319758Y0246703D02*
X0315000Y0246703D01*
X0315000Y0244704D02*
X0319000Y0244704D01*
X0319000Y0242706D02*
X0315000Y0242706D01*
X0315000Y0240707D02*
X0319078Y0240707D01*
X0319906Y0238709D02*
X0315000Y0238709D01*
X0315000Y0236710D02*
X0321032Y0236710D01*
X0323031Y0234712D02*
X0315000Y0234712D01*
X0315000Y0232713D02*
X0326598Y0232713D01*
X0327011Y0232884D02*
X0336989Y0232884D01*
X0327011Y0232884D01*
X0322688Y0230715D02*
X0315000Y0230715D01*
X0315000Y0228716D02*
X0320690Y0228716D01*
X0319764Y0226718D02*
X0315000Y0226718D01*
X0315000Y0224719D02*
X0319000Y0224719D01*
X0319000Y0222721D02*
X0315000Y0222721D01*
X0315000Y0220722D02*
X0319072Y0220722D01*
X0319900Y0218724D02*
X0315000Y0218724D01*
X0315000Y0216725D02*
X0319767Y0216725D01*
X0319000Y0214727D02*
X0315000Y0214727D01*
X0315000Y0212728D02*
X0319000Y0212728D01*
X0315035Y0210730D02*
X0315000Y0210730D01*
X0317000Y0202884D02*
X0332000Y0202884D01*
X0332000Y0212884D02*
X0342000Y0212884D01*
X0342000Y0157884D01*
X0342000Y0102884D01*
X0332000Y0102884D01*
X0332000Y0092884D02*
X0317000Y0092884D01*
X0317000Y0147884D01*
X0332000Y0147884D01*
X0332000Y0157884D02*
X0342000Y0157884D01*
X0317000Y0147884D02*
X0317000Y0202884D01*
X0344790Y0220388D02*
X0345000Y0220895D01*
X0345000Y0224873D01*
X0343478Y0228549D01*
X0340665Y0231362D01*
X0336989Y0232884D01*
X0340665Y0234407D01*
X0343478Y0237220D01*
X0345000Y0240895D01*
X0345000Y0244873D01*
X0343753Y0247884D01*
X0345000Y0250895D01*
X0345000Y0254873D01*
X0343753Y0257884D01*
X0345000Y0260895D01*
X0345000Y0264873D01*
X0343753Y0267884D01*
X0345000Y0270895D01*
X0345000Y0274873D01*
X0343753Y0277884D01*
X0345000Y0280895D01*
X0345000Y0284873D01*
X0343753Y0287884D01*
X0345000Y0290895D01*
X0345000Y0294873D01*
X0343478Y0298549D01*
X0340665Y0301362D01*
X0336989Y0302884D01*
X0327011Y0302884D01*
X0323335Y0301362D01*
X0322858Y0300884D01*
X0305000Y0300884D01*
X0305000Y0304476D01*
X0303782Y0307416D01*
X0301532Y0309666D01*
X0298591Y0310884D01*
X0185409Y0310884D01*
X0182468Y0309666D01*
X0180218Y0307416D01*
X0179000Y0304476D01*
X0179000Y0301384D01*
X0178501Y0300884D01*
X0129995Y0300884D01*
X0130000Y0300895D01*
X0130000Y0304873D01*
X0128478Y0308549D01*
X0125665Y0311362D01*
X0121989Y0312884D01*
X0112011Y0312884D01*
X0108335Y0311362D01*
X0105522Y0308549D01*
X0104000Y0304873D01*
X0104000Y0300895D01*
X0104005Y0300884D01*
X0036142Y0300884D01*
X0035665Y0301362D01*
X0031989Y0302884D01*
X0022011Y0302884D01*
X0018335Y0301362D01*
X0015522Y0298549D01*
X0014000Y0294873D01*
X0014000Y0290895D01*
X0015522Y0287220D01*
X0018335Y0284407D01*
X0019130Y0284077D01*
X0019123Y0284055D01*
X0019000Y0283278D01*
X0019000Y0282884D01*
X0019000Y0282491D01*
X0019123Y0281714D01*
X0019366Y0280965D01*
X0019724Y0280264D01*
X0020186Y0279627D01*
X0020743Y0279071D01*
X0021379Y0278608D01*
X0022081Y0278251D01*
X0022829Y0278007D01*
X0023606Y0277884D01*
X0027000Y0277884D01*
X0030394Y0277884D01*
X0031171Y0278007D01*
X0031919Y0278251D01*
X0032621Y0278608D01*
X0033257Y0279071D01*
X0033814Y0279627D01*
X0034276Y0280264D01*
X0034634Y0280965D01*
X0034877Y0281714D01*
X0035000Y0282491D01*
X0035000Y0282884D01*
X0027000Y0282884D01*
X0027000Y0277884D01*
X0027000Y0282884D01*
X0027000Y0282884D01*
X0027000Y0282884D01*
X0019000Y0282884D01*
X0022011Y0282884D01*
X0027000Y0282884D01*
X0027000Y0282884D01*
X0092000Y0282884D01*
X0117000Y0282884D01*
X0117000Y0282884D01*
X0121989Y0282884D01*
X0121989Y0282884D01*
X0121989Y0282884D01*
X0117000Y0282884D01*
X0167000Y0282884D01*
X0167000Y0222884D01*
X0187000Y0222884D01*
X0112000Y0222884D01*
X0112000Y0212884D01*
X0112000Y0208484D01*
X0113106Y0208484D01*
X0118106Y0203484D01*
X0125894Y0203484D01*
X0127294Y0204884D01*
X0136206Y0204884D01*
X0136675Y0204415D01*
X0140130Y0202984D01*
X0143870Y0202984D01*
X0147325Y0204415D01*
X0147794Y0204884D01*
X0154169Y0204884D01*
X0154000Y0204476D01*
X0154000Y0200884D01*
X0147794Y0200884D01*
X0147325Y0201353D01*
X0143870Y0202784D01*
X0140130Y0202784D01*
X0136675Y0201353D01*
X0136206Y0200884D01*
X0127294Y0200884D01*
X0125894Y0202284D01*
X0118106Y0202284D01*
X0113106Y0197284D01*
X0112000Y0197284D01*
X0110177Y0197284D01*
X0107600Y0194707D01*
X0107600Y0192884D01*
X0107600Y0191062D01*
X0110177Y0188484D01*
X0112000Y0188484D01*
X0113106Y0188484D01*
X0118106Y0183484D01*
X0125894Y0183484D01*
X0127294Y0184884D01*
X0137957Y0184884D01*
X0140130Y0183984D01*
X0143870Y0183984D01*
X0146043Y0184884D01*
X0163591Y0184884D01*
X0166532Y0186102D01*
X0168782Y0188353D01*
X0170000Y0191293D01*
X0170000Y0194884D01*
X0176873Y0194884D01*
X0176700Y0194240D01*
X0176700Y0191528D01*
X0177402Y0188909D01*
X0177993Y0187884D01*
X0177402Y0186860D01*
X0176700Y0184240D01*
X0176700Y0181528D01*
X0177402Y0178909D01*
X0177993Y0177884D01*
X0177402Y0176860D01*
X0176700Y0174240D01*
X0176700Y0171528D01*
X0177402Y0168909D01*
X0177993Y0167884D01*
X0177402Y0166860D01*
X0176700Y0164240D01*
X0176700Y0161528D01*
X0177402Y0158909D01*
X0178758Y0156560D01*
X0180676Y0154642D01*
X0183024Y0153286D01*
X0185644Y0152584D01*
X0188356Y0152584D01*
X0190976Y0153286D01*
X0193324Y0154642D01*
X0194000Y0155318D01*
X0194000Y0140884D01*
X0160409Y0140884D01*
X0157468Y0139666D01*
X0155218Y0137416D01*
X0154000Y0134476D01*
X0154000Y0129178D01*
X0150894Y0132284D01*
X0143106Y0132284D01*
X0137600Y0126778D01*
X0137600Y0118991D01*
X0139000Y0117591D01*
X0139000Y0116784D01*
X0129211Y0116784D01*
X0127038Y0115884D01*
X0115000Y0115884D01*
X0115000Y0117591D01*
X0116400Y0118991D01*
X0116400Y0126778D01*
X0110894Y0132284D01*
X0103106Y0132284D01*
X0097600Y0126778D01*
X0097600Y0118991D01*
X0099000Y0117591D01*
X0099000Y0109239D01*
X0098878Y0109117D01*
X0097542Y0106802D01*
X0096850Y0104221D01*
X0096850Y0101548D01*
X0097542Y0098967D01*
X0098878Y0096652D01*
X0100768Y0094762D01*
X0101850Y0094138D01*
X0101850Y0092884D01*
X0101850Y0090751D01*
X0104867Y0087734D01*
X0107000Y0087734D01*
X0109133Y0087734D01*
X0112150Y0090751D01*
X0112150Y0092884D01*
X0108896Y0092884D01*
X0108896Y0092884D01*
X0112150Y0092884D01*
X0112150Y0094138D01*
X0113232Y0094762D01*
X0115122Y0096652D01*
X0116458Y0098967D01*
X0116704Y0099884D01*
X0123958Y0099884D01*
X0125535Y0098307D01*
X0129211Y0096784D01*
X0139000Y0096784D01*
X0139000Y0093657D01*
X0138371Y0093861D01*
X0137594Y0093984D01*
X0134200Y0093984D01*
X0134200Y0088984D01*
X0134200Y0083984D01*
X0137594Y0083984D01*
X0138371Y0084107D01*
X0139000Y0084312D01*
X0139000Y0080884D01*
X0075000Y0080884D01*
X0075000Y0084312D01*
X0075629Y0084107D01*
X0076406Y0083984D01*
X0079800Y0083984D01*
X0083194Y0083984D01*
X0083971Y0084107D01*
X0084719Y0084351D01*
X0085421Y0084708D01*
X0086057Y0085171D01*
X0086614Y0085727D01*
X0087076Y0086364D01*
X0087434Y0087065D01*
X0087677Y0087814D01*
X0087800Y0088591D01*
X0087800Y0088984D01*
X0079800Y0088984D01*
X0079800Y0083984D01*
X0079800Y0088984D01*
X0079800Y0088984D01*
X0079800Y0088984D01*
X0087800Y0088984D01*
X0087800Y0089378D01*
X0087677Y0090155D01*
X0087434Y0090904D01*
X0087076Y0091605D01*
X0086614Y0092242D01*
X0086057Y0092798D01*
X0085421Y0093261D01*
X0084719Y0093618D01*
X0083971Y0093861D01*
X0083194Y0093984D01*
X0079800Y0093984D01*
X0079800Y0088984D01*
X0079800Y0093984D01*
X0076406Y0093984D01*
X0075629Y0093861D01*
X0075000Y0093657D01*
X0075000Y0096784D01*
X0084789Y0096784D01*
X0088465Y0098307D01*
X0091278Y0101120D01*
X0092800Y0104795D01*
X0092800Y0108773D01*
X0091278Y0112449D01*
X0088465Y0115262D01*
X0084789Y0116784D01*
X0075000Y0116784D01*
X0075000Y0117591D01*
X0076400Y0118991D01*
X0076400Y0126778D01*
X0070894Y0132284D01*
X0063106Y0132284D01*
X0057600Y0126778D01*
X0057600Y0118991D01*
X0059000Y0117591D01*
X0059000Y0116784D01*
X0049211Y0116784D01*
X0047038Y0115884D01*
X0035000Y0115884D01*
X0035000Y0117591D01*
X0036400Y0118991D01*
X0036400Y0126778D01*
X0030894Y0132284D01*
X0023106Y0132284D01*
X0017600Y0126778D01*
X0017600Y0118991D01*
X0019000Y0117591D01*
X0019000Y0109239D01*
X0018878Y0109117D01*
X0017542Y0106802D01*
X0016850Y0104221D01*
X0016850Y0101548D01*
X0017542Y0098967D01*
X0018878Y0096652D01*
X0020768Y0094762D01*
X0021850Y0094138D01*
X0021850Y0092884D01*
X0021850Y0090751D01*
X0024867Y0087734D01*
X0027000Y0087734D01*
X0029133Y0087734D01*
X0032150Y0090751D01*
X0032150Y0092884D01*
X0028896Y0092884D01*
X0028896Y0092884D01*
X0032150Y0092884D01*
X0032150Y0094138D01*
X0033232Y0094762D01*
X0035122Y0096652D01*
X0036458Y0098967D01*
X0036704Y0099884D01*
X0043958Y0099884D01*
X0045535Y0098307D01*
X0049211Y0096784D01*
X0059000Y0096784D01*
X0059000Y0093657D01*
X0058371Y0093861D01*
X0057594Y0093984D01*
X0054200Y0093984D01*
X0054200Y0088984D01*
X0054200Y0083984D01*
X0057594Y0083984D01*
X0058371Y0084107D01*
X0059000Y0084312D01*
X0059000Y0063178D01*
X0057600Y0061778D01*
X0057600Y0053991D01*
X0060243Y0051348D01*
X0059189Y0051784D01*
X0049211Y0051784D01*
X0047038Y0050884D01*
X0035000Y0050884D01*
X0035000Y0052591D01*
X0036400Y0053991D01*
X0036400Y0061778D01*
X0030894Y0067284D01*
X0023106Y0067284D01*
X0017600Y0061778D01*
X0017600Y0053991D01*
X0019000Y0052591D01*
X0019000Y0044239D01*
X0018878Y0044117D01*
X0017542Y0041802D01*
X0016850Y0039221D01*
X0016850Y0036548D01*
X0017542Y0033967D01*
X0018878Y0031652D01*
X0020768Y0029762D01*
X0021850Y0029138D01*
X0021850Y0027884D01*
X0021850Y0025751D01*
X0024867Y0022734D01*
X0027000Y0022734D01*
X0029133Y0022734D01*
X0032150Y0025751D01*
X0032150Y0027884D01*
X0028896Y0027884D01*
X0028896Y0027884D01*
X0032150Y0027884D01*
X0032150Y0029138D01*
X0033232Y0029762D01*
X0035122Y0031652D01*
X0036458Y0033967D01*
X0036704Y0034884D01*
X0043958Y0034884D01*
X0045535Y0033307D01*
X0049211Y0031784D01*
X0059189Y0031784D01*
X0062865Y0033307D01*
X0064442Y0034884D01*
X0069558Y0034884D01*
X0071135Y0033307D01*
X0074811Y0031784D01*
X0084789Y0031784D01*
X0088465Y0033307D01*
X0091278Y0036120D01*
X0092800Y0039795D01*
X0092800Y0043773D01*
X0091278Y0047449D01*
X0088465Y0050262D01*
X0084789Y0051784D01*
X0074811Y0051784D01*
X0073757Y0051348D01*
X0076400Y0053991D01*
X0076400Y0061778D01*
X0075000Y0063178D01*
X0075000Y0064884D01*
X0100706Y0064884D01*
X0097600Y0061778D01*
X0097600Y0053991D01*
X0099000Y0052591D01*
X0099000Y0044239D01*
X0098878Y0044117D01*
X0097542Y0041802D01*
X0096850Y0039221D01*
X0096850Y0036548D01*
X0097542Y0033967D01*
X0098878Y0031652D01*
X0100768Y0029762D01*
X0101850Y0029138D01*
X0101850Y0027884D01*
X0101850Y0025751D01*
X0104867Y0022734D01*
X0107000Y0022734D01*
X0109133Y0022734D01*
X0112150Y0025751D01*
X0112150Y0027884D01*
X0108896Y0027884D01*
X0108896Y0027884D01*
X0112150Y0027884D01*
X0112150Y0029138D01*
X0113232Y0029762D01*
X0115122Y0031652D01*
X0116458Y0033967D01*
X0116704Y0034884D01*
X0123958Y0034884D01*
X0125535Y0033307D01*
X0129211Y0031784D01*
X0139189Y0031784D01*
X0142865Y0033307D01*
X0144442Y0034884D01*
X0149558Y0034884D01*
X0151135Y0033307D01*
X0154811Y0031784D01*
X0164789Y0031784D01*
X0168465Y0033307D01*
X0171278Y0036120D01*
X0172800Y0039795D01*
X0172800Y0043773D01*
X0171278Y0047449D01*
X0168465Y0050262D01*
X0164789Y0051784D01*
X0154811Y0051784D01*
X0153757Y0051348D01*
X0156400Y0053991D01*
X0156400Y0061778D01*
X0155000Y0063178D01*
X0155000Y0064884D01*
X0180706Y0064884D01*
X0177600Y0061778D01*
X0177600Y0053991D01*
X0179000Y0052591D01*
X0179000Y0044239D01*
X0178878Y0044117D01*
X0177542Y0041802D01*
X0176850Y0039221D01*
X0176850Y0036548D01*
X0177542Y0033967D01*
X0178878Y0031652D01*
X0180768Y0029762D01*
X0181850Y0029138D01*
X0181850Y0027884D01*
X0181850Y0025751D01*
X0184867Y0022734D01*
X0187000Y0022734D01*
X0189133Y0022734D01*
X0192150Y0025751D01*
X0192150Y0027884D01*
X0188896Y0027884D01*
X0188896Y0027884D01*
X0192150Y0027884D01*
X0192150Y0029138D01*
X0193232Y0029762D01*
X0195122Y0031652D01*
X0196458Y0033967D01*
X0196704Y0034884D01*
X0203958Y0034884D01*
X0205535Y0033307D01*
X0209211Y0031784D01*
X0219189Y0031784D01*
X0222865Y0033307D01*
X0224442Y0034884D01*
X0229558Y0034884D01*
X0231135Y0033307D01*
X0234811Y0031784D01*
X0244789Y0031784D01*
X0248465Y0033307D01*
X0251278Y0036120D01*
X0252800Y0039795D01*
X0252800Y0043773D01*
X0251278Y0047449D01*
X0248465Y0050262D01*
X0244789Y0051784D01*
X0234811Y0051784D01*
X0233757Y0051348D01*
X0236400Y0053991D01*
X0236400Y0061778D01*
X0235000Y0063178D01*
X0235000Y0084312D01*
X0235629Y0084107D01*
X0236406Y0083984D01*
X0239800Y0083984D01*
X0243194Y0083984D01*
X0243971Y0084107D01*
X0244719Y0084351D01*
X0245421Y0084708D01*
X0246057Y0085171D01*
X0246614Y0085727D01*
X0247076Y0086364D01*
X0247434Y0087065D01*
X0247677Y0087814D01*
X0247800Y0088591D01*
X0247800Y0088984D01*
X0239800Y0088984D01*
X0239800Y0083984D01*
X0239800Y0088984D01*
X0239800Y0088984D01*
X0239800Y0088984D01*
X0247800Y0088984D01*
X0247800Y0089378D01*
X0247677Y0090155D01*
X0247671Y0090173D01*
X0250253Y0089103D01*
X0253747Y0089103D01*
X0256974Y0090440D01*
X0259444Y0092910D01*
X0260781Y0096138D01*
X0260781Y0099631D01*
X0260000Y0101517D01*
X0260000Y0184476D01*
X0258782Y0187416D01*
X0256532Y0189666D01*
X0253591Y0190884D01*
X0240632Y0190884D01*
X0238747Y0191665D01*
X0235253Y0191665D01*
X0235000Y0191561D01*
X0235000Y0214476D01*
X0233782Y0217416D01*
X0231532Y0219666D01*
X0228591Y0220884D01*
X0227127Y0220884D01*
X0227300Y0221528D01*
X0227300Y0224240D01*
X0226598Y0226860D01*
X0225242Y0229209D01*
X0223324Y0231126D01*
X0222191Y0231781D01*
X0222300Y0232467D01*
X0222300Y0232784D01*
X0219849Y0232784D01*
X0219476Y0232884D01*
X0219849Y0232984D01*
X0222300Y0232984D01*
X0222300Y0233301D01*
X0222191Y0233988D01*
X0223324Y0234642D01*
X0223566Y0234884D01*
X0284000Y0234884D01*
X0284000Y0186561D01*
X0283747Y0186665D01*
X0280253Y0186665D01*
X0277026Y0185329D01*
X0277000Y0185303D01*
X0276974Y0185329D01*
X0273747Y0186665D01*
X0270253Y0186665D01*
X0267026Y0185329D01*
X0264556Y0182858D01*
X0263219Y0179631D01*
X0263219Y0176138D01*
X0264000Y0174252D01*
X0264000Y0151517D01*
X0263219Y0149631D01*
X0263219Y0146138D01*
X0264556Y0142910D01*
X0267026Y0140440D01*
X0270253Y0139103D01*
X0273747Y0139103D01*
X0276974Y0140440D01*
X0277000Y0140466D01*
X0277026Y0140440D01*
X0280253Y0139103D01*
X0283747Y0139103D01*
X0284000Y0139208D01*
X0284000Y0125884D01*
X0270409Y0125884D01*
X0267468Y0124666D01*
X0265218Y0122416D01*
X0264000Y0119476D01*
X0264000Y0078178D01*
X0262600Y0076778D01*
X0262600Y0068991D01*
X0268106Y0063484D01*
X0275894Y0063484D01*
X0281400Y0068991D01*
X0281400Y0076778D01*
X0280000Y0078178D01*
X0280000Y0091591D01*
X0283106Y0088484D01*
X0290894Y0088484D01*
X0295894Y0093484D01*
X0297000Y0093484D01*
X0298823Y0093484D01*
X0301400Y0096062D01*
X0301400Y0097884D01*
X0297000Y0097884D01*
X0297000Y0093484D01*
X0297000Y0097884D01*
X0297000Y0097884D01*
X0297000Y0097884D01*
X0297000Y0032884D01*
X0297000Y0028484D01*
X0298823Y0028484D01*
X0301400Y0031062D01*
X0301400Y0032884D01*
X0297000Y0032884D01*
X0297000Y0032884D01*
X0297000Y0028484D01*
X0295894Y0028484D01*
X0290894Y0023484D01*
X0283106Y0023484D01*
X0281706Y0024884D01*
X0277294Y0024884D01*
X0275894Y0023484D01*
X0268106Y0023484D01*
X0262600Y0028991D01*
X0262600Y0036778D01*
X0268106Y0042284D01*
X0275894Y0042284D01*
X0277294Y0040884D01*
X0281706Y0040884D01*
X0283106Y0042284D01*
X0290894Y0042284D01*
X0295894Y0037284D01*
X0297000Y0037284D01*
X0298823Y0037284D01*
X0301400Y0034707D01*
X0301400Y0032884D01*
X0297000Y0032884D01*
X0297000Y0032884D01*
X0292000Y0022884D01*
X0252000Y0022884D01*
X0252000Y0087884D01*
X0237000Y0087884D01*
X0239800Y0088820D02*
X0239800Y0088820D01*
X0239800Y0086822D02*
X0239800Y0086822D01*
X0239800Y0084823D02*
X0239800Y0084823D01*
X0235000Y0082825D02*
X0264000Y0082825D01*
X0264000Y0084823D02*
X0245579Y0084823D01*
X0247310Y0086822D02*
X0264000Y0086822D01*
X0264000Y0088820D02*
X0247800Y0088820D01*
X0257353Y0090819D02*
X0264000Y0090819D01*
X0264000Y0092817D02*
X0259351Y0092817D01*
X0260234Y0094816D02*
X0264000Y0094816D01*
X0264000Y0096814D02*
X0260781Y0096814D01*
X0260781Y0098813D02*
X0264000Y0098813D01*
X0264000Y0100811D02*
X0260292Y0100811D01*
X0260000Y0102810D02*
X0264000Y0102810D01*
X0264000Y0104808D02*
X0260000Y0104808D01*
X0260000Y0106807D02*
X0264000Y0106807D01*
X0264000Y0108805D02*
X0260000Y0108805D01*
X0260000Y0110804D02*
X0264000Y0110804D01*
X0264000Y0112802D02*
X0260000Y0112802D01*
X0260000Y0114801D02*
X0264000Y0114801D01*
X0264000Y0116800D02*
X0260000Y0116800D01*
X0260000Y0118798D02*
X0264000Y0118798D01*
X0264547Y0120797D02*
X0260000Y0120797D01*
X0260000Y0122795D02*
X0265597Y0122795D01*
X0267775Y0124794D02*
X0260000Y0124794D01*
X0260000Y0126792D02*
X0284000Y0126792D01*
X0284000Y0128791D02*
X0260000Y0128791D01*
X0260000Y0130789D02*
X0284000Y0130789D01*
X0284000Y0132788D02*
X0260000Y0132788D01*
X0260000Y0134786D02*
X0284000Y0134786D01*
X0284000Y0136785D02*
X0260000Y0136785D01*
X0260000Y0138783D02*
X0284000Y0138783D01*
X0282000Y0147884D02*
X0282000Y0177884D01*
X0284000Y0186747D02*
X0259059Y0186747D01*
X0259887Y0184749D02*
X0266446Y0184749D01*
X0264511Y0182750D02*
X0260000Y0182750D01*
X0260000Y0180752D02*
X0263683Y0180752D01*
X0263219Y0178753D02*
X0260000Y0178753D01*
X0260000Y0176755D02*
X0263219Y0176755D01*
X0263791Y0174756D02*
X0260000Y0174756D01*
X0260000Y0172758D02*
X0264000Y0172758D01*
X0264000Y0170759D02*
X0260000Y0170759D01*
X0260000Y0168761D02*
X0264000Y0168761D01*
X0264000Y0166762D02*
X0260000Y0166762D01*
X0260000Y0164764D02*
X0264000Y0164764D01*
X0264000Y0162765D02*
X0260000Y0162765D01*
X0260000Y0160767D02*
X0264000Y0160767D01*
X0264000Y0158768D02*
X0260000Y0158768D01*
X0260000Y0156770D02*
X0264000Y0156770D01*
X0264000Y0154771D02*
X0260000Y0154771D01*
X0260000Y0152773D02*
X0264000Y0152773D01*
X0263692Y0150774D02*
X0260000Y0150774D01*
X0260000Y0148776D02*
X0263219Y0148776D01*
X0263219Y0146777D02*
X0260000Y0146777D01*
X0260000Y0144779D02*
X0263782Y0144779D01*
X0264686Y0142780D02*
X0260000Y0142780D01*
X0260000Y0140782D02*
X0266684Y0140782D01*
X0272000Y0147884D02*
X0272000Y0177884D01*
X0284000Y0188746D02*
X0257452Y0188746D01*
X0253929Y0190744D02*
X0284000Y0190744D01*
X0284000Y0192743D02*
X0235000Y0192743D01*
X0235000Y0194741D02*
X0284000Y0194741D01*
X0284000Y0196740D02*
X0235000Y0196740D01*
X0235000Y0198738D02*
X0284000Y0198738D01*
X0284000Y0200737D02*
X0235000Y0200737D01*
X0235000Y0202735D02*
X0284000Y0202735D01*
X0284000Y0204734D02*
X0235000Y0204734D01*
X0235000Y0206733D02*
X0284000Y0206733D01*
X0284000Y0208731D02*
X0235000Y0208731D01*
X0235000Y0210730D02*
X0284000Y0210730D01*
X0284000Y0212728D02*
X0235000Y0212728D01*
X0234896Y0214727D02*
X0284000Y0214727D01*
X0284000Y0216725D02*
X0234068Y0216725D01*
X0232474Y0218724D02*
X0284000Y0218724D01*
X0284000Y0220722D02*
X0228983Y0220722D01*
X0227300Y0222721D02*
X0284000Y0222721D01*
X0284000Y0224719D02*
X0227172Y0224719D01*
X0226636Y0226718D02*
X0284000Y0226718D01*
X0284000Y0228716D02*
X0225526Y0228716D01*
X0223736Y0230715D02*
X0284000Y0230715D01*
X0284000Y0232713D02*
X0222300Y0232713D01*
X0223394Y0234712D02*
X0284000Y0234712D01*
X0292000Y0242884D02*
X0217000Y0242884D01*
X0217000Y0252884D02*
X0307000Y0252884D01*
X0307000Y0147884D01*
X0292000Y0117884D02*
X0292000Y0242884D01*
X0337402Y0232713D02*
X0345000Y0232713D01*
X0345000Y0230715D02*
X0341312Y0230715D01*
X0343310Y0228716D02*
X0345000Y0228716D01*
X0345000Y0226718D02*
X0344236Y0226718D01*
X0345000Y0224719D02*
X0345000Y0224719D01*
X0345000Y0222721D02*
X0345000Y0222721D01*
X0345000Y0220722D02*
X0344928Y0220722D01*
X0344790Y0220388D02*
X0345000Y0220301D01*
X0345000Y0320884D01*
X0009000Y0320884D01*
X0009000Y0009884D01*
X0345000Y0009884D01*
X0345000Y0095468D01*
X0344790Y0095381D01*
X0345000Y0094873D01*
X0345000Y0090895D01*
X0343753Y0087884D01*
X0345000Y0084873D01*
X0345000Y0080895D01*
X0343478Y0077220D01*
X0340665Y0074407D01*
X0336989Y0072884D01*
X0327011Y0072884D01*
X0323335Y0074407D01*
X0320522Y0077220D01*
X0319000Y0080895D01*
X0319000Y0084873D01*
X0319005Y0084884D01*
X0315409Y0084884D01*
X0312468Y0086102D01*
X0310218Y0088353D01*
X0309000Y0091293D01*
X0309000Y0098484D01*
X0303106Y0098484D01*
X0301706Y0099884D01*
X0301223Y0099884D01*
X0301400Y0099707D01*
X0301400Y0097884D01*
X0297000Y0097884D01*
X0297000Y0096814D02*
X0297000Y0096814D01*
X0297000Y0094816D02*
X0297000Y0094816D01*
X0295227Y0092817D02*
X0309000Y0092817D01*
X0309000Y0094816D02*
X0300154Y0094816D01*
X0301400Y0096814D02*
X0309000Y0096814D01*
X0309196Y0090819D02*
X0293228Y0090819D01*
X0291230Y0088820D02*
X0310024Y0088820D01*
X0311749Y0086822D02*
X0280000Y0086822D01*
X0280000Y0088820D02*
X0282770Y0088820D01*
X0280772Y0090819D02*
X0280000Y0090819D01*
X0280000Y0084823D02*
X0319000Y0084823D01*
X0319000Y0082825D02*
X0280000Y0082825D01*
X0280000Y0080826D02*
X0319029Y0080826D01*
X0319856Y0078828D02*
X0280000Y0078828D01*
X0281349Y0076829D02*
X0320913Y0076829D01*
X0322911Y0074831D02*
X0281400Y0074831D01*
X0281400Y0072832D02*
X0345000Y0072832D01*
X0345000Y0070834D02*
X0281400Y0070834D01*
X0281244Y0068835D02*
X0345000Y0068835D01*
X0345000Y0066837D02*
X0279246Y0066837D01*
X0277247Y0064838D02*
X0345000Y0064838D01*
X0345000Y0062840D02*
X0235338Y0062840D01*
X0235000Y0064838D02*
X0266753Y0064838D01*
X0264754Y0066837D02*
X0235000Y0066837D01*
X0235000Y0068835D02*
X0262756Y0068835D01*
X0262600Y0070834D02*
X0235000Y0070834D01*
X0235000Y0072832D02*
X0262600Y0072832D01*
X0262600Y0074831D02*
X0235000Y0074831D01*
X0235000Y0076829D02*
X0262651Y0076829D01*
X0264000Y0078828D02*
X0235000Y0078828D01*
X0235000Y0080826D02*
X0264000Y0080826D01*
X0272000Y0072884D02*
X0272000Y0117884D01*
X0292000Y0117884D01*
X0287000Y0107884D02*
X0287000Y0097884D01*
X0287000Y0107884D02*
X0307000Y0107884D01*
X0302778Y0098813D02*
X0301400Y0098813D01*
X0341089Y0074831D02*
X0345000Y0074831D01*
X0345000Y0076829D02*
X0343087Y0076829D01*
X0344144Y0078828D02*
X0345000Y0078828D01*
X0344971Y0080826D02*
X0345000Y0080826D01*
X0345000Y0082825D02*
X0345000Y0082825D01*
X0345000Y0084823D02*
X0345000Y0084823D01*
X0345000Y0086822D02*
X0344193Y0086822D01*
X0344141Y0088820D02*
X0345000Y0088820D01*
X0344968Y0090819D02*
X0345000Y0090819D01*
X0345000Y0092817D02*
X0345000Y0092817D01*
X0345000Y0094816D02*
X0345000Y0094816D01*
X0345000Y0060841D02*
X0236400Y0060841D01*
X0236400Y0058843D02*
X0345000Y0058843D01*
X0345000Y0056844D02*
X0236400Y0056844D01*
X0236400Y0054846D02*
X0345000Y0054846D01*
X0345000Y0052847D02*
X0235256Y0052847D01*
X0227000Y0057884D02*
X0227000Y0072884D01*
X0147000Y0072884D01*
X0147000Y0057884D01*
X0155256Y0052847D02*
X0178744Y0052847D01*
X0179000Y0050849D02*
X0167048Y0050849D01*
X0169876Y0048850D02*
X0179000Y0048850D01*
X0179000Y0046852D02*
X0171525Y0046852D01*
X0172353Y0044853D02*
X0179000Y0044853D01*
X0178149Y0042855D02*
X0172800Y0042855D01*
X0172800Y0040856D02*
X0177288Y0040856D01*
X0176850Y0038858D02*
X0172412Y0038858D01*
X0171584Y0036859D02*
X0176850Y0036859D01*
X0177302Y0034861D02*
X0170018Y0034861D01*
X0167391Y0032862D02*
X0178179Y0032862D01*
X0179667Y0030864D02*
X0114333Y0030864D01*
X0115821Y0032862D02*
X0126609Y0032862D01*
X0123982Y0034861D02*
X0116698Y0034861D01*
X0112150Y0028865D02*
X0130053Y0028865D01*
X0130029Y0028861D02*
X0129281Y0028618D01*
X0128579Y0028261D01*
X0127943Y0027798D01*
X0127386Y0027242D01*
X0126924Y0026605D01*
X0126566Y0025904D01*
X0126323Y0025155D01*
X0126200Y0024378D01*
X0126200Y0023984D01*
X0126200Y0023591D01*
X0126323Y0022814D01*
X0126566Y0022065D01*
X0126924Y0021364D01*
X0127386Y0020727D01*
X0127943Y0020171D01*
X0128579Y0019708D01*
X0129281Y0019351D01*
X0130029Y0019107D01*
X0130806Y0018984D01*
X0134200Y0018984D01*
X0137594Y0018984D01*
X0138371Y0019107D01*
X0139119Y0019351D01*
X0139821Y0019708D01*
X0140457Y0020171D01*
X0141014Y0020727D01*
X0141476Y0021364D01*
X0141834Y0022065D01*
X0142077Y0022814D01*
X0142200Y0023591D01*
X0142200Y0023984D01*
X0134200Y0023984D01*
X0134200Y0018984D01*
X0134200Y0023984D01*
X0134200Y0023984D01*
X0126200Y0023984D01*
X0134200Y0023984D01*
X0134200Y0023984D01*
X0134200Y0023984D01*
X0142200Y0023984D01*
X0142200Y0024378D01*
X0142077Y0025155D01*
X0141834Y0025904D01*
X0141476Y0026605D01*
X0141014Y0027242D01*
X0140457Y0027798D01*
X0139821Y0028261D01*
X0139119Y0028618D01*
X0138371Y0028861D01*
X0137594Y0028984D01*
X0134200Y0028984D01*
X0134200Y0023984D01*
X0134200Y0028984D01*
X0130806Y0028984D01*
X0130029Y0028861D01*
X0127114Y0026866D02*
X0112150Y0026866D01*
X0111267Y0024868D02*
X0126278Y0024868D01*
X0126314Y0022869D02*
X0109268Y0022869D01*
X0107000Y0022869D02*
X0107000Y0022869D01*
X0107000Y0022884D02*
X0107000Y0027884D01*
X0107000Y0027734D02*
X0107000Y0022734D01*
X0107000Y0027734D01*
X0107000Y0027734D01*
X0107000Y0026866D02*
X0107000Y0026866D01*
X0107000Y0024868D02*
X0107000Y0024868D01*
X0104732Y0022869D02*
X0087686Y0022869D01*
X0087677Y0022814D02*
X0087800Y0023591D01*
X0087800Y0023984D01*
X0079800Y0023984D01*
X0079800Y0018984D01*
X0083194Y0018984D01*
X0083971Y0019107D01*
X0084719Y0019351D01*
X0085421Y0019708D01*
X0086057Y0020171D01*
X0086614Y0020727D01*
X0087076Y0021364D01*
X0087434Y0022065D01*
X0087677Y0022814D01*
X0087800Y0023984D02*
X0087800Y0024378D01*
X0087677Y0025155D01*
X0087434Y0025904D01*
X0087076Y0026605D01*
X0086614Y0027242D01*
X0086057Y0027798D01*
X0085421Y0028261D01*
X0084719Y0028618D01*
X0083971Y0028861D01*
X0083194Y0028984D01*
X0079800Y0028984D01*
X0079800Y0023984D01*
X0079800Y0023984D01*
X0079800Y0018984D01*
X0076406Y0018984D01*
X0075629Y0019107D01*
X0074881Y0019351D01*
X0074179Y0019708D01*
X0073543Y0020171D01*
X0072986Y0020727D01*
X0072524Y0021364D01*
X0072166Y0022065D01*
X0071923Y0022814D01*
X0071800Y0023591D01*
X0071800Y0023984D01*
X0079800Y0023984D01*
X0079800Y0023984D01*
X0079800Y0023984D01*
X0071800Y0023984D01*
X0071800Y0024378D01*
X0071923Y0025155D01*
X0072166Y0025904D01*
X0072524Y0026605D01*
X0072986Y0027242D01*
X0073543Y0027798D01*
X0074179Y0028261D01*
X0074881Y0028618D01*
X0075629Y0028861D01*
X0076406Y0028984D01*
X0079800Y0028984D01*
X0079800Y0023984D01*
X0087800Y0023984D01*
X0087722Y0024868D02*
X0102733Y0024868D01*
X0101850Y0026866D02*
X0086886Y0026866D01*
X0083947Y0028865D02*
X0101850Y0028865D01*
X0101850Y0027884D02*
X0105104Y0027884D01*
X0101850Y0027884D01*
X0105104Y0027884D02*
X0105104Y0027884D01*
X0099667Y0030864D02*
X0034333Y0030864D01*
X0035821Y0032862D02*
X0046609Y0032862D01*
X0043982Y0034861D02*
X0036698Y0034861D01*
X0032150Y0028865D02*
X0050053Y0028865D01*
X0050029Y0028861D02*
X0049281Y0028618D01*
X0048579Y0028261D01*
X0047943Y0027798D01*
X0047386Y0027242D01*
X0046924Y0026605D01*
X0046566Y0025904D01*
X0046323Y0025155D01*
X0046200Y0024378D01*
X0046200Y0023984D01*
X0046200Y0023591D01*
X0046323Y0022814D01*
X0046566Y0022065D01*
X0046924Y0021364D01*
X0047386Y0020727D01*
X0047943Y0020171D01*
X0048579Y0019708D01*
X0049281Y0019351D01*
X0050029Y0019107D01*
X0050806Y0018984D01*
X0054200Y0018984D01*
X0057594Y0018984D01*
X0058371Y0019107D01*
X0059119Y0019351D01*
X0059821Y0019708D01*
X0060457Y0020171D01*
X0061014Y0020727D01*
X0061476Y0021364D01*
X0061834Y0022065D01*
X0062077Y0022814D01*
X0062200Y0023591D01*
X0062200Y0023984D01*
X0054200Y0023984D01*
X0054200Y0018984D01*
X0054200Y0023984D01*
X0054200Y0023984D01*
X0046200Y0023984D01*
X0054200Y0023984D01*
X0054200Y0023984D01*
X0054200Y0023984D01*
X0062200Y0023984D01*
X0062200Y0024378D01*
X0062077Y0025155D01*
X0061834Y0025904D01*
X0061476Y0026605D01*
X0061014Y0027242D01*
X0060457Y0027798D01*
X0059821Y0028261D01*
X0059119Y0028618D01*
X0058371Y0028861D01*
X0057594Y0028984D01*
X0054200Y0028984D01*
X0054200Y0023984D01*
X0054200Y0028984D01*
X0050806Y0028984D01*
X0050029Y0028861D01*
X0047114Y0026866D02*
X0032150Y0026866D01*
X0031267Y0024868D02*
X0046278Y0024868D01*
X0046314Y0022869D02*
X0029268Y0022869D01*
X0027000Y0022869D02*
X0027000Y0022869D01*
X0027000Y0022884D02*
X0027000Y0027884D01*
X0027000Y0027734D02*
X0027000Y0022734D01*
X0027000Y0027734D01*
X0027000Y0027734D01*
X0027000Y0026866D02*
X0027000Y0026866D01*
X0027000Y0024868D02*
X0027000Y0024868D01*
X0024732Y0022869D02*
X0009000Y0022869D01*
X0009000Y0020871D02*
X0047282Y0020871D01*
X0054200Y0020871D02*
X0054200Y0020871D01*
X0054200Y0022869D02*
X0054200Y0022869D01*
X0054200Y0023984D02*
X0054200Y0023984D01*
X0054200Y0024868D02*
X0054200Y0024868D01*
X0054200Y0026866D02*
X0054200Y0026866D01*
X0054200Y0028865D02*
X0054200Y0028865D01*
X0058347Y0028865D02*
X0075653Y0028865D01*
X0072714Y0026866D02*
X0061286Y0026866D01*
X0062122Y0024868D02*
X0071878Y0024868D01*
X0071914Y0022869D02*
X0062086Y0022869D01*
X0061118Y0020871D02*
X0072882Y0020871D01*
X0079800Y0020871D02*
X0079800Y0020871D01*
X0079800Y0022869D02*
X0079800Y0022869D01*
X0079800Y0023984D02*
X0079800Y0023984D01*
X0079800Y0024868D02*
X0079800Y0024868D01*
X0079800Y0026866D02*
X0079800Y0026866D01*
X0079800Y0028865D02*
X0079800Y0028865D01*
X0087391Y0032862D02*
X0098179Y0032862D01*
X0097302Y0034861D02*
X0090018Y0034861D01*
X0091584Y0036859D02*
X0096850Y0036859D01*
X0096850Y0038858D02*
X0092412Y0038858D01*
X0092800Y0040856D02*
X0097288Y0040856D01*
X0098149Y0042855D02*
X0092800Y0042855D01*
X0092353Y0044853D02*
X0099000Y0044853D01*
X0099000Y0046852D02*
X0091525Y0046852D01*
X0089876Y0048850D02*
X0099000Y0048850D01*
X0099000Y0050849D02*
X0087048Y0050849D01*
X0082000Y0042884D02*
X0027000Y0042884D01*
X0027000Y0037884D01*
X0027000Y0057884D01*
X0020660Y0064838D02*
X0009000Y0064838D01*
X0009000Y0062840D02*
X0018662Y0062840D01*
X0017600Y0060841D02*
X0009000Y0060841D01*
X0009000Y0058843D02*
X0017600Y0058843D01*
X0017600Y0056844D02*
X0009000Y0056844D01*
X0009000Y0054846D02*
X0017600Y0054846D01*
X0018744Y0052847D02*
X0009000Y0052847D01*
X0009000Y0050849D02*
X0019000Y0050849D01*
X0019000Y0048850D02*
X0009000Y0048850D01*
X0009000Y0046852D02*
X0019000Y0046852D01*
X0019000Y0044853D02*
X0009000Y0044853D01*
X0009000Y0042855D02*
X0018149Y0042855D01*
X0017288Y0040856D02*
X0009000Y0040856D01*
X0009000Y0038858D02*
X0016850Y0038858D01*
X0016850Y0036859D02*
X0009000Y0036859D01*
X0009000Y0034861D02*
X0017302Y0034861D01*
X0018179Y0032862D02*
X0009000Y0032862D01*
X0009000Y0030864D02*
X0019667Y0030864D01*
X0021850Y0028865D02*
X0009000Y0028865D01*
X0009000Y0026866D02*
X0021850Y0026866D01*
X0021850Y0027884D02*
X0025104Y0027884D01*
X0025104Y0027884D01*
X0021850Y0027884D01*
X0022733Y0024868D02*
X0009000Y0024868D01*
X0009000Y0018872D02*
X0345000Y0018872D01*
X0345000Y0016874D02*
X0009000Y0016874D01*
X0009000Y0014875D02*
X0345000Y0014875D01*
X0345000Y0012877D02*
X0009000Y0012877D01*
X0009000Y0010878D02*
X0345000Y0010878D01*
X0345000Y0020871D02*
X0246718Y0020871D01*
X0246614Y0020727D02*
X0247076Y0021364D01*
X0247434Y0022065D01*
X0247677Y0022814D01*
X0247800Y0023591D01*
X0247800Y0023984D01*
X0239800Y0023984D01*
X0239800Y0018984D01*
X0243194Y0018984D01*
X0243971Y0019107D01*
X0244719Y0019351D01*
X0245421Y0019708D01*
X0246057Y0020171D01*
X0246614Y0020727D01*
X0247686Y0022869D02*
X0345000Y0022869D01*
X0345000Y0024868D02*
X0292277Y0024868D01*
X0294276Y0026866D02*
X0345000Y0026866D01*
X0345000Y0028865D02*
X0299203Y0028865D01*
X0297000Y0028865D02*
X0297000Y0028865D01*
X0297000Y0030864D02*
X0297000Y0030864D01*
X0297000Y0032862D02*
X0297000Y0032862D01*
X0297000Y0032884D02*
X0297000Y0037284D01*
X0297000Y0032884D01*
X0297000Y0032884D01*
X0297000Y0034861D02*
X0297000Y0034861D01*
X0297000Y0036859D02*
X0297000Y0036859D01*
X0299248Y0036859D02*
X0345000Y0036859D01*
X0345000Y0034861D02*
X0301246Y0034861D01*
X0301400Y0032862D02*
X0345000Y0032862D01*
X0345000Y0030864D02*
X0301202Y0030864D01*
X0294320Y0038858D02*
X0345000Y0038858D01*
X0345000Y0040856D02*
X0292322Y0040856D01*
X0287000Y0032884D02*
X0272000Y0032884D01*
X0262600Y0032862D02*
X0247391Y0032862D01*
X0250018Y0034861D02*
X0262600Y0034861D01*
X0262681Y0036859D02*
X0251584Y0036859D01*
X0252412Y0038858D02*
X0264680Y0038858D01*
X0266678Y0040856D02*
X0252800Y0040856D01*
X0252800Y0042855D02*
X0345000Y0042855D01*
X0345000Y0044853D02*
X0252353Y0044853D01*
X0251525Y0046852D02*
X0345000Y0046852D01*
X0345000Y0048850D02*
X0249876Y0048850D01*
X0247048Y0050849D02*
X0345000Y0050849D01*
X0281723Y0024868D02*
X0277277Y0024868D01*
X0266723Y0024868D02*
X0247722Y0024868D01*
X0247677Y0025155D02*
X0247434Y0025904D01*
X0247076Y0026605D01*
X0246614Y0027242D01*
X0246057Y0027798D01*
X0245421Y0028261D01*
X0244719Y0028618D01*
X0243971Y0028861D01*
X0243194Y0028984D01*
X0239800Y0028984D01*
X0239800Y0023984D01*
X0239800Y0023984D01*
X0239800Y0018984D01*
X0236406Y0018984D01*
X0235629Y0019107D01*
X0234881Y0019351D01*
X0234179Y0019708D01*
X0233543Y0020171D01*
X0232986Y0020727D01*
X0232524Y0021364D01*
X0232166Y0022065D01*
X0231923Y0022814D01*
X0231800Y0023591D01*
X0231800Y0023984D01*
X0239800Y0023984D01*
X0239800Y0023984D01*
X0239800Y0023984D01*
X0231800Y0023984D01*
X0231800Y0024378D01*
X0231923Y0025155D01*
X0232166Y0025904D01*
X0232524Y0026605D01*
X0232986Y0027242D01*
X0233543Y0027798D01*
X0234179Y0028261D01*
X0234881Y0028618D01*
X0235629Y0028861D01*
X0236406Y0028984D01*
X0239800Y0028984D01*
X0239800Y0023984D01*
X0247800Y0023984D01*
X0247800Y0024378D01*
X0247677Y0025155D01*
X0246886Y0026866D02*
X0264724Y0026866D01*
X0262726Y0028865D02*
X0243947Y0028865D01*
X0239800Y0028865D02*
X0239800Y0028865D01*
X0239800Y0026866D02*
X0239800Y0026866D01*
X0239800Y0024868D02*
X0239800Y0024868D01*
X0239800Y0023984D02*
X0239800Y0023984D01*
X0239800Y0022869D02*
X0239800Y0022869D01*
X0239800Y0020871D02*
X0239800Y0020871D01*
X0237000Y0022884D02*
X0252000Y0022884D01*
X0262600Y0030864D02*
X0194333Y0030864D01*
X0195821Y0032862D02*
X0206609Y0032862D01*
X0203982Y0034861D02*
X0196698Y0034861D01*
X0192150Y0028865D02*
X0210053Y0028865D01*
X0210029Y0028861D02*
X0209281Y0028618D01*
X0208579Y0028261D01*
X0207943Y0027798D01*
X0207386Y0027242D01*
X0206924Y0026605D01*
X0206566Y0025904D01*
X0206323Y0025155D01*
X0206200Y0024378D01*
X0206200Y0023984D01*
X0206200Y0023591D01*
X0206323Y0022814D01*
X0206566Y0022065D01*
X0206924Y0021364D01*
X0207386Y0020727D01*
X0207943Y0020171D01*
X0208579Y0019708D01*
X0209281Y0019351D01*
X0210029Y0019107D01*
X0210806Y0018984D01*
X0214200Y0018984D01*
X0217594Y0018984D01*
X0218371Y0019107D01*
X0219119Y0019351D01*
X0219821Y0019708D01*
X0220457Y0020171D01*
X0221014Y0020727D01*
X0221476Y0021364D01*
X0221834Y0022065D01*
X0222077Y0022814D01*
X0222200Y0023591D01*
X0222200Y0023984D01*
X0214200Y0023984D01*
X0214200Y0018984D01*
X0214200Y0023984D01*
X0214200Y0023984D01*
X0206200Y0023984D01*
X0214200Y0023984D01*
X0214200Y0023984D01*
X0214200Y0023984D01*
X0222200Y0023984D01*
X0222200Y0024378D01*
X0222077Y0025155D01*
X0221834Y0025904D01*
X0221476Y0026605D01*
X0221014Y0027242D01*
X0220457Y0027798D01*
X0219821Y0028261D01*
X0219119Y0028618D01*
X0218371Y0028861D01*
X0217594Y0028984D01*
X0214200Y0028984D01*
X0214200Y0023984D01*
X0214200Y0028984D01*
X0210806Y0028984D01*
X0210029Y0028861D01*
X0207114Y0026866D02*
X0192150Y0026866D01*
X0191267Y0024868D02*
X0206278Y0024868D01*
X0206314Y0022869D02*
X0189268Y0022869D01*
X0187000Y0022869D02*
X0187000Y0022869D01*
X0187000Y0022884D02*
X0187000Y0027884D01*
X0187000Y0027734D02*
X0187000Y0022734D01*
X0187000Y0027734D01*
X0187000Y0027734D01*
X0187000Y0026866D02*
X0187000Y0026866D01*
X0187000Y0024868D02*
X0187000Y0024868D01*
X0187000Y0022884D02*
X0162000Y0022884D01*
X0159800Y0022869D02*
X0159800Y0022869D01*
X0159800Y0023984D02*
X0159800Y0018984D01*
X0163194Y0018984D01*
X0163971Y0019107D01*
X0164719Y0019351D01*
X0165421Y0019708D01*
X0166057Y0020171D01*
X0166614Y0020727D01*
X0167076Y0021364D01*
X0167434Y0022065D01*
X0167677Y0022814D01*
X0167800Y0023591D01*
X0167800Y0023984D01*
X0159800Y0023984D01*
X0159800Y0023984D01*
X0159800Y0018984D01*
X0156406Y0018984D01*
X0155629Y0019107D01*
X0154881Y0019351D01*
X0154179Y0019708D01*
X0153543Y0020171D01*
X0152986Y0020727D01*
X0152524Y0021364D01*
X0152166Y0022065D01*
X0151923Y0022814D01*
X0151800Y0023591D01*
X0151800Y0023984D01*
X0159800Y0023984D01*
X0159800Y0023984D01*
X0159800Y0023984D01*
X0151800Y0023984D01*
X0151800Y0024378D01*
X0151923Y0025155D01*
X0152166Y0025904D01*
X0152524Y0026605D01*
X0152986Y0027242D01*
X0153543Y0027798D01*
X0154179Y0028261D01*
X0154881Y0028618D01*
X0155629Y0028861D01*
X0156406Y0028984D01*
X0159800Y0028984D01*
X0159800Y0023984D01*
X0167800Y0023984D01*
X0167800Y0024378D01*
X0167677Y0025155D01*
X0167434Y0025904D01*
X0167076Y0026605D01*
X0166614Y0027242D01*
X0166057Y0027798D01*
X0165421Y0028261D01*
X0164719Y0028618D01*
X0163971Y0028861D01*
X0163194Y0028984D01*
X0159800Y0028984D01*
X0159800Y0023984D01*
X0159800Y0023984D01*
X0159800Y0024868D02*
X0159800Y0024868D01*
X0159800Y0026866D02*
X0159800Y0026866D01*
X0159800Y0028865D02*
X0159800Y0028865D01*
X0163947Y0028865D02*
X0181850Y0028865D01*
X0181850Y0027884D02*
X0185104Y0027884D01*
X0181850Y0027884D01*
X0181850Y0026866D02*
X0166886Y0026866D01*
X0167722Y0024868D02*
X0182733Y0024868D01*
X0184732Y0022869D02*
X0167686Y0022869D01*
X0166718Y0020871D02*
X0207282Y0020871D01*
X0214200Y0020871D02*
X0214200Y0020871D01*
X0214200Y0022869D02*
X0214200Y0022869D01*
X0214200Y0023984D02*
X0214200Y0023984D01*
X0214200Y0024868D02*
X0214200Y0024868D01*
X0214200Y0026866D02*
X0214200Y0026866D01*
X0214200Y0028865D02*
X0214200Y0028865D01*
X0218347Y0028865D02*
X0235653Y0028865D01*
X0232714Y0026866D02*
X0221286Y0026866D01*
X0222122Y0024868D02*
X0231878Y0024868D01*
X0231914Y0022869D02*
X0222086Y0022869D01*
X0221118Y0020871D02*
X0232882Y0020871D01*
X0232209Y0032862D02*
X0221791Y0032862D01*
X0224418Y0034861D02*
X0229582Y0034861D01*
X0242000Y0042884D02*
X0187000Y0042884D01*
X0187000Y0037884D01*
X0187000Y0057884D01*
X0180660Y0064838D02*
X0155000Y0064838D01*
X0155338Y0062840D02*
X0178662Y0062840D01*
X0177600Y0060841D02*
X0156400Y0060841D01*
X0156400Y0058843D02*
X0177600Y0058843D01*
X0177600Y0056844D02*
X0156400Y0056844D01*
X0156400Y0054846D02*
X0177600Y0054846D01*
X0162000Y0042884D02*
X0107000Y0042884D01*
X0107000Y0037884D01*
X0107000Y0057884D01*
X0100660Y0064838D02*
X0075000Y0064838D01*
X0075338Y0062840D02*
X0098662Y0062840D01*
X0097600Y0060841D02*
X0076400Y0060841D01*
X0076400Y0058843D02*
X0097600Y0058843D01*
X0097600Y0056844D02*
X0076400Y0056844D01*
X0076400Y0054846D02*
X0097600Y0054846D01*
X0098744Y0052847D02*
X0075256Y0052847D01*
X0067000Y0057884D02*
X0067000Y0072884D01*
X0147000Y0072884D01*
X0147000Y0122884D01*
X0139613Y0128791D02*
X0114387Y0128791D01*
X0112389Y0130789D02*
X0141611Y0130789D01*
X0137614Y0126792D02*
X0116386Y0126792D01*
X0116400Y0124794D02*
X0137600Y0124794D01*
X0137600Y0122795D02*
X0116400Y0122795D01*
X0116400Y0120797D02*
X0137600Y0120797D01*
X0137793Y0118798D02*
X0116207Y0118798D01*
X0115000Y0116800D02*
X0139000Y0116800D01*
X0137000Y0107884D02*
X0107000Y0107884D01*
X0107000Y0102884D01*
X0107000Y0122884D01*
X0099613Y0128791D02*
X0074387Y0128791D01*
X0072389Y0130789D02*
X0101611Y0130789D01*
X0097614Y0126792D02*
X0076386Y0126792D01*
X0076400Y0124794D02*
X0097600Y0124794D01*
X0097600Y0122795D02*
X0076400Y0122795D01*
X0076400Y0120797D02*
X0097600Y0120797D01*
X0097793Y0118798D02*
X0076207Y0118798D01*
X0075000Y0116800D02*
X0099000Y0116800D01*
X0099000Y0114801D02*
X0088925Y0114801D01*
X0090924Y0112802D02*
X0099000Y0112802D01*
X0099000Y0110804D02*
X0091959Y0110804D01*
X0092787Y0108805D02*
X0098698Y0108805D01*
X0097545Y0106807D02*
X0092800Y0106807D01*
X0092800Y0104808D02*
X0097008Y0104808D01*
X0096850Y0102810D02*
X0091978Y0102810D01*
X0090969Y0100811D02*
X0097047Y0100811D01*
X0097630Y0098813D02*
X0088971Y0098813D01*
X0086031Y0092817D02*
X0101850Y0092817D01*
X0101850Y0092884D02*
X0105104Y0092884D01*
X0105104Y0092884D01*
X0101850Y0092884D01*
X0101850Y0090819D02*
X0087461Y0090819D01*
X0087800Y0088820D02*
X0103781Y0088820D01*
X0107000Y0088820D02*
X0107000Y0088820D01*
X0107000Y0087884D02*
X0107000Y0092884D01*
X0107000Y0092734D02*
X0107000Y0087734D01*
X0107000Y0092734D01*
X0107000Y0092734D01*
X0107000Y0090819D02*
X0107000Y0090819D01*
X0107000Y0087884D02*
X0092000Y0087884D01*
X0092000Y0282884D01*
X0104748Y0276680D02*
X0009000Y0276680D01*
X0009000Y0274682D02*
X0104000Y0274682D01*
X0104000Y0274873D02*
X0104000Y0270895D01*
X0105247Y0267884D01*
X0104000Y0264873D01*
X0104000Y0260895D01*
X0105247Y0257884D01*
X0104000Y0254873D01*
X0104000Y0250895D01*
X0105522Y0247220D01*
X0108335Y0244407D01*
X0112011Y0242884D01*
X0121989Y0242884D01*
X0125665Y0244407D01*
X0128478Y0247220D01*
X0130000Y0250895D01*
X0130000Y0254873D01*
X0128753Y0257884D01*
X0130000Y0260895D01*
X0130000Y0264873D01*
X0128753Y0267884D01*
X0130000Y0270895D01*
X0130000Y0274873D01*
X0128478Y0278549D01*
X0125665Y0281362D01*
X0124870Y0281691D01*
X0124877Y0281714D01*
X0125000Y0282491D01*
X0125000Y0282884D01*
X0121989Y0282884D01*
X0125000Y0282884D01*
X0125000Y0283278D01*
X0124877Y0284055D01*
X0124870Y0284078D01*
X0125665Y0284407D01*
X0126142Y0284884D01*
X0169000Y0284884D01*
X0169000Y0231293D01*
X0170218Y0228353D01*
X0172468Y0226102D01*
X0175409Y0224884D01*
X0180434Y0224884D01*
X0180676Y0224642D01*
X0181809Y0223988D01*
X0181700Y0223301D01*
X0181700Y0222984D01*
X0184151Y0222984D01*
X0184524Y0222884D01*
X0184151Y0222784D01*
X0181700Y0222784D01*
X0181700Y0222467D01*
X0181809Y0221781D01*
X0180676Y0221126D01*
X0180434Y0220884D01*
X0146043Y0220884D01*
X0143870Y0221784D01*
X0140130Y0221784D01*
X0137957Y0220884D01*
X0127294Y0220884D01*
X0125894Y0222284D01*
X0118106Y0222284D01*
X0113106Y0217284D01*
X0112000Y0217284D01*
X0110177Y0217284D01*
X0107600Y0214707D01*
X0107600Y0212884D01*
X0107600Y0211062D01*
X0110177Y0208484D01*
X0112000Y0208484D01*
X0112000Y0212884D01*
X0112000Y0212884D01*
X0107600Y0212884D01*
X0112000Y0212884D01*
X0112000Y0212884D01*
X0112000Y0192884D01*
X0112000Y0188484D01*
X0112000Y0192884D01*
X0112000Y0192884D01*
X0107600Y0192884D01*
X0112000Y0192884D01*
X0112000Y0192884D01*
X0112000Y0197284D01*
X0112000Y0192884D01*
X0112000Y0192884D01*
X0112000Y0192743D02*
X0112000Y0192743D01*
X0112000Y0194741D02*
X0112000Y0194741D01*
X0112000Y0196740D02*
X0112000Y0196740D01*
X0109633Y0196740D02*
X0009000Y0196740D01*
X0009000Y0198738D02*
X0019949Y0198738D01*
X0018335Y0199407D02*
X0022011Y0197884D01*
X0031989Y0197884D01*
X0035665Y0199407D01*
X0038478Y0202220D01*
X0040000Y0205895D01*
X0040000Y0209873D01*
X0038753Y0212884D01*
X0040000Y0215895D01*
X0040000Y0219873D01*
X0038753Y0222884D01*
X0040000Y0225895D01*
X0040000Y0229873D01*
X0038753Y0232884D01*
X0040000Y0235895D01*
X0040000Y0239873D01*
X0038478Y0243549D01*
X0035665Y0246362D01*
X0031989Y0247884D01*
X0022011Y0247884D01*
X0018335Y0246362D01*
X0015522Y0243549D01*
X0014000Y0239873D01*
X0014000Y0235895D01*
X0015247Y0232884D01*
X0014000Y0229873D01*
X0014000Y0225895D01*
X0015247Y0222884D01*
X0014000Y0219873D01*
X0014000Y0215895D01*
X0015247Y0212884D01*
X0014000Y0209873D01*
X0014000Y0205895D01*
X0015522Y0202220D01*
X0018335Y0199407D01*
X0017005Y0200737D02*
X0009000Y0200737D01*
X0009000Y0202735D02*
X0015309Y0202735D01*
X0014481Y0204734D02*
X0009000Y0204734D01*
X0009000Y0206733D02*
X0014000Y0206733D01*
X0014000Y0208731D02*
X0009000Y0208731D01*
X0009000Y0210730D02*
X0014355Y0210730D01*
X0015182Y0212728D02*
X0009000Y0212728D01*
X0009000Y0214727D02*
X0014484Y0214727D01*
X0014000Y0216725D02*
X0009000Y0216725D01*
X0009000Y0218724D02*
X0014000Y0218724D01*
X0014352Y0220722D02*
X0009000Y0220722D01*
X0009000Y0222721D02*
X0015179Y0222721D01*
X0014487Y0224719D02*
X0009000Y0224719D01*
X0009000Y0226718D02*
X0014000Y0226718D01*
X0014000Y0228716D02*
X0009000Y0228716D01*
X0009000Y0230715D02*
X0014348Y0230715D01*
X0015176Y0232713D02*
X0009000Y0232713D01*
X0009000Y0234712D02*
X0014490Y0234712D01*
X0014000Y0236710D02*
X0009000Y0236710D01*
X0009000Y0238709D02*
X0014000Y0238709D01*
X0014345Y0240707D02*
X0009000Y0240707D01*
X0009000Y0242706D02*
X0015173Y0242706D01*
X0016678Y0244704D02*
X0009000Y0244704D01*
X0009000Y0246703D02*
X0019158Y0246703D01*
X0009000Y0248701D02*
X0104909Y0248701D01*
X0104081Y0250700D02*
X0009000Y0250700D01*
X0009000Y0252698D02*
X0104000Y0252698D01*
X0104000Y0254697D02*
X0009000Y0254697D01*
X0009000Y0256695D02*
X0104755Y0256695D01*
X0104912Y0258694D02*
X0009000Y0258694D01*
X0009000Y0260692D02*
X0104084Y0260692D01*
X0104000Y0262691D02*
X0009000Y0262691D01*
X0009000Y0264689D02*
X0104000Y0264689D01*
X0104752Y0266688D02*
X0009000Y0266688D01*
X0009000Y0268686D02*
X0104915Y0268686D01*
X0104087Y0270685D02*
X0009000Y0270685D01*
X0009000Y0272683D02*
X0104000Y0272683D01*
X0104000Y0274873D02*
X0105522Y0278549D01*
X0108335Y0281362D01*
X0109130Y0281691D01*
X0109123Y0281714D01*
X0109000Y0282491D01*
X0109000Y0282884D01*
X0112011Y0282884D01*
X0112011Y0282884D01*
X0117000Y0282884D01*
X0117000Y0282884D01*
X0112011Y0282884D01*
X0112011Y0282884D01*
X0109000Y0282884D01*
X0109000Y0283278D01*
X0109123Y0284055D01*
X0109130Y0284078D01*
X0108335Y0284407D01*
X0107858Y0284884D01*
X0036142Y0284884D01*
X0035665Y0284407D01*
X0034870Y0284077D01*
X0034877Y0284055D01*
X0035000Y0283278D01*
X0035000Y0282884D01*
X0031989Y0282884D01*
X0031989Y0282884D01*
X0027000Y0282884D01*
X0027000Y0282676D02*
X0027000Y0282676D01*
X0027000Y0280677D02*
X0027000Y0280677D01*
X0027000Y0278679D02*
X0027000Y0278679D01*
X0021282Y0278679D02*
X0009000Y0278679D01*
X0009000Y0280677D02*
X0019513Y0280677D01*
X0019000Y0282676D02*
X0009000Y0282676D01*
X0009000Y0284674D02*
X0018068Y0284674D01*
X0016069Y0286673D02*
X0009000Y0286673D01*
X0009000Y0288671D02*
X0014921Y0288671D01*
X0014093Y0290670D02*
X0009000Y0290670D01*
X0009000Y0292669D02*
X0014000Y0292669D01*
X0014000Y0294667D02*
X0009000Y0294667D01*
X0009000Y0296666D02*
X0014742Y0296666D01*
X0015638Y0298664D02*
X0009000Y0298664D01*
X0009000Y0300663D02*
X0017636Y0300663D01*
X0021472Y0302661D02*
X0009000Y0302661D01*
X0009000Y0304660D02*
X0104000Y0304660D01*
X0104000Y0302661D02*
X0032528Y0302661D01*
X0027000Y0292884D02*
X0117000Y0292884D01*
X0177000Y0292884D01*
X0177000Y0232884D01*
X0187000Y0232884D01*
X0202000Y0232884D01*
X0202000Y0212884D01*
X0217000Y0212884D01*
X0227000Y0212884D01*
X0227000Y0122884D01*
X0227000Y0057884D01*
X0219000Y0080884D02*
X0155000Y0080884D01*
X0155000Y0084312D01*
X0155629Y0084107D01*
X0156406Y0083984D01*
X0159800Y0083984D01*
X0163194Y0083984D01*
X0163971Y0084107D01*
X0164719Y0084351D01*
X0165421Y0084708D01*
X0166057Y0085171D01*
X0166614Y0085727D01*
X0167076Y0086364D01*
X0167434Y0087065D01*
X0167677Y0087814D01*
X0167800Y0088591D01*
X0167800Y0088984D01*
X0159800Y0088984D01*
X0159800Y0083984D01*
X0159800Y0088984D01*
X0159800Y0088984D01*
X0159800Y0088984D01*
X0167800Y0088984D01*
X0167800Y0089378D01*
X0167677Y0090155D01*
X0167434Y0090904D01*
X0167076Y0091605D01*
X0166614Y0092242D01*
X0166057Y0092798D01*
X0165421Y0093261D01*
X0164719Y0093618D01*
X0163971Y0093861D01*
X0163194Y0093984D01*
X0159800Y0093984D01*
X0159800Y0088984D01*
X0159800Y0093984D01*
X0156406Y0093984D01*
X0155629Y0093861D01*
X0155000Y0093657D01*
X0155000Y0096784D01*
X0164789Y0096784D01*
X0168465Y0098307D01*
X0171278Y0101120D01*
X0172800Y0104795D01*
X0172800Y0108773D01*
X0171278Y0112449D01*
X0170000Y0113727D01*
X0170000Y0124884D01*
X0177600Y0124884D01*
X0177600Y0118991D01*
X0179000Y0117591D01*
X0179000Y0109239D01*
X0178878Y0109117D01*
X0177542Y0106802D01*
X0176850Y0104221D01*
X0176850Y0101548D01*
X0177542Y0098967D01*
X0178878Y0096652D01*
X0180768Y0094762D01*
X0181850Y0094137D01*
X0181850Y0092884D01*
X0181850Y0090751D01*
X0184867Y0087734D01*
X0187000Y0087734D01*
X0189133Y0087734D01*
X0192150Y0090751D01*
X0192150Y0092884D01*
X0188896Y0092884D01*
X0188896Y0092884D01*
X0192150Y0092884D01*
X0192150Y0094137D01*
X0193232Y0094762D01*
X0195122Y0096652D01*
X0196458Y0098967D01*
X0196704Y0099884D01*
X0203958Y0099884D01*
X0205535Y0098307D01*
X0209211Y0096784D01*
X0219000Y0096784D01*
X0219000Y0093657D01*
X0218371Y0093861D01*
X0217594Y0093984D01*
X0214200Y0093984D01*
X0214200Y0088984D01*
X0214200Y0083984D01*
X0217594Y0083984D01*
X0218371Y0084107D01*
X0219000Y0084312D01*
X0219000Y0080884D01*
X0219000Y0082825D02*
X0155000Y0082825D01*
X0159800Y0084823D02*
X0159800Y0084823D01*
X0159800Y0086822D02*
X0159800Y0086822D01*
X0159800Y0088820D02*
X0159800Y0088820D01*
X0159800Y0088984D02*
X0159800Y0088984D01*
X0159800Y0090819D02*
X0159800Y0090819D01*
X0159800Y0092817D02*
X0159800Y0092817D01*
X0166031Y0092817D02*
X0181850Y0092817D01*
X0181850Y0092884D02*
X0185104Y0092884D01*
X0185104Y0092884D01*
X0181850Y0092884D01*
X0181850Y0090819D02*
X0167461Y0090819D01*
X0167800Y0088820D02*
X0183781Y0088820D01*
X0187000Y0088820D02*
X0187000Y0088820D01*
X0187000Y0087884D02*
X0187000Y0092884D01*
X0187000Y0092734D02*
X0187000Y0087734D01*
X0187000Y0092734D01*
X0187000Y0092734D01*
X0187000Y0090819D02*
X0187000Y0090819D01*
X0187000Y0087884D02*
X0162000Y0087884D01*
X0165579Y0084823D02*
X0208421Y0084823D01*
X0208579Y0084708D02*
X0209281Y0084351D01*
X0210029Y0084107D01*
X0210806Y0083984D01*
X0214200Y0083984D01*
X0214200Y0088984D01*
X0214200Y0088984D01*
X0206200Y0088984D01*
X0206200Y0088591D01*
X0206323Y0087814D01*
X0206566Y0087065D01*
X0206924Y0086364D01*
X0207386Y0085727D01*
X0207943Y0085171D01*
X0208579Y0084708D01*
X0206690Y0086822D02*
X0167310Y0086822D01*
X0164862Y0096814D02*
X0178784Y0096814D01*
X0177630Y0098813D02*
X0168971Y0098813D01*
X0170969Y0100811D02*
X0177047Y0100811D01*
X0176850Y0102810D02*
X0171978Y0102810D01*
X0172800Y0104808D02*
X0177008Y0104808D01*
X0177545Y0106807D02*
X0172800Y0106807D01*
X0172787Y0108805D02*
X0178698Y0108805D01*
X0179000Y0110804D02*
X0171959Y0110804D01*
X0170924Y0112802D02*
X0179000Y0112802D01*
X0179000Y0114801D02*
X0170000Y0114801D01*
X0170000Y0116800D02*
X0179000Y0116800D01*
X0177793Y0118798D02*
X0170000Y0118798D01*
X0170000Y0120797D02*
X0177600Y0120797D01*
X0177600Y0122795D02*
X0170000Y0122795D01*
X0170000Y0124794D02*
X0177600Y0124794D01*
X0187000Y0122884D02*
X0187000Y0102884D01*
X0187000Y0107884D01*
X0217000Y0107884D01*
X0209138Y0096814D02*
X0195216Y0096814D01*
X0196370Y0098813D02*
X0205029Y0098813D01*
X0208579Y0093261D02*
X0207943Y0092798D01*
X0207386Y0092242D01*
X0206924Y0091605D01*
X0206566Y0090904D01*
X0206323Y0090155D01*
X0206200Y0089378D01*
X0206200Y0088984D01*
X0214200Y0088984D01*
X0214200Y0088984D01*
X0214200Y0093984D01*
X0210806Y0093984D01*
X0210029Y0093861D01*
X0209281Y0093618D01*
X0208579Y0093261D01*
X0207969Y0092817D02*
X0192150Y0092817D01*
X0192150Y0090819D02*
X0206539Y0090819D01*
X0206200Y0088820D02*
X0190219Y0088820D01*
X0193286Y0094816D02*
X0219000Y0094816D01*
X0214200Y0092817D02*
X0214200Y0092817D01*
X0214200Y0090819D02*
X0214200Y0090819D01*
X0214200Y0088984D02*
X0214200Y0088984D01*
X0214200Y0088820D02*
X0214200Y0088820D01*
X0214200Y0086822D02*
X0214200Y0086822D01*
X0214200Y0084823D02*
X0214200Y0084823D01*
X0180714Y0094816D02*
X0155000Y0094816D01*
X0162000Y0107884D02*
X0162000Y0132884D01*
X0202000Y0132884D01*
X0202000Y0172884D01*
X0217000Y0172884D01*
X0217000Y0162884D02*
X0217000Y0132884D01*
X0194000Y0142780D02*
X0009000Y0142780D01*
X0009000Y0140782D02*
X0160161Y0140782D01*
X0156585Y0138783D02*
X0009000Y0138783D01*
X0009000Y0136785D02*
X0154956Y0136785D01*
X0154129Y0134786D02*
X0009000Y0134786D01*
X0009000Y0132788D02*
X0154000Y0132788D01*
X0154000Y0130789D02*
X0152389Y0130789D01*
X0178637Y0156770D02*
X0009000Y0156770D01*
X0009000Y0158768D02*
X0177483Y0158768D01*
X0176904Y0160767D02*
X0009000Y0160767D01*
X0009000Y0162765D02*
X0176700Y0162765D01*
X0176840Y0164764D02*
X0009000Y0164764D01*
X0009000Y0166762D02*
X0177376Y0166762D01*
X0177487Y0168761D02*
X0009000Y0168761D01*
X0009000Y0170759D02*
X0176906Y0170759D01*
X0176700Y0172758D02*
X0009000Y0172758D01*
X0009000Y0174756D02*
X0176838Y0174756D01*
X0177374Y0176755D02*
X0009000Y0176755D01*
X0009000Y0178753D02*
X0177492Y0178753D01*
X0176908Y0180752D02*
X0009000Y0180752D01*
X0009000Y0182750D02*
X0176700Y0182750D01*
X0176836Y0184749D02*
X0145716Y0184749D01*
X0138284Y0184749D02*
X0127158Y0184749D01*
X0122000Y0192884D02*
X0162000Y0192884D01*
X0162000Y0202884D01*
X0187000Y0202884D01*
X0187000Y0212884D02*
X0122000Y0212884D01*
X0114858Y0206733D02*
X0040000Y0206733D01*
X0040000Y0208731D02*
X0109931Y0208731D01*
X0112000Y0208731D02*
X0112000Y0208731D01*
X0112000Y0210730D02*
X0112000Y0210730D01*
X0112000Y0212728D02*
X0112000Y0212728D01*
X0112000Y0212884D02*
X0112000Y0217284D01*
X0112000Y0212884D01*
X0112000Y0212884D01*
X0112000Y0214727D02*
X0112000Y0214727D01*
X0112000Y0216725D02*
X0112000Y0216725D01*
X0109618Y0216725D02*
X0040000Y0216725D01*
X0040000Y0218724D02*
X0114546Y0218724D01*
X0116544Y0220722D02*
X0039648Y0220722D01*
X0038821Y0222721D02*
X0181700Y0222721D01*
X0180599Y0224719D02*
X0039513Y0224719D01*
X0040000Y0226718D02*
X0171853Y0226718D01*
X0170067Y0228716D02*
X0040000Y0228716D01*
X0039652Y0230715D02*
X0169240Y0230715D01*
X0169000Y0232713D02*
X0038824Y0232713D01*
X0039510Y0234712D02*
X0169000Y0234712D01*
X0169000Y0236710D02*
X0040000Y0236710D01*
X0040000Y0238709D02*
X0169000Y0238709D01*
X0169000Y0240707D02*
X0039655Y0240707D01*
X0038827Y0242706D02*
X0169000Y0242706D01*
X0169000Y0244704D02*
X0125962Y0244704D01*
X0127961Y0246703D02*
X0169000Y0246703D01*
X0169000Y0248701D02*
X0129091Y0248701D01*
X0129919Y0250700D02*
X0169000Y0250700D01*
X0169000Y0252698D02*
X0130000Y0252698D01*
X0130000Y0254697D02*
X0169000Y0254697D01*
X0169000Y0256695D02*
X0129245Y0256695D01*
X0129088Y0258694D02*
X0169000Y0258694D01*
X0169000Y0260692D02*
X0129916Y0260692D01*
X0130000Y0262691D02*
X0169000Y0262691D01*
X0169000Y0264689D02*
X0130000Y0264689D01*
X0129248Y0266688D02*
X0169000Y0266688D01*
X0169000Y0268686D02*
X0129085Y0268686D01*
X0129913Y0270685D02*
X0169000Y0270685D01*
X0169000Y0272683D02*
X0130000Y0272683D01*
X0130000Y0274682D02*
X0169000Y0274682D01*
X0169000Y0276680D02*
X0129252Y0276680D01*
X0128348Y0278679D02*
X0169000Y0278679D01*
X0169000Y0280677D02*
X0126349Y0280677D01*
X0125000Y0282676D02*
X0169000Y0282676D01*
X0169000Y0284674D02*
X0125932Y0284674D01*
X0109000Y0282676D02*
X0035000Y0282676D01*
X0034487Y0280677D02*
X0107651Y0280677D01*
X0105652Y0278679D02*
X0032718Y0278679D01*
X0035932Y0284674D02*
X0108068Y0284674D01*
X0104739Y0306658D02*
X0009000Y0306658D01*
X0009000Y0308657D02*
X0105630Y0308657D01*
X0107629Y0310655D02*
X0009000Y0310655D01*
X0009000Y0312654D02*
X0111454Y0312654D01*
X0122546Y0312654D02*
X0345000Y0312654D01*
X0345000Y0314652D02*
X0009000Y0314652D01*
X0009000Y0316651D02*
X0345000Y0316651D01*
X0345000Y0318649D02*
X0009000Y0318649D01*
X0009000Y0320648D02*
X0345000Y0320648D01*
X0345000Y0310655D02*
X0299145Y0310655D01*
X0302541Y0308657D02*
X0345000Y0308657D01*
X0345000Y0306658D02*
X0304096Y0306658D01*
X0304924Y0304660D02*
X0345000Y0304660D01*
X0345000Y0302661D02*
X0337528Y0302661D01*
X0341364Y0300663D02*
X0345000Y0300663D01*
X0345000Y0298664D02*
X0343362Y0298664D01*
X0344258Y0296666D02*
X0345000Y0296666D01*
X0345000Y0294667D02*
X0345000Y0294667D01*
X0345000Y0292669D02*
X0345000Y0292669D01*
X0345000Y0290670D02*
X0344907Y0290670D01*
X0345000Y0288671D02*
X0344079Y0288671D01*
X0344255Y0286673D02*
X0345000Y0286673D01*
X0345000Y0284674D02*
X0345000Y0284674D01*
X0345000Y0282676D02*
X0345000Y0282676D01*
X0345000Y0280677D02*
X0344910Y0280677D01*
X0345000Y0278679D02*
X0344082Y0278679D01*
X0344252Y0276680D02*
X0345000Y0276680D01*
X0345000Y0274682D02*
X0345000Y0274682D01*
X0345000Y0272683D02*
X0345000Y0272683D01*
X0345000Y0270685D02*
X0344913Y0270685D01*
X0345000Y0268686D02*
X0344085Y0268686D01*
X0344248Y0266688D02*
X0345000Y0266688D01*
X0345000Y0264689D02*
X0345000Y0264689D01*
X0345000Y0262691D02*
X0345000Y0262691D01*
X0345000Y0260692D02*
X0344916Y0260692D01*
X0345000Y0258694D02*
X0344088Y0258694D01*
X0344245Y0256695D02*
X0345000Y0256695D01*
X0345000Y0254697D02*
X0345000Y0254697D01*
X0345000Y0252698D02*
X0345000Y0252698D01*
X0345000Y0250700D02*
X0344919Y0250700D01*
X0345000Y0248701D02*
X0344091Y0248701D01*
X0344242Y0246703D02*
X0345000Y0246703D01*
X0345000Y0244704D02*
X0345000Y0244704D01*
X0345000Y0242706D02*
X0345000Y0242706D01*
X0345000Y0240707D02*
X0344922Y0240707D01*
X0345000Y0238709D02*
X0344094Y0238709D01*
X0345000Y0236710D02*
X0342968Y0236710D01*
X0340969Y0234712D02*
X0345000Y0234712D01*
X0332000Y0292884D02*
X0297000Y0292884D01*
X0297000Y0302884D01*
X0187000Y0302884D01*
X0187000Y0292884D01*
X0179000Y0302661D02*
X0130000Y0302661D01*
X0130000Y0304660D02*
X0179076Y0304660D01*
X0179904Y0306658D02*
X0129261Y0306658D01*
X0128370Y0308657D02*
X0181459Y0308657D01*
X0184855Y0310655D02*
X0126371Y0310655D01*
X0106039Y0246703D02*
X0034842Y0246703D01*
X0037322Y0244704D02*
X0108038Y0244704D01*
X0107620Y0214727D02*
X0039516Y0214727D01*
X0038818Y0212728D02*
X0107600Y0212728D01*
X0107932Y0210730D02*
X0039645Y0210730D01*
X0039519Y0204734D02*
X0116857Y0204734D01*
X0116559Y0200737D02*
X0036995Y0200737D01*
X0038691Y0202735D02*
X0140012Y0202735D01*
X0143988Y0202735D02*
X0154000Y0202735D01*
X0154107Y0204734D02*
X0147643Y0204734D01*
X0136357Y0204734D02*
X0127143Y0204734D01*
X0114561Y0198738D02*
X0034051Y0198738D01*
X0009000Y0194741D02*
X0107635Y0194741D01*
X0107600Y0192743D02*
X0009000Y0192743D01*
X0009000Y0190744D02*
X0107917Y0190744D01*
X0109916Y0188746D02*
X0009000Y0188746D01*
X0009000Y0186747D02*
X0114843Y0186747D01*
X0116842Y0184749D02*
X0009000Y0184749D01*
X0009000Y0154771D02*
X0180547Y0154771D01*
X0184941Y0152773D02*
X0009000Y0152773D01*
X0009000Y0150774D02*
X0194000Y0150774D01*
X0194000Y0148776D02*
X0009000Y0148776D01*
X0009000Y0146777D02*
X0194000Y0146777D01*
X0194000Y0144779D02*
X0009000Y0144779D01*
X0009000Y0130789D02*
X0021611Y0130789D01*
X0019613Y0128791D02*
X0009000Y0128791D01*
X0009000Y0126792D02*
X0017614Y0126792D01*
X0017600Y0124794D02*
X0009000Y0124794D01*
X0009000Y0122795D02*
X0017600Y0122795D01*
X0017600Y0120797D02*
X0009000Y0120797D01*
X0009000Y0118798D02*
X0017793Y0118798D01*
X0019000Y0116800D02*
X0009000Y0116800D01*
X0009000Y0114801D02*
X0019000Y0114801D01*
X0019000Y0112802D02*
X0009000Y0112802D01*
X0009000Y0110804D02*
X0019000Y0110804D01*
X0018698Y0108805D02*
X0009000Y0108805D01*
X0009000Y0106807D02*
X0017545Y0106807D01*
X0017008Y0104808D02*
X0009000Y0104808D01*
X0009000Y0102810D02*
X0016850Y0102810D01*
X0017047Y0100811D02*
X0009000Y0100811D01*
X0009000Y0098813D02*
X0017630Y0098813D01*
X0018784Y0096814D02*
X0009000Y0096814D01*
X0009000Y0094816D02*
X0020714Y0094816D01*
X0021850Y0092884D02*
X0025104Y0092884D01*
X0021850Y0092884D01*
X0021850Y0092817D02*
X0009000Y0092817D01*
X0009000Y0090819D02*
X0021850Y0090819D01*
X0023781Y0088820D02*
X0009000Y0088820D01*
X0009000Y0086822D02*
X0046690Y0086822D01*
X0046566Y0087065D02*
X0046924Y0086364D01*
X0047386Y0085727D01*
X0047943Y0085171D01*
X0048579Y0084708D01*
X0049281Y0084351D01*
X0050029Y0084107D01*
X0050806Y0083984D01*
X0054200Y0083984D01*
X0054200Y0088984D01*
X0054200Y0088984D01*
X0046200Y0088984D01*
X0046200Y0088591D01*
X0046323Y0087814D01*
X0046566Y0087065D01*
X0046200Y0088820D02*
X0030219Y0088820D01*
X0032150Y0090819D02*
X0046539Y0090819D01*
X0046566Y0090904D02*
X0046323Y0090155D01*
X0046200Y0089378D01*
X0046200Y0088984D01*
X0054200Y0088984D01*
X0054200Y0088984D01*
X0054200Y0093984D01*
X0050806Y0093984D01*
X0050029Y0093861D01*
X0049281Y0093618D01*
X0048579Y0093261D01*
X0047943Y0092798D01*
X0047386Y0092242D01*
X0046924Y0091605D01*
X0046566Y0090904D01*
X0047969Y0092817D02*
X0032150Y0092817D01*
X0033286Y0094816D02*
X0059000Y0094816D01*
X0054200Y0092817D02*
X0054200Y0092817D01*
X0054200Y0090819D02*
X0054200Y0090819D01*
X0054200Y0088984D02*
X0054200Y0088984D01*
X0054200Y0088820D02*
X0054200Y0088820D01*
X0054200Y0086822D02*
X0054200Y0086822D01*
X0054200Y0084823D02*
X0054200Y0084823D01*
X0059000Y0082825D02*
X0009000Y0082825D01*
X0009000Y0084823D02*
X0048421Y0084823D01*
X0059000Y0080826D02*
X0009000Y0080826D01*
X0009000Y0078828D02*
X0059000Y0078828D01*
X0059000Y0076829D02*
X0009000Y0076829D01*
X0009000Y0074831D02*
X0059000Y0074831D01*
X0059000Y0072832D02*
X0009000Y0072832D01*
X0009000Y0070834D02*
X0059000Y0070834D01*
X0059000Y0068835D02*
X0009000Y0068835D01*
X0009000Y0066837D02*
X0022659Y0066837D01*
X0031341Y0066837D02*
X0059000Y0066837D01*
X0059000Y0064838D02*
X0033340Y0064838D01*
X0035338Y0062840D02*
X0058662Y0062840D01*
X0057600Y0060841D02*
X0036400Y0060841D01*
X0036400Y0058843D02*
X0057600Y0058843D01*
X0057600Y0056844D02*
X0036400Y0056844D01*
X0036400Y0054846D02*
X0057600Y0054846D01*
X0058744Y0052847D02*
X0035256Y0052847D01*
X0061791Y0032862D02*
X0072209Y0032862D01*
X0069582Y0034861D02*
X0064418Y0034861D01*
X0086718Y0020871D02*
X0127282Y0020871D01*
X0134200Y0020871D02*
X0134200Y0020871D01*
X0134200Y0022869D02*
X0134200Y0022869D01*
X0134200Y0023984D02*
X0134200Y0023984D01*
X0134200Y0024868D02*
X0134200Y0024868D01*
X0134200Y0026866D02*
X0134200Y0026866D01*
X0134200Y0028865D02*
X0134200Y0028865D01*
X0138347Y0028865D02*
X0155653Y0028865D01*
X0152714Y0026866D02*
X0141286Y0026866D01*
X0142122Y0024868D02*
X0151878Y0024868D01*
X0151914Y0022869D02*
X0142086Y0022869D01*
X0141118Y0020871D02*
X0152882Y0020871D01*
X0159800Y0020871D02*
X0159800Y0020871D01*
X0152209Y0032862D02*
X0141791Y0032862D01*
X0144418Y0034861D02*
X0149582Y0034861D01*
X0185104Y0027884D02*
X0185104Y0027884D01*
X0139000Y0082825D02*
X0075000Y0082825D01*
X0079800Y0084823D02*
X0079800Y0084823D01*
X0079800Y0086822D02*
X0079800Y0086822D01*
X0079800Y0088820D02*
X0079800Y0088820D01*
X0079800Y0088984D02*
X0079800Y0088984D01*
X0079800Y0090819D02*
X0079800Y0090819D01*
X0079800Y0092817D02*
X0079800Y0092817D01*
X0075000Y0094816D02*
X0100714Y0094816D01*
X0098784Y0096814D02*
X0084862Y0096814D01*
X0087310Y0086822D02*
X0126690Y0086822D01*
X0126566Y0087065D02*
X0126924Y0086364D01*
X0127386Y0085727D01*
X0127943Y0085171D01*
X0128579Y0084708D01*
X0129281Y0084351D01*
X0130029Y0084107D01*
X0130806Y0083984D01*
X0134200Y0083984D01*
X0134200Y0088984D01*
X0134200Y0088984D01*
X0126200Y0088984D01*
X0126200Y0088591D01*
X0126323Y0087814D01*
X0126566Y0087065D01*
X0126200Y0088820D02*
X0110219Y0088820D01*
X0112150Y0090819D02*
X0126539Y0090819D01*
X0126566Y0090904D02*
X0126323Y0090155D01*
X0126200Y0089378D01*
X0126200Y0088984D01*
X0134200Y0088984D01*
X0134200Y0088984D01*
X0134200Y0093984D01*
X0130806Y0093984D01*
X0130029Y0093861D01*
X0129281Y0093618D01*
X0128579Y0093261D01*
X0127943Y0092798D01*
X0127386Y0092242D01*
X0126924Y0091605D01*
X0126566Y0090904D01*
X0127969Y0092817D02*
X0112150Y0092817D01*
X0113286Y0094816D02*
X0139000Y0094816D01*
X0134200Y0092817D02*
X0134200Y0092817D01*
X0134200Y0090819D02*
X0134200Y0090819D01*
X0134200Y0088984D02*
X0134200Y0088984D01*
X0134200Y0088820D02*
X0134200Y0088820D01*
X0134200Y0086822D02*
X0134200Y0086822D01*
X0134200Y0084823D02*
X0134200Y0084823D01*
X0128421Y0084823D02*
X0085579Y0084823D01*
X0092000Y0087884D02*
X0077000Y0087884D01*
X0067000Y0072884D02*
X0067000Y0122884D01*
X0057600Y0122795D02*
X0036400Y0122795D01*
X0036400Y0120797D02*
X0057600Y0120797D01*
X0057793Y0118798D02*
X0036207Y0118798D01*
X0035000Y0116800D02*
X0059000Y0116800D01*
X0057600Y0124794D02*
X0036400Y0124794D01*
X0036386Y0126792D02*
X0057614Y0126792D01*
X0059613Y0128791D02*
X0034387Y0128791D01*
X0032389Y0130789D02*
X0061611Y0130789D01*
X0057000Y0107884D02*
X0027000Y0107884D01*
X0027000Y0102884D01*
X0027000Y0122884D01*
X0036370Y0098813D02*
X0045029Y0098813D01*
X0049138Y0096814D02*
X0035216Y0096814D01*
X0027000Y0092884D02*
X0027000Y0087884D01*
X0027000Y0087734D02*
X0027000Y0092734D01*
X0027000Y0092734D01*
X0027000Y0087734D01*
X0027000Y0088820D02*
X0027000Y0088820D01*
X0027000Y0090819D02*
X0027000Y0090819D01*
X0025104Y0092884D02*
X0025104Y0092884D01*
X0115216Y0096814D02*
X0129138Y0096814D01*
X0125029Y0098813D02*
X0116370Y0098813D01*
X0189059Y0152773D02*
X0194000Y0152773D01*
X0194000Y0154771D02*
X0193453Y0154771D01*
X0177372Y0186747D02*
X0167177Y0186747D01*
X0168945Y0188746D02*
X0177496Y0188746D01*
X0176910Y0190744D02*
X0169773Y0190744D01*
X0170000Y0192743D02*
X0176700Y0192743D01*
X0176834Y0194741D02*
X0170000Y0194741D01*
X0112000Y0190744D02*
X0112000Y0190744D01*
X0112000Y0188746D02*
X0112000Y0188746D01*
X0022011Y0282884D02*
X0022011Y0282884D01*
X0237000Y0182884D02*
X0252000Y0182884D01*
X0252000Y0097884D01*
X0305000Y0302661D02*
X0326472Y0302661D01*
D19*
X0237000Y0182884D03*
X0272000Y0177884D03*
X0282000Y0177884D03*
X0282000Y0147884D03*
X0272000Y0147884D03*
X0252000Y0097884D03*
X0217000Y0132884D03*
M02*
