%
M48
M72
T01C0.02362
T02C0.03200
T03C0.04000
T04C0.04400
%
T01
X217000Y132884
X252000Y97884
X272000Y147884
X282000Y147884
X282000Y177884
X272000Y177884
X237000Y182884
T02
X27000Y27884
X27000Y37884
X27000Y57884
X27000Y92884
X27000Y102884
X27000Y122884
X67000Y122884
X107000Y122884
X107000Y102884
X107000Y92884
X107000Y57884
X107000Y37884
X107000Y27884
X147000Y57884
X187000Y57884
X187000Y37884
X187000Y27884
X227000Y57884
X272000Y72884
X287000Y97884
X297000Y97884
X307000Y107884
X307000Y147884
X227000Y122884
X187000Y122884
X187000Y102884
X187000Y92884
X147000Y122884
X142000Y193384
X142000Y212384
X122000Y212884
X112000Y212884
X112000Y192884
X122000Y192884
X67000Y57884
X272000Y32884
X287000Y32884
X297000Y32884
T03
X239800Y23984
X239800Y41784
X214200Y41784
X214200Y23984
X159800Y23984
X159800Y41784
X134200Y41784
X134200Y23984
X79800Y23984
X79800Y41784
X54200Y41784
X54200Y23984
X54200Y88984
X54200Y106784
X79800Y106784
X79800Y88984
X134200Y88984
X134200Y106784
X159800Y106784
X159800Y88984
X214200Y88984
X214200Y106784
X239800Y106784
X239800Y88984
X332000Y92884
X332000Y82884
X332000Y102884
X332000Y112884
X332000Y137884
X332000Y147884
X332000Y157884
X332000Y167884
X332000Y192884
X332000Y202884
X332000Y212884
X332000Y222884
X332000Y242884
X332000Y252884
X332000Y262884
X332000Y272884
X332000Y282884
X332000Y292884
X117000Y292884
X117000Y282884
X117000Y272884
X117000Y262884
X117000Y252884
X117000Y302884
X27000Y292884
X27000Y282884
X27000Y237884
X27000Y227884
X27000Y217884
X27000Y207884
T04
X187000Y202884
X187000Y192884
X187000Y182884
X187000Y172884
X187000Y162884
X217000Y162884
X217000Y172884
X217000Y182884
X217000Y192884
X217000Y202884
X217000Y212884
X217000Y222884
X217000Y232884
X217000Y242884
X217000Y252884
X217000Y262884
X217000Y272884
X217000Y282884
X217000Y292884
X187000Y292884
X187000Y282884
X187000Y272884
X187000Y262884
X187000Y252884
X187000Y242884
X187000Y232884
X187000Y222884
X187000Y212884
M30
