G75*
%MOIN*%
%OFA0B0*%
%FSLAX25Y25*%
%IPPOS*%
%LPD*%
%AMOC8*
5,1,8,0,0,1.08239X$1,22.5*
%
%ADD10C,0.00600*%
%ADD11C,0.01200*%
%ADD12C,0.00500*%
%ADD13C,0.00800*%
%ADD14C,0.01000*%
%ADD15C,0.01600*%
%ADD16R,0.03400X0.02400*%
%ADD17R,0.02400X0.03400*%
%ADD18C,0.00200*%
%ADD19C,0.00300*%
D10*
X0017000Y0032884D02*
X0017003Y0033129D01*
X0017012Y0033375D01*
X0017027Y0033620D01*
X0017048Y0033864D01*
X0017075Y0034108D01*
X0017108Y0034351D01*
X0017147Y0034594D01*
X0017192Y0034835D01*
X0017243Y0035075D01*
X0017300Y0035314D01*
X0017362Y0035551D01*
X0017431Y0035787D01*
X0017505Y0036021D01*
X0017585Y0036253D01*
X0017670Y0036483D01*
X0017761Y0036711D01*
X0017858Y0036936D01*
X0017960Y0037160D01*
X0018068Y0037380D01*
X0018181Y0037598D01*
X0018299Y0037813D01*
X0018423Y0038025D01*
X0018551Y0038234D01*
X0018685Y0038440D01*
X0018824Y0038642D01*
X0018968Y0038841D01*
X0019117Y0039036D01*
X0019270Y0039228D01*
X0019428Y0039416D01*
X0019590Y0039600D01*
X0019758Y0039779D01*
X0019929Y0039955D01*
X0020105Y0040126D01*
X0020284Y0040294D01*
X0020468Y0040456D01*
X0020656Y0040614D01*
X0020848Y0040767D01*
X0021043Y0040916D01*
X0021242Y0041060D01*
X0021444Y0041199D01*
X0021650Y0041333D01*
X0021859Y0041461D01*
X0022071Y0041585D01*
X0022286Y0041703D01*
X0022504Y0041816D01*
X0022724Y0041924D01*
X0022948Y0042026D01*
X0023173Y0042123D01*
X0023401Y0042214D01*
X0023631Y0042299D01*
X0023863Y0042379D01*
X0024097Y0042453D01*
X0024333Y0042522D01*
X0024570Y0042584D01*
X0024809Y0042641D01*
X0025049Y0042692D01*
X0025290Y0042737D01*
X0025533Y0042776D01*
X0025776Y0042809D01*
X0026020Y0042836D01*
X0026264Y0042857D01*
X0026509Y0042872D01*
X0026755Y0042881D01*
X0027000Y0042884D01*
X0027245Y0042881D01*
X0027491Y0042872D01*
X0027736Y0042857D01*
X0027980Y0042836D01*
X0028224Y0042809D01*
X0028467Y0042776D01*
X0028710Y0042737D01*
X0028951Y0042692D01*
X0029191Y0042641D01*
X0029430Y0042584D01*
X0029667Y0042522D01*
X0029903Y0042453D01*
X0030137Y0042379D01*
X0030369Y0042299D01*
X0030599Y0042214D01*
X0030827Y0042123D01*
X0031052Y0042026D01*
X0031276Y0041924D01*
X0031496Y0041816D01*
X0031714Y0041703D01*
X0031929Y0041585D01*
X0032141Y0041461D01*
X0032350Y0041333D01*
X0032556Y0041199D01*
X0032758Y0041060D01*
X0032957Y0040916D01*
X0033152Y0040767D01*
X0033344Y0040614D01*
X0033532Y0040456D01*
X0033716Y0040294D01*
X0033895Y0040126D01*
X0034071Y0039955D01*
X0034242Y0039779D01*
X0034410Y0039600D01*
X0034572Y0039416D01*
X0034730Y0039228D01*
X0034883Y0039036D01*
X0035032Y0038841D01*
X0035176Y0038642D01*
X0035315Y0038440D01*
X0035449Y0038234D01*
X0035577Y0038025D01*
X0035701Y0037813D01*
X0035819Y0037598D01*
X0035932Y0037380D01*
X0036040Y0037160D01*
X0036142Y0036936D01*
X0036239Y0036711D01*
X0036330Y0036483D01*
X0036415Y0036253D01*
X0036495Y0036021D01*
X0036569Y0035787D01*
X0036638Y0035551D01*
X0036700Y0035314D01*
X0036757Y0035075D01*
X0036808Y0034835D01*
X0036853Y0034594D01*
X0036892Y0034351D01*
X0036925Y0034108D01*
X0036952Y0033864D01*
X0036973Y0033620D01*
X0036988Y0033375D01*
X0036997Y0033129D01*
X0037000Y0032884D01*
X0036997Y0032639D01*
X0036988Y0032393D01*
X0036973Y0032148D01*
X0036952Y0031904D01*
X0036925Y0031660D01*
X0036892Y0031417D01*
X0036853Y0031174D01*
X0036808Y0030933D01*
X0036757Y0030693D01*
X0036700Y0030454D01*
X0036638Y0030217D01*
X0036569Y0029981D01*
X0036495Y0029747D01*
X0036415Y0029515D01*
X0036330Y0029285D01*
X0036239Y0029057D01*
X0036142Y0028832D01*
X0036040Y0028608D01*
X0035932Y0028388D01*
X0035819Y0028170D01*
X0035701Y0027955D01*
X0035577Y0027743D01*
X0035449Y0027534D01*
X0035315Y0027328D01*
X0035176Y0027126D01*
X0035032Y0026927D01*
X0034883Y0026732D01*
X0034730Y0026540D01*
X0034572Y0026352D01*
X0034410Y0026168D01*
X0034242Y0025989D01*
X0034071Y0025813D01*
X0033895Y0025642D01*
X0033716Y0025474D01*
X0033532Y0025312D01*
X0033344Y0025154D01*
X0033152Y0025001D01*
X0032957Y0024852D01*
X0032758Y0024708D01*
X0032556Y0024569D01*
X0032350Y0024435D01*
X0032141Y0024307D01*
X0031929Y0024183D01*
X0031714Y0024065D01*
X0031496Y0023952D01*
X0031276Y0023844D01*
X0031052Y0023742D01*
X0030827Y0023645D01*
X0030599Y0023554D01*
X0030369Y0023469D01*
X0030137Y0023389D01*
X0029903Y0023315D01*
X0029667Y0023246D01*
X0029430Y0023184D01*
X0029191Y0023127D01*
X0028951Y0023076D01*
X0028710Y0023031D01*
X0028467Y0022992D01*
X0028224Y0022959D01*
X0027980Y0022932D01*
X0027736Y0022911D01*
X0027491Y0022896D01*
X0027245Y0022887D01*
X0027000Y0022884D01*
X0026755Y0022887D01*
X0026509Y0022896D01*
X0026264Y0022911D01*
X0026020Y0022932D01*
X0025776Y0022959D01*
X0025533Y0022992D01*
X0025290Y0023031D01*
X0025049Y0023076D01*
X0024809Y0023127D01*
X0024570Y0023184D01*
X0024333Y0023246D01*
X0024097Y0023315D01*
X0023863Y0023389D01*
X0023631Y0023469D01*
X0023401Y0023554D01*
X0023173Y0023645D01*
X0022948Y0023742D01*
X0022724Y0023844D01*
X0022504Y0023952D01*
X0022286Y0024065D01*
X0022071Y0024183D01*
X0021859Y0024307D01*
X0021650Y0024435D01*
X0021444Y0024569D01*
X0021242Y0024708D01*
X0021043Y0024852D01*
X0020848Y0025001D01*
X0020656Y0025154D01*
X0020468Y0025312D01*
X0020284Y0025474D01*
X0020105Y0025642D01*
X0019929Y0025813D01*
X0019758Y0025989D01*
X0019590Y0026168D01*
X0019428Y0026352D01*
X0019270Y0026540D01*
X0019117Y0026732D01*
X0018968Y0026927D01*
X0018824Y0027126D01*
X0018685Y0027328D01*
X0018551Y0027534D01*
X0018423Y0027743D01*
X0018299Y0027955D01*
X0018181Y0028170D01*
X0018068Y0028388D01*
X0017960Y0028608D01*
X0017858Y0028832D01*
X0017761Y0029057D01*
X0017670Y0029285D01*
X0017585Y0029515D01*
X0017505Y0029747D01*
X0017431Y0029981D01*
X0017362Y0030217D01*
X0017300Y0030454D01*
X0017243Y0030693D01*
X0017192Y0030933D01*
X0017147Y0031174D01*
X0017108Y0031417D01*
X0017075Y0031660D01*
X0017048Y0031904D01*
X0017027Y0032148D01*
X0017012Y0032393D01*
X0017003Y0032639D01*
X0017000Y0032884D01*
X0031000Y0038384D02*
X0032000Y0038384D01*
X0033000Y0038384D01*
X0032000Y0038384D02*
X0032000Y0037384D01*
X0032000Y0038384D02*
X0032000Y0039384D01*
X0035500Y0053384D02*
X0037000Y0053384D01*
X0037500Y0053884D01*
X0056500Y0053884D01*
X0057000Y0053384D01*
X0058500Y0053384D01*
X0058560Y0053386D01*
X0058621Y0053391D01*
X0058680Y0053400D01*
X0058739Y0053413D01*
X0058798Y0053429D01*
X0058855Y0053449D01*
X0058910Y0053472D01*
X0058965Y0053499D01*
X0059017Y0053528D01*
X0059068Y0053561D01*
X0059117Y0053597D01*
X0059163Y0053635D01*
X0059207Y0053677D01*
X0059249Y0053721D01*
X0059287Y0053767D01*
X0059323Y0053816D01*
X0059356Y0053867D01*
X0059385Y0053919D01*
X0059412Y0053974D01*
X0059435Y0054029D01*
X0059455Y0054086D01*
X0059471Y0054145D01*
X0059484Y0054204D01*
X0059493Y0054263D01*
X0059498Y0054324D01*
X0059500Y0054384D01*
X0059500Y0061384D01*
X0059498Y0061444D01*
X0059493Y0061505D01*
X0059484Y0061564D01*
X0059471Y0061623D01*
X0059455Y0061682D01*
X0059435Y0061739D01*
X0059412Y0061794D01*
X0059385Y0061849D01*
X0059356Y0061901D01*
X0059323Y0061952D01*
X0059287Y0062001D01*
X0059249Y0062047D01*
X0059207Y0062091D01*
X0059163Y0062133D01*
X0059117Y0062171D01*
X0059068Y0062207D01*
X0059017Y0062240D01*
X0058965Y0062269D01*
X0058910Y0062296D01*
X0058855Y0062319D01*
X0058798Y0062339D01*
X0058739Y0062355D01*
X0058680Y0062368D01*
X0058621Y0062377D01*
X0058560Y0062382D01*
X0058500Y0062384D01*
X0057000Y0062384D01*
X0056500Y0061884D01*
X0037500Y0061884D01*
X0037000Y0062384D01*
X0035500Y0062384D01*
X0035440Y0062382D01*
X0035379Y0062377D01*
X0035320Y0062368D01*
X0035261Y0062355D01*
X0035202Y0062339D01*
X0035145Y0062319D01*
X0035090Y0062296D01*
X0035035Y0062269D01*
X0034983Y0062240D01*
X0034932Y0062207D01*
X0034883Y0062171D01*
X0034837Y0062133D01*
X0034793Y0062091D01*
X0034751Y0062047D01*
X0034713Y0062001D01*
X0034677Y0061952D01*
X0034644Y0061901D01*
X0034615Y0061849D01*
X0034588Y0061794D01*
X0034565Y0061739D01*
X0034545Y0061682D01*
X0034529Y0061623D01*
X0034516Y0061564D01*
X0034507Y0061505D01*
X0034502Y0061444D01*
X0034500Y0061384D01*
X0034500Y0054384D01*
X0034502Y0054324D01*
X0034507Y0054263D01*
X0034516Y0054204D01*
X0034529Y0054145D01*
X0034545Y0054086D01*
X0034565Y0054029D01*
X0034588Y0053974D01*
X0034615Y0053919D01*
X0034644Y0053867D01*
X0034677Y0053816D01*
X0034713Y0053767D01*
X0034751Y0053721D01*
X0034793Y0053677D01*
X0034837Y0053635D01*
X0034883Y0053597D01*
X0034932Y0053561D01*
X0034983Y0053528D01*
X0035035Y0053499D01*
X0035090Y0053472D01*
X0035145Y0053449D01*
X0035202Y0053429D01*
X0035261Y0053413D01*
X0035320Y0053400D01*
X0035379Y0053391D01*
X0035440Y0053386D01*
X0035500Y0053384D01*
X0055000Y0036884D02*
X0055000Y0035884D01*
X0054000Y0035884D01*
X0054000Y0029884D01*
X0055000Y0029884D01*
X0055000Y0028884D01*
X0058500Y0020884D02*
X0062000Y0020884D01*
X0071500Y0020884D01*
X0075500Y0020884D01*
X0079000Y0028884D02*
X0079000Y0029884D01*
X0080000Y0029884D01*
X0080000Y0035884D01*
X0079000Y0035884D01*
X0079000Y0036884D01*
X0075500Y0044884D02*
X0072000Y0044884D01*
X0062000Y0044884D01*
X0058500Y0044884D01*
X0066000Y0032884D02*
X0066002Y0032947D01*
X0066008Y0033009D01*
X0066018Y0033071D01*
X0066031Y0033133D01*
X0066049Y0033193D01*
X0066070Y0033252D01*
X0066095Y0033310D01*
X0066124Y0033366D01*
X0066156Y0033420D01*
X0066191Y0033472D01*
X0066229Y0033521D01*
X0066271Y0033569D01*
X0066315Y0033613D01*
X0066363Y0033655D01*
X0066412Y0033693D01*
X0066464Y0033728D01*
X0066518Y0033760D01*
X0066574Y0033789D01*
X0066632Y0033814D01*
X0066691Y0033835D01*
X0066751Y0033853D01*
X0066813Y0033866D01*
X0066875Y0033876D01*
X0066937Y0033882D01*
X0067000Y0033884D01*
X0067063Y0033882D01*
X0067125Y0033876D01*
X0067187Y0033866D01*
X0067249Y0033853D01*
X0067309Y0033835D01*
X0067368Y0033814D01*
X0067426Y0033789D01*
X0067482Y0033760D01*
X0067536Y0033728D01*
X0067588Y0033693D01*
X0067637Y0033655D01*
X0067685Y0033613D01*
X0067729Y0033569D01*
X0067771Y0033521D01*
X0067809Y0033472D01*
X0067844Y0033420D01*
X0067876Y0033366D01*
X0067905Y0033310D01*
X0067930Y0033252D01*
X0067951Y0033193D01*
X0067969Y0033133D01*
X0067982Y0033071D01*
X0067992Y0033009D01*
X0067998Y0032947D01*
X0068000Y0032884D01*
X0067998Y0032821D01*
X0067992Y0032759D01*
X0067982Y0032697D01*
X0067969Y0032635D01*
X0067951Y0032575D01*
X0067930Y0032516D01*
X0067905Y0032458D01*
X0067876Y0032402D01*
X0067844Y0032348D01*
X0067809Y0032296D01*
X0067771Y0032247D01*
X0067729Y0032199D01*
X0067685Y0032155D01*
X0067637Y0032113D01*
X0067588Y0032075D01*
X0067536Y0032040D01*
X0067482Y0032008D01*
X0067426Y0031979D01*
X0067368Y0031954D01*
X0067309Y0031933D01*
X0067249Y0031915D01*
X0067187Y0031902D01*
X0067125Y0031892D01*
X0067063Y0031886D01*
X0067000Y0031884D01*
X0066937Y0031886D01*
X0066875Y0031892D01*
X0066813Y0031902D01*
X0066751Y0031915D01*
X0066691Y0031933D01*
X0066632Y0031954D01*
X0066574Y0031979D01*
X0066518Y0032008D01*
X0066464Y0032040D01*
X0066412Y0032075D01*
X0066363Y0032113D01*
X0066315Y0032155D01*
X0066271Y0032199D01*
X0066229Y0032247D01*
X0066191Y0032296D01*
X0066156Y0032348D01*
X0066124Y0032402D01*
X0066095Y0032458D01*
X0066070Y0032516D01*
X0066049Y0032575D01*
X0066031Y0032635D01*
X0066018Y0032697D01*
X0066008Y0032759D01*
X0066002Y0032821D01*
X0066000Y0032884D01*
X0060000Y0032884D02*
X0060002Y0033056D01*
X0060008Y0033227D01*
X0060019Y0033399D01*
X0060034Y0033570D01*
X0060053Y0033741D01*
X0060076Y0033911D01*
X0060103Y0034081D01*
X0060135Y0034250D01*
X0060170Y0034418D01*
X0060210Y0034585D01*
X0060254Y0034751D01*
X0060301Y0034916D01*
X0060353Y0035080D01*
X0060409Y0035242D01*
X0060469Y0035403D01*
X0060533Y0035563D01*
X0060601Y0035721D01*
X0060672Y0035877D01*
X0060747Y0036031D01*
X0060827Y0036184D01*
X0060909Y0036334D01*
X0060996Y0036483D01*
X0061086Y0036629D01*
X0061180Y0036773D01*
X0061277Y0036915D01*
X0061378Y0037054D01*
X0061482Y0037191D01*
X0061589Y0037325D01*
X0061700Y0037456D01*
X0061813Y0037585D01*
X0061930Y0037711D01*
X0062050Y0037834D01*
X0062173Y0037954D01*
X0062299Y0038071D01*
X0062428Y0038184D01*
X0062559Y0038295D01*
X0062693Y0038402D01*
X0062830Y0038506D01*
X0062969Y0038607D01*
X0063111Y0038704D01*
X0063255Y0038798D01*
X0063401Y0038888D01*
X0063550Y0038975D01*
X0063700Y0039057D01*
X0063853Y0039137D01*
X0064007Y0039212D01*
X0064163Y0039283D01*
X0064321Y0039351D01*
X0064481Y0039415D01*
X0064642Y0039475D01*
X0064804Y0039531D01*
X0064968Y0039583D01*
X0065133Y0039630D01*
X0065299Y0039674D01*
X0065466Y0039714D01*
X0065634Y0039749D01*
X0065803Y0039781D01*
X0065973Y0039808D01*
X0066143Y0039831D01*
X0066314Y0039850D01*
X0066485Y0039865D01*
X0066657Y0039876D01*
X0066828Y0039882D01*
X0067000Y0039884D01*
X0067172Y0039882D01*
X0067343Y0039876D01*
X0067515Y0039865D01*
X0067686Y0039850D01*
X0067857Y0039831D01*
X0068027Y0039808D01*
X0068197Y0039781D01*
X0068366Y0039749D01*
X0068534Y0039714D01*
X0068701Y0039674D01*
X0068867Y0039630D01*
X0069032Y0039583D01*
X0069196Y0039531D01*
X0069358Y0039475D01*
X0069519Y0039415D01*
X0069679Y0039351D01*
X0069837Y0039283D01*
X0069993Y0039212D01*
X0070147Y0039137D01*
X0070300Y0039057D01*
X0070450Y0038975D01*
X0070599Y0038888D01*
X0070745Y0038798D01*
X0070889Y0038704D01*
X0071031Y0038607D01*
X0071170Y0038506D01*
X0071307Y0038402D01*
X0071441Y0038295D01*
X0071572Y0038184D01*
X0071701Y0038071D01*
X0071827Y0037954D01*
X0071950Y0037834D01*
X0072070Y0037711D01*
X0072187Y0037585D01*
X0072300Y0037456D01*
X0072411Y0037325D01*
X0072518Y0037191D01*
X0072622Y0037054D01*
X0072723Y0036915D01*
X0072820Y0036773D01*
X0072914Y0036629D01*
X0073004Y0036483D01*
X0073091Y0036334D01*
X0073173Y0036184D01*
X0073253Y0036031D01*
X0073328Y0035877D01*
X0073399Y0035721D01*
X0073467Y0035563D01*
X0073531Y0035403D01*
X0073591Y0035242D01*
X0073647Y0035080D01*
X0073699Y0034916D01*
X0073746Y0034751D01*
X0073790Y0034585D01*
X0073830Y0034418D01*
X0073865Y0034250D01*
X0073897Y0034081D01*
X0073924Y0033911D01*
X0073947Y0033741D01*
X0073966Y0033570D01*
X0073981Y0033399D01*
X0073992Y0033227D01*
X0073998Y0033056D01*
X0074000Y0032884D01*
X0073998Y0032712D01*
X0073992Y0032541D01*
X0073981Y0032369D01*
X0073966Y0032198D01*
X0073947Y0032027D01*
X0073924Y0031857D01*
X0073897Y0031687D01*
X0073865Y0031518D01*
X0073830Y0031350D01*
X0073790Y0031183D01*
X0073746Y0031017D01*
X0073699Y0030852D01*
X0073647Y0030688D01*
X0073591Y0030526D01*
X0073531Y0030365D01*
X0073467Y0030205D01*
X0073399Y0030047D01*
X0073328Y0029891D01*
X0073253Y0029737D01*
X0073173Y0029584D01*
X0073091Y0029434D01*
X0073004Y0029285D01*
X0072914Y0029139D01*
X0072820Y0028995D01*
X0072723Y0028853D01*
X0072622Y0028714D01*
X0072518Y0028577D01*
X0072411Y0028443D01*
X0072300Y0028312D01*
X0072187Y0028183D01*
X0072070Y0028057D01*
X0071950Y0027934D01*
X0071827Y0027814D01*
X0071701Y0027697D01*
X0071572Y0027584D01*
X0071441Y0027473D01*
X0071307Y0027366D01*
X0071170Y0027262D01*
X0071031Y0027161D01*
X0070889Y0027064D01*
X0070745Y0026970D01*
X0070599Y0026880D01*
X0070450Y0026793D01*
X0070300Y0026711D01*
X0070147Y0026631D01*
X0069993Y0026556D01*
X0069837Y0026485D01*
X0069679Y0026417D01*
X0069519Y0026353D01*
X0069358Y0026293D01*
X0069196Y0026237D01*
X0069032Y0026185D01*
X0068867Y0026138D01*
X0068701Y0026094D01*
X0068534Y0026054D01*
X0068366Y0026019D01*
X0068197Y0025987D01*
X0068027Y0025960D01*
X0067857Y0025937D01*
X0067686Y0025918D01*
X0067515Y0025903D01*
X0067343Y0025892D01*
X0067172Y0025886D01*
X0067000Y0025884D01*
X0066828Y0025886D01*
X0066657Y0025892D01*
X0066485Y0025903D01*
X0066314Y0025918D01*
X0066143Y0025937D01*
X0065973Y0025960D01*
X0065803Y0025987D01*
X0065634Y0026019D01*
X0065466Y0026054D01*
X0065299Y0026094D01*
X0065133Y0026138D01*
X0064968Y0026185D01*
X0064804Y0026237D01*
X0064642Y0026293D01*
X0064481Y0026353D01*
X0064321Y0026417D01*
X0064163Y0026485D01*
X0064007Y0026556D01*
X0063853Y0026631D01*
X0063700Y0026711D01*
X0063550Y0026793D01*
X0063401Y0026880D01*
X0063255Y0026970D01*
X0063111Y0027064D01*
X0062969Y0027161D01*
X0062830Y0027262D01*
X0062693Y0027366D01*
X0062559Y0027473D01*
X0062428Y0027584D01*
X0062299Y0027697D01*
X0062173Y0027814D01*
X0062050Y0027934D01*
X0061930Y0028057D01*
X0061813Y0028183D01*
X0061700Y0028312D01*
X0061589Y0028443D01*
X0061482Y0028577D01*
X0061378Y0028714D01*
X0061277Y0028853D01*
X0061180Y0028995D01*
X0061086Y0029139D01*
X0060996Y0029285D01*
X0060909Y0029434D01*
X0060827Y0029584D01*
X0060747Y0029737D01*
X0060672Y0029891D01*
X0060601Y0030047D01*
X0060533Y0030205D01*
X0060469Y0030365D01*
X0060409Y0030526D01*
X0060353Y0030688D01*
X0060301Y0030852D01*
X0060254Y0031017D01*
X0060210Y0031183D01*
X0060170Y0031350D01*
X0060135Y0031518D01*
X0060103Y0031687D01*
X0060076Y0031857D01*
X0060053Y0032027D01*
X0060034Y0032198D01*
X0060019Y0032369D01*
X0060008Y0032541D01*
X0060002Y0032712D01*
X0060000Y0032884D01*
X0097000Y0032884D02*
X0097003Y0033129D01*
X0097012Y0033375D01*
X0097027Y0033620D01*
X0097048Y0033864D01*
X0097075Y0034108D01*
X0097108Y0034351D01*
X0097147Y0034594D01*
X0097192Y0034835D01*
X0097243Y0035075D01*
X0097300Y0035314D01*
X0097362Y0035551D01*
X0097431Y0035787D01*
X0097505Y0036021D01*
X0097585Y0036253D01*
X0097670Y0036483D01*
X0097761Y0036711D01*
X0097858Y0036936D01*
X0097960Y0037160D01*
X0098068Y0037380D01*
X0098181Y0037598D01*
X0098299Y0037813D01*
X0098423Y0038025D01*
X0098551Y0038234D01*
X0098685Y0038440D01*
X0098824Y0038642D01*
X0098968Y0038841D01*
X0099117Y0039036D01*
X0099270Y0039228D01*
X0099428Y0039416D01*
X0099590Y0039600D01*
X0099758Y0039779D01*
X0099929Y0039955D01*
X0100105Y0040126D01*
X0100284Y0040294D01*
X0100468Y0040456D01*
X0100656Y0040614D01*
X0100848Y0040767D01*
X0101043Y0040916D01*
X0101242Y0041060D01*
X0101444Y0041199D01*
X0101650Y0041333D01*
X0101859Y0041461D01*
X0102071Y0041585D01*
X0102286Y0041703D01*
X0102504Y0041816D01*
X0102724Y0041924D01*
X0102948Y0042026D01*
X0103173Y0042123D01*
X0103401Y0042214D01*
X0103631Y0042299D01*
X0103863Y0042379D01*
X0104097Y0042453D01*
X0104333Y0042522D01*
X0104570Y0042584D01*
X0104809Y0042641D01*
X0105049Y0042692D01*
X0105290Y0042737D01*
X0105533Y0042776D01*
X0105776Y0042809D01*
X0106020Y0042836D01*
X0106264Y0042857D01*
X0106509Y0042872D01*
X0106755Y0042881D01*
X0107000Y0042884D01*
X0107245Y0042881D01*
X0107491Y0042872D01*
X0107736Y0042857D01*
X0107980Y0042836D01*
X0108224Y0042809D01*
X0108467Y0042776D01*
X0108710Y0042737D01*
X0108951Y0042692D01*
X0109191Y0042641D01*
X0109430Y0042584D01*
X0109667Y0042522D01*
X0109903Y0042453D01*
X0110137Y0042379D01*
X0110369Y0042299D01*
X0110599Y0042214D01*
X0110827Y0042123D01*
X0111052Y0042026D01*
X0111276Y0041924D01*
X0111496Y0041816D01*
X0111714Y0041703D01*
X0111929Y0041585D01*
X0112141Y0041461D01*
X0112350Y0041333D01*
X0112556Y0041199D01*
X0112758Y0041060D01*
X0112957Y0040916D01*
X0113152Y0040767D01*
X0113344Y0040614D01*
X0113532Y0040456D01*
X0113716Y0040294D01*
X0113895Y0040126D01*
X0114071Y0039955D01*
X0114242Y0039779D01*
X0114410Y0039600D01*
X0114572Y0039416D01*
X0114730Y0039228D01*
X0114883Y0039036D01*
X0115032Y0038841D01*
X0115176Y0038642D01*
X0115315Y0038440D01*
X0115449Y0038234D01*
X0115577Y0038025D01*
X0115701Y0037813D01*
X0115819Y0037598D01*
X0115932Y0037380D01*
X0116040Y0037160D01*
X0116142Y0036936D01*
X0116239Y0036711D01*
X0116330Y0036483D01*
X0116415Y0036253D01*
X0116495Y0036021D01*
X0116569Y0035787D01*
X0116638Y0035551D01*
X0116700Y0035314D01*
X0116757Y0035075D01*
X0116808Y0034835D01*
X0116853Y0034594D01*
X0116892Y0034351D01*
X0116925Y0034108D01*
X0116952Y0033864D01*
X0116973Y0033620D01*
X0116988Y0033375D01*
X0116997Y0033129D01*
X0117000Y0032884D01*
X0116997Y0032639D01*
X0116988Y0032393D01*
X0116973Y0032148D01*
X0116952Y0031904D01*
X0116925Y0031660D01*
X0116892Y0031417D01*
X0116853Y0031174D01*
X0116808Y0030933D01*
X0116757Y0030693D01*
X0116700Y0030454D01*
X0116638Y0030217D01*
X0116569Y0029981D01*
X0116495Y0029747D01*
X0116415Y0029515D01*
X0116330Y0029285D01*
X0116239Y0029057D01*
X0116142Y0028832D01*
X0116040Y0028608D01*
X0115932Y0028388D01*
X0115819Y0028170D01*
X0115701Y0027955D01*
X0115577Y0027743D01*
X0115449Y0027534D01*
X0115315Y0027328D01*
X0115176Y0027126D01*
X0115032Y0026927D01*
X0114883Y0026732D01*
X0114730Y0026540D01*
X0114572Y0026352D01*
X0114410Y0026168D01*
X0114242Y0025989D01*
X0114071Y0025813D01*
X0113895Y0025642D01*
X0113716Y0025474D01*
X0113532Y0025312D01*
X0113344Y0025154D01*
X0113152Y0025001D01*
X0112957Y0024852D01*
X0112758Y0024708D01*
X0112556Y0024569D01*
X0112350Y0024435D01*
X0112141Y0024307D01*
X0111929Y0024183D01*
X0111714Y0024065D01*
X0111496Y0023952D01*
X0111276Y0023844D01*
X0111052Y0023742D01*
X0110827Y0023645D01*
X0110599Y0023554D01*
X0110369Y0023469D01*
X0110137Y0023389D01*
X0109903Y0023315D01*
X0109667Y0023246D01*
X0109430Y0023184D01*
X0109191Y0023127D01*
X0108951Y0023076D01*
X0108710Y0023031D01*
X0108467Y0022992D01*
X0108224Y0022959D01*
X0107980Y0022932D01*
X0107736Y0022911D01*
X0107491Y0022896D01*
X0107245Y0022887D01*
X0107000Y0022884D01*
X0106755Y0022887D01*
X0106509Y0022896D01*
X0106264Y0022911D01*
X0106020Y0022932D01*
X0105776Y0022959D01*
X0105533Y0022992D01*
X0105290Y0023031D01*
X0105049Y0023076D01*
X0104809Y0023127D01*
X0104570Y0023184D01*
X0104333Y0023246D01*
X0104097Y0023315D01*
X0103863Y0023389D01*
X0103631Y0023469D01*
X0103401Y0023554D01*
X0103173Y0023645D01*
X0102948Y0023742D01*
X0102724Y0023844D01*
X0102504Y0023952D01*
X0102286Y0024065D01*
X0102071Y0024183D01*
X0101859Y0024307D01*
X0101650Y0024435D01*
X0101444Y0024569D01*
X0101242Y0024708D01*
X0101043Y0024852D01*
X0100848Y0025001D01*
X0100656Y0025154D01*
X0100468Y0025312D01*
X0100284Y0025474D01*
X0100105Y0025642D01*
X0099929Y0025813D01*
X0099758Y0025989D01*
X0099590Y0026168D01*
X0099428Y0026352D01*
X0099270Y0026540D01*
X0099117Y0026732D01*
X0098968Y0026927D01*
X0098824Y0027126D01*
X0098685Y0027328D01*
X0098551Y0027534D01*
X0098423Y0027743D01*
X0098299Y0027955D01*
X0098181Y0028170D01*
X0098068Y0028388D01*
X0097960Y0028608D01*
X0097858Y0028832D01*
X0097761Y0029057D01*
X0097670Y0029285D01*
X0097585Y0029515D01*
X0097505Y0029747D01*
X0097431Y0029981D01*
X0097362Y0030217D01*
X0097300Y0030454D01*
X0097243Y0030693D01*
X0097192Y0030933D01*
X0097147Y0031174D01*
X0097108Y0031417D01*
X0097075Y0031660D01*
X0097048Y0031904D01*
X0097027Y0032148D01*
X0097012Y0032393D01*
X0097003Y0032639D01*
X0097000Y0032884D01*
X0111000Y0038384D02*
X0112000Y0038384D01*
X0113000Y0038384D01*
X0112000Y0038384D02*
X0112000Y0037384D01*
X0112000Y0038384D02*
X0112000Y0039384D01*
X0115500Y0053384D02*
X0117000Y0053384D01*
X0117500Y0053884D01*
X0136500Y0053884D01*
X0137000Y0053384D01*
X0138500Y0053384D01*
X0138560Y0053386D01*
X0138621Y0053391D01*
X0138680Y0053400D01*
X0138739Y0053413D01*
X0138798Y0053429D01*
X0138855Y0053449D01*
X0138910Y0053472D01*
X0138965Y0053499D01*
X0139017Y0053528D01*
X0139068Y0053561D01*
X0139117Y0053597D01*
X0139163Y0053635D01*
X0139207Y0053677D01*
X0139249Y0053721D01*
X0139287Y0053767D01*
X0139323Y0053816D01*
X0139356Y0053867D01*
X0139385Y0053919D01*
X0139412Y0053974D01*
X0139435Y0054029D01*
X0139455Y0054086D01*
X0139471Y0054145D01*
X0139484Y0054204D01*
X0139493Y0054263D01*
X0139498Y0054324D01*
X0139500Y0054384D01*
X0139500Y0061384D01*
X0139498Y0061444D01*
X0139493Y0061505D01*
X0139484Y0061564D01*
X0139471Y0061623D01*
X0139455Y0061682D01*
X0139435Y0061739D01*
X0139412Y0061794D01*
X0139385Y0061849D01*
X0139356Y0061901D01*
X0139323Y0061952D01*
X0139287Y0062001D01*
X0139249Y0062047D01*
X0139207Y0062091D01*
X0139163Y0062133D01*
X0139117Y0062171D01*
X0139068Y0062207D01*
X0139017Y0062240D01*
X0138965Y0062269D01*
X0138910Y0062296D01*
X0138855Y0062319D01*
X0138798Y0062339D01*
X0138739Y0062355D01*
X0138680Y0062368D01*
X0138621Y0062377D01*
X0138560Y0062382D01*
X0138500Y0062384D01*
X0137000Y0062384D01*
X0136500Y0061884D01*
X0117500Y0061884D01*
X0117000Y0062384D01*
X0115500Y0062384D01*
X0115440Y0062382D01*
X0115379Y0062377D01*
X0115320Y0062368D01*
X0115261Y0062355D01*
X0115202Y0062339D01*
X0115145Y0062319D01*
X0115090Y0062296D01*
X0115035Y0062269D01*
X0114983Y0062240D01*
X0114932Y0062207D01*
X0114883Y0062171D01*
X0114837Y0062133D01*
X0114793Y0062091D01*
X0114751Y0062047D01*
X0114713Y0062001D01*
X0114677Y0061952D01*
X0114644Y0061901D01*
X0114615Y0061849D01*
X0114588Y0061794D01*
X0114565Y0061739D01*
X0114545Y0061682D01*
X0114529Y0061623D01*
X0114516Y0061564D01*
X0114507Y0061505D01*
X0114502Y0061444D01*
X0114500Y0061384D01*
X0114500Y0054384D01*
X0114502Y0054324D01*
X0114507Y0054263D01*
X0114516Y0054204D01*
X0114529Y0054145D01*
X0114545Y0054086D01*
X0114565Y0054029D01*
X0114588Y0053974D01*
X0114615Y0053919D01*
X0114644Y0053867D01*
X0114677Y0053816D01*
X0114713Y0053767D01*
X0114751Y0053721D01*
X0114793Y0053677D01*
X0114837Y0053635D01*
X0114883Y0053597D01*
X0114932Y0053561D01*
X0114983Y0053528D01*
X0115035Y0053499D01*
X0115090Y0053472D01*
X0115145Y0053449D01*
X0115202Y0053429D01*
X0115261Y0053413D01*
X0115320Y0053400D01*
X0115379Y0053391D01*
X0115440Y0053386D01*
X0115500Y0053384D01*
X0134000Y0035884D02*
X0134000Y0029884D01*
X0135000Y0029884D01*
X0135000Y0028884D01*
X0135000Y0035884D02*
X0134000Y0035884D01*
X0135000Y0035884D02*
X0135000Y0036884D01*
X0138500Y0044884D02*
X0142000Y0044884D01*
X0152000Y0044884D01*
X0155500Y0044884D01*
X0159000Y0036884D02*
X0159000Y0035884D01*
X0160000Y0035884D01*
X0160000Y0029884D01*
X0159000Y0029884D01*
X0159000Y0028884D01*
X0155500Y0020884D02*
X0151500Y0020884D01*
X0142000Y0020884D01*
X0138500Y0020884D01*
X0146000Y0032884D02*
X0146002Y0032947D01*
X0146008Y0033009D01*
X0146018Y0033071D01*
X0146031Y0033133D01*
X0146049Y0033193D01*
X0146070Y0033252D01*
X0146095Y0033310D01*
X0146124Y0033366D01*
X0146156Y0033420D01*
X0146191Y0033472D01*
X0146229Y0033521D01*
X0146271Y0033569D01*
X0146315Y0033613D01*
X0146363Y0033655D01*
X0146412Y0033693D01*
X0146464Y0033728D01*
X0146518Y0033760D01*
X0146574Y0033789D01*
X0146632Y0033814D01*
X0146691Y0033835D01*
X0146751Y0033853D01*
X0146813Y0033866D01*
X0146875Y0033876D01*
X0146937Y0033882D01*
X0147000Y0033884D01*
X0147063Y0033882D01*
X0147125Y0033876D01*
X0147187Y0033866D01*
X0147249Y0033853D01*
X0147309Y0033835D01*
X0147368Y0033814D01*
X0147426Y0033789D01*
X0147482Y0033760D01*
X0147536Y0033728D01*
X0147588Y0033693D01*
X0147637Y0033655D01*
X0147685Y0033613D01*
X0147729Y0033569D01*
X0147771Y0033521D01*
X0147809Y0033472D01*
X0147844Y0033420D01*
X0147876Y0033366D01*
X0147905Y0033310D01*
X0147930Y0033252D01*
X0147951Y0033193D01*
X0147969Y0033133D01*
X0147982Y0033071D01*
X0147992Y0033009D01*
X0147998Y0032947D01*
X0148000Y0032884D01*
X0147998Y0032821D01*
X0147992Y0032759D01*
X0147982Y0032697D01*
X0147969Y0032635D01*
X0147951Y0032575D01*
X0147930Y0032516D01*
X0147905Y0032458D01*
X0147876Y0032402D01*
X0147844Y0032348D01*
X0147809Y0032296D01*
X0147771Y0032247D01*
X0147729Y0032199D01*
X0147685Y0032155D01*
X0147637Y0032113D01*
X0147588Y0032075D01*
X0147536Y0032040D01*
X0147482Y0032008D01*
X0147426Y0031979D01*
X0147368Y0031954D01*
X0147309Y0031933D01*
X0147249Y0031915D01*
X0147187Y0031902D01*
X0147125Y0031892D01*
X0147063Y0031886D01*
X0147000Y0031884D01*
X0146937Y0031886D01*
X0146875Y0031892D01*
X0146813Y0031902D01*
X0146751Y0031915D01*
X0146691Y0031933D01*
X0146632Y0031954D01*
X0146574Y0031979D01*
X0146518Y0032008D01*
X0146464Y0032040D01*
X0146412Y0032075D01*
X0146363Y0032113D01*
X0146315Y0032155D01*
X0146271Y0032199D01*
X0146229Y0032247D01*
X0146191Y0032296D01*
X0146156Y0032348D01*
X0146124Y0032402D01*
X0146095Y0032458D01*
X0146070Y0032516D01*
X0146049Y0032575D01*
X0146031Y0032635D01*
X0146018Y0032697D01*
X0146008Y0032759D01*
X0146002Y0032821D01*
X0146000Y0032884D01*
X0140000Y0032884D02*
X0140002Y0033056D01*
X0140008Y0033227D01*
X0140019Y0033399D01*
X0140034Y0033570D01*
X0140053Y0033741D01*
X0140076Y0033911D01*
X0140103Y0034081D01*
X0140135Y0034250D01*
X0140170Y0034418D01*
X0140210Y0034585D01*
X0140254Y0034751D01*
X0140301Y0034916D01*
X0140353Y0035080D01*
X0140409Y0035242D01*
X0140469Y0035403D01*
X0140533Y0035563D01*
X0140601Y0035721D01*
X0140672Y0035877D01*
X0140747Y0036031D01*
X0140827Y0036184D01*
X0140909Y0036334D01*
X0140996Y0036483D01*
X0141086Y0036629D01*
X0141180Y0036773D01*
X0141277Y0036915D01*
X0141378Y0037054D01*
X0141482Y0037191D01*
X0141589Y0037325D01*
X0141700Y0037456D01*
X0141813Y0037585D01*
X0141930Y0037711D01*
X0142050Y0037834D01*
X0142173Y0037954D01*
X0142299Y0038071D01*
X0142428Y0038184D01*
X0142559Y0038295D01*
X0142693Y0038402D01*
X0142830Y0038506D01*
X0142969Y0038607D01*
X0143111Y0038704D01*
X0143255Y0038798D01*
X0143401Y0038888D01*
X0143550Y0038975D01*
X0143700Y0039057D01*
X0143853Y0039137D01*
X0144007Y0039212D01*
X0144163Y0039283D01*
X0144321Y0039351D01*
X0144481Y0039415D01*
X0144642Y0039475D01*
X0144804Y0039531D01*
X0144968Y0039583D01*
X0145133Y0039630D01*
X0145299Y0039674D01*
X0145466Y0039714D01*
X0145634Y0039749D01*
X0145803Y0039781D01*
X0145973Y0039808D01*
X0146143Y0039831D01*
X0146314Y0039850D01*
X0146485Y0039865D01*
X0146657Y0039876D01*
X0146828Y0039882D01*
X0147000Y0039884D01*
X0147172Y0039882D01*
X0147343Y0039876D01*
X0147515Y0039865D01*
X0147686Y0039850D01*
X0147857Y0039831D01*
X0148027Y0039808D01*
X0148197Y0039781D01*
X0148366Y0039749D01*
X0148534Y0039714D01*
X0148701Y0039674D01*
X0148867Y0039630D01*
X0149032Y0039583D01*
X0149196Y0039531D01*
X0149358Y0039475D01*
X0149519Y0039415D01*
X0149679Y0039351D01*
X0149837Y0039283D01*
X0149993Y0039212D01*
X0150147Y0039137D01*
X0150300Y0039057D01*
X0150450Y0038975D01*
X0150599Y0038888D01*
X0150745Y0038798D01*
X0150889Y0038704D01*
X0151031Y0038607D01*
X0151170Y0038506D01*
X0151307Y0038402D01*
X0151441Y0038295D01*
X0151572Y0038184D01*
X0151701Y0038071D01*
X0151827Y0037954D01*
X0151950Y0037834D01*
X0152070Y0037711D01*
X0152187Y0037585D01*
X0152300Y0037456D01*
X0152411Y0037325D01*
X0152518Y0037191D01*
X0152622Y0037054D01*
X0152723Y0036915D01*
X0152820Y0036773D01*
X0152914Y0036629D01*
X0153004Y0036483D01*
X0153091Y0036334D01*
X0153173Y0036184D01*
X0153253Y0036031D01*
X0153328Y0035877D01*
X0153399Y0035721D01*
X0153467Y0035563D01*
X0153531Y0035403D01*
X0153591Y0035242D01*
X0153647Y0035080D01*
X0153699Y0034916D01*
X0153746Y0034751D01*
X0153790Y0034585D01*
X0153830Y0034418D01*
X0153865Y0034250D01*
X0153897Y0034081D01*
X0153924Y0033911D01*
X0153947Y0033741D01*
X0153966Y0033570D01*
X0153981Y0033399D01*
X0153992Y0033227D01*
X0153998Y0033056D01*
X0154000Y0032884D01*
X0153998Y0032712D01*
X0153992Y0032541D01*
X0153981Y0032369D01*
X0153966Y0032198D01*
X0153947Y0032027D01*
X0153924Y0031857D01*
X0153897Y0031687D01*
X0153865Y0031518D01*
X0153830Y0031350D01*
X0153790Y0031183D01*
X0153746Y0031017D01*
X0153699Y0030852D01*
X0153647Y0030688D01*
X0153591Y0030526D01*
X0153531Y0030365D01*
X0153467Y0030205D01*
X0153399Y0030047D01*
X0153328Y0029891D01*
X0153253Y0029737D01*
X0153173Y0029584D01*
X0153091Y0029434D01*
X0153004Y0029285D01*
X0152914Y0029139D01*
X0152820Y0028995D01*
X0152723Y0028853D01*
X0152622Y0028714D01*
X0152518Y0028577D01*
X0152411Y0028443D01*
X0152300Y0028312D01*
X0152187Y0028183D01*
X0152070Y0028057D01*
X0151950Y0027934D01*
X0151827Y0027814D01*
X0151701Y0027697D01*
X0151572Y0027584D01*
X0151441Y0027473D01*
X0151307Y0027366D01*
X0151170Y0027262D01*
X0151031Y0027161D01*
X0150889Y0027064D01*
X0150745Y0026970D01*
X0150599Y0026880D01*
X0150450Y0026793D01*
X0150300Y0026711D01*
X0150147Y0026631D01*
X0149993Y0026556D01*
X0149837Y0026485D01*
X0149679Y0026417D01*
X0149519Y0026353D01*
X0149358Y0026293D01*
X0149196Y0026237D01*
X0149032Y0026185D01*
X0148867Y0026138D01*
X0148701Y0026094D01*
X0148534Y0026054D01*
X0148366Y0026019D01*
X0148197Y0025987D01*
X0148027Y0025960D01*
X0147857Y0025937D01*
X0147686Y0025918D01*
X0147515Y0025903D01*
X0147343Y0025892D01*
X0147172Y0025886D01*
X0147000Y0025884D01*
X0146828Y0025886D01*
X0146657Y0025892D01*
X0146485Y0025903D01*
X0146314Y0025918D01*
X0146143Y0025937D01*
X0145973Y0025960D01*
X0145803Y0025987D01*
X0145634Y0026019D01*
X0145466Y0026054D01*
X0145299Y0026094D01*
X0145133Y0026138D01*
X0144968Y0026185D01*
X0144804Y0026237D01*
X0144642Y0026293D01*
X0144481Y0026353D01*
X0144321Y0026417D01*
X0144163Y0026485D01*
X0144007Y0026556D01*
X0143853Y0026631D01*
X0143700Y0026711D01*
X0143550Y0026793D01*
X0143401Y0026880D01*
X0143255Y0026970D01*
X0143111Y0027064D01*
X0142969Y0027161D01*
X0142830Y0027262D01*
X0142693Y0027366D01*
X0142559Y0027473D01*
X0142428Y0027584D01*
X0142299Y0027697D01*
X0142173Y0027814D01*
X0142050Y0027934D01*
X0141930Y0028057D01*
X0141813Y0028183D01*
X0141700Y0028312D01*
X0141589Y0028443D01*
X0141482Y0028577D01*
X0141378Y0028714D01*
X0141277Y0028853D01*
X0141180Y0028995D01*
X0141086Y0029139D01*
X0140996Y0029285D01*
X0140909Y0029434D01*
X0140827Y0029584D01*
X0140747Y0029737D01*
X0140672Y0029891D01*
X0140601Y0030047D01*
X0140533Y0030205D01*
X0140469Y0030365D01*
X0140409Y0030526D01*
X0140353Y0030688D01*
X0140301Y0030852D01*
X0140254Y0031017D01*
X0140210Y0031183D01*
X0140170Y0031350D01*
X0140135Y0031518D01*
X0140103Y0031687D01*
X0140076Y0031857D01*
X0140053Y0032027D01*
X0140034Y0032198D01*
X0140019Y0032369D01*
X0140008Y0032541D01*
X0140002Y0032712D01*
X0140000Y0032884D01*
X0177000Y0032884D02*
X0177003Y0033129D01*
X0177012Y0033375D01*
X0177027Y0033620D01*
X0177048Y0033864D01*
X0177075Y0034108D01*
X0177108Y0034351D01*
X0177147Y0034594D01*
X0177192Y0034835D01*
X0177243Y0035075D01*
X0177300Y0035314D01*
X0177362Y0035551D01*
X0177431Y0035787D01*
X0177505Y0036021D01*
X0177585Y0036253D01*
X0177670Y0036483D01*
X0177761Y0036711D01*
X0177858Y0036936D01*
X0177960Y0037160D01*
X0178068Y0037380D01*
X0178181Y0037598D01*
X0178299Y0037813D01*
X0178423Y0038025D01*
X0178551Y0038234D01*
X0178685Y0038440D01*
X0178824Y0038642D01*
X0178968Y0038841D01*
X0179117Y0039036D01*
X0179270Y0039228D01*
X0179428Y0039416D01*
X0179590Y0039600D01*
X0179758Y0039779D01*
X0179929Y0039955D01*
X0180105Y0040126D01*
X0180284Y0040294D01*
X0180468Y0040456D01*
X0180656Y0040614D01*
X0180848Y0040767D01*
X0181043Y0040916D01*
X0181242Y0041060D01*
X0181444Y0041199D01*
X0181650Y0041333D01*
X0181859Y0041461D01*
X0182071Y0041585D01*
X0182286Y0041703D01*
X0182504Y0041816D01*
X0182724Y0041924D01*
X0182948Y0042026D01*
X0183173Y0042123D01*
X0183401Y0042214D01*
X0183631Y0042299D01*
X0183863Y0042379D01*
X0184097Y0042453D01*
X0184333Y0042522D01*
X0184570Y0042584D01*
X0184809Y0042641D01*
X0185049Y0042692D01*
X0185290Y0042737D01*
X0185533Y0042776D01*
X0185776Y0042809D01*
X0186020Y0042836D01*
X0186264Y0042857D01*
X0186509Y0042872D01*
X0186755Y0042881D01*
X0187000Y0042884D01*
X0187245Y0042881D01*
X0187491Y0042872D01*
X0187736Y0042857D01*
X0187980Y0042836D01*
X0188224Y0042809D01*
X0188467Y0042776D01*
X0188710Y0042737D01*
X0188951Y0042692D01*
X0189191Y0042641D01*
X0189430Y0042584D01*
X0189667Y0042522D01*
X0189903Y0042453D01*
X0190137Y0042379D01*
X0190369Y0042299D01*
X0190599Y0042214D01*
X0190827Y0042123D01*
X0191052Y0042026D01*
X0191276Y0041924D01*
X0191496Y0041816D01*
X0191714Y0041703D01*
X0191929Y0041585D01*
X0192141Y0041461D01*
X0192350Y0041333D01*
X0192556Y0041199D01*
X0192758Y0041060D01*
X0192957Y0040916D01*
X0193152Y0040767D01*
X0193344Y0040614D01*
X0193532Y0040456D01*
X0193716Y0040294D01*
X0193895Y0040126D01*
X0194071Y0039955D01*
X0194242Y0039779D01*
X0194410Y0039600D01*
X0194572Y0039416D01*
X0194730Y0039228D01*
X0194883Y0039036D01*
X0195032Y0038841D01*
X0195176Y0038642D01*
X0195315Y0038440D01*
X0195449Y0038234D01*
X0195577Y0038025D01*
X0195701Y0037813D01*
X0195819Y0037598D01*
X0195932Y0037380D01*
X0196040Y0037160D01*
X0196142Y0036936D01*
X0196239Y0036711D01*
X0196330Y0036483D01*
X0196415Y0036253D01*
X0196495Y0036021D01*
X0196569Y0035787D01*
X0196638Y0035551D01*
X0196700Y0035314D01*
X0196757Y0035075D01*
X0196808Y0034835D01*
X0196853Y0034594D01*
X0196892Y0034351D01*
X0196925Y0034108D01*
X0196952Y0033864D01*
X0196973Y0033620D01*
X0196988Y0033375D01*
X0196997Y0033129D01*
X0197000Y0032884D01*
X0196997Y0032639D01*
X0196988Y0032393D01*
X0196973Y0032148D01*
X0196952Y0031904D01*
X0196925Y0031660D01*
X0196892Y0031417D01*
X0196853Y0031174D01*
X0196808Y0030933D01*
X0196757Y0030693D01*
X0196700Y0030454D01*
X0196638Y0030217D01*
X0196569Y0029981D01*
X0196495Y0029747D01*
X0196415Y0029515D01*
X0196330Y0029285D01*
X0196239Y0029057D01*
X0196142Y0028832D01*
X0196040Y0028608D01*
X0195932Y0028388D01*
X0195819Y0028170D01*
X0195701Y0027955D01*
X0195577Y0027743D01*
X0195449Y0027534D01*
X0195315Y0027328D01*
X0195176Y0027126D01*
X0195032Y0026927D01*
X0194883Y0026732D01*
X0194730Y0026540D01*
X0194572Y0026352D01*
X0194410Y0026168D01*
X0194242Y0025989D01*
X0194071Y0025813D01*
X0193895Y0025642D01*
X0193716Y0025474D01*
X0193532Y0025312D01*
X0193344Y0025154D01*
X0193152Y0025001D01*
X0192957Y0024852D01*
X0192758Y0024708D01*
X0192556Y0024569D01*
X0192350Y0024435D01*
X0192141Y0024307D01*
X0191929Y0024183D01*
X0191714Y0024065D01*
X0191496Y0023952D01*
X0191276Y0023844D01*
X0191052Y0023742D01*
X0190827Y0023645D01*
X0190599Y0023554D01*
X0190369Y0023469D01*
X0190137Y0023389D01*
X0189903Y0023315D01*
X0189667Y0023246D01*
X0189430Y0023184D01*
X0189191Y0023127D01*
X0188951Y0023076D01*
X0188710Y0023031D01*
X0188467Y0022992D01*
X0188224Y0022959D01*
X0187980Y0022932D01*
X0187736Y0022911D01*
X0187491Y0022896D01*
X0187245Y0022887D01*
X0187000Y0022884D01*
X0186755Y0022887D01*
X0186509Y0022896D01*
X0186264Y0022911D01*
X0186020Y0022932D01*
X0185776Y0022959D01*
X0185533Y0022992D01*
X0185290Y0023031D01*
X0185049Y0023076D01*
X0184809Y0023127D01*
X0184570Y0023184D01*
X0184333Y0023246D01*
X0184097Y0023315D01*
X0183863Y0023389D01*
X0183631Y0023469D01*
X0183401Y0023554D01*
X0183173Y0023645D01*
X0182948Y0023742D01*
X0182724Y0023844D01*
X0182504Y0023952D01*
X0182286Y0024065D01*
X0182071Y0024183D01*
X0181859Y0024307D01*
X0181650Y0024435D01*
X0181444Y0024569D01*
X0181242Y0024708D01*
X0181043Y0024852D01*
X0180848Y0025001D01*
X0180656Y0025154D01*
X0180468Y0025312D01*
X0180284Y0025474D01*
X0180105Y0025642D01*
X0179929Y0025813D01*
X0179758Y0025989D01*
X0179590Y0026168D01*
X0179428Y0026352D01*
X0179270Y0026540D01*
X0179117Y0026732D01*
X0178968Y0026927D01*
X0178824Y0027126D01*
X0178685Y0027328D01*
X0178551Y0027534D01*
X0178423Y0027743D01*
X0178299Y0027955D01*
X0178181Y0028170D01*
X0178068Y0028388D01*
X0177960Y0028608D01*
X0177858Y0028832D01*
X0177761Y0029057D01*
X0177670Y0029285D01*
X0177585Y0029515D01*
X0177505Y0029747D01*
X0177431Y0029981D01*
X0177362Y0030217D01*
X0177300Y0030454D01*
X0177243Y0030693D01*
X0177192Y0030933D01*
X0177147Y0031174D01*
X0177108Y0031417D01*
X0177075Y0031660D01*
X0177048Y0031904D01*
X0177027Y0032148D01*
X0177012Y0032393D01*
X0177003Y0032639D01*
X0177000Y0032884D01*
X0191000Y0038384D02*
X0192000Y0038384D01*
X0193000Y0038384D01*
X0192000Y0038384D02*
X0192000Y0037384D01*
X0192000Y0038384D02*
X0192000Y0039384D01*
X0195500Y0053384D02*
X0197000Y0053384D01*
X0197500Y0053884D01*
X0216500Y0053884D01*
X0217000Y0053384D01*
X0218500Y0053384D01*
X0218560Y0053386D01*
X0218621Y0053391D01*
X0218680Y0053400D01*
X0218739Y0053413D01*
X0218798Y0053429D01*
X0218855Y0053449D01*
X0218910Y0053472D01*
X0218965Y0053499D01*
X0219017Y0053528D01*
X0219068Y0053561D01*
X0219117Y0053597D01*
X0219163Y0053635D01*
X0219207Y0053677D01*
X0219249Y0053721D01*
X0219287Y0053767D01*
X0219323Y0053816D01*
X0219356Y0053867D01*
X0219385Y0053919D01*
X0219412Y0053974D01*
X0219435Y0054029D01*
X0219455Y0054086D01*
X0219471Y0054145D01*
X0219484Y0054204D01*
X0219493Y0054263D01*
X0219498Y0054324D01*
X0219500Y0054384D01*
X0219500Y0061384D01*
X0219498Y0061444D01*
X0219493Y0061505D01*
X0219484Y0061564D01*
X0219471Y0061623D01*
X0219455Y0061682D01*
X0219435Y0061739D01*
X0219412Y0061794D01*
X0219385Y0061849D01*
X0219356Y0061901D01*
X0219323Y0061952D01*
X0219287Y0062001D01*
X0219249Y0062047D01*
X0219207Y0062091D01*
X0219163Y0062133D01*
X0219117Y0062171D01*
X0219068Y0062207D01*
X0219017Y0062240D01*
X0218965Y0062269D01*
X0218910Y0062296D01*
X0218855Y0062319D01*
X0218798Y0062339D01*
X0218739Y0062355D01*
X0218680Y0062368D01*
X0218621Y0062377D01*
X0218560Y0062382D01*
X0218500Y0062384D01*
X0217000Y0062384D01*
X0216500Y0061884D01*
X0197500Y0061884D01*
X0197000Y0062384D01*
X0195500Y0062384D01*
X0195440Y0062382D01*
X0195379Y0062377D01*
X0195320Y0062368D01*
X0195261Y0062355D01*
X0195202Y0062339D01*
X0195145Y0062319D01*
X0195090Y0062296D01*
X0195035Y0062269D01*
X0194983Y0062240D01*
X0194932Y0062207D01*
X0194883Y0062171D01*
X0194837Y0062133D01*
X0194793Y0062091D01*
X0194751Y0062047D01*
X0194713Y0062001D01*
X0194677Y0061952D01*
X0194644Y0061901D01*
X0194615Y0061849D01*
X0194588Y0061794D01*
X0194565Y0061739D01*
X0194545Y0061682D01*
X0194529Y0061623D01*
X0194516Y0061564D01*
X0194507Y0061505D01*
X0194502Y0061444D01*
X0194500Y0061384D01*
X0194500Y0054384D01*
X0194502Y0054324D01*
X0194507Y0054263D01*
X0194516Y0054204D01*
X0194529Y0054145D01*
X0194545Y0054086D01*
X0194565Y0054029D01*
X0194588Y0053974D01*
X0194615Y0053919D01*
X0194644Y0053867D01*
X0194677Y0053816D01*
X0194713Y0053767D01*
X0194751Y0053721D01*
X0194793Y0053677D01*
X0194837Y0053635D01*
X0194883Y0053597D01*
X0194932Y0053561D01*
X0194983Y0053528D01*
X0195035Y0053499D01*
X0195090Y0053472D01*
X0195145Y0053449D01*
X0195202Y0053429D01*
X0195261Y0053413D01*
X0195320Y0053400D01*
X0195379Y0053391D01*
X0195440Y0053386D01*
X0195500Y0053384D01*
X0215000Y0036884D02*
X0215000Y0035884D01*
X0214000Y0035884D01*
X0214000Y0029884D01*
X0215000Y0029884D01*
X0215000Y0028884D01*
X0218500Y0020884D02*
X0222000Y0020884D01*
X0231500Y0020884D01*
X0235500Y0020884D01*
X0239000Y0028884D02*
X0239000Y0029884D01*
X0240000Y0029884D01*
X0240000Y0035884D01*
X0239000Y0035884D01*
X0239000Y0036884D01*
X0235500Y0044884D02*
X0232000Y0044884D01*
X0222000Y0044884D01*
X0218500Y0044884D01*
X0226000Y0032884D02*
X0226002Y0032947D01*
X0226008Y0033009D01*
X0226018Y0033071D01*
X0226031Y0033133D01*
X0226049Y0033193D01*
X0226070Y0033252D01*
X0226095Y0033310D01*
X0226124Y0033366D01*
X0226156Y0033420D01*
X0226191Y0033472D01*
X0226229Y0033521D01*
X0226271Y0033569D01*
X0226315Y0033613D01*
X0226363Y0033655D01*
X0226412Y0033693D01*
X0226464Y0033728D01*
X0226518Y0033760D01*
X0226574Y0033789D01*
X0226632Y0033814D01*
X0226691Y0033835D01*
X0226751Y0033853D01*
X0226813Y0033866D01*
X0226875Y0033876D01*
X0226937Y0033882D01*
X0227000Y0033884D01*
X0227063Y0033882D01*
X0227125Y0033876D01*
X0227187Y0033866D01*
X0227249Y0033853D01*
X0227309Y0033835D01*
X0227368Y0033814D01*
X0227426Y0033789D01*
X0227482Y0033760D01*
X0227536Y0033728D01*
X0227588Y0033693D01*
X0227637Y0033655D01*
X0227685Y0033613D01*
X0227729Y0033569D01*
X0227771Y0033521D01*
X0227809Y0033472D01*
X0227844Y0033420D01*
X0227876Y0033366D01*
X0227905Y0033310D01*
X0227930Y0033252D01*
X0227951Y0033193D01*
X0227969Y0033133D01*
X0227982Y0033071D01*
X0227992Y0033009D01*
X0227998Y0032947D01*
X0228000Y0032884D01*
X0227998Y0032821D01*
X0227992Y0032759D01*
X0227982Y0032697D01*
X0227969Y0032635D01*
X0227951Y0032575D01*
X0227930Y0032516D01*
X0227905Y0032458D01*
X0227876Y0032402D01*
X0227844Y0032348D01*
X0227809Y0032296D01*
X0227771Y0032247D01*
X0227729Y0032199D01*
X0227685Y0032155D01*
X0227637Y0032113D01*
X0227588Y0032075D01*
X0227536Y0032040D01*
X0227482Y0032008D01*
X0227426Y0031979D01*
X0227368Y0031954D01*
X0227309Y0031933D01*
X0227249Y0031915D01*
X0227187Y0031902D01*
X0227125Y0031892D01*
X0227063Y0031886D01*
X0227000Y0031884D01*
X0226937Y0031886D01*
X0226875Y0031892D01*
X0226813Y0031902D01*
X0226751Y0031915D01*
X0226691Y0031933D01*
X0226632Y0031954D01*
X0226574Y0031979D01*
X0226518Y0032008D01*
X0226464Y0032040D01*
X0226412Y0032075D01*
X0226363Y0032113D01*
X0226315Y0032155D01*
X0226271Y0032199D01*
X0226229Y0032247D01*
X0226191Y0032296D01*
X0226156Y0032348D01*
X0226124Y0032402D01*
X0226095Y0032458D01*
X0226070Y0032516D01*
X0226049Y0032575D01*
X0226031Y0032635D01*
X0226018Y0032697D01*
X0226008Y0032759D01*
X0226002Y0032821D01*
X0226000Y0032884D01*
X0220000Y0032884D02*
X0220002Y0033056D01*
X0220008Y0033227D01*
X0220019Y0033399D01*
X0220034Y0033570D01*
X0220053Y0033741D01*
X0220076Y0033911D01*
X0220103Y0034081D01*
X0220135Y0034250D01*
X0220170Y0034418D01*
X0220210Y0034585D01*
X0220254Y0034751D01*
X0220301Y0034916D01*
X0220353Y0035080D01*
X0220409Y0035242D01*
X0220469Y0035403D01*
X0220533Y0035563D01*
X0220601Y0035721D01*
X0220672Y0035877D01*
X0220747Y0036031D01*
X0220827Y0036184D01*
X0220909Y0036334D01*
X0220996Y0036483D01*
X0221086Y0036629D01*
X0221180Y0036773D01*
X0221277Y0036915D01*
X0221378Y0037054D01*
X0221482Y0037191D01*
X0221589Y0037325D01*
X0221700Y0037456D01*
X0221813Y0037585D01*
X0221930Y0037711D01*
X0222050Y0037834D01*
X0222173Y0037954D01*
X0222299Y0038071D01*
X0222428Y0038184D01*
X0222559Y0038295D01*
X0222693Y0038402D01*
X0222830Y0038506D01*
X0222969Y0038607D01*
X0223111Y0038704D01*
X0223255Y0038798D01*
X0223401Y0038888D01*
X0223550Y0038975D01*
X0223700Y0039057D01*
X0223853Y0039137D01*
X0224007Y0039212D01*
X0224163Y0039283D01*
X0224321Y0039351D01*
X0224481Y0039415D01*
X0224642Y0039475D01*
X0224804Y0039531D01*
X0224968Y0039583D01*
X0225133Y0039630D01*
X0225299Y0039674D01*
X0225466Y0039714D01*
X0225634Y0039749D01*
X0225803Y0039781D01*
X0225973Y0039808D01*
X0226143Y0039831D01*
X0226314Y0039850D01*
X0226485Y0039865D01*
X0226657Y0039876D01*
X0226828Y0039882D01*
X0227000Y0039884D01*
X0227172Y0039882D01*
X0227343Y0039876D01*
X0227515Y0039865D01*
X0227686Y0039850D01*
X0227857Y0039831D01*
X0228027Y0039808D01*
X0228197Y0039781D01*
X0228366Y0039749D01*
X0228534Y0039714D01*
X0228701Y0039674D01*
X0228867Y0039630D01*
X0229032Y0039583D01*
X0229196Y0039531D01*
X0229358Y0039475D01*
X0229519Y0039415D01*
X0229679Y0039351D01*
X0229837Y0039283D01*
X0229993Y0039212D01*
X0230147Y0039137D01*
X0230300Y0039057D01*
X0230450Y0038975D01*
X0230599Y0038888D01*
X0230745Y0038798D01*
X0230889Y0038704D01*
X0231031Y0038607D01*
X0231170Y0038506D01*
X0231307Y0038402D01*
X0231441Y0038295D01*
X0231572Y0038184D01*
X0231701Y0038071D01*
X0231827Y0037954D01*
X0231950Y0037834D01*
X0232070Y0037711D01*
X0232187Y0037585D01*
X0232300Y0037456D01*
X0232411Y0037325D01*
X0232518Y0037191D01*
X0232622Y0037054D01*
X0232723Y0036915D01*
X0232820Y0036773D01*
X0232914Y0036629D01*
X0233004Y0036483D01*
X0233091Y0036334D01*
X0233173Y0036184D01*
X0233253Y0036031D01*
X0233328Y0035877D01*
X0233399Y0035721D01*
X0233467Y0035563D01*
X0233531Y0035403D01*
X0233591Y0035242D01*
X0233647Y0035080D01*
X0233699Y0034916D01*
X0233746Y0034751D01*
X0233790Y0034585D01*
X0233830Y0034418D01*
X0233865Y0034250D01*
X0233897Y0034081D01*
X0233924Y0033911D01*
X0233947Y0033741D01*
X0233966Y0033570D01*
X0233981Y0033399D01*
X0233992Y0033227D01*
X0233998Y0033056D01*
X0234000Y0032884D01*
X0233998Y0032712D01*
X0233992Y0032541D01*
X0233981Y0032369D01*
X0233966Y0032198D01*
X0233947Y0032027D01*
X0233924Y0031857D01*
X0233897Y0031687D01*
X0233865Y0031518D01*
X0233830Y0031350D01*
X0233790Y0031183D01*
X0233746Y0031017D01*
X0233699Y0030852D01*
X0233647Y0030688D01*
X0233591Y0030526D01*
X0233531Y0030365D01*
X0233467Y0030205D01*
X0233399Y0030047D01*
X0233328Y0029891D01*
X0233253Y0029737D01*
X0233173Y0029584D01*
X0233091Y0029434D01*
X0233004Y0029285D01*
X0232914Y0029139D01*
X0232820Y0028995D01*
X0232723Y0028853D01*
X0232622Y0028714D01*
X0232518Y0028577D01*
X0232411Y0028443D01*
X0232300Y0028312D01*
X0232187Y0028183D01*
X0232070Y0028057D01*
X0231950Y0027934D01*
X0231827Y0027814D01*
X0231701Y0027697D01*
X0231572Y0027584D01*
X0231441Y0027473D01*
X0231307Y0027366D01*
X0231170Y0027262D01*
X0231031Y0027161D01*
X0230889Y0027064D01*
X0230745Y0026970D01*
X0230599Y0026880D01*
X0230450Y0026793D01*
X0230300Y0026711D01*
X0230147Y0026631D01*
X0229993Y0026556D01*
X0229837Y0026485D01*
X0229679Y0026417D01*
X0229519Y0026353D01*
X0229358Y0026293D01*
X0229196Y0026237D01*
X0229032Y0026185D01*
X0228867Y0026138D01*
X0228701Y0026094D01*
X0228534Y0026054D01*
X0228366Y0026019D01*
X0228197Y0025987D01*
X0228027Y0025960D01*
X0227857Y0025937D01*
X0227686Y0025918D01*
X0227515Y0025903D01*
X0227343Y0025892D01*
X0227172Y0025886D01*
X0227000Y0025884D01*
X0226828Y0025886D01*
X0226657Y0025892D01*
X0226485Y0025903D01*
X0226314Y0025918D01*
X0226143Y0025937D01*
X0225973Y0025960D01*
X0225803Y0025987D01*
X0225634Y0026019D01*
X0225466Y0026054D01*
X0225299Y0026094D01*
X0225133Y0026138D01*
X0224968Y0026185D01*
X0224804Y0026237D01*
X0224642Y0026293D01*
X0224481Y0026353D01*
X0224321Y0026417D01*
X0224163Y0026485D01*
X0224007Y0026556D01*
X0223853Y0026631D01*
X0223700Y0026711D01*
X0223550Y0026793D01*
X0223401Y0026880D01*
X0223255Y0026970D01*
X0223111Y0027064D01*
X0222969Y0027161D01*
X0222830Y0027262D01*
X0222693Y0027366D01*
X0222559Y0027473D01*
X0222428Y0027584D01*
X0222299Y0027697D01*
X0222173Y0027814D01*
X0222050Y0027934D01*
X0221930Y0028057D01*
X0221813Y0028183D01*
X0221700Y0028312D01*
X0221589Y0028443D01*
X0221482Y0028577D01*
X0221378Y0028714D01*
X0221277Y0028853D01*
X0221180Y0028995D01*
X0221086Y0029139D01*
X0220996Y0029285D01*
X0220909Y0029434D01*
X0220827Y0029584D01*
X0220747Y0029737D01*
X0220672Y0029891D01*
X0220601Y0030047D01*
X0220533Y0030205D01*
X0220469Y0030365D01*
X0220409Y0030526D01*
X0220353Y0030688D01*
X0220301Y0030852D01*
X0220254Y0031017D01*
X0220210Y0031183D01*
X0220170Y0031350D01*
X0220135Y0031518D01*
X0220103Y0031687D01*
X0220076Y0031857D01*
X0220053Y0032027D01*
X0220034Y0032198D01*
X0220019Y0032369D01*
X0220008Y0032541D01*
X0220002Y0032712D01*
X0220000Y0032884D01*
X0267500Y0041384D02*
X0267500Y0042884D01*
X0268000Y0043384D01*
X0268000Y0062384D01*
X0267500Y0062884D01*
X0267500Y0064384D01*
X0267502Y0064444D01*
X0267507Y0064505D01*
X0267516Y0064564D01*
X0267529Y0064623D01*
X0267545Y0064682D01*
X0267565Y0064739D01*
X0267588Y0064794D01*
X0267615Y0064849D01*
X0267644Y0064901D01*
X0267677Y0064952D01*
X0267713Y0065001D01*
X0267751Y0065047D01*
X0267793Y0065091D01*
X0267837Y0065133D01*
X0267883Y0065171D01*
X0267932Y0065207D01*
X0267983Y0065240D01*
X0268035Y0065269D01*
X0268090Y0065296D01*
X0268145Y0065319D01*
X0268202Y0065339D01*
X0268261Y0065355D01*
X0268320Y0065368D01*
X0268379Y0065377D01*
X0268440Y0065382D01*
X0268500Y0065384D01*
X0275500Y0065384D01*
X0275560Y0065382D01*
X0275621Y0065377D01*
X0275680Y0065368D01*
X0275739Y0065355D01*
X0275798Y0065339D01*
X0275855Y0065319D01*
X0275910Y0065296D01*
X0275965Y0065269D01*
X0276017Y0065240D01*
X0276068Y0065207D01*
X0276117Y0065171D01*
X0276163Y0065133D01*
X0276207Y0065091D01*
X0276249Y0065047D01*
X0276287Y0065001D01*
X0276323Y0064952D01*
X0276356Y0064901D01*
X0276385Y0064849D01*
X0276412Y0064794D01*
X0276435Y0064739D01*
X0276455Y0064682D01*
X0276471Y0064623D01*
X0276484Y0064564D01*
X0276493Y0064505D01*
X0276498Y0064444D01*
X0276500Y0064384D01*
X0276500Y0062884D01*
X0276000Y0062384D01*
X0276000Y0043384D01*
X0276500Y0042884D01*
X0276500Y0041384D01*
X0276498Y0041324D01*
X0276493Y0041263D01*
X0276484Y0041204D01*
X0276471Y0041145D01*
X0276455Y0041086D01*
X0276435Y0041029D01*
X0276412Y0040974D01*
X0276385Y0040919D01*
X0276356Y0040867D01*
X0276323Y0040816D01*
X0276287Y0040767D01*
X0276249Y0040721D01*
X0276207Y0040677D01*
X0276163Y0040635D01*
X0276117Y0040597D01*
X0276068Y0040561D01*
X0276017Y0040528D01*
X0275965Y0040499D01*
X0275910Y0040472D01*
X0275855Y0040449D01*
X0275798Y0040429D01*
X0275739Y0040413D01*
X0275680Y0040400D01*
X0275621Y0040391D01*
X0275560Y0040386D01*
X0275500Y0040384D01*
X0268500Y0040384D01*
X0268440Y0040386D01*
X0268379Y0040391D01*
X0268320Y0040400D01*
X0268261Y0040413D01*
X0268202Y0040429D01*
X0268145Y0040449D01*
X0268090Y0040472D01*
X0268035Y0040499D01*
X0267983Y0040528D01*
X0267932Y0040561D01*
X0267883Y0040597D01*
X0267837Y0040635D01*
X0267793Y0040677D01*
X0267751Y0040721D01*
X0267713Y0040767D01*
X0267677Y0040816D01*
X0267644Y0040867D01*
X0267615Y0040919D01*
X0267588Y0040974D01*
X0267565Y0041029D01*
X0267545Y0041086D01*
X0267529Y0041145D01*
X0267516Y0041204D01*
X0267507Y0041263D01*
X0267502Y0041324D01*
X0267500Y0041384D01*
X0282000Y0032884D02*
X0282003Y0033129D01*
X0282012Y0033375D01*
X0282027Y0033620D01*
X0282048Y0033864D01*
X0282075Y0034108D01*
X0282108Y0034351D01*
X0282147Y0034594D01*
X0282192Y0034835D01*
X0282243Y0035075D01*
X0282300Y0035314D01*
X0282362Y0035551D01*
X0282431Y0035787D01*
X0282505Y0036021D01*
X0282585Y0036253D01*
X0282670Y0036483D01*
X0282761Y0036711D01*
X0282858Y0036936D01*
X0282960Y0037160D01*
X0283068Y0037380D01*
X0283181Y0037598D01*
X0283299Y0037813D01*
X0283423Y0038025D01*
X0283551Y0038234D01*
X0283685Y0038440D01*
X0283824Y0038642D01*
X0283968Y0038841D01*
X0284117Y0039036D01*
X0284270Y0039228D01*
X0284428Y0039416D01*
X0284590Y0039600D01*
X0284758Y0039779D01*
X0284929Y0039955D01*
X0285105Y0040126D01*
X0285284Y0040294D01*
X0285468Y0040456D01*
X0285656Y0040614D01*
X0285848Y0040767D01*
X0286043Y0040916D01*
X0286242Y0041060D01*
X0286444Y0041199D01*
X0286650Y0041333D01*
X0286859Y0041461D01*
X0287071Y0041585D01*
X0287286Y0041703D01*
X0287504Y0041816D01*
X0287724Y0041924D01*
X0287948Y0042026D01*
X0288173Y0042123D01*
X0288401Y0042214D01*
X0288631Y0042299D01*
X0288863Y0042379D01*
X0289097Y0042453D01*
X0289333Y0042522D01*
X0289570Y0042584D01*
X0289809Y0042641D01*
X0290049Y0042692D01*
X0290290Y0042737D01*
X0290533Y0042776D01*
X0290776Y0042809D01*
X0291020Y0042836D01*
X0291264Y0042857D01*
X0291509Y0042872D01*
X0291755Y0042881D01*
X0292000Y0042884D01*
X0292245Y0042881D01*
X0292491Y0042872D01*
X0292736Y0042857D01*
X0292980Y0042836D01*
X0293224Y0042809D01*
X0293467Y0042776D01*
X0293710Y0042737D01*
X0293951Y0042692D01*
X0294191Y0042641D01*
X0294430Y0042584D01*
X0294667Y0042522D01*
X0294903Y0042453D01*
X0295137Y0042379D01*
X0295369Y0042299D01*
X0295599Y0042214D01*
X0295827Y0042123D01*
X0296052Y0042026D01*
X0296276Y0041924D01*
X0296496Y0041816D01*
X0296714Y0041703D01*
X0296929Y0041585D01*
X0297141Y0041461D01*
X0297350Y0041333D01*
X0297556Y0041199D01*
X0297758Y0041060D01*
X0297957Y0040916D01*
X0298152Y0040767D01*
X0298344Y0040614D01*
X0298532Y0040456D01*
X0298716Y0040294D01*
X0298895Y0040126D01*
X0299071Y0039955D01*
X0299242Y0039779D01*
X0299410Y0039600D01*
X0299572Y0039416D01*
X0299730Y0039228D01*
X0299883Y0039036D01*
X0300032Y0038841D01*
X0300176Y0038642D01*
X0300315Y0038440D01*
X0300449Y0038234D01*
X0300577Y0038025D01*
X0300701Y0037813D01*
X0300819Y0037598D01*
X0300932Y0037380D01*
X0301040Y0037160D01*
X0301142Y0036936D01*
X0301239Y0036711D01*
X0301330Y0036483D01*
X0301415Y0036253D01*
X0301495Y0036021D01*
X0301569Y0035787D01*
X0301638Y0035551D01*
X0301700Y0035314D01*
X0301757Y0035075D01*
X0301808Y0034835D01*
X0301853Y0034594D01*
X0301892Y0034351D01*
X0301925Y0034108D01*
X0301952Y0033864D01*
X0301973Y0033620D01*
X0301988Y0033375D01*
X0301997Y0033129D01*
X0302000Y0032884D01*
X0301997Y0032639D01*
X0301988Y0032393D01*
X0301973Y0032148D01*
X0301952Y0031904D01*
X0301925Y0031660D01*
X0301892Y0031417D01*
X0301853Y0031174D01*
X0301808Y0030933D01*
X0301757Y0030693D01*
X0301700Y0030454D01*
X0301638Y0030217D01*
X0301569Y0029981D01*
X0301495Y0029747D01*
X0301415Y0029515D01*
X0301330Y0029285D01*
X0301239Y0029057D01*
X0301142Y0028832D01*
X0301040Y0028608D01*
X0300932Y0028388D01*
X0300819Y0028170D01*
X0300701Y0027955D01*
X0300577Y0027743D01*
X0300449Y0027534D01*
X0300315Y0027328D01*
X0300176Y0027126D01*
X0300032Y0026927D01*
X0299883Y0026732D01*
X0299730Y0026540D01*
X0299572Y0026352D01*
X0299410Y0026168D01*
X0299242Y0025989D01*
X0299071Y0025813D01*
X0298895Y0025642D01*
X0298716Y0025474D01*
X0298532Y0025312D01*
X0298344Y0025154D01*
X0298152Y0025001D01*
X0297957Y0024852D01*
X0297758Y0024708D01*
X0297556Y0024569D01*
X0297350Y0024435D01*
X0297141Y0024307D01*
X0296929Y0024183D01*
X0296714Y0024065D01*
X0296496Y0023952D01*
X0296276Y0023844D01*
X0296052Y0023742D01*
X0295827Y0023645D01*
X0295599Y0023554D01*
X0295369Y0023469D01*
X0295137Y0023389D01*
X0294903Y0023315D01*
X0294667Y0023246D01*
X0294430Y0023184D01*
X0294191Y0023127D01*
X0293951Y0023076D01*
X0293710Y0023031D01*
X0293467Y0022992D01*
X0293224Y0022959D01*
X0292980Y0022932D01*
X0292736Y0022911D01*
X0292491Y0022896D01*
X0292245Y0022887D01*
X0292000Y0022884D01*
X0291755Y0022887D01*
X0291509Y0022896D01*
X0291264Y0022911D01*
X0291020Y0022932D01*
X0290776Y0022959D01*
X0290533Y0022992D01*
X0290290Y0023031D01*
X0290049Y0023076D01*
X0289809Y0023127D01*
X0289570Y0023184D01*
X0289333Y0023246D01*
X0289097Y0023315D01*
X0288863Y0023389D01*
X0288631Y0023469D01*
X0288401Y0023554D01*
X0288173Y0023645D01*
X0287948Y0023742D01*
X0287724Y0023844D01*
X0287504Y0023952D01*
X0287286Y0024065D01*
X0287071Y0024183D01*
X0286859Y0024307D01*
X0286650Y0024435D01*
X0286444Y0024569D01*
X0286242Y0024708D01*
X0286043Y0024852D01*
X0285848Y0025001D01*
X0285656Y0025154D01*
X0285468Y0025312D01*
X0285284Y0025474D01*
X0285105Y0025642D01*
X0284929Y0025813D01*
X0284758Y0025989D01*
X0284590Y0026168D01*
X0284428Y0026352D01*
X0284270Y0026540D01*
X0284117Y0026732D01*
X0283968Y0026927D01*
X0283824Y0027126D01*
X0283685Y0027328D01*
X0283551Y0027534D01*
X0283423Y0027743D01*
X0283299Y0027955D01*
X0283181Y0028170D01*
X0283068Y0028388D01*
X0282960Y0028608D01*
X0282858Y0028832D01*
X0282761Y0029057D01*
X0282670Y0029285D01*
X0282585Y0029515D01*
X0282505Y0029747D01*
X0282431Y0029981D01*
X0282362Y0030217D01*
X0282300Y0030454D01*
X0282243Y0030693D01*
X0282192Y0030933D01*
X0282147Y0031174D01*
X0282108Y0031417D01*
X0282075Y0031660D01*
X0282048Y0031904D01*
X0282027Y0032148D01*
X0282012Y0032393D01*
X0282003Y0032639D01*
X0282000Y0032884D01*
X0327000Y0080384D02*
X0329500Y0077884D01*
X0334500Y0077884D01*
X0337000Y0080384D01*
X0337000Y0085384D01*
X0334500Y0087884D01*
X0337000Y0090384D01*
X0337000Y0095384D01*
X0334500Y0097884D01*
X0337000Y0100384D01*
X0337000Y0105384D01*
X0334500Y0107884D01*
X0337000Y0110384D01*
X0337000Y0115384D01*
X0334500Y0117884D01*
X0329500Y0117884D01*
X0327000Y0115384D01*
X0327000Y0110384D01*
X0329500Y0107884D01*
X0327000Y0105384D01*
X0327000Y0100384D01*
X0329500Y0097884D01*
X0327000Y0095384D01*
X0327000Y0090384D01*
X0329500Y0087884D01*
X0327000Y0085384D01*
X0327000Y0080384D01*
X0310500Y0115384D02*
X0303500Y0115384D01*
X0303440Y0115386D01*
X0303379Y0115391D01*
X0303320Y0115400D01*
X0303261Y0115413D01*
X0303202Y0115429D01*
X0303145Y0115449D01*
X0303090Y0115472D01*
X0303035Y0115499D01*
X0302983Y0115528D01*
X0302932Y0115561D01*
X0302883Y0115597D01*
X0302837Y0115635D01*
X0302793Y0115677D01*
X0302751Y0115721D01*
X0302713Y0115767D01*
X0302677Y0115816D01*
X0302644Y0115867D01*
X0302615Y0115919D01*
X0302588Y0115974D01*
X0302565Y0116029D01*
X0302545Y0116086D01*
X0302529Y0116145D01*
X0302516Y0116204D01*
X0302507Y0116263D01*
X0302502Y0116324D01*
X0302500Y0116384D01*
X0302500Y0117884D01*
X0303000Y0118384D01*
X0303000Y0137384D01*
X0302500Y0137884D01*
X0302500Y0139384D01*
X0302502Y0139444D01*
X0302507Y0139505D01*
X0302516Y0139564D01*
X0302529Y0139623D01*
X0302545Y0139682D01*
X0302565Y0139739D01*
X0302588Y0139794D01*
X0302615Y0139849D01*
X0302644Y0139901D01*
X0302677Y0139952D01*
X0302713Y0140001D01*
X0302751Y0140047D01*
X0302793Y0140091D01*
X0302837Y0140133D01*
X0302883Y0140171D01*
X0302932Y0140207D01*
X0302983Y0140240D01*
X0303035Y0140269D01*
X0303090Y0140296D01*
X0303145Y0140319D01*
X0303202Y0140339D01*
X0303261Y0140355D01*
X0303320Y0140368D01*
X0303379Y0140377D01*
X0303440Y0140382D01*
X0303500Y0140384D01*
X0310500Y0140384D01*
X0310560Y0140382D01*
X0310621Y0140377D01*
X0310680Y0140368D01*
X0310739Y0140355D01*
X0310798Y0140339D01*
X0310855Y0140319D01*
X0310910Y0140296D01*
X0310965Y0140269D01*
X0311017Y0140240D01*
X0311068Y0140207D01*
X0311117Y0140171D01*
X0311163Y0140133D01*
X0311207Y0140091D01*
X0311249Y0140047D01*
X0311287Y0140001D01*
X0311323Y0139952D01*
X0311356Y0139901D01*
X0311385Y0139849D01*
X0311412Y0139794D01*
X0311435Y0139739D01*
X0311455Y0139682D01*
X0311471Y0139623D01*
X0311484Y0139564D01*
X0311493Y0139505D01*
X0311498Y0139444D01*
X0311500Y0139384D01*
X0311500Y0137884D01*
X0311000Y0137384D01*
X0311000Y0118384D01*
X0311500Y0117884D01*
X0311500Y0116384D01*
X0311498Y0116324D01*
X0311493Y0116263D01*
X0311484Y0116204D01*
X0311471Y0116145D01*
X0311455Y0116086D01*
X0311435Y0116029D01*
X0311412Y0115974D01*
X0311385Y0115919D01*
X0311356Y0115867D01*
X0311323Y0115816D01*
X0311287Y0115767D01*
X0311249Y0115721D01*
X0311207Y0115677D01*
X0311163Y0115635D01*
X0311117Y0115597D01*
X0311068Y0115561D01*
X0311017Y0115528D01*
X0310965Y0115499D01*
X0310910Y0115472D01*
X0310855Y0115449D01*
X0310798Y0115429D01*
X0310739Y0115413D01*
X0310680Y0115400D01*
X0310621Y0115391D01*
X0310560Y0115386D01*
X0310500Y0115384D01*
X0282000Y0097884D02*
X0282003Y0098129D01*
X0282012Y0098375D01*
X0282027Y0098620D01*
X0282048Y0098864D01*
X0282075Y0099108D01*
X0282108Y0099351D01*
X0282147Y0099594D01*
X0282192Y0099835D01*
X0282243Y0100075D01*
X0282300Y0100314D01*
X0282362Y0100551D01*
X0282431Y0100787D01*
X0282505Y0101021D01*
X0282585Y0101253D01*
X0282670Y0101483D01*
X0282761Y0101711D01*
X0282858Y0101936D01*
X0282960Y0102160D01*
X0283068Y0102380D01*
X0283181Y0102598D01*
X0283299Y0102813D01*
X0283423Y0103025D01*
X0283551Y0103234D01*
X0283685Y0103440D01*
X0283824Y0103642D01*
X0283968Y0103841D01*
X0284117Y0104036D01*
X0284270Y0104228D01*
X0284428Y0104416D01*
X0284590Y0104600D01*
X0284758Y0104779D01*
X0284929Y0104955D01*
X0285105Y0105126D01*
X0285284Y0105294D01*
X0285468Y0105456D01*
X0285656Y0105614D01*
X0285848Y0105767D01*
X0286043Y0105916D01*
X0286242Y0106060D01*
X0286444Y0106199D01*
X0286650Y0106333D01*
X0286859Y0106461D01*
X0287071Y0106585D01*
X0287286Y0106703D01*
X0287504Y0106816D01*
X0287724Y0106924D01*
X0287948Y0107026D01*
X0288173Y0107123D01*
X0288401Y0107214D01*
X0288631Y0107299D01*
X0288863Y0107379D01*
X0289097Y0107453D01*
X0289333Y0107522D01*
X0289570Y0107584D01*
X0289809Y0107641D01*
X0290049Y0107692D01*
X0290290Y0107737D01*
X0290533Y0107776D01*
X0290776Y0107809D01*
X0291020Y0107836D01*
X0291264Y0107857D01*
X0291509Y0107872D01*
X0291755Y0107881D01*
X0292000Y0107884D01*
X0292245Y0107881D01*
X0292491Y0107872D01*
X0292736Y0107857D01*
X0292980Y0107836D01*
X0293224Y0107809D01*
X0293467Y0107776D01*
X0293710Y0107737D01*
X0293951Y0107692D01*
X0294191Y0107641D01*
X0294430Y0107584D01*
X0294667Y0107522D01*
X0294903Y0107453D01*
X0295137Y0107379D01*
X0295369Y0107299D01*
X0295599Y0107214D01*
X0295827Y0107123D01*
X0296052Y0107026D01*
X0296276Y0106924D01*
X0296496Y0106816D01*
X0296714Y0106703D01*
X0296929Y0106585D01*
X0297141Y0106461D01*
X0297350Y0106333D01*
X0297556Y0106199D01*
X0297758Y0106060D01*
X0297957Y0105916D01*
X0298152Y0105767D01*
X0298344Y0105614D01*
X0298532Y0105456D01*
X0298716Y0105294D01*
X0298895Y0105126D01*
X0299071Y0104955D01*
X0299242Y0104779D01*
X0299410Y0104600D01*
X0299572Y0104416D01*
X0299730Y0104228D01*
X0299883Y0104036D01*
X0300032Y0103841D01*
X0300176Y0103642D01*
X0300315Y0103440D01*
X0300449Y0103234D01*
X0300577Y0103025D01*
X0300701Y0102813D01*
X0300819Y0102598D01*
X0300932Y0102380D01*
X0301040Y0102160D01*
X0301142Y0101936D01*
X0301239Y0101711D01*
X0301330Y0101483D01*
X0301415Y0101253D01*
X0301495Y0101021D01*
X0301569Y0100787D01*
X0301638Y0100551D01*
X0301700Y0100314D01*
X0301757Y0100075D01*
X0301808Y0099835D01*
X0301853Y0099594D01*
X0301892Y0099351D01*
X0301925Y0099108D01*
X0301952Y0098864D01*
X0301973Y0098620D01*
X0301988Y0098375D01*
X0301997Y0098129D01*
X0302000Y0097884D01*
X0301997Y0097639D01*
X0301988Y0097393D01*
X0301973Y0097148D01*
X0301952Y0096904D01*
X0301925Y0096660D01*
X0301892Y0096417D01*
X0301853Y0096174D01*
X0301808Y0095933D01*
X0301757Y0095693D01*
X0301700Y0095454D01*
X0301638Y0095217D01*
X0301569Y0094981D01*
X0301495Y0094747D01*
X0301415Y0094515D01*
X0301330Y0094285D01*
X0301239Y0094057D01*
X0301142Y0093832D01*
X0301040Y0093608D01*
X0300932Y0093388D01*
X0300819Y0093170D01*
X0300701Y0092955D01*
X0300577Y0092743D01*
X0300449Y0092534D01*
X0300315Y0092328D01*
X0300176Y0092126D01*
X0300032Y0091927D01*
X0299883Y0091732D01*
X0299730Y0091540D01*
X0299572Y0091352D01*
X0299410Y0091168D01*
X0299242Y0090989D01*
X0299071Y0090813D01*
X0298895Y0090642D01*
X0298716Y0090474D01*
X0298532Y0090312D01*
X0298344Y0090154D01*
X0298152Y0090001D01*
X0297957Y0089852D01*
X0297758Y0089708D01*
X0297556Y0089569D01*
X0297350Y0089435D01*
X0297141Y0089307D01*
X0296929Y0089183D01*
X0296714Y0089065D01*
X0296496Y0088952D01*
X0296276Y0088844D01*
X0296052Y0088742D01*
X0295827Y0088645D01*
X0295599Y0088554D01*
X0295369Y0088469D01*
X0295137Y0088389D01*
X0294903Y0088315D01*
X0294667Y0088246D01*
X0294430Y0088184D01*
X0294191Y0088127D01*
X0293951Y0088076D01*
X0293710Y0088031D01*
X0293467Y0087992D01*
X0293224Y0087959D01*
X0292980Y0087932D01*
X0292736Y0087911D01*
X0292491Y0087896D01*
X0292245Y0087887D01*
X0292000Y0087884D01*
X0291755Y0087887D01*
X0291509Y0087896D01*
X0291264Y0087911D01*
X0291020Y0087932D01*
X0290776Y0087959D01*
X0290533Y0087992D01*
X0290290Y0088031D01*
X0290049Y0088076D01*
X0289809Y0088127D01*
X0289570Y0088184D01*
X0289333Y0088246D01*
X0289097Y0088315D01*
X0288863Y0088389D01*
X0288631Y0088469D01*
X0288401Y0088554D01*
X0288173Y0088645D01*
X0287948Y0088742D01*
X0287724Y0088844D01*
X0287504Y0088952D01*
X0287286Y0089065D01*
X0287071Y0089183D01*
X0286859Y0089307D01*
X0286650Y0089435D01*
X0286444Y0089569D01*
X0286242Y0089708D01*
X0286043Y0089852D01*
X0285848Y0090001D01*
X0285656Y0090154D01*
X0285468Y0090312D01*
X0285284Y0090474D01*
X0285105Y0090642D01*
X0284929Y0090813D01*
X0284758Y0090989D01*
X0284590Y0091168D01*
X0284428Y0091352D01*
X0284270Y0091540D01*
X0284117Y0091732D01*
X0283968Y0091927D01*
X0283824Y0092126D01*
X0283685Y0092328D01*
X0283551Y0092534D01*
X0283423Y0092743D01*
X0283299Y0092955D01*
X0283181Y0093170D01*
X0283068Y0093388D01*
X0282960Y0093608D01*
X0282858Y0093832D01*
X0282761Y0094057D01*
X0282670Y0094285D01*
X0282585Y0094515D01*
X0282505Y0094747D01*
X0282431Y0094981D01*
X0282362Y0095217D01*
X0282300Y0095454D01*
X0282243Y0095693D01*
X0282192Y0095933D01*
X0282147Y0096174D01*
X0282108Y0096417D01*
X0282075Y0096660D01*
X0282048Y0096904D01*
X0282027Y0097148D01*
X0282012Y0097393D01*
X0282003Y0097639D01*
X0282000Y0097884D01*
X0240000Y0094884D02*
X0240000Y0100884D01*
X0239000Y0100884D01*
X0239000Y0101884D01*
X0239000Y0094884D02*
X0239000Y0093884D01*
X0239000Y0094884D02*
X0240000Y0094884D01*
X0235500Y0085884D02*
X0231500Y0085884D01*
X0222000Y0085884D01*
X0218500Y0085884D01*
X0215000Y0093884D02*
X0215000Y0094884D01*
X0214000Y0094884D01*
X0214000Y0100884D01*
X0215000Y0100884D01*
X0215000Y0101884D01*
X0218500Y0109884D02*
X0222000Y0109884D01*
X0232000Y0109884D01*
X0235500Y0109884D01*
X0226000Y0097884D02*
X0226002Y0097947D01*
X0226008Y0098009D01*
X0226018Y0098071D01*
X0226031Y0098133D01*
X0226049Y0098193D01*
X0226070Y0098252D01*
X0226095Y0098310D01*
X0226124Y0098366D01*
X0226156Y0098420D01*
X0226191Y0098472D01*
X0226229Y0098521D01*
X0226271Y0098569D01*
X0226315Y0098613D01*
X0226363Y0098655D01*
X0226412Y0098693D01*
X0226464Y0098728D01*
X0226518Y0098760D01*
X0226574Y0098789D01*
X0226632Y0098814D01*
X0226691Y0098835D01*
X0226751Y0098853D01*
X0226813Y0098866D01*
X0226875Y0098876D01*
X0226937Y0098882D01*
X0227000Y0098884D01*
X0227063Y0098882D01*
X0227125Y0098876D01*
X0227187Y0098866D01*
X0227249Y0098853D01*
X0227309Y0098835D01*
X0227368Y0098814D01*
X0227426Y0098789D01*
X0227482Y0098760D01*
X0227536Y0098728D01*
X0227588Y0098693D01*
X0227637Y0098655D01*
X0227685Y0098613D01*
X0227729Y0098569D01*
X0227771Y0098521D01*
X0227809Y0098472D01*
X0227844Y0098420D01*
X0227876Y0098366D01*
X0227905Y0098310D01*
X0227930Y0098252D01*
X0227951Y0098193D01*
X0227969Y0098133D01*
X0227982Y0098071D01*
X0227992Y0098009D01*
X0227998Y0097947D01*
X0228000Y0097884D01*
X0227998Y0097821D01*
X0227992Y0097759D01*
X0227982Y0097697D01*
X0227969Y0097635D01*
X0227951Y0097575D01*
X0227930Y0097516D01*
X0227905Y0097458D01*
X0227876Y0097402D01*
X0227844Y0097348D01*
X0227809Y0097296D01*
X0227771Y0097247D01*
X0227729Y0097199D01*
X0227685Y0097155D01*
X0227637Y0097113D01*
X0227588Y0097075D01*
X0227536Y0097040D01*
X0227482Y0097008D01*
X0227426Y0096979D01*
X0227368Y0096954D01*
X0227309Y0096933D01*
X0227249Y0096915D01*
X0227187Y0096902D01*
X0227125Y0096892D01*
X0227063Y0096886D01*
X0227000Y0096884D01*
X0226937Y0096886D01*
X0226875Y0096892D01*
X0226813Y0096902D01*
X0226751Y0096915D01*
X0226691Y0096933D01*
X0226632Y0096954D01*
X0226574Y0096979D01*
X0226518Y0097008D01*
X0226464Y0097040D01*
X0226412Y0097075D01*
X0226363Y0097113D01*
X0226315Y0097155D01*
X0226271Y0097199D01*
X0226229Y0097247D01*
X0226191Y0097296D01*
X0226156Y0097348D01*
X0226124Y0097402D01*
X0226095Y0097458D01*
X0226070Y0097516D01*
X0226049Y0097575D01*
X0226031Y0097635D01*
X0226018Y0097697D01*
X0226008Y0097759D01*
X0226002Y0097821D01*
X0226000Y0097884D01*
X0220000Y0097884D02*
X0220002Y0098056D01*
X0220008Y0098227D01*
X0220019Y0098399D01*
X0220034Y0098570D01*
X0220053Y0098741D01*
X0220076Y0098911D01*
X0220103Y0099081D01*
X0220135Y0099250D01*
X0220170Y0099418D01*
X0220210Y0099585D01*
X0220254Y0099751D01*
X0220301Y0099916D01*
X0220353Y0100080D01*
X0220409Y0100242D01*
X0220469Y0100403D01*
X0220533Y0100563D01*
X0220601Y0100721D01*
X0220672Y0100877D01*
X0220747Y0101031D01*
X0220827Y0101184D01*
X0220909Y0101334D01*
X0220996Y0101483D01*
X0221086Y0101629D01*
X0221180Y0101773D01*
X0221277Y0101915D01*
X0221378Y0102054D01*
X0221482Y0102191D01*
X0221589Y0102325D01*
X0221700Y0102456D01*
X0221813Y0102585D01*
X0221930Y0102711D01*
X0222050Y0102834D01*
X0222173Y0102954D01*
X0222299Y0103071D01*
X0222428Y0103184D01*
X0222559Y0103295D01*
X0222693Y0103402D01*
X0222830Y0103506D01*
X0222969Y0103607D01*
X0223111Y0103704D01*
X0223255Y0103798D01*
X0223401Y0103888D01*
X0223550Y0103975D01*
X0223700Y0104057D01*
X0223853Y0104137D01*
X0224007Y0104212D01*
X0224163Y0104283D01*
X0224321Y0104351D01*
X0224481Y0104415D01*
X0224642Y0104475D01*
X0224804Y0104531D01*
X0224968Y0104583D01*
X0225133Y0104630D01*
X0225299Y0104674D01*
X0225466Y0104714D01*
X0225634Y0104749D01*
X0225803Y0104781D01*
X0225973Y0104808D01*
X0226143Y0104831D01*
X0226314Y0104850D01*
X0226485Y0104865D01*
X0226657Y0104876D01*
X0226828Y0104882D01*
X0227000Y0104884D01*
X0227172Y0104882D01*
X0227343Y0104876D01*
X0227515Y0104865D01*
X0227686Y0104850D01*
X0227857Y0104831D01*
X0228027Y0104808D01*
X0228197Y0104781D01*
X0228366Y0104749D01*
X0228534Y0104714D01*
X0228701Y0104674D01*
X0228867Y0104630D01*
X0229032Y0104583D01*
X0229196Y0104531D01*
X0229358Y0104475D01*
X0229519Y0104415D01*
X0229679Y0104351D01*
X0229837Y0104283D01*
X0229993Y0104212D01*
X0230147Y0104137D01*
X0230300Y0104057D01*
X0230450Y0103975D01*
X0230599Y0103888D01*
X0230745Y0103798D01*
X0230889Y0103704D01*
X0231031Y0103607D01*
X0231170Y0103506D01*
X0231307Y0103402D01*
X0231441Y0103295D01*
X0231572Y0103184D01*
X0231701Y0103071D01*
X0231827Y0102954D01*
X0231950Y0102834D01*
X0232070Y0102711D01*
X0232187Y0102585D01*
X0232300Y0102456D01*
X0232411Y0102325D01*
X0232518Y0102191D01*
X0232622Y0102054D01*
X0232723Y0101915D01*
X0232820Y0101773D01*
X0232914Y0101629D01*
X0233004Y0101483D01*
X0233091Y0101334D01*
X0233173Y0101184D01*
X0233253Y0101031D01*
X0233328Y0100877D01*
X0233399Y0100721D01*
X0233467Y0100563D01*
X0233531Y0100403D01*
X0233591Y0100242D01*
X0233647Y0100080D01*
X0233699Y0099916D01*
X0233746Y0099751D01*
X0233790Y0099585D01*
X0233830Y0099418D01*
X0233865Y0099250D01*
X0233897Y0099081D01*
X0233924Y0098911D01*
X0233947Y0098741D01*
X0233966Y0098570D01*
X0233981Y0098399D01*
X0233992Y0098227D01*
X0233998Y0098056D01*
X0234000Y0097884D01*
X0233998Y0097712D01*
X0233992Y0097541D01*
X0233981Y0097369D01*
X0233966Y0097198D01*
X0233947Y0097027D01*
X0233924Y0096857D01*
X0233897Y0096687D01*
X0233865Y0096518D01*
X0233830Y0096350D01*
X0233790Y0096183D01*
X0233746Y0096017D01*
X0233699Y0095852D01*
X0233647Y0095688D01*
X0233591Y0095526D01*
X0233531Y0095365D01*
X0233467Y0095205D01*
X0233399Y0095047D01*
X0233328Y0094891D01*
X0233253Y0094737D01*
X0233173Y0094584D01*
X0233091Y0094434D01*
X0233004Y0094285D01*
X0232914Y0094139D01*
X0232820Y0093995D01*
X0232723Y0093853D01*
X0232622Y0093714D01*
X0232518Y0093577D01*
X0232411Y0093443D01*
X0232300Y0093312D01*
X0232187Y0093183D01*
X0232070Y0093057D01*
X0231950Y0092934D01*
X0231827Y0092814D01*
X0231701Y0092697D01*
X0231572Y0092584D01*
X0231441Y0092473D01*
X0231307Y0092366D01*
X0231170Y0092262D01*
X0231031Y0092161D01*
X0230889Y0092064D01*
X0230745Y0091970D01*
X0230599Y0091880D01*
X0230450Y0091793D01*
X0230300Y0091711D01*
X0230147Y0091631D01*
X0229993Y0091556D01*
X0229837Y0091485D01*
X0229679Y0091417D01*
X0229519Y0091353D01*
X0229358Y0091293D01*
X0229196Y0091237D01*
X0229032Y0091185D01*
X0228867Y0091138D01*
X0228701Y0091094D01*
X0228534Y0091054D01*
X0228366Y0091019D01*
X0228197Y0090987D01*
X0228027Y0090960D01*
X0227857Y0090937D01*
X0227686Y0090918D01*
X0227515Y0090903D01*
X0227343Y0090892D01*
X0227172Y0090886D01*
X0227000Y0090884D01*
X0226828Y0090886D01*
X0226657Y0090892D01*
X0226485Y0090903D01*
X0226314Y0090918D01*
X0226143Y0090937D01*
X0225973Y0090960D01*
X0225803Y0090987D01*
X0225634Y0091019D01*
X0225466Y0091054D01*
X0225299Y0091094D01*
X0225133Y0091138D01*
X0224968Y0091185D01*
X0224804Y0091237D01*
X0224642Y0091293D01*
X0224481Y0091353D01*
X0224321Y0091417D01*
X0224163Y0091485D01*
X0224007Y0091556D01*
X0223853Y0091631D01*
X0223700Y0091711D01*
X0223550Y0091793D01*
X0223401Y0091880D01*
X0223255Y0091970D01*
X0223111Y0092064D01*
X0222969Y0092161D01*
X0222830Y0092262D01*
X0222693Y0092366D01*
X0222559Y0092473D01*
X0222428Y0092584D01*
X0222299Y0092697D01*
X0222173Y0092814D01*
X0222050Y0092934D01*
X0221930Y0093057D01*
X0221813Y0093183D01*
X0221700Y0093312D01*
X0221589Y0093443D01*
X0221482Y0093577D01*
X0221378Y0093714D01*
X0221277Y0093853D01*
X0221180Y0093995D01*
X0221086Y0094139D01*
X0220996Y0094285D01*
X0220909Y0094434D01*
X0220827Y0094584D01*
X0220747Y0094737D01*
X0220672Y0094891D01*
X0220601Y0095047D01*
X0220533Y0095205D01*
X0220469Y0095365D01*
X0220409Y0095526D01*
X0220353Y0095688D01*
X0220301Y0095852D01*
X0220254Y0096017D01*
X0220210Y0096183D01*
X0220170Y0096350D01*
X0220135Y0096518D01*
X0220103Y0096687D01*
X0220076Y0096857D01*
X0220053Y0097027D01*
X0220034Y0097198D01*
X0220019Y0097369D01*
X0220008Y0097541D01*
X0220002Y0097712D01*
X0220000Y0097884D01*
X0218500Y0118384D02*
X0217000Y0118384D01*
X0216500Y0118884D01*
X0197500Y0118884D01*
X0197000Y0118384D01*
X0195500Y0118384D01*
X0195440Y0118386D01*
X0195379Y0118391D01*
X0195320Y0118400D01*
X0195261Y0118413D01*
X0195202Y0118429D01*
X0195145Y0118449D01*
X0195090Y0118472D01*
X0195035Y0118499D01*
X0194983Y0118528D01*
X0194932Y0118561D01*
X0194883Y0118597D01*
X0194837Y0118635D01*
X0194793Y0118677D01*
X0194751Y0118721D01*
X0194713Y0118767D01*
X0194677Y0118816D01*
X0194644Y0118867D01*
X0194615Y0118919D01*
X0194588Y0118974D01*
X0194565Y0119029D01*
X0194545Y0119086D01*
X0194529Y0119145D01*
X0194516Y0119204D01*
X0194507Y0119263D01*
X0194502Y0119324D01*
X0194500Y0119384D01*
X0194500Y0126384D01*
X0194502Y0126444D01*
X0194507Y0126505D01*
X0194516Y0126564D01*
X0194529Y0126623D01*
X0194545Y0126682D01*
X0194565Y0126739D01*
X0194588Y0126794D01*
X0194615Y0126849D01*
X0194644Y0126901D01*
X0194677Y0126952D01*
X0194713Y0127001D01*
X0194751Y0127047D01*
X0194793Y0127091D01*
X0194837Y0127133D01*
X0194883Y0127171D01*
X0194932Y0127207D01*
X0194983Y0127240D01*
X0195035Y0127269D01*
X0195090Y0127296D01*
X0195145Y0127319D01*
X0195202Y0127339D01*
X0195261Y0127355D01*
X0195320Y0127368D01*
X0195379Y0127377D01*
X0195440Y0127382D01*
X0195500Y0127384D01*
X0197000Y0127384D01*
X0197500Y0126884D01*
X0216500Y0126884D01*
X0217000Y0127384D01*
X0218500Y0127384D01*
X0218560Y0127382D01*
X0218621Y0127377D01*
X0218680Y0127368D01*
X0218739Y0127355D01*
X0218798Y0127339D01*
X0218855Y0127319D01*
X0218910Y0127296D01*
X0218965Y0127269D01*
X0219017Y0127240D01*
X0219068Y0127207D01*
X0219117Y0127171D01*
X0219163Y0127133D01*
X0219207Y0127091D01*
X0219249Y0127047D01*
X0219287Y0127001D01*
X0219323Y0126952D01*
X0219356Y0126901D01*
X0219385Y0126849D01*
X0219412Y0126794D01*
X0219435Y0126739D01*
X0219455Y0126682D01*
X0219471Y0126623D01*
X0219484Y0126564D01*
X0219493Y0126505D01*
X0219498Y0126444D01*
X0219500Y0126384D01*
X0219500Y0119384D01*
X0219498Y0119324D01*
X0219493Y0119263D01*
X0219484Y0119204D01*
X0219471Y0119145D01*
X0219455Y0119086D01*
X0219435Y0119029D01*
X0219412Y0118974D01*
X0219385Y0118919D01*
X0219356Y0118867D01*
X0219323Y0118816D01*
X0219287Y0118767D01*
X0219249Y0118721D01*
X0219207Y0118677D01*
X0219163Y0118635D01*
X0219117Y0118597D01*
X0219068Y0118561D01*
X0219017Y0118528D01*
X0218965Y0118499D01*
X0218910Y0118472D01*
X0218855Y0118449D01*
X0218798Y0118429D01*
X0218739Y0118413D01*
X0218680Y0118400D01*
X0218621Y0118391D01*
X0218560Y0118386D01*
X0218500Y0118384D01*
X0193000Y0103384D02*
X0192000Y0103384D01*
X0192000Y0102384D01*
X0192000Y0103384D02*
X0191000Y0103384D01*
X0192000Y0103384D02*
X0192000Y0104384D01*
X0177000Y0097884D02*
X0177003Y0098129D01*
X0177012Y0098375D01*
X0177027Y0098620D01*
X0177048Y0098864D01*
X0177075Y0099108D01*
X0177108Y0099351D01*
X0177147Y0099594D01*
X0177192Y0099835D01*
X0177243Y0100075D01*
X0177300Y0100314D01*
X0177362Y0100551D01*
X0177431Y0100787D01*
X0177505Y0101021D01*
X0177585Y0101253D01*
X0177670Y0101483D01*
X0177761Y0101711D01*
X0177858Y0101936D01*
X0177960Y0102160D01*
X0178068Y0102380D01*
X0178181Y0102598D01*
X0178299Y0102813D01*
X0178423Y0103025D01*
X0178551Y0103234D01*
X0178685Y0103440D01*
X0178824Y0103642D01*
X0178968Y0103841D01*
X0179117Y0104036D01*
X0179270Y0104228D01*
X0179428Y0104416D01*
X0179590Y0104600D01*
X0179758Y0104779D01*
X0179929Y0104955D01*
X0180105Y0105126D01*
X0180284Y0105294D01*
X0180468Y0105456D01*
X0180656Y0105614D01*
X0180848Y0105767D01*
X0181043Y0105916D01*
X0181242Y0106060D01*
X0181444Y0106199D01*
X0181650Y0106333D01*
X0181859Y0106461D01*
X0182071Y0106585D01*
X0182286Y0106703D01*
X0182504Y0106816D01*
X0182724Y0106924D01*
X0182948Y0107026D01*
X0183173Y0107123D01*
X0183401Y0107214D01*
X0183631Y0107299D01*
X0183863Y0107379D01*
X0184097Y0107453D01*
X0184333Y0107522D01*
X0184570Y0107584D01*
X0184809Y0107641D01*
X0185049Y0107692D01*
X0185290Y0107737D01*
X0185533Y0107776D01*
X0185776Y0107809D01*
X0186020Y0107836D01*
X0186264Y0107857D01*
X0186509Y0107872D01*
X0186755Y0107881D01*
X0187000Y0107884D01*
X0187245Y0107881D01*
X0187491Y0107872D01*
X0187736Y0107857D01*
X0187980Y0107836D01*
X0188224Y0107809D01*
X0188467Y0107776D01*
X0188710Y0107737D01*
X0188951Y0107692D01*
X0189191Y0107641D01*
X0189430Y0107584D01*
X0189667Y0107522D01*
X0189903Y0107453D01*
X0190137Y0107379D01*
X0190369Y0107299D01*
X0190599Y0107214D01*
X0190827Y0107123D01*
X0191052Y0107026D01*
X0191276Y0106924D01*
X0191496Y0106816D01*
X0191714Y0106703D01*
X0191929Y0106585D01*
X0192141Y0106461D01*
X0192350Y0106333D01*
X0192556Y0106199D01*
X0192758Y0106060D01*
X0192957Y0105916D01*
X0193152Y0105767D01*
X0193344Y0105614D01*
X0193532Y0105456D01*
X0193716Y0105294D01*
X0193895Y0105126D01*
X0194071Y0104955D01*
X0194242Y0104779D01*
X0194410Y0104600D01*
X0194572Y0104416D01*
X0194730Y0104228D01*
X0194883Y0104036D01*
X0195032Y0103841D01*
X0195176Y0103642D01*
X0195315Y0103440D01*
X0195449Y0103234D01*
X0195577Y0103025D01*
X0195701Y0102813D01*
X0195819Y0102598D01*
X0195932Y0102380D01*
X0196040Y0102160D01*
X0196142Y0101936D01*
X0196239Y0101711D01*
X0196330Y0101483D01*
X0196415Y0101253D01*
X0196495Y0101021D01*
X0196569Y0100787D01*
X0196638Y0100551D01*
X0196700Y0100314D01*
X0196757Y0100075D01*
X0196808Y0099835D01*
X0196853Y0099594D01*
X0196892Y0099351D01*
X0196925Y0099108D01*
X0196952Y0098864D01*
X0196973Y0098620D01*
X0196988Y0098375D01*
X0196997Y0098129D01*
X0197000Y0097884D01*
X0196997Y0097639D01*
X0196988Y0097393D01*
X0196973Y0097148D01*
X0196952Y0096904D01*
X0196925Y0096660D01*
X0196892Y0096417D01*
X0196853Y0096174D01*
X0196808Y0095933D01*
X0196757Y0095693D01*
X0196700Y0095454D01*
X0196638Y0095217D01*
X0196569Y0094981D01*
X0196495Y0094747D01*
X0196415Y0094515D01*
X0196330Y0094285D01*
X0196239Y0094057D01*
X0196142Y0093832D01*
X0196040Y0093608D01*
X0195932Y0093388D01*
X0195819Y0093170D01*
X0195701Y0092955D01*
X0195577Y0092743D01*
X0195449Y0092534D01*
X0195315Y0092328D01*
X0195176Y0092126D01*
X0195032Y0091927D01*
X0194883Y0091732D01*
X0194730Y0091540D01*
X0194572Y0091352D01*
X0194410Y0091168D01*
X0194242Y0090989D01*
X0194071Y0090813D01*
X0193895Y0090642D01*
X0193716Y0090474D01*
X0193532Y0090312D01*
X0193344Y0090154D01*
X0193152Y0090001D01*
X0192957Y0089852D01*
X0192758Y0089708D01*
X0192556Y0089569D01*
X0192350Y0089435D01*
X0192141Y0089307D01*
X0191929Y0089183D01*
X0191714Y0089065D01*
X0191496Y0088952D01*
X0191276Y0088844D01*
X0191052Y0088742D01*
X0190827Y0088645D01*
X0190599Y0088554D01*
X0190369Y0088469D01*
X0190137Y0088389D01*
X0189903Y0088315D01*
X0189667Y0088246D01*
X0189430Y0088184D01*
X0189191Y0088127D01*
X0188951Y0088076D01*
X0188710Y0088031D01*
X0188467Y0087992D01*
X0188224Y0087959D01*
X0187980Y0087932D01*
X0187736Y0087911D01*
X0187491Y0087896D01*
X0187245Y0087887D01*
X0187000Y0087884D01*
X0186755Y0087887D01*
X0186509Y0087896D01*
X0186264Y0087911D01*
X0186020Y0087932D01*
X0185776Y0087959D01*
X0185533Y0087992D01*
X0185290Y0088031D01*
X0185049Y0088076D01*
X0184809Y0088127D01*
X0184570Y0088184D01*
X0184333Y0088246D01*
X0184097Y0088315D01*
X0183863Y0088389D01*
X0183631Y0088469D01*
X0183401Y0088554D01*
X0183173Y0088645D01*
X0182948Y0088742D01*
X0182724Y0088844D01*
X0182504Y0088952D01*
X0182286Y0089065D01*
X0182071Y0089183D01*
X0181859Y0089307D01*
X0181650Y0089435D01*
X0181444Y0089569D01*
X0181242Y0089708D01*
X0181043Y0089852D01*
X0180848Y0090001D01*
X0180656Y0090154D01*
X0180468Y0090312D01*
X0180284Y0090474D01*
X0180105Y0090642D01*
X0179929Y0090813D01*
X0179758Y0090989D01*
X0179590Y0091168D01*
X0179428Y0091352D01*
X0179270Y0091540D01*
X0179117Y0091732D01*
X0178968Y0091927D01*
X0178824Y0092126D01*
X0178685Y0092328D01*
X0178551Y0092534D01*
X0178423Y0092743D01*
X0178299Y0092955D01*
X0178181Y0093170D01*
X0178068Y0093388D01*
X0177960Y0093608D01*
X0177858Y0093832D01*
X0177761Y0094057D01*
X0177670Y0094285D01*
X0177585Y0094515D01*
X0177505Y0094747D01*
X0177431Y0094981D01*
X0177362Y0095217D01*
X0177300Y0095454D01*
X0177243Y0095693D01*
X0177192Y0095933D01*
X0177147Y0096174D01*
X0177108Y0096417D01*
X0177075Y0096660D01*
X0177048Y0096904D01*
X0177027Y0097148D01*
X0177012Y0097393D01*
X0177003Y0097639D01*
X0177000Y0097884D01*
X0160000Y0094884D02*
X0160000Y0100884D01*
X0159000Y0100884D01*
X0159000Y0101884D01*
X0159000Y0094884D02*
X0159000Y0093884D01*
X0159000Y0094884D02*
X0160000Y0094884D01*
X0155500Y0085884D02*
X0151500Y0085884D01*
X0142000Y0085884D01*
X0138500Y0085884D01*
X0135000Y0093884D02*
X0135000Y0094884D01*
X0134000Y0094884D01*
X0134000Y0100884D01*
X0135000Y0100884D01*
X0135000Y0101884D01*
X0138500Y0109884D02*
X0142000Y0109884D01*
X0152000Y0109884D01*
X0155500Y0109884D01*
X0146000Y0097884D02*
X0146002Y0097947D01*
X0146008Y0098009D01*
X0146018Y0098071D01*
X0146031Y0098133D01*
X0146049Y0098193D01*
X0146070Y0098252D01*
X0146095Y0098310D01*
X0146124Y0098366D01*
X0146156Y0098420D01*
X0146191Y0098472D01*
X0146229Y0098521D01*
X0146271Y0098569D01*
X0146315Y0098613D01*
X0146363Y0098655D01*
X0146412Y0098693D01*
X0146464Y0098728D01*
X0146518Y0098760D01*
X0146574Y0098789D01*
X0146632Y0098814D01*
X0146691Y0098835D01*
X0146751Y0098853D01*
X0146813Y0098866D01*
X0146875Y0098876D01*
X0146937Y0098882D01*
X0147000Y0098884D01*
X0147063Y0098882D01*
X0147125Y0098876D01*
X0147187Y0098866D01*
X0147249Y0098853D01*
X0147309Y0098835D01*
X0147368Y0098814D01*
X0147426Y0098789D01*
X0147482Y0098760D01*
X0147536Y0098728D01*
X0147588Y0098693D01*
X0147637Y0098655D01*
X0147685Y0098613D01*
X0147729Y0098569D01*
X0147771Y0098521D01*
X0147809Y0098472D01*
X0147844Y0098420D01*
X0147876Y0098366D01*
X0147905Y0098310D01*
X0147930Y0098252D01*
X0147951Y0098193D01*
X0147969Y0098133D01*
X0147982Y0098071D01*
X0147992Y0098009D01*
X0147998Y0097947D01*
X0148000Y0097884D01*
X0147998Y0097821D01*
X0147992Y0097759D01*
X0147982Y0097697D01*
X0147969Y0097635D01*
X0147951Y0097575D01*
X0147930Y0097516D01*
X0147905Y0097458D01*
X0147876Y0097402D01*
X0147844Y0097348D01*
X0147809Y0097296D01*
X0147771Y0097247D01*
X0147729Y0097199D01*
X0147685Y0097155D01*
X0147637Y0097113D01*
X0147588Y0097075D01*
X0147536Y0097040D01*
X0147482Y0097008D01*
X0147426Y0096979D01*
X0147368Y0096954D01*
X0147309Y0096933D01*
X0147249Y0096915D01*
X0147187Y0096902D01*
X0147125Y0096892D01*
X0147063Y0096886D01*
X0147000Y0096884D01*
X0146937Y0096886D01*
X0146875Y0096892D01*
X0146813Y0096902D01*
X0146751Y0096915D01*
X0146691Y0096933D01*
X0146632Y0096954D01*
X0146574Y0096979D01*
X0146518Y0097008D01*
X0146464Y0097040D01*
X0146412Y0097075D01*
X0146363Y0097113D01*
X0146315Y0097155D01*
X0146271Y0097199D01*
X0146229Y0097247D01*
X0146191Y0097296D01*
X0146156Y0097348D01*
X0146124Y0097402D01*
X0146095Y0097458D01*
X0146070Y0097516D01*
X0146049Y0097575D01*
X0146031Y0097635D01*
X0146018Y0097697D01*
X0146008Y0097759D01*
X0146002Y0097821D01*
X0146000Y0097884D01*
X0140000Y0097884D02*
X0140002Y0098056D01*
X0140008Y0098227D01*
X0140019Y0098399D01*
X0140034Y0098570D01*
X0140053Y0098741D01*
X0140076Y0098911D01*
X0140103Y0099081D01*
X0140135Y0099250D01*
X0140170Y0099418D01*
X0140210Y0099585D01*
X0140254Y0099751D01*
X0140301Y0099916D01*
X0140353Y0100080D01*
X0140409Y0100242D01*
X0140469Y0100403D01*
X0140533Y0100563D01*
X0140601Y0100721D01*
X0140672Y0100877D01*
X0140747Y0101031D01*
X0140827Y0101184D01*
X0140909Y0101334D01*
X0140996Y0101483D01*
X0141086Y0101629D01*
X0141180Y0101773D01*
X0141277Y0101915D01*
X0141378Y0102054D01*
X0141482Y0102191D01*
X0141589Y0102325D01*
X0141700Y0102456D01*
X0141813Y0102585D01*
X0141930Y0102711D01*
X0142050Y0102834D01*
X0142173Y0102954D01*
X0142299Y0103071D01*
X0142428Y0103184D01*
X0142559Y0103295D01*
X0142693Y0103402D01*
X0142830Y0103506D01*
X0142969Y0103607D01*
X0143111Y0103704D01*
X0143255Y0103798D01*
X0143401Y0103888D01*
X0143550Y0103975D01*
X0143700Y0104057D01*
X0143853Y0104137D01*
X0144007Y0104212D01*
X0144163Y0104283D01*
X0144321Y0104351D01*
X0144481Y0104415D01*
X0144642Y0104475D01*
X0144804Y0104531D01*
X0144968Y0104583D01*
X0145133Y0104630D01*
X0145299Y0104674D01*
X0145466Y0104714D01*
X0145634Y0104749D01*
X0145803Y0104781D01*
X0145973Y0104808D01*
X0146143Y0104831D01*
X0146314Y0104850D01*
X0146485Y0104865D01*
X0146657Y0104876D01*
X0146828Y0104882D01*
X0147000Y0104884D01*
X0147172Y0104882D01*
X0147343Y0104876D01*
X0147515Y0104865D01*
X0147686Y0104850D01*
X0147857Y0104831D01*
X0148027Y0104808D01*
X0148197Y0104781D01*
X0148366Y0104749D01*
X0148534Y0104714D01*
X0148701Y0104674D01*
X0148867Y0104630D01*
X0149032Y0104583D01*
X0149196Y0104531D01*
X0149358Y0104475D01*
X0149519Y0104415D01*
X0149679Y0104351D01*
X0149837Y0104283D01*
X0149993Y0104212D01*
X0150147Y0104137D01*
X0150300Y0104057D01*
X0150450Y0103975D01*
X0150599Y0103888D01*
X0150745Y0103798D01*
X0150889Y0103704D01*
X0151031Y0103607D01*
X0151170Y0103506D01*
X0151307Y0103402D01*
X0151441Y0103295D01*
X0151572Y0103184D01*
X0151701Y0103071D01*
X0151827Y0102954D01*
X0151950Y0102834D01*
X0152070Y0102711D01*
X0152187Y0102585D01*
X0152300Y0102456D01*
X0152411Y0102325D01*
X0152518Y0102191D01*
X0152622Y0102054D01*
X0152723Y0101915D01*
X0152820Y0101773D01*
X0152914Y0101629D01*
X0153004Y0101483D01*
X0153091Y0101334D01*
X0153173Y0101184D01*
X0153253Y0101031D01*
X0153328Y0100877D01*
X0153399Y0100721D01*
X0153467Y0100563D01*
X0153531Y0100403D01*
X0153591Y0100242D01*
X0153647Y0100080D01*
X0153699Y0099916D01*
X0153746Y0099751D01*
X0153790Y0099585D01*
X0153830Y0099418D01*
X0153865Y0099250D01*
X0153897Y0099081D01*
X0153924Y0098911D01*
X0153947Y0098741D01*
X0153966Y0098570D01*
X0153981Y0098399D01*
X0153992Y0098227D01*
X0153998Y0098056D01*
X0154000Y0097884D01*
X0153998Y0097712D01*
X0153992Y0097541D01*
X0153981Y0097369D01*
X0153966Y0097198D01*
X0153947Y0097027D01*
X0153924Y0096857D01*
X0153897Y0096687D01*
X0153865Y0096518D01*
X0153830Y0096350D01*
X0153790Y0096183D01*
X0153746Y0096017D01*
X0153699Y0095852D01*
X0153647Y0095688D01*
X0153591Y0095526D01*
X0153531Y0095365D01*
X0153467Y0095205D01*
X0153399Y0095047D01*
X0153328Y0094891D01*
X0153253Y0094737D01*
X0153173Y0094584D01*
X0153091Y0094434D01*
X0153004Y0094285D01*
X0152914Y0094139D01*
X0152820Y0093995D01*
X0152723Y0093853D01*
X0152622Y0093714D01*
X0152518Y0093577D01*
X0152411Y0093443D01*
X0152300Y0093312D01*
X0152187Y0093183D01*
X0152070Y0093057D01*
X0151950Y0092934D01*
X0151827Y0092814D01*
X0151701Y0092697D01*
X0151572Y0092584D01*
X0151441Y0092473D01*
X0151307Y0092366D01*
X0151170Y0092262D01*
X0151031Y0092161D01*
X0150889Y0092064D01*
X0150745Y0091970D01*
X0150599Y0091880D01*
X0150450Y0091793D01*
X0150300Y0091711D01*
X0150147Y0091631D01*
X0149993Y0091556D01*
X0149837Y0091485D01*
X0149679Y0091417D01*
X0149519Y0091353D01*
X0149358Y0091293D01*
X0149196Y0091237D01*
X0149032Y0091185D01*
X0148867Y0091138D01*
X0148701Y0091094D01*
X0148534Y0091054D01*
X0148366Y0091019D01*
X0148197Y0090987D01*
X0148027Y0090960D01*
X0147857Y0090937D01*
X0147686Y0090918D01*
X0147515Y0090903D01*
X0147343Y0090892D01*
X0147172Y0090886D01*
X0147000Y0090884D01*
X0146828Y0090886D01*
X0146657Y0090892D01*
X0146485Y0090903D01*
X0146314Y0090918D01*
X0146143Y0090937D01*
X0145973Y0090960D01*
X0145803Y0090987D01*
X0145634Y0091019D01*
X0145466Y0091054D01*
X0145299Y0091094D01*
X0145133Y0091138D01*
X0144968Y0091185D01*
X0144804Y0091237D01*
X0144642Y0091293D01*
X0144481Y0091353D01*
X0144321Y0091417D01*
X0144163Y0091485D01*
X0144007Y0091556D01*
X0143853Y0091631D01*
X0143700Y0091711D01*
X0143550Y0091793D01*
X0143401Y0091880D01*
X0143255Y0091970D01*
X0143111Y0092064D01*
X0142969Y0092161D01*
X0142830Y0092262D01*
X0142693Y0092366D01*
X0142559Y0092473D01*
X0142428Y0092584D01*
X0142299Y0092697D01*
X0142173Y0092814D01*
X0142050Y0092934D01*
X0141930Y0093057D01*
X0141813Y0093183D01*
X0141700Y0093312D01*
X0141589Y0093443D01*
X0141482Y0093577D01*
X0141378Y0093714D01*
X0141277Y0093853D01*
X0141180Y0093995D01*
X0141086Y0094139D01*
X0140996Y0094285D01*
X0140909Y0094434D01*
X0140827Y0094584D01*
X0140747Y0094737D01*
X0140672Y0094891D01*
X0140601Y0095047D01*
X0140533Y0095205D01*
X0140469Y0095365D01*
X0140409Y0095526D01*
X0140353Y0095688D01*
X0140301Y0095852D01*
X0140254Y0096017D01*
X0140210Y0096183D01*
X0140170Y0096350D01*
X0140135Y0096518D01*
X0140103Y0096687D01*
X0140076Y0096857D01*
X0140053Y0097027D01*
X0140034Y0097198D01*
X0140019Y0097369D01*
X0140008Y0097541D01*
X0140002Y0097712D01*
X0140000Y0097884D01*
X0138500Y0118384D02*
X0137000Y0118384D01*
X0136500Y0118884D01*
X0117500Y0118884D01*
X0117000Y0118384D01*
X0115500Y0118384D01*
X0115440Y0118386D01*
X0115379Y0118391D01*
X0115320Y0118400D01*
X0115261Y0118413D01*
X0115202Y0118429D01*
X0115145Y0118449D01*
X0115090Y0118472D01*
X0115035Y0118499D01*
X0114983Y0118528D01*
X0114932Y0118561D01*
X0114883Y0118597D01*
X0114837Y0118635D01*
X0114793Y0118677D01*
X0114751Y0118721D01*
X0114713Y0118767D01*
X0114677Y0118816D01*
X0114644Y0118867D01*
X0114615Y0118919D01*
X0114588Y0118974D01*
X0114565Y0119029D01*
X0114545Y0119086D01*
X0114529Y0119145D01*
X0114516Y0119204D01*
X0114507Y0119263D01*
X0114502Y0119324D01*
X0114500Y0119384D01*
X0114500Y0126384D01*
X0114502Y0126444D01*
X0114507Y0126505D01*
X0114516Y0126564D01*
X0114529Y0126623D01*
X0114545Y0126682D01*
X0114565Y0126739D01*
X0114588Y0126794D01*
X0114615Y0126849D01*
X0114644Y0126901D01*
X0114677Y0126952D01*
X0114713Y0127001D01*
X0114751Y0127047D01*
X0114793Y0127091D01*
X0114837Y0127133D01*
X0114883Y0127171D01*
X0114932Y0127207D01*
X0114983Y0127240D01*
X0115035Y0127269D01*
X0115090Y0127296D01*
X0115145Y0127319D01*
X0115202Y0127339D01*
X0115261Y0127355D01*
X0115320Y0127368D01*
X0115379Y0127377D01*
X0115440Y0127382D01*
X0115500Y0127384D01*
X0117000Y0127384D01*
X0117500Y0126884D01*
X0136500Y0126884D01*
X0137000Y0127384D01*
X0138500Y0127384D01*
X0138560Y0127382D01*
X0138621Y0127377D01*
X0138680Y0127368D01*
X0138739Y0127355D01*
X0138798Y0127339D01*
X0138855Y0127319D01*
X0138910Y0127296D01*
X0138965Y0127269D01*
X0139017Y0127240D01*
X0139068Y0127207D01*
X0139117Y0127171D01*
X0139163Y0127133D01*
X0139207Y0127091D01*
X0139249Y0127047D01*
X0139287Y0127001D01*
X0139323Y0126952D01*
X0139356Y0126901D01*
X0139385Y0126849D01*
X0139412Y0126794D01*
X0139435Y0126739D01*
X0139455Y0126682D01*
X0139471Y0126623D01*
X0139484Y0126564D01*
X0139493Y0126505D01*
X0139498Y0126444D01*
X0139500Y0126384D01*
X0139500Y0119384D01*
X0139498Y0119324D01*
X0139493Y0119263D01*
X0139484Y0119204D01*
X0139471Y0119145D01*
X0139455Y0119086D01*
X0139435Y0119029D01*
X0139412Y0118974D01*
X0139385Y0118919D01*
X0139356Y0118867D01*
X0139323Y0118816D01*
X0139287Y0118767D01*
X0139249Y0118721D01*
X0139207Y0118677D01*
X0139163Y0118635D01*
X0139117Y0118597D01*
X0139068Y0118561D01*
X0139017Y0118528D01*
X0138965Y0118499D01*
X0138910Y0118472D01*
X0138855Y0118449D01*
X0138798Y0118429D01*
X0138739Y0118413D01*
X0138680Y0118400D01*
X0138621Y0118391D01*
X0138560Y0118386D01*
X0138500Y0118384D01*
X0113000Y0103384D02*
X0112000Y0103384D01*
X0112000Y0102384D01*
X0112000Y0103384D02*
X0111000Y0103384D01*
X0112000Y0103384D02*
X0112000Y0104384D01*
X0097000Y0097884D02*
X0097003Y0098129D01*
X0097012Y0098375D01*
X0097027Y0098620D01*
X0097048Y0098864D01*
X0097075Y0099108D01*
X0097108Y0099351D01*
X0097147Y0099594D01*
X0097192Y0099835D01*
X0097243Y0100075D01*
X0097300Y0100314D01*
X0097362Y0100551D01*
X0097431Y0100787D01*
X0097505Y0101021D01*
X0097585Y0101253D01*
X0097670Y0101483D01*
X0097761Y0101711D01*
X0097858Y0101936D01*
X0097960Y0102160D01*
X0098068Y0102380D01*
X0098181Y0102598D01*
X0098299Y0102813D01*
X0098423Y0103025D01*
X0098551Y0103234D01*
X0098685Y0103440D01*
X0098824Y0103642D01*
X0098968Y0103841D01*
X0099117Y0104036D01*
X0099270Y0104228D01*
X0099428Y0104416D01*
X0099590Y0104600D01*
X0099758Y0104779D01*
X0099929Y0104955D01*
X0100105Y0105126D01*
X0100284Y0105294D01*
X0100468Y0105456D01*
X0100656Y0105614D01*
X0100848Y0105767D01*
X0101043Y0105916D01*
X0101242Y0106060D01*
X0101444Y0106199D01*
X0101650Y0106333D01*
X0101859Y0106461D01*
X0102071Y0106585D01*
X0102286Y0106703D01*
X0102504Y0106816D01*
X0102724Y0106924D01*
X0102948Y0107026D01*
X0103173Y0107123D01*
X0103401Y0107214D01*
X0103631Y0107299D01*
X0103863Y0107379D01*
X0104097Y0107453D01*
X0104333Y0107522D01*
X0104570Y0107584D01*
X0104809Y0107641D01*
X0105049Y0107692D01*
X0105290Y0107737D01*
X0105533Y0107776D01*
X0105776Y0107809D01*
X0106020Y0107836D01*
X0106264Y0107857D01*
X0106509Y0107872D01*
X0106755Y0107881D01*
X0107000Y0107884D01*
X0107245Y0107881D01*
X0107491Y0107872D01*
X0107736Y0107857D01*
X0107980Y0107836D01*
X0108224Y0107809D01*
X0108467Y0107776D01*
X0108710Y0107737D01*
X0108951Y0107692D01*
X0109191Y0107641D01*
X0109430Y0107584D01*
X0109667Y0107522D01*
X0109903Y0107453D01*
X0110137Y0107379D01*
X0110369Y0107299D01*
X0110599Y0107214D01*
X0110827Y0107123D01*
X0111052Y0107026D01*
X0111276Y0106924D01*
X0111496Y0106816D01*
X0111714Y0106703D01*
X0111929Y0106585D01*
X0112141Y0106461D01*
X0112350Y0106333D01*
X0112556Y0106199D01*
X0112758Y0106060D01*
X0112957Y0105916D01*
X0113152Y0105767D01*
X0113344Y0105614D01*
X0113532Y0105456D01*
X0113716Y0105294D01*
X0113895Y0105126D01*
X0114071Y0104955D01*
X0114242Y0104779D01*
X0114410Y0104600D01*
X0114572Y0104416D01*
X0114730Y0104228D01*
X0114883Y0104036D01*
X0115032Y0103841D01*
X0115176Y0103642D01*
X0115315Y0103440D01*
X0115449Y0103234D01*
X0115577Y0103025D01*
X0115701Y0102813D01*
X0115819Y0102598D01*
X0115932Y0102380D01*
X0116040Y0102160D01*
X0116142Y0101936D01*
X0116239Y0101711D01*
X0116330Y0101483D01*
X0116415Y0101253D01*
X0116495Y0101021D01*
X0116569Y0100787D01*
X0116638Y0100551D01*
X0116700Y0100314D01*
X0116757Y0100075D01*
X0116808Y0099835D01*
X0116853Y0099594D01*
X0116892Y0099351D01*
X0116925Y0099108D01*
X0116952Y0098864D01*
X0116973Y0098620D01*
X0116988Y0098375D01*
X0116997Y0098129D01*
X0117000Y0097884D01*
X0116997Y0097639D01*
X0116988Y0097393D01*
X0116973Y0097148D01*
X0116952Y0096904D01*
X0116925Y0096660D01*
X0116892Y0096417D01*
X0116853Y0096174D01*
X0116808Y0095933D01*
X0116757Y0095693D01*
X0116700Y0095454D01*
X0116638Y0095217D01*
X0116569Y0094981D01*
X0116495Y0094747D01*
X0116415Y0094515D01*
X0116330Y0094285D01*
X0116239Y0094057D01*
X0116142Y0093832D01*
X0116040Y0093608D01*
X0115932Y0093388D01*
X0115819Y0093170D01*
X0115701Y0092955D01*
X0115577Y0092743D01*
X0115449Y0092534D01*
X0115315Y0092328D01*
X0115176Y0092126D01*
X0115032Y0091927D01*
X0114883Y0091732D01*
X0114730Y0091540D01*
X0114572Y0091352D01*
X0114410Y0091168D01*
X0114242Y0090989D01*
X0114071Y0090813D01*
X0113895Y0090642D01*
X0113716Y0090474D01*
X0113532Y0090312D01*
X0113344Y0090154D01*
X0113152Y0090001D01*
X0112957Y0089852D01*
X0112758Y0089708D01*
X0112556Y0089569D01*
X0112350Y0089435D01*
X0112141Y0089307D01*
X0111929Y0089183D01*
X0111714Y0089065D01*
X0111496Y0088952D01*
X0111276Y0088844D01*
X0111052Y0088742D01*
X0110827Y0088645D01*
X0110599Y0088554D01*
X0110369Y0088469D01*
X0110137Y0088389D01*
X0109903Y0088315D01*
X0109667Y0088246D01*
X0109430Y0088184D01*
X0109191Y0088127D01*
X0108951Y0088076D01*
X0108710Y0088031D01*
X0108467Y0087992D01*
X0108224Y0087959D01*
X0107980Y0087932D01*
X0107736Y0087911D01*
X0107491Y0087896D01*
X0107245Y0087887D01*
X0107000Y0087884D01*
X0106755Y0087887D01*
X0106509Y0087896D01*
X0106264Y0087911D01*
X0106020Y0087932D01*
X0105776Y0087959D01*
X0105533Y0087992D01*
X0105290Y0088031D01*
X0105049Y0088076D01*
X0104809Y0088127D01*
X0104570Y0088184D01*
X0104333Y0088246D01*
X0104097Y0088315D01*
X0103863Y0088389D01*
X0103631Y0088469D01*
X0103401Y0088554D01*
X0103173Y0088645D01*
X0102948Y0088742D01*
X0102724Y0088844D01*
X0102504Y0088952D01*
X0102286Y0089065D01*
X0102071Y0089183D01*
X0101859Y0089307D01*
X0101650Y0089435D01*
X0101444Y0089569D01*
X0101242Y0089708D01*
X0101043Y0089852D01*
X0100848Y0090001D01*
X0100656Y0090154D01*
X0100468Y0090312D01*
X0100284Y0090474D01*
X0100105Y0090642D01*
X0099929Y0090813D01*
X0099758Y0090989D01*
X0099590Y0091168D01*
X0099428Y0091352D01*
X0099270Y0091540D01*
X0099117Y0091732D01*
X0098968Y0091927D01*
X0098824Y0092126D01*
X0098685Y0092328D01*
X0098551Y0092534D01*
X0098423Y0092743D01*
X0098299Y0092955D01*
X0098181Y0093170D01*
X0098068Y0093388D01*
X0097960Y0093608D01*
X0097858Y0093832D01*
X0097761Y0094057D01*
X0097670Y0094285D01*
X0097585Y0094515D01*
X0097505Y0094747D01*
X0097431Y0094981D01*
X0097362Y0095217D01*
X0097300Y0095454D01*
X0097243Y0095693D01*
X0097192Y0095933D01*
X0097147Y0096174D01*
X0097108Y0096417D01*
X0097075Y0096660D01*
X0097048Y0096904D01*
X0097027Y0097148D01*
X0097012Y0097393D01*
X0097003Y0097639D01*
X0097000Y0097884D01*
X0080000Y0094884D02*
X0080000Y0100884D01*
X0079000Y0100884D01*
X0079000Y0101884D01*
X0079000Y0094884D02*
X0079000Y0093884D01*
X0079000Y0094884D02*
X0080000Y0094884D01*
X0075500Y0085884D02*
X0071500Y0085884D01*
X0062000Y0085884D01*
X0058500Y0085884D01*
X0055000Y0093884D02*
X0055000Y0094884D01*
X0054000Y0094884D01*
X0054000Y0100884D01*
X0055000Y0100884D01*
X0055000Y0101884D01*
X0058500Y0109884D02*
X0062000Y0109884D01*
X0072000Y0109884D01*
X0075500Y0109884D01*
X0066000Y0097884D02*
X0066002Y0097947D01*
X0066008Y0098009D01*
X0066018Y0098071D01*
X0066031Y0098133D01*
X0066049Y0098193D01*
X0066070Y0098252D01*
X0066095Y0098310D01*
X0066124Y0098366D01*
X0066156Y0098420D01*
X0066191Y0098472D01*
X0066229Y0098521D01*
X0066271Y0098569D01*
X0066315Y0098613D01*
X0066363Y0098655D01*
X0066412Y0098693D01*
X0066464Y0098728D01*
X0066518Y0098760D01*
X0066574Y0098789D01*
X0066632Y0098814D01*
X0066691Y0098835D01*
X0066751Y0098853D01*
X0066813Y0098866D01*
X0066875Y0098876D01*
X0066937Y0098882D01*
X0067000Y0098884D01*
X0067063Y0098882D01*
X0067125Y0098876D01*
X0067187Y0098866D01*
X0067249Y0098853D01*
X0067309Y0098835D01*
X0067368Y0098814D01*
X0067426Y0098789D01*
X0067482Y0098760D01*
X0067536Y0098728D01*
X0067588Y0098693D01*
X0067637Y0098655D01*
X0067685Y0098613D01*
X0067729Y0098569D01*
X0067771Y0098521D01*
X0067809Y0098472D01*
X0067844Y0098420D01*
X0067876Y0098366D01*
X0067905Y0098310D01*
X0067930Y0098252D01*
X0067951Y0098193D01*
X0067969Y0098133D01*
X0067982Y0098071D01*
X0067992Y0098009D01*
X0067998Y0097947D01*
X0068000Y0097884D01*
X0067998Y0097821D01*
X0067992Y0097759D01*
X0067982Y0097697D01*
X0067969Y0097635D01*
X0067951Y0097575D01*
X0067930Y0097516D01*
X0067905Y0097458D01*
X0067876Y0097402D01*
X0067844Y0097348D01*
X0067809Y0097296D01*
X0067771Y0097247D01*
X0067729Y0097199D01*
X0067685Y0097155D01*
X0067637Y0097113D01*
X0067588Y0097075D01*
X0067536Y0097040D01*
X0067482Y0097008D01*
X0067426Y0096979D01*
X0067368Y0096954D01*
X0067309Y0096933D01*
X0067249Y0096915D01*
X0067187Y0096902D01*
X0067125Y0096892D01*
X0067063Y0096886D01*
X0067000Y0096884D01*
X0066937Y0096886D01*
X0066875Y0096892D01*
X0066813Y0096902D01*
X0066751Y0096915D01*
X0066691Y0096933D01*
X0066632Y0096954D01*
X0066574Y0096979D01*
X0066518Y0097008D01*
X0066464Y0097040D01*
X0066412Y0097075D01*
X0066363Y0097113D01*
X0066315Y0097155D01*
X0066271Y0097199D01*
X0066229Y0097247D01*
X0066191Y0097296D01*
X0066156Y0097348D01*
X0066124Y0097402D01*
X0066095Y0097458D01*
X0066070Y0097516D01*
X0066049Y0097575D01*
X0066031Y0097635D01*
X0066018Y0097697D01*
X0066008Y0097759D01*
X0066002Y0097821D01*
X0066000Y0097884D01*
X0060000Y0097884D02*
X0060002Y0098056D01*
X0060008Y0098227D01*
X0060019Y0098399D01*
X0060034Y0098570D01*
X0060053Y0098741D01*
X0060076Y0098911D01*
X0060103Y0099081D01*
X0060135Y0099250D01*
X0060170Y0099418D01*
X0060210Y0099585D01*
X0060254Y0099751D01*
X0060301Y0099916D01*
X0060353Y0100080D01*
X0060409Y0100242D01*
X0060469Y0100403D01*
X0060533Y0100563D01*
X0060601Y0100721D01*
X0060672Y0100877D01*
X0060747Y0101031D01*
X0060827Y0101184D01*
X0060909Y0101334D01*
X0060996Y0101483D01*
X0061086Y0101629D01*
X0061180Y0101773D01*
X0061277Y0101915D01*
X0061378Y0102054D01*
X0061482Y0102191D01*
X0061589Y0102325D01*
X0061700Y0102456D01*
X0061813Y0102585D01*
X0061930Y0102711D01*
X0062050Y0102834D01*
X0062173Y0102954D01*
X0062299Y0103071D01*
X0062428Y0103184D01*
X0062559Y0103295D01*
X0062693Y0103402D01*
X0062830Y0103506D01*
X0062969Y0103607D01*
X0063111Y0103704D01*
X0063255Y0103798D01*
X0063401Y0103888D01*
X0063550Y0103975D01*
X0063700Y0104057D01*
X0063853Y0104137D01*
X0064007Y0104212D01*
X0064163Y0104283D01*
X0064321Y0104351D01*
X0064481Y0104415D01*
X0064642Y0104475D01*
X0064804Y0104531D01*
X0064968Y0104583D01*
X0065133Y0104630D01*
X0065299Y0104674D01*
X0065466Y0104714D01*
X0065634Y0104749D01*
X0065803Y0104781D01*
X0065973Y0104808D01*
X0066143Y0104831D01*
X0066314Y0104850D01*
X0066485Y0104865D01*
X0066657Y0104876D01*
X0066828Y0104882D01*
X0067000Y0104884D01*
X0067172Y0104882D01*
X0067343Y0104876D01*
X0067515Y0104865D01*
X0067686Y0104850D01*
X0067857Y0104831D01*
X0068027Y0104808D01*
X0068197Y0104781D01*
X0068366Y0104749D01*
X0068534Y0104714D01*
X0068701Y0104674D01*
X0068867Y0104630D01*
X0069032Y0104583D01*
X0069196Y0104531D01*
X0069358Y0104475D01*
X0069519Y0104415D01*
X0069679Y0104351D01*
X0069837Y0104283D01*
X0069993Y0104212D01*
X0070147Y0104137D01*
X0070300Y0104057D01*
X0070450Y0103975D01*
X0070599Y0103888D01*
X0070745Y0103798D01*
X0070889Y0103704D01*
X0071031Y0103607D01*
X0071170Y0103506D01*
X0071307Y0103402D01*
X0071441Y0103295D01*
X0071572Y0103184D01*
X0071701Y0103071D01*
X0071827Y0102954D01*
X0071950Y0102834D01*
X0072070Y0102711D01*
X0072187Y0102585D01*
X0072300Y0102456D01*
X0072411Y0102325D01*
X0072518Y0102191D01*
X0072622Y0102054D01*
X0072723Y0101915D01*
X0072820Y0101773D01*
X0072914Y0101629D01*
X0073004Y0101483D01*
X0073091Y0101334D01*
X0073173Y0101184D01*
X0073253Y0101031D01*
X0073328Y0100877D01*
X0073399Y0100721D01*
X0073467Y0100563D01*
X0073531Y0100403D01*
X0073591Y0100242D01*
X0073647Y0100080D01*
X0073699Y0099916D01*
X0073746Y0099751D01*
X0073790Y0099585D01*
X0073830Y0099418D01*
X0073865Y0099250D01*
X0073897Y0099081D01*
X0073924Y0098911D01*
X0073947Y0098741D01*
X0073966Y0098570D01*
X0073981Y0098399D01*
X0073992Y0098227D01*
X0073998Y0098056D01*
X0074000Y0097884D01*
X0073998Y0097712D01*
X0073992Y0097541D01*
X0073981Y0097369D01*
X0073966Y0097198D01*
X0073947Y0097027D01*
X0073924Y0096857D01*
X0073897Y0096687D01*
X0073865Y0096518D01*
X0073830Y0096350D01*
X0073790Y0096183D01*
X0073746Y0096017D01*
X0073699Y0095852D01*
X0073647Y0095688D01*
X0073591Y0095526D01*
X0073531Y0095365D01*
X0073467Y0095205D01*
X0073399Y0095047D01*
X0073328Y0094891D01*
X0073253Y0094737D01*
X0073173Y0094584D01*
X0073091Y0094434D01*
X0073004Y0094285D01*
X0072914Y0094139D01*
X0072820Y0093995D01*
X0072723Y0093853D01*
X0072622Y0093714D01*
X0072518Y0093577D01*
X0072411Y0093443D01*
X0072300Y0093312D01*
X0072187Y0093183D01*
X0072070Y0093057D01*
X0071950Y0092934D01*
X0071827Y0092814D01*
X0071701Y0092697D01*
X0071572Y0092584D01*
X0071441Y0092473D01*
X0071307Y0092366D01*
X0071170Y0092262D01*
X0071031Y0092161D01*
X0070889Y0092064D01*
X0070745Y0091970D01*
X0070599Y0091880D01*
X0070450Y0091793D01*
X0070300Y0091711D01*
X0070147Y0091631D01*
X0069993Y0091556D01*
X0069837Y0091485D01*
X0069679Y0091417D01*
X0069519Y0091353D01*
X0069358Y0091293D01*
X0069196Y0091237D01*
X0069032Y0091185D01*
X0068867Y0091138D01*
X0068701Y0091094D01*
X0068534Y0091054D01*
X0068366Y0091019D01*
X0068197Y0090987D01*
X0068027Y0090960D01*
X0067857Y0090937D01*
X0067686Y0090918D01*
X0067515Y0090903D01*
X0067343Y0090892D01*
X0067172Y0090886D01*
X0067000Y0090884D01*
X0066828Y0090886D01*
X0066657Y0090892D01*
X0066485Y0090903D01*
X0066314Y0090918D01*
X0066143Y0090937D01*
X0065973Y0090960D01*
X0065803Y0090987D01*
X0065634Y0091019D01*
X0065466Y0091054D01*
X0065299Y0091094D01*
X0065133Y0091138D01*
X0064968Y0091185D01*
X0064804Y0091237D01*
X0064642Y0091293D01*
X0064481Y0091353D01*
X0064321Y0091417D01*
X0064163Y0091485D01*
X0064007Y0091556D01*
X0063853Y0091631D01*
X0063700Y0091711D01*
X0063550Y0091793D01*
X0063401Y0091880D01*
X0063255Y0091970D01*
X0063111Y0092064D01*
X0062969Y0092161D01*
X0062830Y0092262D01*
X0062693Y0092366D01*
X0062559Y0092473D01*
X0062428Y0092584D01*
X0062299Y0092697D01*
X0062173Y0092814D01*
X0062050Y0092934D01*
X0061930Y0093057D01*
X0061813Y0093183D01*
X0061700Y0093312D01*
X0061589Y0093443D01*
X0061482Y0093577D01*
X0061378Y0093714D01*
X0061277Y0093853D01*
X0061180Y0093995D01*
X0061086Y0094139D01*
X0060996Y0094285D01*
X0060909Y0094434D01*
X0060827Y0094584D01*
X0060747Y0094737D01*
X0060672Y0094891D01*
X0060601Y0095047D01*
X0060533Y0095205D01*
X0060469Y0095365D01*
X0060409Y0095526D01*
X0060353Y0095688D01*
X0060301Y0095852D01*
X0060254Y0096017D01*
X0060210Y0096183D01*
X0060170Y0096350D01*
X0060135Y0096518D01*
X0060103Y0096687D01*
X0060076Y0096857D01*
X0060053Y0097027D01*
X0060034Y0097198D01*
X0060019Y0097369D01*
X0060008Y0097541D01*
X0060002Y0097712D01*
X0060000Y0097884D01*
X0058500Y0118384D02*
X0057000Y0118384D01*
X0056500Y0118884D01*
X0037500Y0118884D01*
X0037000Y0118384D01*
X0035500Y0118384D01*
X0035440Y0118386D01*
X0035379Y0118391D01*
X0035320Y0118400D01*
X0035261Y0118413D01*
X0035202Y0118429D01*
X0035145Y0118449D01*
X0035090Y0118472D01*
X0035035Y0118499D01*
X0034983Y0118528D01*
X0034932Y0118561D01*
X0034883Y0118597D01*
X0034837Y0118635D01*
X0034793Y0118677D01*
X0034751Y0118721D01*
X0034713Y0118767D01*
X0034677Y0118816D01*
X0034644Y0118867D01*
X0034615Y0118919D01*
X0034588Y0118974D01*
X0034565Y0119029D01*
X0034545Y0119086D01*
X0034529Y0119145D01*
X0034516Y0119204D01*
X0034507Y0119263D01*
X0034502Y0119324D01*
X0034500Y0119384D01*
X0034500Y0126384D01*
X0034502Y0126444D01*
X0034507Y0126505D01*
X0034516Y0126564D01*
X0034529Y0126623D01*
X0034545Y0126682D01*
X0034565Y0126739D01*
X0034588Y0126794D01*
X0034615Y0126849D01*
X0034644Y0126901D01*
X0034677Y0126952D01*
X0034713Y0127001D01*
X0034751Y0127047D01*
X0034793Y0127091D01*
X0034837Y0127133D01*
X0034883Y0127171D01*
X0034932Y0127207D01*
X0034983Y0127240D01*
X0035035Y0127269D01*
X0035090Y0127296D01*
X0035145Y0127319D01*
X0035202Y0127339D01*
X0035261Y0127355D01*
X0035320Y0127368D01*
X0035379Y0127377D01*
X0035440Y0127382D01*
X0035500Y0127384D01*
X0037000Y0127384D01*
X0037500Y0126884D01*
X0056500Y0126884D01*
X0057000Y0127384D01*
X0058500Y0127384D01*
X0058560Y0127382D01*
X0058621Y0127377D01*
X0058680Y0127368D01*
X0058739Y0127355D01*
X0058798Y0127339D01*
X0058855Y0127319D01*
X0058910Y0127296D01*
X0058965Y0127269D01*
X0059017Y0127240D01*
X0059068Y0127207D01*
X0059117Y0127171D01*
X0059163Y0127133D01*
X0059207Y0127091D01*
X0059249Y0127047D01*
X0059287Y0127001D01*
X0059323Y0126952D01*
X0059356Y0126901D01*
X0059385Y0126849D01*
X0059412Y0126794D01*
X0059435Y0126739D01*
X0059455Y0126682D01*
X0059471Y0126623D01*
X0059484Y0126564D01*
X0059493Y0126505D01*
X0059498Y0126444D01*
X0059500Y0126384D01*
X0059500Y0119384D01*
X0059498Y0119324D01*
X0059493Y0119263D01*
X0059484Y0119204D01*
X0059471Y0119145D01*
X0059455Y0119086D01*
X0059435Y0119029D01*
X0059412Y0118974D01*
X0059385Y0118919D01*
X0059356Y0118867D01*
X0059323Y0118816D01*
X0059287Y0118767D01*
X0059249Y0118721D01*
X0059207Y0118677D01*
X0059163Y0118635D01*
X0059117Y0118597D01*
X0059068Y0118561D01*
X0059017Y0118528D01*
X0058965Y0118499D01*
X0058910Y0118472D01*
X0058855Y0118449D01*
X0058798Y0118429D01*
X0058739Y0118413D01*
X0058680Y0118400D01*
X0058621Y0118391D01*
X0058560Y0118386D01*
X0058500Y0118384D01*
X0033000Y0103384D02*
X0032000Y0103384D01*
X0032000Y0102384D01*
X0032000Y0103384D02*
X0031000Y0103384D01*
X0032000Y0103384D02*
X0032000Y0104384D01*
X0017000Y0097884D02*
X0017003Y0098129D01*
X0017012Y0098375D01*
X0017027Y0098620D01*
X0017048Y0098864D01*
X0017075Y0099108D01*
X0017108Y0099351D01*
X0017147Y0099594D01*
X0017192Y0099835D01*
X0017243Y0100075D01*
X0017300Y0100314D01*
X0017362Y0100551D01*
X0017431Y0100787D01*
X0017505Y0101021D01*
X0017585Y0101253D01*
X0017670Y0101483D01*
X0017761Y0101711D01*
X0017858Y0101936D01*
X0017960Y0102160D01*
X0018068Y0102380D01*
X0018181Y0102598D01*
X0018299Y0102813D01*
X0018423Y0103025D01*
X0018551Y0103234D01*
X0018685Y0103440D01*
X0018824Y0103642D01*
X0018968Y0103841D01*
X0019117Y0104036D01*
X0019270Y0104228D01*
X0019428Y0104416D01*
X0019590Y0104600D01*
X0019758Y0104779D01*
X0019929Y0104955D01*
X0020105Y0105126D01*
X0020284Y0105294D01*
X0020468Y0105456D01*
X0020656Y0105614D01*
X0020848Y0105767D01*
X0021043Y0105916D01*
X0021242Y0106060D01*
X0021444Y0106199D01*
X0021650Y0106333D01*
X0021859Y0106461D01*
X0022071Y0106585D01*
X0022286Y0106703D01*
X0022504Y0106816D01*
X0022724Y0106924D01*
X0022948Y0107026D01*
X0023173Y0107123D01*
X0023401Y0107214D01*
X0023631Y0107299D01*
X0023863Y0107379D01*
X0024097Y0107453D01*
X0024333Y0107522D01*
X0024570Y0107584D01*
X0024809Y0107641D01*
X0025049Y0107692D01*
X0025290Y0107737D01*
X0025533Y0107776D01*
X0025776Y0107809D01*
X0026020Y0107836D01*
X0026264Y0107857D01*
X0026509Y0107872D01*
X0026755Y0107881D01*
X0027000Y0107884D01*
X0027245Y0107881D01*
X0027491Y0107872D01*
X0027736Y0107857D01*
X0027980Y0107836D01*
X0028224Y0107809D01*
X0028467Y0107776D01*
X0028710Y0107737D01*
X0028951Y0107692D01*
X0029191Y0107641D01*
X0029430Y0107584D01*
X0029667Y0107522D01*
X0029903Y0107453D01*
X0030137Y0107379D01*
X0030369Y0107299D01*
X0030599Y0107214D01*
X0030827Y0107123D01*
X0031052Y0107026D01*
X0031276Y0106924D01*
X0031496Y0106816D01*
X0031714Y0106703D01*
X0031929Y0106585D01*
X0032141Y0106461D01*
X0032350Y0106333D01*
X0032556Y0106199D01*
X0032758Y0106060D01*
X0032957Y0105916D01*
X0033152Y0105767D01*
X0033344Y0105614D01*
X0033532Y0105456D01*
X0033716Y0105294D01*
X0033895Y0105126D01*
X0034071Y0104955D01*
X0034242Y0104779D01*
X0034410Y0104600D01*
X0034572Y0104416D01*
X0034730Y0104228D01*
X0034883Y0104036D01*
X0035032Y0103841D01*
X0035176Y0103642D01*
X0035315Y0103440D01*
X0035449Y0103234D01*
X0035577Y0103025D01*
X0035701Y0102813D01*
X0035819Y0102598D01*
X0035932Y0102380D01*
X0036040Y0102160D01*
X0036142Y0101936D01*
X0036239Y0101711D01*
X0036330Y0101483D01*
X0036415Y0101253D01*
X0036495Y0101021D01*
X0036569Y0100787D01*
X0036638Y0100551D01*
X0036700Y0100314D01*
X0036757Y0100075D01*
X0036808Y0099835D01*
X0036853Y0099594D01*
X0036892Y0099351D01*
X0036925Y0099108D01*
X0036952Y0098864D01*
X0036973Y0098620D01*
X0036988Y0098375D01*
X0036997Y0098129D01*
X0037000Y0097884D01*
X0036997Y0097639D01*
X0036988Y0097393D01*
X0036973Y0097148D01*
X0036952Y0096904D01*
X0036925Y0096660D01*
X0036892Y0096417D01*
X0036853Y0096174D01*
X0036808Y0095933D01*
X0036757Y0095693D01*
X0036700Y0095454D01*
X0036638Y0095217D01*
X0036569Y0094981D01*
X0036495Y0094747D01*
X0036415Y0094515D01*
X0036330Y0094285D01*
X0036239Y0094057D01*
X0036142Y0093832D01*
X0036040Y0093608D01*
X0035932Y0093388D01*
X0035819Y0093170D01*
X0035701Y0092955D01*
X0035577Y0092743D01*
X0035449Y0092534D01*
X0035315Y0092328D01*
X0035176Y0092126D01*
X0035032Y0091927D01*
X0034883Y0091732D01*
X0034730Y0091540D01*
X0034572Y0091352D01*
X0034410Y0091168D01*
X0034242Y0090989D01*
X0034071Y0090813D01*
X0033895Y0090642D01*
X0033716Y0090474D01*
X0033532Y0090312D01*
X0033344Y0090154D01*
X0033152Y0090001D01*
X0032957Y0089852D01*
X0032758Y0089708D01*
X0032556Y0089569D01*
X0032350Y0089435D01*
X0032141Y0089307D01*
X0031929Y0089183D01*
X0031714Y0089065D01*
X0031496Y0088952D01*
X0031276Y0088844D01*
X0031052Y0088742D01*
X0030827Y0088645D01*
X0030599Y0088554D01*
X0030369Y0088469D01*
X0030137Y0088389D01*
X0029903Y0088315D01*
X0029667Y0088246D01*
X0029430Y0088184D01*
X0029191Y0088127D01*
X0028951Y0088076D01*
X0028710Y0088031D01*
X0028467Y0087992D01*
X0028224Y0087959D01*
X0027980Y0087932D01*
X0027736Y0087911D01*
X0027491Y0087896D01*
X0027245Y0087887D01*
X0027000Y0087884D01*
X0026755Y0087887D01*
X0026509Y0087896D01*
X0026264Y0087911D01*
X0026020Y0087932D01*
X0025776Y0087959D01*
X0025533Y0087992D01*
X0025290Y0088031D01*
X0025049Y0088076D01*
X0024809Y0088127D01*
X0024570Y0088184D01*
X0024333Y0088246D01*
X0024097Y0088315D01*
X0023863Y0088389D01*
X0023631Y0088469D01*
X0023401Y0088554D01*
X0023173Y0088645D01*
X0022948Y0088742D01*
X0022724Y0088844D01*
X0022504Y0088952D01*
X0022286Y0089065D01*
X0022071Y0089183D01*
X0021859Y0089307D01*
X0021650Y0089435D01*
X0021444Y0089569D01*
X0021242Y0089708D01*
X0021043Y0089852D01*
X0020848Y0090001D01*
X0020656Y0090154D01*
X0020468Y0090312D01*
X0020284Y0090474D01*
X0020105Y0090642D01*
X0019929Y0090813D01*
X0019758Y0090989D01*
X0019590Y0091168D01*
X0019428Y0091352D01*
X0019270Y0091540D01*
X0019117Y0091732D01*
X0018968Y0091927D01*
X0018824Y0092126D01*
X0018685Y0092328D01*
X0018551Y0092534D01*
X0018423Y0092743D01*
X0018299Y0092955D01*
X0018181Y0093170D01*
X0018068Y0093388D01*
X0017960Y0093608D01*
X0017858Y0093832D01*
X0017761Y0094057D01*
X0017670Y0094285D01*
X0017585Y0094515D01*
X0017505Y0094747D01*
X0017431Y0094981D01*
X0017362Y0095217D01*
X0017300Y0095454D01*
X0017243Y0095693D01*
X0017192Y0095933D01*
X0017147Y0096174D01*
X0017108Y0096417D01*
X0017075Y0096660D01*
X0017048Y0096904D01*
X0017027Y0097148D01*
X0017012Y0097393D01*
X0017003Y0097639D01*
X0017000Y0097884D01*
X0108500Y0190384D02*
X0108500Y0195384D01*
X0108502Y0195471D01*
X0108508Y0195558D01*
X0108517Y0195645D01*
X0108530Y0195731D01*
X0108547Y0195817D01*
X0108568Y0195902D01*
X0108593Y0195985D01*
X0108621Y0196068D01*
X0108652Y0196149D01*
X0108687Y0196229D01*
X0108726Y0196307D01*
X0108768Y0196384D01*
X0108813Y0196459D01*
X0108862Y0196531D01*
X0108913Y0196602D01*
X0108968Y0196670D01*
X0109025Y0196735D01*
X0109086Y0196798D01*
X0109149Y0196859D01*
X0109214Y0196916D01*
X0109282Y0196971D01*
X0109353Y0197022D01*
X0109425Y0197071D01*
X0109500Y0197116D01*
X0109577Y0197158D01*
X0109655Y0197197D01*
X0109735Y0197232D01*
X0109816Y0197263D01*
X0109899Y0197291D01*
X0109982Y0197316D01*
X0110067Y0197337D01*
X0110153Y0197354D01*
X0110239Y0197367D01*
X0110326Y0197376D01*
X0110413Y0197382D01*
X0110500Y0197384D01*
X0123500Y0197384D01*
X0123587Y0197382D01*
X0123674Y0197376D01*
X0123761Y0197367D01*
X0123847Y0197354D01*
X0123933Y0197337D01*
X0124018Y0197316D01*
X0124101Y0197291D01*
X0124184Y0197263D01*
X0124265Y0197232D01*
X0124345Y0197197D01*
X0124423Y0197158D01*
X0124500Y0197116D01*
X0124575Y0197071D01*
X0124647Y0197022D01*
X0124718Y0196971D01*
X0124786Y0196916D01*
X0124851Y0196859D01*
X0124914Y0196798D01*
X0124975Y0196735D01*
X0125032Y0196670D01*
X0125087Y0196602D01*
X0125138Y0196531D01*
X0125187Y0196459D01*
X0125232Y0196384D01*
X0125274Y0196307D01*
X0125313Y0196229D01*
X0125348Y0196149D01*
X0125379Y0196068D01*
X0125407Y0195985D01*
X0125432Y0195902D01*
X0125453Y0195817D01*
X0125470Y0195731D01*
X0125483Y0195645D01*
X0125492Y0195558D01*
X0125498Y0195471D01*
X0125500Y0195384D01*
X0125500Y0190384D01*
X0125498Y0190297D01*
X0125492Y0190210D01*
X0125483Y0190123D01*
X0125470Y0190037D01*
X0125453Y0189951D01*
X0125432Y0189866D01*
X0125407Y0189783D01*
X0125379Y0189700D01*
X0125348Y0189619D01*
X0125313Y0189539D01*
X0125274Y0189461D01*
X0125232Y0189384D01*
X0125187Y0189309D01*
X0125138Y0189237D01*
X0125087Y0189166D01*
X0125032Y0189098D01*
X0124975Y0189033D01*
X0124914Y0188970D01*
X0124851Y0188909D01*
X0124786Y0188852D01*
X0124718Y0188797D01*
X0124647Y0188746D01*
X0124575Y0188697D01*
X0124500Y0188652D01*
X0124423Y0188610D01*
X0124345Y0188571D01*
X0124265Y0188536D01*
X0124184Y0188505D01*
X0124101Y0188477D01*
X0124018Y0188452D01*
X0123933Y0188431D01*
X0123847Y0188414D01*
X0123761Y0188401D01*
X0123674Y0188392D01*
X0123587Y0188386D01*
X0123500Y0188384D01*
X0110500Y0188384D01*
X0110413Y0188386D01*
X0110326Y0188392D01*
X0110239Y0188401D01*
X0110153Y0188414D01*
X0110067Y0188431D01*
X0109982Y0188452D01*
X0109899Y0188477D01*
X0109816Y0188505D01*
X0109735Y0188536D01*
X0109655Y0188571D01*
X0109577Y0188610D01*
X0109500Y0188652D01*
X0109425Y0188697D01*
X0109353Y0188746D01*
X0109282Y0188797D01*
X0109214Y0188852D01*
X0109149Y0188909D01*
X0109086Y0188970D01*
X0109025Y0189033D01*
X0108968Y0189098D01*
X0108913Y0189166D01*
X0108862Y0189237D01*
X0108813Y0189309D01*
X0108768Y0189384D01*
X0108726Y0189461D01*
X0108687Y0189539D01*
X0108652Y0189619D01*
X0108621Y0189700D01*
X0108593Y0189783D01*
X0108568Y0189866D01*
X0108547Y0189951D01*
X0108530Y0190037D01*
X0108517Y0190123D01*
X0108508Y0190210D01*
X0108502Y0190297D01*
X0108500Y0190384D01*
X0110500Y0208384D02*
X0123500Y0208384D01*
X0123587Y0208386D01*
X0123674Y0208392D01*
X0123761Y0208401D01*
X0123847Y0208414D01*
X0123933Y0208431D01*
X0124018Y0208452D01*
X0124101Y0208477D01*
X0124184Y0208505D01*
X0124265Y0208536D01*
X0124345Y0208571D01*
X0124423Y0208610D01*
X0124500Y0208652D01*
X0124575Y0208697D01*
X0124647Y0208746D01*
X0124718Y0208797D01*
X0124786Y0208852D01*
X0124851Y0208909D01*
X0124914Y0208970D01*
X0124975Y0209033D01*
X0125032Y0209098D01*
X0125087Y0209166D01*
X0125138Y0209237D01*
X0125187Y0209309D01*
X0125232Y0209384D01*
X0125274Y0209461D01*
X0125313Y0209539D01*
X0125348Y0209619D01*
X0125379Y0209700D01*
X0125407Y0209783D01*
X0125432Y0209866D01*
X0125453Y0209951D01*
X0125470Y0210037D01*
X0125483Y0210123D01*
X0125492Y0210210D01*
X0125498Y0210297D01*
X0125500Y0210384D01*
X0125500Y0215384D01*
X0125498Y0215471D01*
X0125492Y0215558D01*
X0125483Y0215645D01*
X0125470Y0215731D01*
X0125453Y0215817D01*
X0125432Y0215902D01*
X0125407Y0215985D01*
X0125379Y0216068D01*
X0125348Y0216149D01*
X0125313Y0216229D01*
X0125274Y0216307D01*
X0125232Y0216384D01*
X0125187Y0216459D01*
X0125138Y0216531D01*
X0125087Y0216602D01*
X0125032Y0216670D01*
X0124975Y0216735D01*
X0124914Y0216798D01*
X0124851Y0216859D01*
X0124786Y0216916D01*
X0124718Y0216971D01*
X0124647Y0217022D01*
X0124575Y0217071D01*
X0124500Y0217116D01*
X0124423Y0217158D01*
X0124345Y0217197D01*
X0124265Y0217232D01*
X0124184Y0217263D01*
X0124101Y0217291D01*
X0124018Y0217316D01*
X0123933Y0217337D01*
X0123847Y0217354D01*
X0123761Y0217367D01*
X0123674Y0217376D01*
X0123587Y0217382D01*
X0123500Y0217384D01*
X0110500Y0217384D01*
X0110413Y0217382D01*
X0110326Y0217376D01*
X0110239Y0217367D01*
X0110153Y0217354D01*
X0110067Y0217337D01*
X0109982Y0217316D01*
X0109899Y0217291D01*
X0109816Y0217263D01*
X0109735Y0217232D01*
X0109655Y0217197D01*
X0109577Y0217158D01*
X0109500Y0217116D01*
X0109425Y0217071D01*
X0109353Y0217022D01*
X0109282Y0216971D01*
X0109214Y0216916D01*
X0109149Y0216859D01*
X0109086Y0216798D01*
X0109025Y0216735D01*
X0108968Y0216670D01*
X0108913Y0216602D01*
X0108862Y0216531D01*
X0108813Y0216459D01*
X0108768Y0216384D01*
X0108726Y0216307D01*
X0108687Y0216229D01*
X0108652Y0216149D01*
X0108621Y0216068D01*
X0108593Y0215985D01*
X0108568Y0215902D01*
X0108547Y0215817D01*
X0108530Y0215731D01*
X0108517Y0215645D01*
X0108508Y0215558D01*
X0108502Y0215471D01*
X0108500Y0215384D01*
X0108500Y0210384D01*
X0108502Y0210297D01*
X0108508Y0210210D01*
X0108517Y0210123D01*
X0108530Y0210037D01*
X0108547Y0209951D01*
X0108568Y0209866D01*
X0108593Y0209783D01*
X0108621Y0209700D01*
X0108652Y0209619D01*
X0108687Y0209539D01*
X0108726Y0209461D01*
X0108768Y0209384D01*
X0108813Y0209309D01*
X0108862Y0209237D01*
X0108913Y0209166D01*
X0108968Y0209098D01*
X0109025Y0209033D01*
X0109086Y0208970D01*
X0109149Y0208909D01*
X0109214Y0208852D01*
X0109282Y0208797D01*
X0109353Y0208746D01*
X0109425Y0208697D01*
X0109500Y0208652D01*
X0109577Y0208610D01*
X0109655Y0208571D01*
X0109735Y0208536D01*
X0109816Y0208505D01*
X0109899Y0208477D01*
X0109982Y0208452D01*
X0110067Y0208431D01*
X0110153Y0208414D01*
X0110239Y0208401D01*
X0110326Y0208392D01*
X0110413Y0208386D01*
X0110500Y0208384D01*
X0135500Y0214884D02*
X0135500Y0190884D01*
X0135502Y0190724D01*
X0135508Y0190565D01*
X0135518Y0190406D01*
X0135531Y0190247D01*
X0135549Y0190088D01*
X0135570Y0189930D01*
X0135596Y0189773D01*
X0135625Y0189616D01*
X0135658Y0189460D01*
X0135695Y0189305D01*
X0135735Y0189150D01*
X0135780Y0188997D01*
X0135828Y0188845D01*
X0135880Y0188694D01*
X0135936Y0188545D01*
X0135995Y0188397D01*
X0136058Y0188250D01*
X0136124Y0188105D01*
X0136194Y0187962D01*
X0136268Y0187820D01*
X0136344Y0187680D01*
X0136425Y0187542D01*
X0136508Y0187407D01*
X0136595Y0187273D01*
X0136686Y0187141D01*
X0136779Y0187012D01*
X0136876Y0186885D01*
X0136975Y0186760D01*
X0137078Y0186638D01*
X0137184Y0186519D01*
X0137292Y0186402D01*
X0137404Y0186288D01*
X0137518Y0186176D01*
X0137635Y0186068D01*
X0137754Y0185962D01*
X0137876Y0185859D01*
X0138001Y0185760D01*
X0138128Y0185663D01*
X0138257Y0185570D01*
X0138389Y0185479D01*
X0138523Y0185392D01*
X0138658Y0185309D01*
X0138796Y0185228D01*
X0138936Y0185152D01*
X0139078Y0185078D01*
X0139221Y0185008D01*
X0139366Y0184942D01*
X0139513Y0184879D01*
X0139661Y0184820D01*
X0139810Y0184764D01*
X0139961Y0184712D01*
X0140113Y0184664D01*
X0140266Y0184619D01*
X0140421Y0184579D01*
X0140576Y0184542D01*
X0140732Y0184509D01*
X0140889Y0184480D01*
X0141046Y0184454D01*
X0141204Y0184433D01*
X0141363Y0184415D01*
X0141522Y0184402D01*
X0141681Y0184392D01*
X0141840Y0184386D01*
X0142000Y0184384D01*
X0142160Y0184386D01*
X0142319Y0184392D01*
X0142478Y0184402D01*
X0142637Y0184415D01*
X0142796Y0184433D01*
X0142954Y0184454D01*
X0143111Y0184480D01*
X0143268Y0184509D01*
X0143424Y0184542D01*
X0143579Y0184579D01*
X0143734Y0184619D01*
X0143887Y0184664D01*
X0144039Y0184712D01*
X0144190Y0184764D01*
X0144339Y0184820D01*
X0144487Y0184879D01*
X0144634Y0184942D01*
X0144779Y0185008D01*
X0144922Y0185078D01*
X0145064Y0185152D01*
X0145204Y0185228D01*
X0145342Y0185309D01*
X0145477Y0185392D01*
X0145611Y0185479D01*
X0145743Y0185570D01*
X0145872Y0185663D01*
X0145999Y0185760D01*
X0146124Y0185859D01*
X0146246Y0185962D01*
X0146365Y0186068D01*
X0146482Y0186176D01*
X0146596Y0186288D01*
X0146708Y0186402D01*
X0146816Y0186519D01*
X0146922Y0186638D01*
X0147025Y0186760D01*
X0147124Y0186885D01*
X0147221Y0187012D01*
X0147314Y0187141D01*
X0147405Y0187273D01*
X0147492Y0187407D01*
X0147575Y0187542D01*
X0147656Y0187680D01*
X0147732Y0187820D01*
X0147806Y0187962D01*
X0147876Y0188105D01*
X0147942Y0188250D01*
X0148005Y0188397D01*
X0148064Y0188545D01*
X0148120Y0188694D01*
X0148172Y0188845D01*
X0148220Y0188997D01*
X0148265Y0189150D01*
X0148305Y0189305D01*
X0148342Y0189460D01*
X0148375Y0189616D01*
X0148404Y0189773D01*
X0148430Y0189930D01*
X0148451Y0190088D01*
X0148469Y0190247D01*
X0148482Y0190406D01*
X0148492Y0190565D01*
X0148498Y0190724D01*
X0148500Y0190884D01*
X0148500Y0214884D01*
X0148498Y0215044D01*
X0148492Y0215203D01*
X0148482Y0215362D01*
X0148469Y0215521D01*
X0148451Y0215680D01*
X0148430Y0215838D01*
X0148404Y0215995D01*
X0148375Y0216152D01*
X0148342Y0216308D01*
X0148305Y0216463D01*
X0148265Y0216618D01*
X0148220Y0216771D01*
X0148172Y0216923D01*
X0148120Y0217074D01*
X0148064Y0217223D01*
X0148005Y0217371D01*
X0147942Y0217518D01*
X0147876Y0217663D01*
X0147806Y0217806D01*
X0147732Y0217948D01*
X0147656Y0218088D01*
X0147575Y0218226D01*
X0147492Y0218361D01*
X0147405Y0218495D01*
X0147314Y0218627D01*
X0147221Y0218756D01*
X0147124Y0218883D01*
X0147025Y0219008D01*
X0146922Y0219130D01*
X0146816Y0219249D01*
X0146708Y0219366D01*
X0146596Y0219480D01*
X0146482Y0219592D01*
X0146365Y0219700D01*
X0146246Y0219806D01*
X0146124Y0219909D01*
X0145999Y0220008D01*
X0145872Y0220105D01*
X0145743Y0220198D01*
X0145611Y0220289D01*
X0145477Y0220376D01*
X0145342Y0220459D01*
X0145204Y0220540D01*
X0145064Y0220616D01*
X0144922Y0220690D01*
X0144779Y0220760D01*
X0144634Y0220826D01*
X0144487Y0220889D01*
X0144339Y0220948D01*
X0144190Y0221004D01*
X0144039Y0221056D01*
X0143887Y0221104D01*
X0143734Y0221149D01*
X0143579Y0221189D01*
X0143424Y0221226D01*
X0143268Y0221259D01*
X0143111Y0221288D01*
X0142954Y0221314D01*
X0142796Y0221335D01*
X0142637Y0221353D01*
X0142478Y0221366D01*
X0142319Y0221376D01*
X0142160Y0221382D01*
X0142000Y0221384D01*
X0141840Y0221382D01*
X0141681Y0221376D01*
X0141522Y0221366D01*
X0141363Y0221353D01*
X0141204Y0221335D01*
X0141046Y0221314D01*
X0140889Y0221288D01*
X0140732Y0221259D01*
X0140576Y0221226D01*
X0140421Y0221189D01*
X0140266Y0221149D01*
X0140113Y0221104D01*
X0139961Y0221056D01*
X0139810Y0221004D01*
X0139661Y0220948D01*
X0139513Y0220889D01*
X0139366Y0220826D01*
X0139221Y0220760D01*
X0139078Y0220690D01*
X0138936Y0220616D01*
X0138796Y0220540D01*
X0138658Y0220459D01*
X0138523Y0220376D01*
X0138389Y0220289D01*
X0138257Y0220198D01*
X0138128Y0220105D01*
X0138001Y0220008D01*
X0137876Y0219909D01*
X0137754Y0219806D01*
X0137635Y0219700D01*
X0137518Y0219592D01*
X0137404Y0219480D01*
X0137292Y0219366D01*
X0137184Y0219249D01*
X0137078Y0219130D01*
X0136975Y0219008D01*
X0136876Y0218883D01*
X0136779Y0218756D01*
X0136686Y0218627D01*
X0136595Y0218495D01*
X0136508Y0218361D01*
X0136425Y0218226D01*
X0136344Y0218088D01*
X0136268Y0217948D01*
X0136194Y0217806D01*
X0136124Y0217663D01*
X0136058Y0217518D01*
X0135995Y0217371D01*
X0135936Y0217223D01*
X0135880Y0217074D01*
X0135828Y0216923D01*
X0135780Y0216771D01*
X0135735Y0216618D01*
X0135695Y0216463D01*
X0135658Y0216308D01*
X0135625Y0216152D01*
X0135596Y0215995D01*
X0135570Y0215838D01*
X0135549Y0215680D01*
X0135531Y0215521D01*
X0135518Y0215362D01*
X0135508Y0215203D01*
X0135502Y0215044D01*
X0135500Y0214884D01*
X0142000Y0207884D02*
X0142000Y0205384D01*
X0145000Y0205384D01*
X0145000Y0203884D02*
X0139000Y0203884D01*
X0139000Y0201884D01*
X0145000Y0201884D01*
X0145000Y0203884D01*
X0142000Y0205384D02*
X0139000Y0205384D01*
X0139000Y0200384D02*
X0142000Y0200384D01*
X0142000Y0197884D01*
X0142000Y0200384D02*
X0145000Y0200384D01*
X0190800Y0159384D02*
X0213200Y0159384D01*
X0122000Y0250384D02*
X0119500Y0247884D01*
X0114500Y0247884D01*
X0112000Y0250384D01*
X0112000Y0255384D01*
X0114500Y0257884D01*
X0112000Y0260384D01*
X0112000Y0265384D01*
X0114500Y0267884D01*
X0112000Y0270384D01*
X0112000Y0275384D01*
X0114500Y0277884D01*
X0112000Y0280384D01*
X0112000Y0285384D01*
X0114500Y0287884D01*
X0112000Y0290384D01*
X0112000Y0295384D01*
X0114500Y0297884D01*
X0112000Y0300384D01*
X0112000Y0305384D01*
X0114500Y0307884D01*
X0119500Y0307884D01*
X0122000Y0305384D01*
X0122000Y0300384D01*
X0119500Y0297884D01*
X0122000Y0295384D01*
X0122000Y0290384D01*
X0119500Y0287884D01*
X0122000Y0285384D01*
X0122000Y0280384D01*
X0119500Y0277884D01*
X0122000Y0275384D01*
X0122000Y0270384D01*
X0119500Y0267884D01*
X0122000Y0265384D01*
X0122000Y0260384D01*
X0119500Y0257884D01*
X0122000Y0255384D01*
X0122000Y0250384D01*
X0192200Y0296384D02*
X0200800Y0296384D01*
X0203200Y0296384D01*
X0213200Y0296384D01*
X0203200Y0296384D02*
X0203198Y0296315D01*
X0203192Y0296247D01*
X0203182Y0296179D01*
X0203169Y0296112D01*
X0203151Y0296046D01*
X0203130Y0295981D01*
X0203105Y0295917D01*
X0203077Y0295855D01*
X0203045Y0295794D01*
X0203010Y0295735D01*
X0202971Y0295679D01*
X0202929Y0295624D01*
X0202884Y0295573D01*
X0202836Y0295523D01*
X0202786Y0295477D01*
X0202733Y0295434D01*
X0202677Y0295393D01*
X0202620Y0295356D01*
X0202560Y0295323D01*
X0202498Y0295292D01*
X0202435Y0295266D01*
X0202371Y0295243D01*
X0202305Y0295223D01*
X0202238Y0295208D01*
X0202171Y0295196D01*
X0202103Y0295188D01*
X0202034Y0295184D01*
X0201966Y0295184D01*
X0201897Y0295188D01*
X0201829Y0295196D01*
X0201762Y0295208D01*
X0201695Y0295223D01*
X0201629Y0295243D01*
X0201565Y0295266D01*
X0201502Y0295292D01*
X0201440Y0295323D01*
X0201380Y0295356D01*
X0201323Y0295393D01*
X0201267Y0295434D01*
X0201214Y0295477D01*
X0201164Y0295523D01*
X0201116Y0295573D01*
X0201071Y0295624D01*
X0201029Y0295679D01*
X0200990Y0295735D01*
X0200955Y0295794D01*
X0200923Y0295855D01*
X0200895Y0295917D01*
X0200870Y0295981D01*
X0200849Y0296046D01*
X0200831Y0296112D01*
X0200818Y0296179D01*
X0200808Y0296247D01*
X0200802Y0296315D01*
X0200800Y0296384D01*
X0327000Y0295384D02*
X0327000Y0290384D01*
X0329500Y0287884D01*
X0327000Y0285384D01*
X0327000Y0280384D01*
X0329500Y0277884D01*
X0327000Y0275384D01*
X0327000Y0270384D01*
X0329500Y0267884D01*
X0327000Y0265384D01*
X0327000Y0260384D01*
X0329500Y0257884D01*
X0327000Y0255384D01*
X0327000Y0250384D01*
X0329500Y0247884D01*
X0327000Y0245384D01*
X0327000Y0240384D01*
X0329500Y0237884D01*
X0334500Y0237884D01*
X0337000Y0240384D01*
X0337000Y0245384D01*
X0334500Y0247884D01*
X0337000Y0250384D01*
X0337000Y0255384D01*
X0334500Y0257884D01*
X0337000Y0260384D01*
X0337000Y0265384D01*
X0334500Y0267884D01*
X0337000Y0270384D01*
X0337000Y0275384D01*
X0334500Y0277884D01*
X0337000Y0280384D01*
X0337000Y0285384D01*
X0334500Y0287884D01*
X0337000Y0290384D01*
X0337000Y0295384D01*
X0334500Y0297884D01*
X0329500Y0297884D01*
X0327000Y0295384D01*
X0329500Y0227884D02*
X0334500Y0227884D01*
X0337000Y0225384D01*
X0337000Y0220384D01*
X0334500Y0217884D01*
X0337000Y0215384D01*
X0337000Y0210384D01*
X0334500Y0207884D01*
X0337000Y0205384D01*
X0337000Y0200384D01*
X0334500Y0197884D01*
X0337000Y0195384D01*
X0337000Y0190384D01*
X0334500Y0187884D01*
X0329500Y0187884D01*
X0327000Y0190384D01*
X0327000Y0195384D01*
X0329500Y0197884D01*
X0327000Y0200384D01*
X0327000Y0205384D01*
X0329500Y0207884D01*
X0327000Y0210384D01*
X0327000Y0215384D01*
X0329500Y0217884D01*
X0327000Y0220384D01*
X0327000Y0225384D01*
X0329500Y0227884D01*
X0329500Y0172884D02*
X0334500Y0172884D01*
X0337000Y0170384D01*
X0337000Y0165384D01*
X0334500Y0162884D01*
X0337000Y0160384D01*
X0337000Y0155384D01*
X0334500Y0152884D01*
X0337000Y0150384D01*
X0337000Y0145384D01*
X0334500Y0142884D01*
X0337000Y0140384D01*
X0337000Y0135384D01*
X0334500Y0132884D01*
X0329500Y0132884D01*
X0327000Y0135384D01*
X0327000Y0140384D01*
X0329500Y0142884D01*
X0327000Y0145384D01*
X0327000Y0150384D01*
X0329500Y0152884D01*
X0327000Y0155384D01*
X0327000Y0160384D01*
X0329500Y0162884D01*
X0327000Y0165384D01*
X0327000Y0170384D01*
X0329500Y0172884D01*
X0032000Y0205384D02*
X0029500Y0202884D01*
X0024500Y0202884D01*
X0022000Y0205384D01*
X0022000Y0210384D01*
X0024500Y0212884D01*
X0022000Y0215384D01*
X0022000Y0220384D01*
X0024500Y0222884D01*
X0022000Y0225384D01*
X0022000Y0230384D01*
X0024500Y0232884D01*
X0022000Y0235384D01*
X0022000Y0240384D01*
X0024500Y0242884D01*
X0029500Y0242884D01*
X0032000Y0240384D01*
X0032000Y0235384D01*
X0029500Y0232884D01*
X0032000Y0230384D01*
X0032000Y0225384D01*
X0029500Y0222884D01*
X0032000Y0220384D01*
X0032000Y0215384D01*
X0029500Y0212884D01*
X0032000Y0210384D01*
X0032000Y0205384D01*
X0029500Y0277884D02*
X0024500Y0277884D01*
X0022000Y0280384D01*
X0022000Y0285384D01*
X0024500Y0287884D01*
X0022000Y0290384D01*
X0022000Y0295384D01*
X0024500Y0297884D01*
X0029500Y0297884D01*
X0032000Y0295384D01*
X0032000Y0290384D01*
X0029500Y0287884D01*
X0032000Y0285384D01*
X0032000Y0280384D01*
X0029500Y0277884D01*
X0029500Y0287884D02*
X0024500Y0287884D01*
D11*
X0115700Y0215884D02*
X0115700Y0209884D01*
X0118200Y0209884D02*
X0118200Y0215884D01*
X0118200Y0195884D02*
X0118200Y0189884D01*
X0115700Y0189884D02*
X0115700Y0195884D01*
D12*
X0125998Y0251030D02*
X0125998Y0253282D01*
X0126749Y0254033D01*
X0127499Y0254033D01*
X0128250Y0253282D01*
X0128250Y0251781D01*
X0127499Y0251030D01*
X0125998Y0251030D01*
X0124497Y0252532D01*
X0123746Y0254033D01*
X0110250Y0301030D02*
X0110250Y0304033D01*
X0110250Y0302532D02*
X0105746Y0302532D01*
X0107247Y0301030D01*
X0029250Y0246033D02*
X0029250Y0243030D01*
X0029250Y0244532D02*
X0024746Y0244532D01*
X0026247Y0243030D01*
X0026998Y0200533D02*
X0026998Y0197530D01*
X0024746Y0199782D01*
X0029250Y0199782D01*
X0320746Y0293637D02*
X0321497Y0292136D01*
X0322998Y0290634D01*
X0322998Y0292886D01*
X0323749Y0293637D01*
X0324499Y0293637D01*
X0325250Y0292886D01*
X0325250Y0291385D01*
X0324499Y0290634D01*
X0322998Y0290634D01*
X0338746Y0242136D02*
X0343250Y0242136D01*
X0343250Y0243637D02*
X0343250Y0240634D01*
X0340247Y0240634D02*
X0338746Y0242136D01*
X0334250Y0231386D02*
X0329746Y0231386D01*
X0331998Y0229134D01*
X0331998Y0232137D01*
X0334250Y0186637D02*
X0334250Y0183634D01*
X0334250Y0185136D02*
X0329746Y0185136D01*
X0331247Y0183634D01*
X0331998Y0177137D02*
X0331998Y0174134D01*
X0329746Y0176386D01*
X0334250Y0176386D01*
X0334250Y0131637D02*
X0334250Y0128634D01*
X0334250Y0130136D02*
X0329746Y0130136D01*
X0331247Y0128634D01*
X0331998Y0122137D02*
X0331998Y0119134D01*
X0329746Y0121386D01*
X0334250Y0121386D01*
X0334250Y0076637D02*
X0334250Y0073634D01*
X0334250Y0075136D02*
X0329746Y0075136D01*
X0331247Y0073634D01*
D13*
X0302000Y0090384D02*
X0302000Y0105384D01*
X0302000Y0040384D02*
X0302000Y0025384D01*
D14*
X0301813Y0025141D01*
X0301621Y0024903D01*
X0301422Y0024670D01*
X0301218Y0024442D01*
X0301009Y0024219D01*
X0300794Y0024001D01*
X0300574Y0023788D01*
X0300349Y0023581D01*
X0300118Y0023379D01*
X0299883Y0023183D01*
X0299643Y0022993D01*
X0299399Y0022809D01*
X0299150Y0022631D01*
X0298896Y0022459D01*
X0298639Y0022293D01*
X0298378Y0022133D01*
X0298113Y0021980D01*
X0297844Y0021834D01*
X0297571Y0021694D01*
X0297296Y0021561D01*
X0297017Y0021435D01*
X0296735Y0021315D01*
X0296450Y0021203D01*
X0296163Y0021098D01*
X0295873Y0020999D01*
X0295581Y0020908D01*
X0295286Y0020824D01*
X0294990Y0020747D01*
X0294692Y0020677D01*
X0294392Y0020615D01*
X0294091Y0020560D01*
X0293789Y0020513D01*
X0293485Y0020473D01*
X0293181Y0020440D01*
X0292876Y0020415D01*
X0292570Y0020397D01*
X0292264Y0020387D01*
X0291958Y0020384D01*
X0291652Y0020389D01*
X0291346Y0020401D01*
X0291040Y0020421D01*
X0290736Y0020448D01*
X0290431Y0020483D01*
X0290128Y0020525D01*
X0289826Y0020574D01*
X0289525Y0020631D01*
X0289226Y0020696D01*
X0288928Y0020767D01*
X0288633Y0020846D01*
X0288339Y0020932D01*
X0288047Y0021025D01*
X0287758Y0021126D01*
X0287471Y0021233D01*
X0287187Y0021348D01*
X0286906Y0021469D01*
X0286628Y0021597D01*
X0286353Y0021732D01*
X0286082Y0021874D01*
X0285814Y0022022D01*
X0285550Y0022177D01*
X0285290Y0022338D01*
X0285034Y0022505D01*
X0284781Y0022679D01*
X0284534Y0022859D01*
X0284290Y0023045D01*
X0284052Y0023236D01*
X0283818Y0023434D01*
X0283589Y0023637D01*
X0283365Y0023846D01*
X0283146Y0024060D01*
X0282933Y0024280D01*
X0282725Y0024504D01*
X0282522Y0024734D01*
X0282326Y0024968D01*
X0282135Y0025208D01*
X0281950Y0025451D01*
X0281771Y0025700D01*
X0281598Y0025952D01*
X0281431Y0026209D01*
X0281271Y0026470D01*
X0281117Y0026735D01*
X0280970Y0027003D01*
X0280829Y0027275D01*
X0280695Y0027550D01*
X0280568Y0027829D01*
X0280447Y0028110D01*
X0280334Y0028395D01*
X0280228Y0028682D01*
X0280128Y0028971D01*
X0280036Y0029263D01*
X0279951Y0029557D01*
X0279873Y0029853D01*
X0279802Y0030151D01*
X0279739Y0030451D01*
X0279683Y0030752D01*
X0279635Y0031054D01*
X0279594Y0031357D01*
X0279560Y0031661D01*
X0279534Y0031966D01*
X0279515Y0032272D01*
X0279504Y0032578D01*
X0279500Y0032884D01*
X0279504Y0033190D01*
X0279515Y0033496D01*
X0279534Y0033802D01*
X0279560Y0034107D01*
X0279594Y0034411D01*
X0279635Y0034714D01*
X0279683Y0035016D01*
X0279739Y0035317D01*
X0279802Y0035617D01*
X0279873Y0035915D01*
X0279951Y0036211D01*
X0280036Y0036505D01*
X0280128Y0036797D01*
X0280228Y0037086D01*
X0280334Y0037373D01*
X0280447Y0037658D01*
X0280568Y0037939D01*
X0280695Y0038218D01*
X0280829Y0038493D01*
X0280970Y0038765D01*
X0281117Y0039033D01*
X0281271Y0039298D01*
X0281431Y0039559D01*
X0281598Y0039816D01*
X0281771Y0040068D01*
X0281950Y0040317D01*
X0282135Y0040560D01*
X0282326Y0040800D01*
X0282522Y0041034D01*
X0282725Y0041264D01*
X0282933Y0041488D01*
X0283146Y0041708D01*
X0283365Y0041922D01*
X0283589Y0042131D01*
X0283818Y0042334D01*
X0284052Y0042532D01*
X0284290Y0042723D01*
X0284534Y0042909D01*
X0284781Y0043089D01*
X0285034Y0043263D01*
X0285290Y0043430D01*
X0285550Y0043591D01*
X0285814Y0043746D01*
X0286082Y0043894D01*
X0286353Y0044036D01*
X0286628Y0044171D01*
X0286906Y0044299D01*
X0287187Y0044420D01*
X0287471Y0044535D01*
X0287758Y0044642D01*
X0288047Y0044743D01*
X0288339Y0044836D01*
X0288633Y0044922D01*
X0288928Y0045001D01*
X0289226Y0045072D01*
X0289525Y0045137D01*
X0289826Y0045194D01*
X0290128Y0045243D01*
X0290431Y0045285D01*
X0290736Y0045320D01*
X0291040Y0045347D01*
X0291346Y0045367D01*
X0291652Y0045379D01*
X0291958Y0045384D01*
X0292264Y0045381D01*
X0292570Y0045371D01*
X0292876Y0045353D01*
X0293181Y0045328D01*
X0293485Y0045295D01*
X0293789Y0045255D01*
X0294091Y0045208D01*
X0294392Y0045153D01*
X0294692Y0045091D01*
X0294990Y0045021D01*
X0295286Y0044944D01*
X0295581Y0044860D01*
X0295873Y0044769D01*
X0296163Y0044670D01*
X0296450Y0044565D01*
X0296735Y0044453D01*
X0297017Y0044333D01*
X0297296Y0044207D01*
X0297571Y0044074D01*
X0297844Y0043934D01*
X0298113Y0043788D01*
X0298378Y0043635D01*
X0298639Y0043475D01*
X0298896Y0043309D01*
X0299150Y0043137D01*
X0299399Y0042959D01*
X0299643Y0042775D01*
X0299883Y0042585D01*
X0300118Y0042389D01*
X0300349Y0042187D01*
X0300574Y0041980D01*
X0300794Y0041767D01*
X0301009Y0041549D01*
X0301218Y0041326D01*
X0301422Y0041098D01*
X0301621Y0040865D01*
X0301813Y0040627D01*
X0302000Y0040384D01*
X0302000Y0090384D02*
X0301813Y0090141D01*
X0301621Y0089903D01*
X0301422Y0089670D01*
X0301218Y0089442D01*
X0301009Y0089219D01*
X0300794Y0089001D01*
X0300574Y0088788D01*
X0300349Y0088581D01*
X0300118Y0088379D01*
X0299883Y0088183D01*
X0299643Y0087993D01*
X0299399Y0087809D01*
X0299150Y0087631D01*
X0298896Y0087459D01*
X0298639Y0087293D01*
X0298378Y0087133D01*
X0298113Y0086980D01*
X0297844Y0086834D01*
X0297571Y0086694D01*
X0297296Y0086561D01*
X0297017Y0086435D01*
X0296735Y0086315D01*
X0296450Y0086203D01*
X0296163Y0086098D01*
X0295873Y0085999D01*
X0295581Y0085908D01*
X0295286Y0085824D01*
X0294990Y0085747D01*
X0294692Y0085677D01*
X0294392Y0085615D01*
X0294091Y0085560D01*
X0293789Y0085513D01*
X0293485Y0085473D01*
X0293181Y0085440D01*
X0292876Y0085415D01*
X0292570Y0085397D01*
X0292264Y0085387D01*
X0291958Y0085384D01*
X0291652Y0085389D01*
X0291346Y0085401D01*
X0291040Y0085421D01*
X0290736Y0085448D01*
X0290431Y0085483D01*
X0290128Y0085525D01*
X0289826Y0085574D01*
X0289525Y0085631D01*
X0289226Y0085696D01*
X0288928Y0085767D01*
X0288633Y0085846D01*
X0288339Y0085932D01*
X0288047Y0086025D01*
X0287758Y0086126D01*
X0287471Y0086233D01*
X0287187Y0086348D01*
X0286906Y0086469D01*
X0286628Y0086597D01*
X0286353Y0086732D01*
X0286082Y0086874D01*
X0285814Y0087022D01*
X0285550Y0087177D01*
X0285290Y0087338D01*
X0285034Y0087505D01*
X0284781Y0087679D01*
X0284534Y0087859D01*
X0284290Y0088045D01*
X0284052Y0088236D01*
X0283818Y0088434D01*
X0283589Y0088637D01*
X0283365Y0088846D01*
X0283146Y0089060D01*
X0282933Y0089280D01*
X0282725Y0089504D01*
X0282522Y0089734D01*
X0282326Y0089968D01*
X0282135Y0090208D01*
X0281950Y0090451D01*
X0281771Y0090700D01*
X0281598Y0090952D01*
X0281431Y0091209D01*
X0281271Y0091470D01*
X0281117Y0091735D01*
X0280970Y0092003D01*
X0280829Y0092275D01*
X0280695Y0092550D01*
X0280568Y0092829D01*
X0280447Y0093110D01*
X0280334Y0093395D01*
X0280228Y0093682D01*
X0280128Y0093971D01*
X0280036Y0094263D01*
X0279951Y0094557D01*
X0279873Y0094853D01*
X0279802Y0095151D01*
X0279739Y0095451D01*
X0279683Y0095752D01*
X0279635Y0096054D01*
X0279594Y0096357D01*
X0279560Y0096661D01*
X0279534Y0096966D01*
X0279515Y0097272D01*
X0279504Y0097578D01*
X0279500Y0097884D01*
X0279504Y0098190D01*
X0279515Y0098496D01*
X0279534Y0098802D01*
X0279560Y0099107D01*
X0279594Y0099411D01*
X0279635Y0099714D01*
X0279683Y0100016D01*
X0279739Y0100317D01*
X0279802Y0100617D01*
X0279873Y0100915D01*
X0279951Y0101211D01*
X0280036Y0101505D01*
X0280128Y0101797D01*
X0280228Y0102086D01*
X0280334Y0102373D01*
X0280447Y0102658D01*
X0280568Y0102939D01*
X0280695Y0103218D01*
X0280829Y0103493D01*
X0280970Y0103765D01*
X0281117Y0104033D01*
X0281271Y0104298D01*
X0281431Y0104559D01*
X0281598Y0104816D01*
X0281771Y0105068D01*
X0281950Y0105317D01*
X0282135Y0105560D01*
X0282326Y0105800D01*
X0282522Y0106034D01*
X0282725Y0106264D01*
X0282933Y0106488D01*
X0283146Y0106708D01*
X0283365Y0106922D01*
X0283589Y0107131D01*
X0283818Y0107334D01*
X0284052Y0107532D01*
X0284290Y0107723D01*
X0284534Y0107909D01*
X0284781Y0108089D01*
X0285034Y0108263D01*
X0285290Y0108430D01*
X0285550Y0108591D01*
X0285814Y0108746D01*
X0286082Y0108894D01*
X0286353Y0109036D01*
X0286628Y0109171D01*
X0286906Y0109299D01*
X0287187Y0109420D01*
X0287471Y0109535D01*
X0287758Y0109642D01*
X0288047Y0109743D01*
X0288339Y0109836D01*
X0288633Y0109922D01*
X0288928Y0110001D01*
X0289226Y0110072D01*
X0289525Y0110137D01*
X0289826Y0110194D01*
X0290128Y0110243D01*
X0290431Y0110285D01*
X0290736Y0110320D01*
X0291040Y0110347D01*
X0291346Y0110367D01*
X0291652Y0110379D01*
X0291958Y0110384D01*
X0292264Y0110381D01*
X0292570Y0110371D01*
X0292876Y0110353D01*
X0293181Y0110328D01*
X0293485Y0110295D01*
X0293789Y0110255D01*
X0294091Y0110208D01*
X0294392Y0110153D01*
X0294692Y0110091D01*
X0294990Y0110021D01*
X0295286Y0109944D01*
X0295581Y0109860D01*
X0295873Y0109769D01*
X0296163Y0109670D01*
X0296450Y0109565D01*
X0296735Y0109453D01*
X0297017Y0109333D01*
X0297296Y0109207D01*
X0297571Y0109074D01*
X0297844Y0108934D01*
X0298113Y0108788D01*
X0298378Y0108635D01*
X0298639Y0108475D01*
X0298896Y0108309D01*
X0299150Y0108137D01*
X0299399Y0107959D01*
X0299643Y0107775D01*
X0299883Y0107585D01*
X0300118Y0107389D01*
X0300349Y0107187D01*
X0300574Y0106980D01*
X0300794Y0106767D01*
X0301009Y0106549D01*
X0301218Y0106326D01*
X0301422Y0106098D01*
X0301621Y0105865D01*
X0301813Y0105627D01*
X0302000Y0105384D01*
D15*
X0150500Y0190884D02*
X0150500Y0214884D01*
X0150497Y0215091D01*
X0150490Y0215298D01*
X0150477Y0215504D01*
X0150460Y0215711D01*
X0150437Y0215916D01*
X0150409Y0216122D01*
X0150377Y0216326D01*
X0150339Y0216530D01*
X0150297Y0216732D01*
X0150249Y0216934D01*
X0150197Y0217134D01*
X0150140Y0217333D01*
X0150078Y0217530D01*
X0150011Y0217726D01*
X0149939Y0217920D01*
X0149863Y0218113D01*
X0149782Y0218303D01*
X0149696Y0218492D01*
X0149606Y0218678D01*
X0149512Y0218862D01*
X0149412Y0219044D01*
X0149309Y0219223D01*
X0149201Y0219400D01*
X0149089Y0219574D01*
X0148973Y0219745D01*
X0148852Y0219914D01*
X0148728Y0220079D01*
X0148599Y0220241D01*
X0148467Y0220400D01*
X0148331Y0220556D01*
X0148191Y0220709D01*
X0148047Y0220858D01*
X0147900Y0221003D01*
X0147749Y0221145D01*
X0147595Y0221283D01*
X0147437Y0221418D01*
X0147277Y0221548D01*
X0147113Y0221674D01*
X0146946Y0221797D01*
X0146776Y0221915D01*
X0146603Y0222030D01*
X0146428Y0222140D01*
X0146250Y0222245D01*
X0146069Y0222347D01*
X0145887Y0222443D01*
X0145701Y0222536D01*
X0145514Y0222624D01*
X0145324Y0222707D01*
X0145133Y0222786D01*
X0144940Y0222860D01*
X0144744Y0222929D01*
X0144548Y0222993D01*
X0144350Y0223053D01*
X0144150Y0223108D01*
X0143949Y0223158D01*
X0143747Y0223203D01*
X0143544Y0223243D01*
X0143340Y0223278D01*
X0143135Y0223308D01*
X0142930Y0223333D01*
X0142724Y0223353D01*
X0142517Y0223368D01*
X0142310Y0223378D01*
X0142103Y0223383D01*
X0141897Y0223383D01*
X0141690Y0223378D01*
X0141483Y0223368D01*
X0141276Y0223353D01*
X0141070Y0223333D01*
X0140865Y0223308D01*
X0140660Y0223278D01*
X0140456Y0223243D01*
X0140253Y0223203D01*
X0140051Y0223158D01*
X0139850Y0223108D01*
X0139650Y0223053D01*
X0139452Y0222993D01*
X0139256Y0222929D01*
X0139060Y0222860D01*
X0138867Y0222786D01*
X0138676Y0222707D01*
X0138486Y0222624D01*
X0138299Y0222536D01*
X0138113Y0222443D01*
X0137931Y0222347D01*
X0137750Y0222245D01*
X0137572Y0222140D01*
X0137397Y0222030D01*
X0137224Y0221915D01*
X0137054Y0221797D01*
X0136887Y0221674D01*
X0136723Y0221548D01*
X0136563Y0221418D01*
X0136405Y0221283D01*
X0136251Y0221145D01*
X0136100Y0221003D01*
X0135953Y0220858D01*
X0135809Y0220709D01*
X0135669Y0220556D01*
X0135533Y0220400D01*
X0135401Y0220241D01*
X0135272Y0220079D01*
X0135148Y0219914D01*
X0135027Y0219745D01*
X0134911Y0219574D01*
X0134799Y0219400D01*
X0134691Y0219223D01*
X0134588Y0219044D01*
X0134488Y0218862D01*
X0134394Y0218678D01*
X0134304Y0218492D01*
X0134218Y0218303D01*
X0134137Y0218113D01*
X0134061Y0217920D01*
X0133989Y0217726D01*
X0133922Y0217530D01*
X0133860Y0217333D01*
X0133803Y0217134D01*
X0133751Y0216934D01*
X0133703Y0216732D01*
X0133661Y0216530D01*
X0133623Y0216326D01*
X0133591Y0216122D01*
X0133563Y0215916D01*
X0133540Y0215711D01*
X0133523Y0215504D01*
X0133510Y0215298D01*
X0133503Y0215091D01*
X0133500Y0214884D01*
X0133500Y0190884D01*
X0133503Y0190677D01*
X0133510Y0190470D01*
X0133523Y0190264D01*
X0133540Y0190057D01*
X0133563Y0189852D01*
X0133591Y0189646D01*
X0133623Y0189442D01*
X0133661Y0189238D01*
X0133703Y0189036D01*
X0133751Y0188834D01*
X0133803Y0188634D01*
X0133860Y0188435D01*
X0133922Y0188238D01*
X0133989Y0188042D01*
X0134061Y0187848D01*
X0134137Y0187655D01*
X0134218Y0187465D01*
X0134304Y0187276D01*
X0134394Y0187090D01*
X0134488Y0186906D01*
X0134588Y0186724D01*
X0134691Y0186545D01*
X0134799Y0186368D01*
X0134911Y0186194D01*
X0135027Y0186023D01*
X0135148Y0185854D01*
X0135272Y0185689D01*
X0135401Y0185527D01*
X0135533Y0185368D01*
X0135669Y0185212D01*
X0135809Y0185059D01*
X0135953Y0184910D01*
X0136100Y0184765D01*
X0136251Y0184623D01*
X0136405Y0184485D01*
X0136563Y0184350D01*
X0136723Y0184220D01*
X0136887Y0184094D01*
X0137054Y0183971D01*
X0137224Y0183853D01*
X0137397Y0183738D01*
X0137572Y0183628D01*
X0137750Y0183523D01*
X0137931Y0183421D01*
X0138113Y0183325D01*
X0138299Y0183232D01*
X0138486Y0183144D01*
X0138676Y0183061D01*
X0138867Y0182982D01*
X0139060Y0182908D01*
X0139256Y0182839D01*
X0139452Y0182775D01*
X0139650Y0182715D01*
X0139850Y0182660D01*
X0140051Y0182610D01*
X0140253Y0182565D01*
X0140456Y0182525D01*
X0140660Y0182490D01*
X0140865Y0182460D01*
X0141070Y0182435D01*
X0141276Y0182415D01*
X0141483Y0182400D01*
X0141690Y0182390D01*
X0141897Y0182385D01*
X0142103Y0182385D01*
X0142310Y0182390D01*
X0142517Y0182400D01*
X0142724Y0182415D01*
X0142930Y0182435D01*
X0143135Y0182460D01*
X0143340Y0182490D01*
X0143544Y0182525D01*
X0143747Y0182565D01*
X0143949Y0182610D01*
X0144150Y0182660D01*
X0144350Y0182715D01*
X0144548Y0182775D01*
X0144744Y0182839D01*
X0144940Y0182908D01*
X0145133Y0182982D01*
X0145324Y0183061D01*
X0145514Y0183144D01*
X0145701Y0183232D01*
X0145887Y0183325D01*
X0146069Y0183421D01*
X0146250Y0183523D01*
X0146428Y0183628D01*
X0146603Y0183738D01*
X0146776Y0183853D01*
X0146946Y0183971D01*
X0147113Y0184094D01*
X0147277Y0184220D01*
X0147437Y0184350D01*
X0147595Y0184485D01*
X0147749Y0184623D01*
X0147900Y0184765D01*
X0148047Y0184910D01*
X0148191Y0185059D01*
X0148331Y0185212D01*
X0148467Y0185368D01*
X0148599Y0185527D01*
X0148728Y0185689D01*
X0148852Y0185854D01*
X0148973Y0186023D01*
X0149089Y0186194D01*
X0149201Y0186368D01*
X0149309Y0186545D01*
X0149412Y0186724D01*
X0149512Y0186906D01*
X0149606Y0187090D01*
X0149696Y0187276D01*
X0149782Y0187465D01*
X0149863Y0187655D01*
X0149939Y0187848D01*
X0150011Y0188042D01*
X0150078Y0188238D01*
X0150140Y0188435D01*
X0150197Y0188634D01*
X0150249Y0188834D01*
X0150297Y0189036D01*
X0150339Y0189238D01*
X0150377Y0189442D01*
X0150409Y0189646D01*
X0150437Y0189852D01*
X0150460Y0190057D01*
X0150477Y0190264D01*
X0150490Y0190470D01*
X0150497Y0190677D01*
X0150500Y0190884D01*
D16*
X0141200Y0122884D03*
X0112800Y0122884D03*
X0061200Y0122884D03*
X0032800Y0122884D03*
X0032800Y0057884D03*
X0061200Y0057884D03*
X0112800Y0057884D03*
X0141200Y0057884D03*
X0192800Y0057884D03*
X0221200Y0057884D03*
X0221200Y0122884D03*
X0192800Y0122884D03*
D17*
X0272000Y0067084D03*
X0272000Y0038684D03*
X0307000Y0113684D03*
X0307000Y0142084D03*
D18*
X0232000Y0109884D02*
X0232000Y0108884D01*
X0222000Y0108884D01*
X0222000Y0109884D01*
X0222000Y0086884D02*
X0222000Y0085884D01*
X0222000Y0086884D02*
X0231500Y0086884D01*
X0231500Y0085884D01*
X0232000Y0044884D02*
X0232000Y0043884D01*
X0222000Y0043884D01*
X0222000Y0044884D01*
X0222000Y0021884D02*
X0222000Y0020884D01*
X0222000Y0021884D02*
X0231500Y0021884D01*
X0231500Y0020884D01*
X0151500Y0020884D02*
X0151500Y0021884D01*
X0142000Y0021884D01*
X0142000Y0020884D01*
X0142000Y0043884D02*
X0152000Y0043884D01*
X0152000Y0044884D01*
X0142000Y0044884D02*
X0142000Y0043884D01*
X0142000Y0085884D02*
X0142000Y0086884D01*
X0151500Y0086884D01*
X0151500Y0085884D01*
X0152000Y0108884D02*
X0142000Y0108884D01*
X0142000Y0109884D01*
X0152000Y0109884D02*
X0152000Y0108884D01*
X0072000Y0108884D02*
X0072000Y0109884D01*
X0072000Y0108884D02*
X0062000Y0108884D01*
X0062000Y0109884D01*
X0062000Y0086884D02*
X0062000Y0085884D01*
X0062000Y0086884D02*
X0071500Y0086884D01*
X0071500Y0085884D01*
X0072000Y0044884D02*
X0072000Y0043884D01*
X0062000Y0043884D01*
X0062000Y0044884D01*
X0062000Y0021884D02*
X0062000Y0020884D01*
X0062000Y0021884D02*
X0071500Y0021884D01*
X0071500Y0020884D01*
D19*
X0184850Y0298218D02*
X0187986Y0301354D01*
X0187986Y0299786D02*
X0184850Y0299786D01*
X0184850Y0301354D02*
X0187986Y0298218D01*
X0186418Y0298218D02*
X0186418Y0301354D01*
M02*
