G75*
%MOIN*%
%OFA0B0*%
%FSLAX25Y25*%
%IPPOS*%
%LPD*%
%AMOC8*
5,1,8,0,0,1.08239X$1,22.5*
%
%ADD10OC8,0.06300*%
%ADD11C,0.06300*%
%ADD12OC8,0.04800*%
%ADD13C,0.06000*%
%ADD14C,0.04800*%
%ADD15R,0.06600X0.06600*%
%ADD16C,0.06600*%
%ADD17C,0.02000*%
%ADD18C,0.03562*%
%ADD19C,0.01600*%
D10*
X0027000Y0027884D03*
X0027000Y0092884D03*
X0107000Y0092884D03*
X0107000Y0027884D03*
X0187000Y0027884D03*
X0187000Y0092884D03*
D11*
X0187000Y0102884D03*
X0187000Y0037884D03*
X0107000Y0037884D03*
X0107000Y0102884D03*
X0027000Y0102884D03*
X0027000Y0037884D03*
D12*
X0027000Y0057884D03*
X0067000Y0057884D03*
X0107000Y0057884D03*
X0147000Y0057884D03*
X0187000Y0057884D03*
X0227000Y0057884D03*
X0272000Y0072884D03*
X0287000Y0097884D03*
X0297000Y0097884D03*
X0307000Y0107884D03*
X0307000Y0147884D03*
X0227000Y0122884D03*
X0187000Y0122884D03*
X0147000Y0122884D03*
X0107000Y0122884D03*
X0067000Y0122884D03*
X0027000Y0122884D03*
X0112000Y0192884D03*
X0122000Y0192884D03*
X0122000Y0212884D03*
X0112000Y0212884D03*
X0272000Y0032884D03*
X0287000Y0032884D03*
X0297000Y0032884D03*
D13*
X0242800Y0023984D02*
X0236800Y0023984D01*
X0236800Y0041784D02*
X0242800Y0041784D01*
X0217200Y0041784D02*
X0211200Y0041784D01*
X0211200Y0023984D02*
X0217200Y0023984D01*
X0162800Y0023984D02*
X0156800Y0023984D01*
X0156800Y0041784D02*
X0162800Y0041784D01*
X0137200Y0041784D02*
X0131200Y0041784D01*
X0131200Y0023984D02*
X0137200Y0023984D01*
X0082800Y0023984D02*
X0076800Y0023984D01*
X0076800Y0041784D02*
X0082800Y0041784D01*
X0057200Y0041784D02*
X0051200Y0041784D01*
X0051200Y0023984D02*
X0057200Y0023984D01*
X0057200Y0088984D02*
X0051200Y0088984D01*
X0051200Y0106784D02*
X0057200Y0106784D01*
X0076800Y0106784D02*
X0082800Y0106784D01*
X0082800Y0088984D02*
X0076800Y0088984D01*
X0131200Y0088984D02*
X0137200Y0088984D01*
X0137200Y0106784D02*
X0131200Y0106784D01*
X0156800Y0106784D02*
X0162800Y0106784D01*
X0162800Y0088984D02*
X0156800Y0088984D01*
X0211200Y0088984D02*
X0217200Y0088984D01*
X0236800Y0088984D02*
X0242800Y0088984D01*
X0242800Y0106784D02*
X0236800Y0106784D01*
X0217200Y0106784D02*
X0211200Y0106784D01*
X0329000Y0102884D02*
X0335000Y0102884D01*
X0335000Y0092884D02*
X0329000Y0092884D01*
X0329000Y0082884D02*
X0335000Y0082884D01*
X0335000Y0112884D02*
X0329000Y0112884D01*
X0329000Y0137884D02*
X0335000Y0137884D01*
X0335000Y0147884D02*
X0329000Y0147884D01*
X0329000Y0157884D02*
X0335000Y0157884D01*
X0335000Y0167884D02*
X0329000Y0167884D01*
X0329000Y0192884D02*
X0335000Y0192884D01*
X0335000Y0202884D02*
X0329000Y0202884D01*
X0329000Y0212884D02*
X0335000Y0212884D01*
X0335000Y0222884D02*
X0329000Y0222884D01*
X0329000Y0242884D02*
X0335000Y0242884D01*
X0335000Y0252884D02*
X0329000Y0252884D01*
X0329000Y0262884D02*
X0335000Y0262884D01*
X0335000Y0272884D02*
X0329000Y0272884D01*
X0329000Y0282884D02*
X0335000Y0282884D01*
X0335000Y0292884D02*
X0329000Y0292884D01*
X0120000Y0292884D02*
X0114000Y0292884D01*
X0114000Y0282884D02*
X0120000Y0282884D01*
X0120000Y0272884D02*
X0114000Y0272884D01*
X0114000Y0262884D02*
X0120000Y0262884D01*
X0120000Y0252884D02*
X0114000Y0252884D01*
X0114000Y0302884D02*
X0120000Y0302884D01*
X0030000Y0292884D02*
X0024000Y0292884D01*
X0024000Y0282884D02*
X0030000Y0282884D01*
X0030000Y0237884D02*
X0024000Y0237884D01*
X0024000Y0227884D02*
X0030000Y0227884D01*
X0030000Y0217884D02*
X0024000Y0217884D01*
X0024000Y0207884D02*
X0030000Y0207884D01*
D14*
X0142000Y0212384D03*
X0142000Y0193384D03*
D15*
X0187000Y0292884D03*
D16*
X0187000Y0282884D03*
X0187000Y0272884D03*
X0187000Y0262884D03*
X0187000Y0252884D03*
X0187000Y0242884D03*
X0187000Y0232884D03*
X0187000Y0222884D03*
X0187000Y0212884D03*
X0187000Y0202884D03*
X0187000Y0192884D03*
X0187000Y0182884D03*
X0187000Y0172884D03*
X0187000Y0162884D03*
X0217000Y0162884D03*
X0217000Y0172884D03*
X0217000Y0182884D03*
X0217000Y0192884D03*
X0217000Y0202884D03*
X0217000Y0212884D03*
X0217000Y0222884D03*
X0217000Y0232884D03*
X0217000Y0242884D03*
X0217000Y0252884D03*
X0217000Y0262884D03*
X0217000Y0272884D03*
X0217000Y0282884D03*
X0217000Y0292884D03*
D17*
X0217000Y0262884D02*
X0257000Y0262884D01*
X0257000Y0252884D01*
X0332000Y0252884D01*
X0332000Y0242884D02*
X0242000Y0242884D01*
X0242000Y0222884D01*
X0217000Y0222884D01*
X0207000Y0222884D02*
X0207000Y0232884D01*
X0217000Y0232884D01*
X0207000Y0222884D02*
X0187000Y0222884D01*
X0172000Y0222884D02*
X0077000Y0222884D01*
X0077000Y0217884D01*
X0027000Y0217884D01*
X0027000Y0207884D02*
X0092000Y0207884D01*
X0092000Y0177884D01*
X0172000Y0177884D01*
X0172000Y0192884D01*
X0187000Y0192884D01*
X0187000Y0182884D02*
X0207000Y0182884D01*
X0207000Y0152884D01*
X0242000Y0152884D01*
X0242000Y0167884D01*
X0317000Y0167884D01*
X0317000Y0202884D01*
X0332000Y0202884D01*
X0332000Y0157884D02*
X0252000Y0157884D01*
X0252000Y0142884D01*
X0197000Y0142884D01*
X0197000Y0172884D01*
X0187000Y0172884D01*
X0187000Y0162884D02*
X0082000Y0162884D01*
X0082000Y0107884D01*
X0052000Y0107884D01*
X0092000Y0132884D02*
X0092000Y0047884D01*
X0082000Y0047884D01*
X0082000Y0042884D01*
X0162000Y0042884D02*
X0162000Y0072884D01*
X0252000Y0072884D01*
X0252000Y0097884D01*
X0242000Y0107884D02*
X0212000Y0107884D01*
X0217000Y0132884D02*
X0092000Y0132884D01*
X0172000Y0222884D02*
X0172000Y0242884D01*
X0187000Y0242884D01*
X0187000Y0252884D02*
X0162000Y0252884D01*
X0162000Y0232884D01*
X0067000Y0232884D01*
X0067000Y0227884D01*
X0027000Y0227884D01*
X0027000Y0237884D02*
X0057000Y0237884D01*
X0057000Y0242884D01*
X0152000Y0242884D01*
X0152000Y0262884D01*
X0187000Y0262884D01*
X0187000Y0272884D02*
X0142000Y0272884D01*
X0142000Y0262884D01*
X0117000Y0262884D01*
X0117000Y0272884D02*
X0132000Y0272884D01*
X0132000Y0282884D01*
X0187000Y0282884D01*
X0217000Y0202884D02*
X0282000Y0202884D01*
X0282000Y0177884D01*
X0272000Y0177884D02*
X0272000Y0192884D01*
X0217000Y0192884D01*
X0217000Y0182884D02*
X0237000Y0182884D01*
X0272000Y0147884D02*
X0272000Y0137884D01*
X0252000Y0137884D01*
X0252000Y0112884D01*
X0242000Y0112884D01*
X0242000Y0107884D01*
X0262000Y0127884D02*
X0262000Y0057884D01*
X0242000Y0057884D01*
X0242000Y0042884D01*
X0237000Y0042884D01*
X0297000Y0087884D02*
X0297000Y0097884D01*
X0282000Y0127884D02*
X0262000Y0127884D01*
X0282000Y0127884D02*
X0282000Y0147884D01*
D18*
X0282000Y0147884D03*
X0272000Y0147884D03*
X0272000Y0177884D03*
X0282000Y0177884D03*
X0237000Y0182884D03*
X0217000Y0132884D03*
X0252000Y0097884D03*
D19*
X0008800Y0009684D02*
X0008800Y0321084D01*
X0345200Y0321084D01*
X0345200Y0009684D01*
X0008800Y0009684D01*
X0008800Y0010877D02*
X0345200Y0010877D01*
X0345200Y0012475D02*
X0008800Y0012475D01*
X0008800Y0014074D02*
X0345200Y0014074D01*
X0345200Y0015672D02*
X0008800Y0015672D01*
X0008800Y0017271D02*
X0345200Y0017271D01*
X0345200Y0018869D02*
X0008800Y0018869D01*
X0008800Y0020468D02*
X0047928Y0020468D01*
X0048073Y0020323D02*
X0048684Y0019879D01*
X0049357Y0019536D01*
X0050076Y0019303D01*
X0050822Y0019184D01*
X0054000Y0019184D01*
X0054000Y0023784D01*
X0054400Y0023784D01*
X0054400Y0019184D01*
X0057578Y0019184D01*
X0058324Y0019303D01*
X0059043Y0019536D01*
X0059716Y0019879D01*
X0060327Y0020323D01*
X0060861Y0020857D01*
X0061305Y0021469D01*
X0061648Y0022142D01*
X0061882Y0022860D01*
X0062000Y0023607D01*
X0062000Y0023784D01*
X0054400Y0023784D01*
X0054400Y0024184D01*
X0062000Y0024184D01*
X0062000Y0024362D01*
X0061882Y0025108D01*
X0061648Y0025827D01*
X0061305Y0026500D01*
X0060861Y0027111D01*
X0060327Y0027646D01*
X0059716Y0028090D01*
X0059043Y0028433D01*
X0058324Y0028666D01*
X0057578Y0028784D01*
X0054400Y0028784D01*
X0054400Y0024184D01*
X0054000Y0024184D01*
X0054000Y0023784D01*
X0046400Y0023784D01*
X0046400Y0023607D01*
X0046518Y0022860D01*
X0046752Y0022142D01*
X0047095Y0021469D01*
X0047539Y0020857D01*
X0048073Y0020323D01*
X0046790Y0022066D02*
X0008800Y0022066D01*
X0008800Y0023665D02*
X0024219Y0023665D01*
X0024950Y0022934D02*
X0022050Y0025834D01*
X0022050Y0027884D01*
X0027000Y0027884D01*
X0027000Y0022934D01*
X0029050Y0022934D01*
X0031950Y0025834D01*
X0031950Y0027884D01*
X0027000Y0027884D01*
X0027000Y0027884D01*
X0027000Y0022934D01*
X0024950Y0022934D01*
X0027000Y0023665D02*
X0027000Y0023665D01*
X0027000Y0025264D02*
X0027000Y0025264D01*
X0027000Y0026862D02*
X0027000Y0026862D01*
X0027000Y0027884D02*
X0027000Y0027884D01*
X0027000Y0027884D01*
X0022050Y0027884D01*
X0022050Y0029165D01*
X0021364Y0029449D01*
X0018565Y0032248D01*
X0017050Y0035905D01*
X0017050Y0039864D01*
X0018565Y0043521D01*
X0021364Y0046320D01*
X0025021Y0047834D01*
X0028979Y0047834D01*
X0032636Y0046320D01*
X0035435Y0043521D01*
X0036950Y0039864D01*
X0036950Y0035905D01*
X0035435Y0032248D01*
X0032636Y0029449D01*
X0031950Y0029165D01*
X0031950Y0027884D01*
X0027000Y0027884D01*
X0022050Y0028461D02*
X0008800Y0028461D01*
X0008800Y0030059D02*
X0020754Y0030059D01*
X0019155Y0031658D02*
X0008800Y0031658D01*
X0008800Y0033256D02*
X0018147Y0033256D01*
X0017485Y0034855D02*
X0008800Y0034855D01*
X0008800Y0036453D02*
X0017050Y0036453D01*
X0017050Y0038052D02*
X0008800Y0038052D01*
X0008800Y0039650D02*
X0017050Y0039650D01*
X0017624Y0041249D02*
X0008800Y0041249D01*
X0008800Y0042847D02*
X0018286Y0042847D01*
X0019490Y0044446D02*
X0008800Y0044446D01*
X0008800Y0046044D02*
X0021088Y0046044D01*
X0023189Y0048684D02*
X0030811Y0048684D01*
X0036200Y0054074D01*
X0036200Y0061695D01*
X0030811Y0067084D01*
X0023189Y0067084D01*
X0017800Y0061695D01*
X0017800Y0054074D01*
X0023189Y0048684D01*
X0022632Y0049241D02*
X0008800Y0049241D01*
X0008800Y0047643D02*
X0024558Y0047643D01*
X0021034Y0050840D02*
X0008800Y0050840D01*
X0008800Y0052438D02*
X0019435Y0052438D01*
X0017837Y0054037D02*
X0008800Y0054037D01*
X0008800Y0055635D02*
X0017800Y0055635D01*
X0017800Y0057234D02*
X0008800Y0057234D01*
X0008800Y0058832D02*
X0017800Y0058832D01*
X0017800Y0060431D02*
X0008800Y0060431D01*
X0008800Y0062029D02*
X0018134Y0062029D01*
X0019733Y0063628D02*
X0008800Y0063628D01*
X0008800Y0065226D02*
X0021331Y0065226D01*
X0022930Y0066825D02*
X0008800Y0066825D01*
X0008800Y0068423D02*
X0084200Y0068423D01*
X0084200Y0066825D02*
X0071070Y0066825D01*
X0070811Y0067084D02*
X0063189Y0067084D01*
X0057800Y0061695D01*
X0057800Y0054074D01*
X0061095Y0050778D01*
X0059149Y0051584D01*
X0049251Y0051584D01*
X0045649Y0050092D01*
X0042892Y0047336D01*
X0041400Y0043734D01*
X0041400Y0039835D01*
X0042892Y0036233D01*
X0045649Y0033476D01*
X0049251Y0031984D01*
X0059149Y0031984D01*
X0062751Y0033476D01*
X0065508Y0036233D01*
X0067000Y0039835D01*
X0068492Y0036233D01*
X0071249Y0033476D01*
X0074851Y0031984D01*
X0084749Y0031984D01*
X0088351Y0033476D01*
X0091108Y0036233D01*
X0092600Y0039835D01*
X0092600Y0040084D01*
X0093552Y0040084D01*
X0096418Y0041272D01*
X0098492Y0043346D01*
X0097050Y0039864D01*
X0097050Y0035905D01*
X0098565Y0032248D01*
X0101364Y0029449D01*
X0102050Y0029165D01*
X0102050Y0027884D01*
X0102050Y0025834D01*
X0104950Y0022934D01*
X0107000Y0022934D01*
X0109050Y0022934D01*
X0111950Y0025834D01*
X0111950Y0027884D01*
X0107000Y0027884D01*
X0107000Y0022934D01*
X0107000Y0027884D01*
X0107000Y0027884D01*
X0107000Y0027884D01*
X0102050Y0027884D01*
X0107000Y0027884D01*
X0107000Y0027884D01*
X0111950Y0027884D01*
X0111950Y0029165D01*
X0112636Y0029449D01*
X0115435Y0032248D01*
X0116950Y0035905D01*
X0116950Y0039864D01*
X0115435Y0043521D01*
X0112636Y0046320D01*
X0108979Y0047834D01*
X0105021Y0047834D01*
X0101364Y0046320D01*
X0098685Y0043641D01*
X0099800Y0046333D01*
X0099800Y0052074D01*
X0103189Y0048684D01*
X0110811Y0048684D01*
X0116200Y0054074D01*
X0116200Y0061695D01*
X0110811Y0067084D01*
X0103189Y0067084D01*
X0099800Y0063695D01*
X0099800Y0096013D01*
X0101364Y0094449D01*
X0102050Y0094165D01*
X0102050Y0092884D01*
X0102050Y0090834D01*
X0104950Y0087934D01*
X0107000Y0087934D01*
X0109050Y0087934D01*
X0111950Y0090834D01*
X0111950Y0092884D01*
X0107000Y0092884D01*
X0107000Y0087934D01*
X0107000Y0092884D01*
X0107000Y0092884D01*
X0107000Y0092884D01*
X0102050Y0092884D01*
X0107000Y0092884D01*
X0107000Y0092884D01*
X0111950Y0092884D01*
X0111950Y0094165D01*
X0112636Y0094449D01*
X0115435Y0097248D01*
X0116950Y0100905D01*
X0116950Y0104864D01*
X0115435Y0108521D01*
X0112636Y0111320D01*
X0108979Y0112834D01*
X0105021Y0112834D01*
X0101364Y0111320D01*
X0099800Y0109756D01*
X0099800Y0117074D01*
X0103189Y0113684D01*
X0110811Y0113684D01*
X0116200Y0119074D01*
X0116200Y0125084D01*
X0137800Y0125084D01*
X0137800Y0119074D01*
X0141095Y0115778D01*
X0139149Y0116584D01*
X0129251Y0116584D01*
X0125649Y0115092D01*
X0122892Y0112336D01*
X0121400Y0108734D01*
X0121400Y0104835D01*
X0122892Y0101233D01*
X0125649Y0098476D01*
X0129251Y0096984D01*
X0139149Y0096984D01*
X0142751Y0098476D01*
X0145508Y0101233D01*
X0147000Y0104835D01*
X0148492Y0101233D01*
X0151249Y0098476D01*
X0154851Y0096984D01*
X0164749Y0096984D01*
X0168351Y0098476D01*
X0171108Y0101233D01*
X0172600Y0104835D01*
X0172600Y0108734D01*
X0171108Y0112336D01*
X0168351Y0115092D01*
X0164749Y0116584D01*
X0154851Y0116584D01*
X0152905Y0115778D01*
X0156200Y0119074D01*
X0156200Y0125084D01*
X0177800Y0125084D01*
X0177800Y0119074D01*
X0183189Y0113684D01*
X0190811Y0113684D01*
X0196200Y0119074D01*
X0196200Y0125084D01*
X0213407Y0125084D01*
X0215293Y0124303D01*
X0217800Y0124303D01*
X0217800Y0119074D01*
X0221095Y0115778D01*
X0219149Y0116584D01*
X0209251Y0116584D01*
X0205649Y0115092D01*
X0202892Y0112336D01*
X0201400Y0108734D01*
X0201400Y0104835D01*
X0202892Y0101233D01*
X0205649Y0098476D01*
X0209251Y0096984D01*
X0219149Y0096984D01*
X0222751Y0098476D01*
X0224359Y0100084D01*
X0229641Y0100084D01*
X0231249Y0098476D01*
X0234851Y0096984D01*
X0243419Y0096984D01*
X0243419Y0096177D01*
X0244200Y0094292D01*
X0244200Y0093576D01*
X0243924Y0093666D01*
X0243178Y0093784D01*
X0240000Y0093784D01*
X0240000Y0089184D01*
X0239600Y0089184D01*
X0239600Y0088784D01*
X0240000Y0088784D01*
X0240000Y0084184D01*
X0243178Y0084184D01*
X0243924Y0084303D01*
X0244200Y0084392D01*
X0244200Y0080684D01*
X0160448Y0080684D01*
X0157582Y0079497D01*
X0155387Y0077303D01*
X0154200Y0074436D01*
X0154200Y0063695D01*
X0150811Y0067084D01*
X0143189Y0067084D01*
X0137800Y0061695D01*
X0137800Y0054074D01*
X0141095Y0050778D01*
X0139149Y0051584D01*
X0129251Y0051584D01*
X0125649Y0050092D01*
X0122892Y0047336D01*
X0121400Y0043734D01*
X0121400Y0039835D01*
X0122892Y0036233D01*
X0125649Y0033476D01*
X0129251Y0031984D01*
X0139149Y0031984D01*
X0142751Y0033476D01*
X0145508Y0036233D01*
X0147000Y0039835D01*
X0148492Y0036233D01*
X0151249Y0033476D01*
X0154851Y0031984D01*
X0164749Y0031984D01*
X0168351Y0033476D01*
X0171108Y0036233D01*
X0172600Y0039835D01*
X0172600Y0043734D01*
X0171108Y0047336D01*
X0169800Y0048644D01*
X0169800Y0065084D01*
X0181189Y0065084D01*
X0177800Y0061695D01*
X0177800Y0054074D01*
X0183189Y0048684D01*
X0190811Y0048684D01*
X0196200Y0054074D01*
X0196200Y0061695D01*
X0192811Y0065084D01*
X0221189Y0065084D01*
X0217800Y0061695D01*
X0217800Y0054074D01*
X0221095Y0050778D01*
X0219149Y0051584D01*
X0209251Y0051584D01*
X0205649Y0050092D01*
X0202892Y0047336D01*
X0201400Y0043734D01*
X0201400Y0039835D01*
X0202892Y0036233D01*
X0205649Y0033476D01*
X0209251Y0031984D01*
X0219149Y0031984D01*
X0222751Y0033476D01*
X0225508Y0036233D01*
X0227000Y0039835D01*
X0228492Y0036233D01*
X0231249Y0033476D01*
X0234851Y0031984D01*
X0244749Y0031984D01*
X0248351Y0033476D01*
X0251108Y0036233D01*
X0252600Y0039835D01*
X0252600Y0043734D01*
X0251108Y0047336D01*
X0249800Y0048644D01*
X0249800Y0050084D01*
X0263552Y0050084D01*
X0266418Y0051272D01*
X0268613Y0053466D01*
X0269800Y0056333D01*
X0269800Y0063684D01*
X0275811Y0063684D01*
X0281200Y0069074D01*
X0281200Y0076695D01*
X0275811Y0082084D01*
X0269800Y0082084D01*
X0269800Y0120084D01*
X0283552Y0120084D01*
X0286418Y0121272D01*
X0288613Y0123466D01*
X0289800Y0126333D01*
X0289800Y0144292D01*
X0290581Y0146177D01*
X0290581Y0149591D01*
X0290377Y0150084D01*
X0297800Y0150084D01*
X0297800Y0144074D01*
X0303189Y0138684D01*
X0310811Y0138684D01*
X0316200Y0144074D01*
X0316200Y0150084D01*
X0319304Y0150084D01*
X0319200Y0149834D01*
X0319200Y0145935D01*
X0320464Y0142884D01*
X0319200Y0139834D01*
X0319200Y0135935D01*
X0320692Y0132333D01*
X0323449Y0129576D01*
X0327051Y0128084D01*
X0336949Y0128084D01*
X0340551Y0129576D01*
X0343308Y0132333D01*
X0344800Y0135935D01*
X0344800Y0139834D01*
X0343536Y0142884D01*
X0344800Y0145935D01*
X0344800Y0149834D01*
X0343536Y0152884D01*
X0344800Y0155935D01*
X0344800Y0159834D01*
X0343536Y0162884D01*
X0344800Y0165935D01*
X0344800Y0169834D01*
X0343308Y0173436D01*
X0340551Y0176192D01*
X0336949Y0177684D01*
X0327051Y0177684D01*
X0324800Y0176752D01*
X0324800Y0184017D01*
X0327051Y0183084D01*
X0336949Y0183084D01*
X0340551Y0184576D01*
X0343308Y0187333D01*
X0344800Y0190935D01*
X0344800Y0194834D01*
X0343536Y0197884D01*
X0344800Y0200935D01*
X0344800Y0204834D01*
X0343536Y0207884D01*
X0344800Y0210935D01*
X0344800Y0214834D01*
X0343536Y0217884D01*
X0344800Y0220935D01*
X0344800Y0224834D01*
X0343308Y0228436D01*
X0340551Y0231192D01*
X0336949Y0232684D01*
X0327051Y0232684D01*
X0323449Y0231192D01*
X0320692Y0228436D01*
X0319200Y0224834D01*
X0319200Y0220935D01*
X0320464Y0217884D01*
X0319200Y0214834D01*
X0319200Y0210935D01*
X0319304Y0210684D01*
X0315448Y0210684D01*
X0312582Y0209497D01*
X0310387Y0207303D01*
X0309200Y0204436D01*
X0309200Y0175684D01*
X0290377Y0175684D01*
X0290581Y0176177D01*
X0290581Y0179591D01*
X0289800Y0181477D01*
X0289800Y0204436D01*
X0288613Y0207303D01*
X0286418Y0209497D01*
X0283552Y0210684D01*
X0226867Y0210684D01*
X0227100Y0211555D01*
X0227100Y0214214D01*
X0226867Y0215084D01*
X0243552Y0215084D01*
X0246418Y0216272D01*
X0248613Y0218466D01*
X0249800Y0221333D01*
X0249800Y0235084D01*
X0322941Y0235084D01*
X0323449Y0234576D01*
X0327051Y0233084D01*
X0336949Y0233084D01*
X0340551Y0234576D01*
X0343308Y0237333D01*
X0344800Y0240935D01*
X0344800Y0244834D01*
X0343536Y0247884D01*
X0344800Y0250935D01*
X0344800Y0254834D01*
X0343536Y0257884D01*
X0344800Y0260935D01*
X0344800Y0264834D01*
X0343536Y0267884D01*
X0344800Y0270935D01*
X0344800Y0274834D01*
X0343536Y0277884D01*
X0344800Y0280935D01*
X0344800Y0284834D01*
X0343536Y0287884D01*
X0344800Y0290935D01*
X0344800Y0294834D01*
X0343308Y0298436D01*
X0340551Y0301192D01*
X0336949Y0302684D01*
X0327051Y0302684D01*
X0323449Y0301192D01*
X0320692Y0298436D01*
X0319200Y0294834D01*
X0319200Y0290935D01*
X0320464Y0287884D01*
X0319200Y0284834D01*
X0319200Y0280935D01*
X0320464Y0277884D01*
X0319200Y0274834D01*
X0319200Y0270935D01*
X0320464Y0267884D01*
X0319200Y0264834D01*
X0319200Y0260935D01*
X0319304Y0260684D01*
X0264800Y0260684D01*
X0264800Y0264436D01*
X0263613Y0267303D01*
X0261418Y0269497D01*
X0258552Y0270684D01*
X0226867Y0270684D01*
X0227100Y0271555D01*
X0227100Y0274214D01*
X0226412Y0276783D01*
X0225776Y0277884D01*
X0226412Y0278986D01*
X0227100Y0281555D01*
X0227100Y0284214D01*
X0226412Y0286783D01*
X0225776Y0287884D01*
X0226412Y0288986D01*
X0227100Y0291555D01*
X0227100Y0294214D01*
X0226412Y0296783D01*
X0225082Y0299086D01*
X0223202Y0300966D01*
X0220898Y0302296D01*
X0218330Y0302984D01*
X0215670Y0302984D01*
X0213102Y0302296D01*
X0210798Y0300966D01*
X0208918Y0299086D01*
X0207588Y0296783D01*
X0206900Y0294214D01*
X0206900Y0291555D01*
X0207588Y0288986D01*
X0208224Y0287884D01*
X0207588Y0286783D01*
X0206900Y0284214D01*
X0206900Y0281555D01*
X0207588Y0278986D01*
X0208224Y0277884D01*
X0207588Y0276783D01*
X0206900Y0274214D01*
X0206900Y0271555D01*
X0207588Y0268986D01*
X0208224Y0267884D01*
X0207588Y0266783D01*
X0206900Y0264214D01*
X0206900Y0261555D01*
X0207588Y0258986D01*
X0208224Y0257884D01*
X0207588Y0256783D01*
X0206900Y0254214D01*
X0206900Y0251555D01*
X0207588Y0248986D01*
X0208224Y0247884D01*
X0207588Y0246783D01*
X0206900Y0244214D01*
X0206900Y0241555D01*
X0207588Y0238986D01*
X0208918Y0236683D01*
X0210798Y0234802D01*
X0212030Y0234091D01*
X0212026Y0234079D01*
X0211900Y0233286D01*
X0211900Y0233184D01*
X0214177Y0233184D01*
X0215297Y0232884D01*
X0214177Y0232584D01*
X0211900Y0232584D01*
X0211900Y0232483D01*
X0212026Y0231690D01*
X0212030Y0231677D01*
X0210798Y0230966D01*
X0208918Y0229086D01*
X0207588Y0226783D01*
X0206900Y0224214D01*
X0206900Y0221555D01*
X0207588Y0218986D01*
X0208224Y0217884D01*
X0207588Y0216783D01*
X0206900Y0214214D01*
X0206900Y0211555D01*
X0207588Y0208986D01*
X0208224Y0207884D01*
X0207588Y0206783D01*
X0206900Y0204214D01*
X0206900Y0201555D01*
X0207588Y0198986D01*
X0208224Y0197884D01*
X0207588Y0196783D01*
X0206900Y0194214D01*
X0206900Y0191555D01*
X0207133Y0190684D01*
X0196867Y0190684D01*
X0197100Y0191555D01*
X0197100Y0194214D01*
X0196412Y0196783D01*
X0195776Y0197884D01*
X0196412Y0198986D01*
X0197100Y0201555D01*
X0197100Y0204214D01*
X0196412Y0206783D01*
X0195776Y0207884D01*
X0196412Y0208986D01*
X0197100Y0211555D01*
X0197100Y0214214D01*
X0196412Y0216783D01*
X0195082Y0219086D01*
X0193202Y0220966D01*
X0191970Y0221677D01*
X0191974Y0221690D01*
X0192100Y0222483D01*
X0192100Y0222584D01*
X0189823Y0222584D01*
X0188703Y0222884D01*
X0189823Y0223184D01*
X0192100Y0223184D01*
X0192100Y0223286D01*
X0191974Y0224079D01*
X0191970Y0224091D01*
X0193202Y0224802D01*
X0195082Y0226683D01*
X0196412Y0228986D01*
X0197100Y0231555D01*
X0197100Y0234214D01*
X0196412Y0236783D01*
X0195776Y0237884D01*
X0196412Y0238986D01*
X0197100Y0241555D01*
X0197100Y0244214D01*
X0196412Y0246783D01*
X0195776Y0247884D01*
X0196412Y0248986D01*
X0197100Y0251555D01*
X0197100Y0254214D01*
X0196412Y0256783D01*
X0195776Y0257884D01*
X0196412Y0258986D01*
X0197100Y0261555D01*
X0197100Y0264214D01*
X0196412Y0266783D01*
X0195776Y0267884D01*
X0196412Y0268986D01*
X0197100Y0271555D01*
X0197100Y0274214D01*
X0196412Y0276783D01*
X0195776Y0277884D01*
X0196412Y0278986D01*
X0197100Y0281555D01*
X0197100Y0284214D01*
X0196446Y0286654D01*
X0197100Y0288232D01*
X0197100Y0297537D01*
X0196065Y0300036D01*
X0194152Y0301949D01*
X0191653Y0302984D01*
X0182347Y0302984D01*
X0179848Y0301949D01*
X0177935Y0300036D01*
X0176900Y0297537D01*
X0176900Y0290684D01*
X0130448Y0290684D01*
X0129540Y0290308D01*
X0129800Y0290935D01*
X0129800Y0294834D01*
X0128536Y0297884D01*
X0129800Y0300935D01*
X0129800Y0304834D01*
X0128308Y0308436D01*
X0125551Y0311192D01*
X0121949Y0312684D01*
X0112051Y0312684D01*
X0108449Y0311192D01*
X0105692Y0308436D01*
X0104200Y0304834D01*
X0104200Y0300935D01*
X0105464Y0297884D01*
X0104200Y0294834D01*
X0104200Y0290935D01*
X0105692Y0287333D01*
X0108449Y0284576D01*
X0109378Y0284192D01*
X0109318Y0284008D01*
X0109200Y0283262D01*
X0109200Y0283084D01*
X0116800Y0283084D01*
X0116800Y0282684D01*
X0112051Y0282684D01*
X0112051Y0282684D01*
X0109200Y0282684D01*
X0109200Y0282507D01*
X0109318Y0281760D01*
X0109378Y0281577D01*
X0108449Y0281192D01*
X0105692Y0278436D01*
X0104200Y0274834D01*
X0104200Y0270935D01*
X0105464Y0267884D01*
X0104200Y0264834D01*
X0104200Y0260935D01*
X0105464Y0257884D01*
X0104200Y0254834D01*
X0104200Y0250935D01*
X0104304Y0250684D01*
X0055448Y0250684D01*
X0052582Y0249497D01*
X0050387Y0247303D01*
X0049717Y0245684D01*
X0036059Y0245684D01*
X0035551Y0246192D01*
X0031949Y0247684D01*
X0022051Y0247684D01*
X0018449Y0246192D01*
X0015692Y0243436D01*
X0014200Y0239834D01*
X0014200Y0235935D01*
X0015464Y0232884D01*
X0014200Y0229834D01*
X0014200Y0225935D01*
X0015464Y0222884D01*
X0014200Y0219834D01*
X0014200Y0215935D01*
X0015464Y0212884D01*
X0014200Y0209834D01*
X0014200Y0205935D01*
X0015692Y0202333D01*
X0018449Y0199576D01*
X0022051Y0198084D01*
X0031949Y0198084D01*
X0035551Y0199576D01*
X0036059Y0200084D01*
X0084200Y0200084D01*
X0084200Y0176333D01*
X0085387Y0173466D01*
X0087582Y0171272D01*
X0089000Y0170684D01*
X0080448Y0170684D01*
X0077582Y0169497D01*
X0075387Y0167303D01*
X0074200Y0164436D01*
X0074200Y0128695D01*
X0070811Y0132084D01*
X0063189Y0132084D01*
X0057800Y0126695D01*
X0057800Y0119074D01*
X0061095Y0115778D01*
X0059149Y0116584D01*
X0049251Y0116584D01*
X0045649Y0115092D01*
X0042892Y0112336D01*
X0041400Y0108734D01*
X0041400Y0104835D01*
X0042892Y0101233D01*
X0045649Y0098476D01*
X0049251Y0096984D01*
X0059149Y0096984D01*
X0062751Y0098476D01*
X0064359Y0100084D01*
X0069641Y0100084D01*
X0071249Y0098476D01*
X0074851Y0096984D01*
X0084200Y0096984D01*
X0084200Y0093576D01*
X0083924Y0093666D01*
X0083178Y0093784D01*
X0080000Y0093784D01*
X0080000Y0089184D01*
X0079600Y0089184D01*
X0079600Y0088784D01*
X0080000Y0088784D01*
X0080000Y0084184D01*
X0083178Y0084184D01*
X0083924Y0084303D01*
X0084200Y0084392D01*
X0084200Y0055684D01*
X0080448Y0055684D01*
X0077582Y0054497D01*
X0075387Y0052303D01*
X0075090Y0051584D01*
X0074851Y0051584D01*
X0072905Y0050778D01*
X0076200Y0054074D01*
X0076200Y0061695D01*
X0070811Y0067084D01*
X0072669Y0065226D02*
X0084200Y0065226D01*
X0084200Y0063628D02*
X0074267Y0063628D01*
X0075866Y0062029D02*
X0084200Y0062029D01*
X0084200Y0060431D02*
X0076200Y0060431D01*
X0076200Y0058832D02*
X0084200Y0058832D01*
X0084200Y0057234D02*
X0076200Y0057234D01*
X0076200Y0055635D02*
X0080330Y0055635D01*
X0077121Y0054037D02*
X0076163Y0054037D01*
X0075523Y0052438D02*
X0074565Y0052438D01*
X0073053Y0050840D02*
X0072966Y0050840D01*
X0069841Y0048684D02*
X0068492Y0047336D01*
X0067000Y0043734D01*
X0067000Y0039835D01*
X0067000Y0043734D01*
X0065508Y0047336D01*
X0064159Y0048684D01*
X0069841Y0048684D01*
X0068799Y0047643D02*
X0065201Y0047643D01*
X0066043Y0046044D02*
X0067957Y0046044D01*
X0067295Y0044446D02*
X0066705Y0044446D01*
X0067000Y0042847D02*
X0067000Y0042847D01*
X0067000Y0041249D02*
X0067000Y0041249D01*
X0066923Y0039650D02*
X0067077Y0039650D01*
X0067739Y0038052D02*
X0066261Y0038052D01*
X0065599Y0036453D02*
X0068401Y0036453D01*
X0069870Y0034855D02*
X0064130Y0034855D01*
X0062220Y0033256D02*
X0071780Y0033256D01*
X0074284Y0028090D02*
X0073673Y0027646D01*
X0073139Y0027111D01*
X0072695Y0026500D01*
X0072352Y0025827D01*
X0072118Y0025108D01*
X0072000Y0024362D01*
X0072000Y0024184D01*
X0079600Y0024184D01*
X0079600Y0023784D01*
X0080000Y0023784D01*
X0080000Y0019184D01*
X0083178Y0019184D01*
X0083924Y0019303D01*
X0084643Y0019536D01*
X0085316Y0019879D01*
X0085927Y0020323D01*
X0086461Y0020857D01*
X0086905Y0021469D01*
X0087248Y0022142D01*
X0087482Y0022860D01*
X0087600Y0023607D01*
X0087600Y0023784D01*
X0080000Y0023784D01*
X0080000Y0024184D01*
X0087600Y0024184D01*
X0087600Y0024362D01*
X0087482Y0025108D01*
X0087248Y0025827D01*
X0086905Y0026500D01*
X0086461Y0027111D01*
X0085927Y0027646D01*
X0085316Y0028090D01*
X0084643Y0028433D01*
X0083924Y0028666D01*
X0083178Y0028784D01*
X0080000Y0028784D01*
X0080000Y0024184D01*
X0079600Y0024184D01*
X0079600Y0028784D01*
X0076422Y0028784D01*
X0075676Y0028666D01*
X0074957Y0028433D01*
X0074284Y0028090D01*
X0075043Y0028461D02*
X0058957Y0028461D01*
X0061042Y0026862D02*
X0072958Y0026862D01*
X0072169Y0025264D02*
X0061831Y0025264D01*
X0062000Y0023665D02*
X0072000Y0023665D01*
X0072000Y0023607D02*
X0072118Y0022860D01*
X0072352Y0022142D01*
X0072695Y0021469D01*
X0073139Y0020857D01*
X0073673Y0020323D01*
X0074284Y0019879D01*
X0074957Y0019536D01*
X0075676Y0019303D01*
X0076422Y0019184D01*
X0079600Y0019184D01*
X0079600Y0023784D01*
X0072000Y0023784D01*
X0072000Y0023607D01*
X0072390Y0022066D02*
X0061610Y0022066D01*
X0060472Y0020468D02*
X0073528Y0020468D01*
X0079600Y0020468D02*
X0080000Y0020468D01*
X0080000Y0022066D02*
X0079600Y0022066D01*
X0079600Y0023665D02*
X0080000Y0023665D01*
X0080000Y0025264D02*
X0079600Y0025264D01*
X0079600Y0026862D02*
X0080000Y0026862D01*
X0080000Y0028461D02*
X0079600Y0028461D01*
X0084557Y0028461D02*
X0102050Y0028461D01*
X0102050Y0026862D02*
X0086642Y0026862D01*
X0087431Y0025264D02*
X0102620Y0025264D01*
X0104219Y0023665D02*
X0087600Y0023665D01*
X0087210Y0022066D02*
X0126790Y0022066D01*
X0126752Y0022142D02*
X0127095Y0021469D01*
X0127539Y0020857D01*
X0128073Y0020323D01*
X0128684Y0019879D01*
X0129357Y0019536D01*
X0130076Y0019303D01*
X0130822Y0019184D01*
X0134000Y0019184D01*
X0134000Y0023784D01*
X0134400Y0023784D01*
X0134400Y0019184D01*
X0137578Y0019184D01*
X0138324Y0019303D01*
X0139043Y0019536D01*
X0139716Y0019879D01*
X0140327Y0020323D01*
X0140861Y0020857D01*
X0141305Y0021469D01*
X0141648Y0022142D01*
X0141882Y0022860D01*
X0142000Y0023607D01*
X0142000Y0023784D01*
X0134400Y0023784D01*
X0134400Y0024184D01*
X0142000Y0024184D01*
X0142000Y0024362D01*
X0141882Y0025108D01*
X0141648Y0025827D01*
X0141305Y0026500D01*
X0140861Y0027111D01*
X0140327Y0027646D01*
X0139716Y0028090D01*
X0139043Y0028433D01*
X0138324Y0028666D01*
X0137578Y0028784D01*
X0134400Y0028784D01*
X0134400Y0024184D01*
X0134000Y0024184D01*
X0134000Y0023784D01*
X0126400Y0023784D01*
X0126400Y0023607D01*
X0126518Y0022860D01*
X0126752Y0022142D01*
X0126400Y0023665D02*
X0109781Y0023665D01*
X0111380Y0025264D02*
X0126569Y0025264D01*
X0126518Y0025108D02*
X0126400Y0024362D01*
X0126400Y0024184D01*
X0134000Y0024184D01*
X0134000Y0028784D01*
X0130822Y0028784D01*
X0130076Y0028666D01*
X0129357Y0028433D01*
X0128684Y0028090D01*
X0128073Y0027646D01*
X0127539Y0027111D01*
X0127095Y0026500D01*
X0126752Y0025827D01*
X0126518Y0025108D01*
X0127358Y0026862D02*
X0111950Y0026862D01*
X0111950Y0028461D02*
X0129443Y0028461D01*
X0134000Y0028461D02*
X0134400Y0028461D01*
X0134400Y0026862D02*
X0134000Y0026862D01*
X0134000Y0025264D02*
X0134400Y0025264D01*
X0134400Y0023665D02*
X0134000Y0023665D01*
X0134000Y0022066D02*
X0134400Y0022066D01*
X0134400Y0020468D02*
X0134000Y0020468D01*
X0127928Y0020468D02*
X0086072Y0020468D01*
X0087820Y0033256D02*
X0098147Y0033256D01*
X0097485Y0034855D02*
X0089730Y0034855D01*
X0091199Y0036453D02*
X0097050Y0036453D01*
X0097050Y0038052D02*
X0091861Y0038052D01*
X0092523Y0039650D02*
X0097050Y0039650D01*
X0097624Y0041249D02*
X0096362Y0041249D01*
X0097994Y0042847D02*
X0098286Y0042847D01*
X0099018Y0044446D02*
X0099490Y0044446D01*
X0099680Y0046044D02*
X0101088Y0046044D01*
X0099800Y0047643D02*
X0104558Y0047643D01*
X0102632Y0049241D02*
X0099800Y0049241D01*
X0099800Y0050840D02*
X0101034Y0050840D01*
X0109442Y0047643D02*
X0123199Y0047643D01*
X0122357Y0046044D02*
X0112912Y0046044D01*
X0114510Y0044446D02*
X0121695Y0044446D01*
X0121400Y0042847D02*
X0115714Y0042847D01*
X0116376Y0041249D02*
X0121400Y0041249D01*
X0121477Y0039650D02*
X0116950Y0039650D01*
X0116950Y0038052D02*
X0122139Y0038052D01*
X0122801Y0036453D02*
X0116950Y0036453D01*
X0116515Y0034855D02*
X0124270Y0034855D01*
X0126180Y0033256D02*
X0115853Y0033256D01*
X0114845Y0031658D02*
X0179155Y0031658D01*
X0178565Y0032248D02*
X0181364Y0029449D01*
X0182050Y0029165D01*
X0182050Y0027884D01*
X0182050Y0025834D01*
X0184950Y0022934D01*
X0187000Y0022934D01*
X0189050Y0022934D01*
X0191950Y0025834D01*
X0191950Y0027884D01*
X0187000Y0027884D01*
X0187000Y0022934D01*
X0187000Y0027884D01*
X0187000Y0027884D01*
X0182050Y0027884D01*
X0187000Y0027884D01*
X0187000Y0027884D01*
X0187000Y0027884D01*
X0191950Y0027884D01*
X0191950Y0029165D01*
X0192636Y0029449D01*
X0195435Y0032248D01*
X0196950Y0035905D01*
X0196950Y0039864D01*
X0195435Y0043521D01*
X0192636Y0046320D01*
X0188979Y0047834D01*
X0185021Y0047834D01*
X0181364Y0046320D01*
X0178565Y0043521D01*
X0177050Y0039864D01*
X0177050Y0035905D01*
X0178565Y0032248D01*
X0178147Y0033256D02*
X0167820Y0033256D01*
X0169730Y0034855D02*
X0177485Y0034855D01*
X0177050Y0036453D02*
X0171199Y0036453D01*
X0171861Y0038052D02*
X0177050Y0038052D01*
X0177050Y0039650D02*
X0172523Y0039650D01*
X0172600Y0041249D02*
X0177624Y0041249D01*
X0178286Y0042847D02*
X0172600Y0042847D01*
X0172305Y0044446D02*
X0179490Y0044446D01*
X0181088Y0046044D02*
X0171643Y0046044D01*
X0170801Y0047643D02*
X0184558Y0047643D01*
X0182632Y0049241D02*
X0169800Y0049241D01*
X0169800Y0050840D02*
X0181034Y0050840D01*
X0179435Y0052438D02*
X0169800Y0052438D01*
X0169800Y0054037D02*
X0177837Y0054037D01*
X0177800Y0055635D02*
X0169800Y0055635D01*
X0169800Y0057234D02*
X0177800Y0057234D01*
X0177800Y0058832D02*
X0169800Y0058832D01*
X0169800Y0060431D02*
X0177800Y0060431D01*
X0178134Y0062029D02*
X0169800Y0062029D01*
X0169800Y0063628D02*
X0179733Y0063628D01*
X0194267Y0063628D02*
X0219733Y0063628D01*
X0218134Y0062029D02*
X0195866Y0062029D01*
X0196200Y0060431D02*
X0217800Y0060431D01*
X0217800Y0058832D02*
X0196200Y0058832D01*
X0196200Y0057234D02*
X0217800Y0057234D01*
X0217800Y0055635D02*
X0196200Y0055635D01*
X0196163Y0054037D02*
X0217837Y0054037D01*
X0219435Y0052438D02*
X0194565Y0052438D01*
X0192966Y0050840D02*
X0207453Y0050840D01*
X0204798Y0049241D02*
X0191368Y0049241D01*
X0189442Y0047643D02*
X0203199Y0047643D01*
X0202357Y0046044D02*
X0192912Y0046044D01*
X0194510Y0044446D02*
X0201695Y0044446D01*
X0201400Y0042847D02*
X0195714Y0042847D01*
X0196376Y0041249D02*
X0201400Y0041249D01*
X0201477Y0039650D02*
X0196950Y0039650D01*
X0196950Y0038052D02*
X0202139Y0038052D01*
X0202801Y0036453D02*
X0196950Y0036453D01*
X0196515Y0034855D02*
X0204270Y0034855D01*
X0206180Y0033256D02*
X0195853Y0033256D01*
X0194845Y0031658D02*
X0262800Y0031658D01*
X0262800Y0033256D02*
X0247820Y0033256D01*
X0249730Y0034855D02*
X0262800Y0034855D01*
X0262800Y0036453D02*
X0251199Y0036453D01*
X0251861Y0038052D02*
X0264156Y0038052D01*
X0262800Y0036695D02*
X0262800Y0029074D01*
X0268189Y0023684D01*
X0275811Y0023684D01*
X0279500Y0027374D01*
X0283189Y0023684D01*
X0290811Y0023684D01*
X0295811Y0028684D01*
X0297000Y0028684D01*
X0298740Y0028684D01*
X0301200Y0031145D01*
X0301200Y0032884D01*
X0297000Y0032884D01*
X0297000Y0028684D01*
X0297000Y0032884D01*
X0297000Y0032884D01*
X0297000Y0032884D01*
X0301200Y0032884D01*
X0301200Y0034624D01*
X0298740Y0037084D01*
X0297000Y0037084D01*
X0297000Y0032884D01*
X0297000Y0037084D01*
X0295811Y0037084D01*
X0290811Y0042084D01*
X0283189Y0042084D01*
X0279500Y0038395D01*
X0275811Y0042084D01*
X0268189Y0042084D01*
X0262800Y0036695D01*
X0265755Y0039650D02*
X0252523Y0039650D01*
X0252600Y0041249D02*
X0267354Y0041249D01*
X0276646Y0041249D02*
X0282354Y0041249D01*
X0280755Y0039650D02*
X0278245Y0039650D01*
X0267585Y0052438D02*
X0345200Y0052438D01*
X0345200Y0050840D02*
X0265375Y0050840D01*
X0268849Y0054037D02*
X0345200Y0054037D01*
X0345200Y0055635D02*
X0269511Y0055635D01*
X0269800Y0057234D02*
X0345200Y0057234D01*
X0345200Y0058832D02*
X0269800Y0058832D01*
X0269800Y0060431D02*
X0345200Y0060431D01*
X0345200Y0062029D02*
X0269800Y0062029D01*
X0269800Y0063628D02*
X0345200Y0063628D01*
X0345200Y0065226D02*
X0277353Y0065226D01*
X0278951Y0066825D02*
X0345200Y0066825D01*
X0345200Y0068423D02*
X0280550Y0068423D01*
X0281200Y0070022D02*
X0345200Y0070022D01*
X0345200Y0071620D02*
X0281200Y0071620D01*
X0281200Y0073219D02*
X0326726Y0073219D01*
X0327051Y0073084D02*
X0323449Y0074576D01*
X0320692Y0077333D01*
X0319200Y0080935D01*
X0319200Y0084834D01*
X0320464Y0087884D01*
X0319200Y0090935D01*
X0319200Y0094834D01*
X0320464Y0097884D01*
X0319200Y0100935D01*
X0319200Y0104834D01*
X0320464Y0107884D01*
X0319200Y0110935D01*
X0319200Y0114834D01*
X0320692Y0118436D01*
X0323449Y0121192D01*
X0327051Y0122684D01*
X0336949Y0122684D01*
X0340551Y0121192D01*
X0343308Y0118436D01*
X0344800Y0114834D01*
X0344800Y0110935D01*
X0343536Y0107884D01*
X0344800Y0104834D01*
X0344800Y0100935D01*
X0343536Y0097884D01*
X0344800Y0094834D01*
X0344800Y0090935D01*
X0343536Y0087884D01*
X0344800Y0084834D01*
X0344800Y0080935D01*
X0343308Y0077333D01*
X0340551Y0074576D01*
X0336949Y0073084D01*
X0327051Y0073084D01*
X0323208Y0074817D02*
X0281200Y0074817D01*
X0281200Y0076416D02*
X0321609Y0076416D01*
X0320410Y0078014D02*
X0279881Y0078014D01*
X0278282Y0079613D02*
X0319748Y0079613D01*
X0319200Y0081211D02*
X0276684Y0081211D01*
X0269800Y0082810D02*
X0319200Y0082810D01*
X0319200Y0084408D02*
X0269800Y0084408D01*
X0269800Y0086007D02*
X0319686Y0086007D01*
X0320348Y0087605D02*
X0269800Y0087605D01*
X0269800Y0089204D02*
X0282670Y0089204D01*
X0283189Y0088684D02*
X0277800Y0094074D01*
X0277800Y0101695D01*
X0283189Y0107084D01*
X0290811Y0107084D01*
X0295811Y0102084D01*
X0297000Y0102084D01*
X0298740Y0102084D01*
X0301200Y0099624D01*
X0301200Y0097884D01*
X0297000Y0097884D01*
X0297000Y0093684D01*
X0298740Y0093684D01*
X0301200Y0096145D01*
X0301200Y0097884D01*
X0297000Y0097884D01*
X0297000Y0097884D01*
X0297000Y0093684D01*
X0295811Y0093684D01*
X0290811Y0088684D01*
X0283189Y0088684D01*
X0281071Y0090802D02*
X0269800Y0090802D01*
X0269800Y0092401D02*
X0279473Y0092401D01*
X0277874Y0094000D02*
X0269800Y0094000D01*
X0269800Y0095598D02*
X0277800Y0095598D01*
X0277800Y0097197D02*
X0269800Y0097197D01*
X0269800Y0098795D02*
X0277800Y0098795D01*
X0277800Y0100394D02*
X0269800Y0100394D01*
X0269800Y0101992D02*
X0278097Y0101992D01*
X0279695Y0103591D02*
X0269800Y0103591D01*
X0269800Y0105189D02*
X0281294Y0105189D01*
X0282892Y0106788D02*
X0269800Y0106788D01*
X0269800Y0108386D02*
X0297800Y0108386D01*
X0297800Y0106788D02*
X0291108Y0106788D01*
X0292706Y0105189D02*
X0297800Y0105189D01*
X0297800Y0104074D02*
X0303189Y0098684D01*
X0310811Y0098684D01*
X0316200Y0104074D01*
X0316200Y0111695D01*
X0310811Y0117084D01*
X0303189Y0117084D01*
X0297800Y0111695D01*
X0297800Y0104074D01*
X0298283Y0103591D02*
X0294305Y0103591D01*
X0297000Y0102084D02*
X0297000Y0097884D01*
X0297000Y0097884D01*
X0297000Y0097884D01*
X0297000Y0102084D01*
X0297000Y0101992D02*
X0297000Y0101992D01*
X0297000Y0100394D02*
X0297000Y0100394D01*
X0297000Y0098795D02*
X0297000Y0098795D01*
X0297000Y0097197D02*
X0297000Y0097197D01*
X0297000Y0095598D02*
X0297000Y0095598D01*
X0297000Y0094000D02*
X0297000Y0094000D01*
X0299055Y0094000D02*
X0319200Y0094000D01*
X0319200Y0092401D02*
X0294527Y0092401D01*
X0292929Y0090802D02*
X0319255Y0090802D01*
X0319917Y0089204D02*
X0291330Y0089204D01*
X0300653Y0095598D02*
X0319517Y0095598D01*
X0320179Y0097197D02*
X0301200Y0097197D01*
X0301200Y0098795D02*
X0303079Y0098795D01*
X0301480Y0100394D02*
X0300430Y0100394D01*
X0299882Y0101992D02*
X0298832Y0101992D01*
X0297800Y0109985D02*
X0269800Y0109985D01*
X0269800Y0111583D02*
X0297800Y0111583D01*
X0299287Y0113182D02*
X0269800Y0113182D01*
X0269800Y0114780D02*
X0300885Y0114780D01*
X0302484Y0116379D02*
X0269800Y0116379D01*
X0269800Y0117977D02*
X0320502Y0117977D01*
X0319840Y0116379D02*
X0311516Y0116379D01*
X0313115Y0114780D02*
X0319200Y0114780D01*
X0319200Y0113182D02*
X0314713Y0113182D01*
X0316200Y0111583D02*
X0319200Y0111583D01*
X0319594Y0109985D02*
X0316200Y0109985D01*
X0316200Y0108386D02*
X0320256Y0108386D01*
X0320009Y0106788D02*
X0316200Y0106788D01*
X0316200Y0105189D02*
X0319347Y0105189D01*
X0319200Y0103591D02*
X0315717Y0103591D01*
X0314118Y0101992D02*
X0319200Y0101992D01*
X0319424Y0100394D02*
X0312520Y0100394D01*
X0310921Y0098795D02*
X0320086Y0098795D01*
X0342391Y0076416D02*
X0345200Y0076416D01*
X0345200Y0078014D02*
X0343590Y0078014D01*
X0344252Y0079613D02*
X0345200Y0079613D01*
X0345200Y0081211D02*
X0344800Y0081211D01*
X0344800Y0082810D02*
X0345200Y0082810D01*
X0345200Y0084408D02*
X0344800Y0084408D01*
X0345200Y0086007D02*
X0344314Y0086007D01*
X0343652Y0087605D02*
X0345200Y0087605D01*
X0345200Y0089204D02*
X0344083Y0089204D01*
X0344745Y0090802D02*
X0345200Y0090802D01*
X0345200Y0092401D02*
X0344800Y0092401D01*
X0344800Y0094000D02*
X0345200Y0094000D01*
X0345200Y0095598D02*
X0344483Y0095598D01*
X0343821Y0097197D02*
X0345200Y0097197D01*
X0345200Y0098795D02*
X0343914Y0098795D01*
X0344576Y0100394D02*
X0345200Y0100394D01*
X0345200Y0101992D02*
X0344800Y0101992D01*
X0344800Y0103591D02*
X0345200Y0103591D01*
X0345200Y0105189D02*
X0344653Y0105189D01*
X0345200Y0106788D02*
X0343991Y0106788D01*
X0343744Y0108386D02*
X0345200Y0108386D01*
X0345200Y0109985D02*
X0344406Y0109985D01*
X0344800Y0111583D02*
X0345200Y0111583D01*
X0345200Y0113182D02*
X0344800Y0113182D01*
X0344800Y0114780D02*
X0345200Y0114780D01*
X0345200Y0116379D02*
X0344160Y0116379D01*
X0343498Y0117977D02*
X0345200Y0117977D01*
X0345200Y0119576D02*
X0342168Y0119576D01*
X0340569Y0121174D02*
X0345200Y0121174D01*
X0345200Y0122773D02*
X0287919Y0122773D01*
X0288987Y0124371D02*
X0345200Y0124371D01*
X0345200Y0125970D02*
X0289650Y0125970D01*
X0289800Y0127568D02*
X0345200Y0127568D01*
X0345200Y0129167D02*
X0339562Y0129167D01*
X0341740Y0130765D02*
X0345200Y0130765D01*
X0345200Y0132364D02*
X0343321Y0132364D01*
X0343983Y0133962D02*
X0345200Y0133962D01*
X0345200Y0135561D02*
X0344645Y0135561D01*
X0344800Y0137159D02*
X0345200Y0137159D01*
X0345200Y0138758D02*
X0344800Y0138758D01*
X0344584Y0140356D02*
X0345200Y0140356D01*
X0345200Y0141955D02*
X0343921Y0141955D01*
X0343813Y0143553D02*
X0345200Y0143553D01*
X0345200Y0145152D02*
X0344476Y0145152D01*
X0344800Y0146750D02*
X0345200Y0146750D01*
X0345200Y0148349D02*
X0344800Y0148349D01*
X0344753Y0149947D02*
X0345200Y0149947D01*
X0345200Y0151546D02*
X0344091Y0151546D01*
X0343644Y0153144D02*
X0345200Y0153144D01*
X0345200Y0154743D02*
X0344306Y0154743D01*
X0344800Y0156341D02*
X0345200Y0156341D01*
X0345200Y0157940D02*
X0344800Y0157940D01*
X0344800Y0159538D02*
X0345200Y0159538D01*
X0345200Y0161137D02*
X0344260Y0161137D01*
X0343598Y0162735D02*
X0345200Y0162735D01*
X0345200Y0164334D02*
X0344137Y0164334D01*
X0344799Y0165933D02*
X0345200Y0165933D01*
X0345200Y0167531D02*
X0344800Y0167531D01*
X0344800Y0169130D02*
X0345200Y0169130D01*
X0345200Y0170728D02*
X0344430Y0170728D01*
X0343767Y0172327D02*
X0345200Y0172327D01*
X0345200Y0173925D02*
X0342819Y0173925D01*
X0341220Y0175524D02*
X0345200Y0175524D01*
X0345200Y0177122D02*
X0338307Y0177122D01*
X0337992Y0183516D02*
X0345200Y0183516D01*
X0345200Y0181918D02*
X0324800Y0181918D01*
X0324800Y0183516D02*
X0326008Y0183516D01*
X0324800Y0180319D02*
X0345200Y0180319D01*
X0345200Y0178721D02*
X0324800Y0178721D01*
X0324800Y0177122D02*
X0325693Y0177122D01*
X0341090Y0185115D02*
X0345200Y0185115D01*
X0345200Y0186713D02*
X0342688Y0186713D01*
X0343713Y0188312D02*
X0345200Y0188312D01*
X0345200Y0189910D02*
X0344375Y0189910D01*
X0344800Y0191509D02*
X0345200Y0191509D01*
X0345200Y0193107D02*
X0344800Y0193107D01*
X0344800Y0194706D02*
X0345200Y0194706D01*
X0345200Y0196304D02*
X0344191Y0196304D01*
X0343544Y0197903D02*
X0345200Y0197903D01*
X0345200Y0199501D02*
X0344206Y0199501D01*
X0344800Y0201100D02*
X0345200Y0201100D01*
X0345200Y0202698D02*
X0344800Y0202698D01*
X0344800Y0204297D02*
X0345200Y0204297D01*
X0345200Y0205895D02*
X0344360Y0205895D01*
X0343698Y0207494D02*
X0345200Y0207494D01*
X0345200Y0209092D02*
X0344037Y0209092D01*
X0344699Y0210691D02*
X0345200Y0210691D01*
X0345200Y0212289D02*
X0344800Y0212289D01*
X0344800Y0213888D02*
X0345200Y0213888D01*
X0345200Y0215486D02*
X0344530Y0215486D01*
X0343868Y0217085D02*
X0345200Y0217085D01*
X0345200Y0218683D02*
X0343867Y0218683D01*
X0344529Y0220282D02*
X0345200Y0220282D01*
X0345200Y0221880D02*
X0344800Y0221880D01*
X0344800Y0223479D02*
X0345200Y0223479D01*
X0345200Y0225077D02*
X0344699Y0225077D01*
X0345200Y0226676D02*
X0344037Y0226676D01*
X0343375Y0228274D02*
X0345200Y0228274D01*
X0345200Y0229873D02*
X0341871Y0229873D01*
X0339877Y0231471D02*
X0345200Y0231471D01*
X0345200Y0233070D02*
X0249800Y0233070D01*
X0249800Y0234669D02*
X0323357Y0234669D01*
X0324123Y0231471D02*
X0249800Y0231471D01*
X0249800Y0229873D02*
X0322129Y0229873D01*
X0320625Y0228274D02*
X0249800Y0228274D01*
X0249800Y0226676D02*
X0319963Y0226676D01*
X0319301Y0225077D02*
X0249800Y0225077D01*
X0249800Y0223479D02*
X0319200Y0223479D01*
X0319200Y0221880D02*
X0249800Y0221880D01*
X0249365Y0220282D02*
X0319471Y0220282D01*
X0320133Y0218683D02*
X0248703Y0218683D01*
X0247231Y0217085D02*
X0320132Y0217085D01*
X0319470Y0215486D02*
X0244522Y0215486D01*
X0234200Y0230684D02*
X0234200Y0241333D01*
X0234200Y0244436D01*
X0235387Y0247303D01*
X0237582Y0249497D01*
X0240448Y0250684D01*
X0249469Y0250684D01*
X0249200Y0251333D01*
X0249200Y0255084D01*
X0226867Y0255084D01*
X0227100Y0254214D01*
X0227100Y0251555D01*
X0226412Y0248986D01*
X0225776Y0247884D01*
X0226412Y0246783D01*
X0227100Y0244214D01*
X0227100Y0241555D01*
X0226412Y0238986D01*
X0225082Y0236683D01*
X0223202Y0234802D01*
X0221970Y0234091D01*
X0221974Y0234079D01*
X0222100Y0233286D01*
X0222100Y0233184D01*
X0219823Y0233184D01*
X0218703Y0232884D01*
X0219823Y0232584D01*
X0222100Y0232584D01*
X0222100Y0232483D01*
X0221974Y0231690D01*
X0221970Y0231677D01*
X0223202Y0230966D01*
X0223484Y0230684D01*
X0234200Y0230684D01*
X0234200Y0231471D02*
X0222327Y0231471D01*
X0222970Y0234669D02*
X0234200Y0234669D01*
X0234200Y0236267D02*
X0224666Y0236267D01*
X0225765Y0237866D02*
X0234200Y0237866D01*
X0234200Y0239464D02*
X0226540Y0239464D01*
X0226968Y0241063D02*
X0234200Y0241063D01*
X0234200Y0242661D02*
X0227100Y0242661D01*
X0227088Y0244260D02*
X0234200Y0244260D01*
X0234789Y0245858D02*
X0226659Y0245858D01*
X0226023Y0247457D02*
X0235541Y0247457D01*
X0237140Y0249055D02*
X0226430Y0249055D01*
X0226859Y0250654D02*
X0240374Y0250654D01*
X0249200Y0252252D02*
X0227100Y0252252D01*
X0227100Y0253851D02*
X0249200Y0253851D01*
X0264800Y0261843D02*
X0319200Y0261843D01*
X0319200Y0263442D02*
X0264800Y0263442D01*
X0264550Y0265040D02*
X0319286Y0265040D01*
X0319948Y0266639D02*
X0263888Y0266639D01*
X0262678Y0268237D02*
X0320317Y0268237D01*
X0319655Y0269836D02*
X0260600Y0269836D01*
X0227068Y0271434D02*
X0319200Y0271434D01*
X0319200Y0273033D02*
X0227100Y0273033D01*
X0226988Y0274631D02*
X0319200Y0274631D01*
X0319778Y0276230D02*
X0226560Y0276230D01*
X0225808Y0277828D02*
X0320440Y0277828D01*
X0319825Y0279427D02*
X0226530Y0279427D01*
X0226958Y0281025D02*
X0319200Y0281025D01*
X0319200Y0282624D02*
X0227100Y0282624D01*
X0227098Y0284222D02*
X0319200Y0284222D01*
X0319609Y0285821D02*
X0226669Y0285821D01*
X0226044Y0287419D02*
X0320271Y0287419D01*
X0319994Y0289018D02*
X0226420Y0289018D01*
X0226849Y0290616D02*
X0319332Y0290616D01*
X0319200Y0292215D02*
X0227100Y0292215D01*
X0227100Y0293813D02*
X0319200Y0293813D01*
X0319440Y0295412D02*
X0226779Y0295412D01*
X0226280Y0297010D02*
X0320102Y0297010D01*
X0320865Y0298609D02*
X0225357Y0298609D01*
X0223960Y0300207D02*
X0322464Y0300207D01*
X0324930Y0301806D02*
X0221747Y0301806D01*
X0212253Y0301806D02*
X0194295Y0301806D01*
X0195894Y0300207D02*
X0210040Y0300207D01*
X0208643Y0298609D02*
X0196656Y0298609D01*
X0197100Y0297010D02*
X0207720Y0297010D01*
X0207221Y0295412D02*
X0197100Y0295412D01*
X0197100Y0293813D02*
X0206900Y0293813D01*
X0206900Y0292215D02*
X0197100Y0292215D01*
X0197100Y0290616D02*
X0207151Y0290616D01*
X0207580Y0289018D02*
X0197100Y0289018D01*
X0196763Y0287419D02*
X0207956Y0287419D01*
X0207331Y0285821D02*
X0196669Y0285821D01*
X0197098Y0284222D02*
X0206902Y0284222D01*
X0206900Y0282624D02*
X0197100Y0282624D01*
X0196958Y0281025D02*
X0207042Y0281025D01*
X0207470Y0279427D02*
X0196530Y0279427D01*
X0195808Y0277828D02*
X0208192Y0277828D01*
X0207440Y0276230D02*
X0196560Y0276230D01*
X0196988Y0274631D02*
X0207012Y0274631D01*
X0206900Y0273033D02*
X0197100Y0273033D01*
X0197068Y0271434D02*
X0206932Y0271434D01*
X0207361Y0269836D02*
X0196639Y0269836D01*
X0195979Y0268237D02*
X0208021Y0268237D01*
X0207550Y0266639D02*
X0196450Y0266639D01*
X0196879Y0265040D02*
X0207121Y0265040D01*
X0206900Y0263442D02*
X0197100Y0263442D01*
X0197100Y0261843D02*
X0206900Y0261843D01*
X0207251Y0260245D02*
X0196749Y0260245D01*
X0196216Y0258646D02*
X0207784Y0258646D01*
X0207741Y0257048D02*
X0196259Y0257048D01*
X0196769Y0255449D02*
X0207231Y0255449D01*
X0206900Y0253851D02*
X0197100Y0253851D01*
X0197100Y0252252D02*
X0206900Y0252252D01*
X0207141Y0250654D02*
X0196859Y0250654D01*
X0196430Y0249055D02*
X0207570Y0249055D01*
X0207977Y0247457D02*
X0196023Y0247457D01*
X0196659Y0245858D02*
X0207341Y0245858D01*
X0206912Y0244260D02*
X0197088Y0244260D01*
X0197100Y0242661D02*
X0206900Y0242661D01*
X0207032Y0241063D02*
X0196968Y0241063D01*
X0196540Y0239464D02*
X0207460Y0239464D01*
X0208235Y0237866D02*
X0195787Y0237866D01*
X0196550Y0236267D02*
X0209334Y0236267D01*
X0211030Y0234669D02*
X0196978Y0234669D01*
X0197100Y0233070D02*
X0214604Y0233070D01*
X0211673Y0231471D02*
X0197078Y0231471D01*
X0196649Y0229873D02*
X0209705Y0229873D01*
X0208450Y0228274D02*
X0196001Y0228274D01*
X0195075Y0226676D02*
X0207560Y0226676D01*
X0207131Y0225077D02*
X0193477Y0225077D01*
X0192069Y0223479D02*
X0206900Y0223479D01*
X0206900Y0221880D02*
X0192005Y0221880D01*
X0193886Y0220282D02*
X0207241Y0220282D01*
X0207763Y0218683D02*
X0195314Y0218683D01*
X0196237Y0217085D02*
X0207763Y0217085D01*
X0207241Y0215486D02*
X0196759Y0215486D01*
X0197100Y0213888D02*
X0206900Y0213888D01*
X0206900Y0212289D02*
X0197100Y0212289D01*
X0196869Y0210691D02*
X0207131Y0210691D01*
X0207560Y0209092D02*
X0196440Y0209092D01*
X0196001Y0207494D02*
X0207999Y0207494D01*
X0207350Y0205895D02*
X0196650Y0205895D01*
X0197078Y0204297D02*
X0206922Y0204297D01*
X0206900Y0202698D02*
X0197100Y0202698D01*
X0196978Y0201100D02*
X0207022Y0201100D01*
X0207450Y0199501D02*
X0196550Y0199501D01*
X0195786Y0197903D02*
X0208214Y0197903D01*
X0207460Y0196304D02*
X0196540Y0196304D01*
X0196968Y0194706D02*
X0207032Y0194706D01*
X0206900Y0193107D02*
X0197100Y0193107D01*
X0197088Y0191509D02*
X0206912Y0191509D01*
X0226869Y0210691D02*
X0319301Y0210691D01*
X0319200Y0212289D02*
X0227100Y0212289D01*
X0227100Y0213888D02*
X0319200Y0213888D01*
X0312177Y0209092D02*
X0286823Y0209092D01*
X0288421Y0207494D02*
X0310579Y0207494D01*
X0309805Y0205895D02*
X0289195Y0205895D01*
X0289800Y0204297D02*
X0309200Y0204297D01*
X0309200Y0202698D02*
X0289800Y0202698D01*
X0289800Y0201100D02*
X0309200Y0201100D01*
X0309200Y0199501D02*
X0289800Y0199501D01*
X0289800Y0197903D02*
X0309200Y0197903D01*
X0309200Y0196304D02*
X0289800Y0196304D01*
X0289800Y0194706D02*
X0309200Y0194706D01*
X0309200Y0193107D02*
X0289800Y0193107D01*
X0289800Y0191509D02*
X0309200Y0191509D01*
X0309200Y0189910D02*
X0289800Y0189910D01*
X0289800Y0188312D02*
X0309200Y0188312D01*
X0309200Y0186713D02*
X0289800Y0186713D01*
X0289800Y0185115D02*
X0309200Y0185115D01*
X0309200Y0183516D02*
X0289800Y0183516D01*
X0289800Y0181918D02*
X0309200Y0181918D01*
X0309200Y0180319D02*
X0290280Y0180319D01*
X0290581Y0178721D02*
X0309200Y0178721D01*
X0309200Y0177122D02*
X0290581Y0177122D01*
X0290434Y0149947D02*
X0297800Y0149947D01*
X0297800Y0148349D02*
X0290581Y0148349D01*
X0290581Y0146750D02*
X0297800Y0146750D01*
X0297800Y0145152D02*
X0290156Y0145152D01*
X0289800Y0143553D02*
X0298320Y0143553D01*
X0299919Y0141955D02*
X0289800Y0141955D01*
X0289800Y0140356D02*
X0301517Y0140356D01*
X0303116Y0138758D02*
X0289800Y0138758D01*
X0289800Y0137159D02*
X0319200Y0137159D01*
X0319200Y0138758D02*
X0310884Y0138758D01*
X0312483Y0140356D02*
X0319416Y0140356D01*
X0320079Y0141955D02*
X0314081Y0141955D01*
X0315680Y0143553D02*
X0320187Y0143553D01*
X0319524Y0145152D02*
X0316200Y0145152D01*
X0316200Y0146750D02*
X0319200Y0146750D01*
X0319200Y0148349D02*
X0316200Y0148349D01*
X0316200Y0149947D02*
X0319247Y0149947D01*
X0319355Y0135561D02*
X0289800Y0135561D01*
X0289800Y0133962D02*
X0320017Y0133962D01*
X0320679Y0132364D02*
X0289800Y0132364D01*
X0289800Y0130765D02*
X0322260Y0130765D01*
X0324438Y0129167D02*
X0289800Y0129167D01*
X0286183Y0121174D02*
X0323431Y0121174D01*
X0321832Y0119576D02*
X0269800Y0119576D01*
X0243659Y0095598D02*
X0193785Y0095598D01*
X0192636Y0094449D02*
X0195435Y0097248D01*
X0196950Y0100905D01*
X0196950Y0104864D01*
X0195435Y0108521D01*
X0192636Y0111320D01*
X0188979Y0112834D01*
X0185021Y0112834D01*
X0181364Y0111320D01*
X0178565Y0108521D01*
X0177050Y0104864D01*
X0177050Y0100905D01*
X0178565Y0097248D01*
X0181364Y0094449D01*
X0182050Y0094165D01*
X0182050Y0092884D01*
X0182050Y0090834D01*
X0184950Y0087934D01*
X0187000Y0087934D01*
X0189050Y0087934D01*
X0191950Y0090834D01*
X0191950Y0092884D01*
X0187000Y0092884D01*
X0187000Y0087934D01*
X0187000Y0092884D01*
X0187000Y0092884D01*
X0182050Y0092884D01*
X0187000Y0092884D01*
X0187000Y0092884D01*
X0187000Y0092884D01*
X0191950Y0092884D01*
X0191950Y0094165D01*
X0192636Y0094449D01*
X0191950Y0094000D02*
X0244200Y0094000D01*
X0240000Y0092401D02*
X0239600Y0092401D01*
X0239600Y0093784D02*
X0236422Y0093784D01*
X0235676Y0093666D01*
X0234957Y0093433D01*
X0234284Y0093090D01*
X0233673Y0092646D01*
X0233139Y0092111D01*
X0232695Y0091500D01*
X0232352Y0090827D01*
X0232118Y0090108D01*
X0232000Y0089362D01*
X0232000Y0089184D01*
X0239600Y0089184D01*
X0239600Y0093784D01*
X0239600Y0090802D02*
X0240000Y0090802D01*
X0240000Y0089204D02*
X0239600Y0089204D01*
X0239600Y0088784D02*
X0232000Y0088784D01*
X0232000Y0088607D01*
X0232118Y0087860D01*
X0232352Y0087142D01*
X0232695Y0086469D01*
X0233139Y0085857D01*
X0233673Y0085323D01*
X0234284Y0084879D01*
X0234957Y0084536D01*
X0235676Y0084303D01*
X0236422Y0084184D01*
X0239600Y0084184D01*
X0239600Y0088784D01*
X0239600Y0087605D02*
X0240000Y0087605D01*
X0240000Y0086007D02*
X0239600Y0086007D01*
X0239600Y0084408D02*
X0240000Y0084408D01*
X0244200Y0082810D02*
X0099800Y0082810D01*
X0099800Y0084408D02*
X0129750Y0084408D01*
X0130076Y0084303D02*
X0130822Y0084184D01*
X0134000Y0084184D01*
X0134000Y0088784D01*
X0134400Y0088784D01*
X0134400Y0084184D01*
X0137578Y0084184D01*
X0138324Y0084303D01*
X0139043Y0084536D01*
X0139716Y0084879D01*
X0140327Y0085323D01*
X0140861Y0085857D01*
X0141305Y0086469D01*
X0141648Y0087142D01*
X0141882Y0087860D01*
X0142000Y0088607D01*
X0142000Y0088784D01*
X0134400Y0088784D01*
X0134400Y0089184D01*
X0142000Y0089184D01*
X0142000Y0089362D01*
X0141882Y0090108D01*
X0141648Y0090827D01*
X0141305Y0091500D01*
X0140861Y0092111D01*
X0140327Y0092646D01*
X0139716Y0093090D01*
X0139043Y0093433D01*
X0138324Y0093666D01*
X0137578Y0093784D01*
X0134400Y0093784D01*
X0134400Y0089184D01*
X0134000Y0089184D01*
X0134000Y0088784D01*
X0126400Y0088784D01*
X0126400Y0088607D01*
X0126518Y0087860D01*
X0126752Y0087142D01*
X0127095Y0086469D01*
X0127539Y0085857D01*
X0128073Y0085323D01*
X0128684Y0084879D01*
X0129357Y0084536D01*
X0130076Y0084303D01*
X0127430Y0086007D02*
X0099800Y0086007D01*
X0099800Y0087605D02*
X0126601Y0087605D01*
X0126400Y0089184D02*
X0134000Y0089184D01*
X0134000Y0093784D01*
X0130822Y0093784D01*
X0130076Y0093666D01*
X0129357Y0093433D01*
X0128684Y0093090D01*
X0128073Y0092646D01*
X0127539Y0092111D01*
X0127095Y0091500D01*
X0126752Y0090827D01*
X0126518Y0090108D01*
X0126400Y0089362D01*
X0126400Y0089184D01*
X0126400Y0089204D02*
X0110320Y0089204D01*
X0111918Y0090802D02*
X0126744Y0090802D01*
X0127828Y0092401D02*
X0111950Y0092401D01*
X0111950Y0094000D02*
X0182050Y0094000D01*
X0182050Y0092401D02*
X0166172Y0092401D01*
X0165927Y0092646D02*
X0165316Y0093090D01*
X0164643Y0093433D01*
X0163924Y0093666D01*
X0163178Y0093784D01*
X0160000Y0093784D01*
X0160000Y0089184D01*
X0167600Y0089184D01*
X0167600Y0089362D01*
X0167482Y0090108D01*
X0167248Y0090827D01*
X0166905Y0091500D01*
X0166461Y0092111D01*
X0165927Y0092646D01*
X0167256Y0090802D02*
X0182082Y0090802D01*
X0183680Y0089204D02*
X0167600Y0089204D01*
X0167600Y0088784D02*
X0160000Y0088784D01*
X0160000Y0084184D01*
X0163178Y0084184D01*
X0163924Y0084303D01*
X0164643Y0084536D01*
X0165316Y0084879D01*
X0165927Y0085323D01*
X0166461Y0085857D01*
X0166905Y0086469D01*
X0167248Y0087142D01*
X0167482Y0087860D01*
X0167600Y0088607D01*
X0167600Y0088784D01*
X0167399Y0087605D02*
X0206601Y0087605D01*
X0206518Y0087860D02*
X0206752Y0087142D01*
X0207095Y0086469D01*
X0207539Y0085857D01*
X0208073Y0085323D01*
X0208684Y0084879D01*
X0209357Y0084536D01*
X0210076Y0084303D01*
X0210822Y0084184D01*
X0214000Y0084184D01*
X0214000Y0088784D01*
X0214400Y0088784D01*
X0214400Y0084184D01*
X0217578Y0084184D01*
X0218324Y0084303D01*
X0219043Y0084536D01*
X0219716Y0084879D01*
X0220327Y0085323D01*
X0220861Y0085857D01*
X0221305Y0086469D01*
X0221648Y0087142D01*
X0221882Y0087860D01*
X0222000Y0088607D01*
X0222000Y0088784D01*
X0214400Y0088784D01*
X0214400Y0089184D01*
X0222000Y0089184D01*
X0222000Y0089362D01*
X0221882Y0090108D01*
X0221648Y0090827D01*
X0221305Y0091500D01*
X0220861Y0092111D01*
X0220327Y0092646D01*
X0219716Y0093090D01*
X0219043Y0093433D01*
X0218324Y0093666D01*
X0217578Y0093784D01*
X0214400Y0093784D01*
X0214400Y0089184D01*
X0214000Y0089184D01*
X0214000Y0088784D01*
X0206400Y0088784D01*
X0206400Y0088607D01*
X0206518Y0087860D01*
X0206400Y0089184D02*
X0214000Y0089184D01*
X0214000Y0093784D01*
X0210822Y0093784D01*
X0210076Y0093666D01*
X0209357Y0093433D01*
X0208684Y0093090D01*
X0208073Y0092646D01*
X0207539Y0092111D01*
X0207095Y0091500D01*
X0206752Y0090827D01*
X0206518Y0090108D01*
X0206400Y0089362D01*
X0206400Y0089184D01*
X0206400Y0089204D02*
X0190320Y0089204D01*
X0191918Y0090802D02*
X0206744Y0090802D01*
X0207828Y0092401D02*
X0191950Y0092401D01*
X0195384Y0097197D02*
X0208738Y0097197D01*
X0205330Y0098795D02*
X0196076Y0098795D01*
X0196738Y0100394D02*
X0203732Y0100394D01*
X0202578Y0101992D02*
X0196950Y0101992D01*
X0196950Y0103591D02*
X0201915Y0103591D01*
X0201400Y0105189D02*
X0196815Y0105189D01*
X0196153Y0106788D02*
X0201400Y0106788D01*
X0201400Y0108386D02*
X0195491Y0108386D01*
X0193971Y0109985D02*
X0201918Y0109985D01*
X0202580Y0111583D02*
X0192000Y0111583D01*
X0191907Y0114780D02*
X0205337Y0114780D01*
X0203738Y0113182D02*
X0170262Y0113182D01*
X0171420Y0111583D02*
X0182000Y0111583D01*
X0180029Y0109985D02*
X0172082Y0109985D01*
X0172600Y0108386D02*
X0178509Y0108386D01*
X0177847Y0106788D02*
X0172600Y0106788D01*
X0172600Y0105189D02*
X0177185Y0105189D01*
X0177050Y0103591D02*
X0172085Y0103591D01*
X0171422Y0101992D02*
X0177050Y0101992D01*
X0177262Y0100394D02*
X0170268Y0100394D01*
X0168670Y0098795D02*
X0177924Y0098795D01*
X0178616Y0097197D02*
X0165262Y0097197D01*
X0159600Y0093784D02*
X0156422Y0093784D01*
X0155676Y0093666D01*
X0154957Y0093433D01*
X0154284Y0093090D01*
X0153673Y0092646D01*
X0153139Y0092111D01*
X0152695Y0091500D01*
X0152352Y0090827D01*
X0152118Y0090108D01*
X0152000Y0089362D01*
X0152000Y0089184D01*
X0159600Y0089184D01*
X0159600Y0088784D01*
X0160000Y0088784D01*
X0160000Y0089184D01*
X0159600Y0089184D01*
X0159600Y0093784D01*
X0159600Y0092401D02*
X0160000Y0092401D01*
X0160000Y0090802D02*
X0159600Y0090802D01*
X0159600Y0089204D02*
X0160000Y0089204D01*
X0159600Y0088784D02*
X0159600Y0084184D01*
X0156422Y0084184D01*
X0155676Y0084303D01*
X0154957Y0084536D01*
X0154284Y0084879D01*
X0153673Y0085323D01*
X0153139Y0085857D01*
X0152695Y0086469D01*
X0152352Y0087142D01*
X0152118Y0087860D01*
X0152000Y0088607D01*
X0152000Y0088784D01*
X0159600Y0088784D01*
X0159600Y0087605D02*
X0160000Y0087605D01*
X0160000Y0086007D02*
X0159600Y0086007D01*
X0159600Y0084408D02*
X0160000Y0084408D01*
X0164250Y0084408D02*
X0209750Y0084408D01*
X0207430Y0086007D02*
X0166570Y0086007D01*
X0157862Y0079613D02*
X0099800Y0079613D01*
X0099800Y0081211D02*
X0244200Y0081211D01*
X0235350Y0084408D02*
X0218650Y0084408D01*
X0220970Y0086007D02*
X0233030Y0086007D01*
X0232201Y0087605D02*
X0221799Y0087605D01*
X0222000Y0089204D02*
X0232000Y0089204D01*
X0232344Y0090802D02*
X0221656Y0090802D01*
X0220572Y0092401D02*
X0233428Y0092401D01*
X0234338Y0097197D02*
X0219662Y0097197D01*
X0223070Y0098795D02*
X0230930Y0098795D01*
X0214400Y0092401D02*
X0214000Y0092401D01*
X0214000Y0090802D02*
X0214400Y0090802D01*
X0214400Y0089204D02*
X0214000Y0089204D01*
X0214000Y0087605D02*
X0214400Y0087605D01*
X0214400Y0086007D02*
X0214000Y0086007D01*
X0214000Y0084408D02*
X0214400Y0084408D01*
X0187000Y0089204D02*
X0187000Y0089204D01*
X0187000Y0090802D02*
X0187000Y0090802D01*
X0187000Y0092401D02*
X0187000Y0092401D01*
X0180215Y0095598D02*
X0113785Y0095598D01*
X0115384Y0097197D02*
X0128738Y0097197D01*
X0125330Y0098795D02*
X0116076Y0098795D01*
X0116738Y0100394D02*
X0123732Y0100394D01*
X0122578Y0101992D02*
X0116950Y0101992D01*
X0116950Y0103591D02*
X0121915Y0103591D01*
X0121400Y0105189D02*
X0116815Y0105189D01*
X0116153Y0106788D02*
X0121400Y0106788D01*
X0121400Y0108386D02*
X0115491Y0108386D01*
X0113971Y0109985D02*
X0121918Y0109985D01*
X0122580Y0111583D02*
X0112000Y0111583D01*
X0111907Y0114780D02*
X0125337Y0114780D01*
X0123738Y0113182D02*
X0099800Y0113182D01*
X0099800Y0114780D02*
X0102093Y0114780D01*
X0100495Y0116379D02*
X0099800Y0116379D01*
X0099800Y0111583D02*
X0102000Y0111583D01*
X0100029Y0109985D02*
X0099800Y0109985D01*
X0113505Y0116379D02*
X0128754Y0116379D01*
X0137800Y0119576D02*
X0116200Y0119576D01*
X0116200Y0121174D02*
X0137800Y0121174D01*
X0137800Y0122773D02*
X0116200Y0122773D01*
X0116200Y0124371D02*
X0137800Y0124371D01*
X0138896Y0117977D02*
X0115104Y0117977D01*
X0139646Y0116379D02*
X0140495Y0116379D01*
X0144159Y0113684D02*
X0149841Y0113684D01*
X0148492Y0112336D01*
X0147000Y0108734D01*
X0147000Y0104835D01*
X0147000Y0108734D01*
X0145508Y0112336D01*
X0144159Y0113684D01*
X0144662Y0113182D02*
X0149338Y0113182D01*
X0148180Y0111583D02*
X0145820Y0111583D01*
X0146482Y0109985D02*
X0147518Y0109985D01*
X0147000Y0108386D02*
X0147000Y0108386D01*
X0147000Y0106788D02*
X0147000Y0106788D01*
X0147000Y0105189D02*
X0147000Y0105189D01*
X0146485Y0103591D02*
X0147515Y0103591D01*
X0148178Y0101992D02*
X0145822Y0101992D01*
X0144668Y0100394D02*
X0149332Y0100394D01*
X0150930Y0098795D02*
X0143070Y0098795D01*
X0139662Y0097197D02*
X0154338Y0097197D01*
X0153428Y0092401D02*
X0140572Y0092401D01*
X0141656Y0090802D02*
X0152344Y0090802D01*
X0152000Y0089204D02*
X0142000Y0089204D01*
X0141799Y0087605D02*
X0152201Y0087605D01*
X0153030Y0086007D02*
X0140970Y0086007D01*
X0138650Y0084408D02*
X0155350Y0084408D01*
X0156099Y0078014D02*
X0099800Y0078014D01*
X0099800Y0076416D02*
X0155020Y0076416D01*
X0154358Y0074817D02*
X0099800Y0074817D01*
X0099800Y0073219D02*
X0154200Y0073219D01*
X0154200Y0071620D02*
X0099800Y0071620D01*
X0099800Y0070022D02*
X0154200Y0070022D01*
X0154200Y0068423D02*
X0099800Y0068423D01*
X0099800Y0066825D02*
X0102930Y0066825D01*
X0101331Y0065226D02*
X0099800Y0065226D01*
X0111070Y0066825D02*
X0142930Y0066825D01*
X0141331Y0065226D02*
X0112669Y0065226D01*
X0114267Y0063628D02*
X0139733Y0063628D01*
X0138134Y0062029D02*
X0115866Y0062029D01*
X0116200Y0060431D02*
X0137800Y0060431D01*
X0137800Y0058832D02*
X0116200Y0058832D01*
X0116200Y0057234D02*
X0137800Y0057234D01*
X0137800Y0055635D02*
X0116200Y0055635D01*
X0116163Y0054037D02*
X0137837Y0054037D01*
X0139435Y0052438D02*
X0114565Y0052438D01*
X0112966Y0050840D02*
X0127453Y0050840D01*
X0124798Y0049241D02*
X0111368Y0049241D01*
X0113246Y0030059D02*
X0180754Y0030059D01*
X0182050Y0028461D02*
X0164557Y0028461D01*
X0164643Y0028433D02*
X0163924Y0028666D01*
X0163178Y0028784D01*
X0160000Y0028784D01*
X0160000Y0024184D01*
X0167600Y0024184D01*
X0167600Y0024362D01*
X0167482Y0025108D01*
X0167248Y0025827D01*
X0166905Y0026500D01*
X0166461Y0027111D01*
X0165927Y0027646D01*
X0165316Y0028090D01*
X0164643Y0028433D01*
X0166642Y0026862D02*
X0182050Y0026862D01*
X0182620Y0025264D02*
X0167431Y0025264D01*
X0167600Y0023784D02*
X0160000Y0023784D01*
X0160000Y0019184D01*
X0163178Y0019184D01*
X0163924Y0019303D01*
X0164643Y0019536D01*
X0165316Y0019879D01*
X0165927Y0020323D01*
X0166461Y0020857D01*
X0166905Y0021469D01*
X0167248Y0022142D01*
X0167482Y0022860D01*
X0167600Y0023607D01*
X0167600Y0023784D01*
X0167600Y0023665D02*
X0184219Y0023665D01*
X0187000Y0023665D02*
X0187000Y0023665D01*
X0187000Y0025264D02*
X0187000Y0025264D01*
X0187000Y0026862D02*
X0187000Y0026862D01*
X0189781Y0023665D02*
X0206400Y0023665D01*
X0206400Y0023607D02*
X0206518Y0022860D01*
X0206752Y0022142D01*
X0207095Y0021469D01*
X0207539Y0020857D01*
X0208073Y0020323D01*
X0208684Y0019879D01*
X0209357Y0019536D01*
X0210076Y0019303D01*
X0210822Y0019184D01*
X0214000Y0019184D01*
X0214000Y0023784D01*
X0214400Y0023784D01*
X0214400Y0019184D01*
X0217578Y0019184D01*
X0218324Y0019303D01*
X0219043Y0019536D01*
X0219716Y0019879D01*
X0220327Y0020323D01*
X0220861Y0020857D01*
X0221305Y0021469D01*
X0221648Y0022142D01*
X0221882Y0022860D01*
X0222000Y0023607D01*
X0222000Y0023784D01*
X0214400Y0023784D01*
X0214400Y0024184D01*
X0222000Y0024184D01*
X0222000Y0024362D01*
X0221882Y0025108D01*
X0221648Y0025827D01*
X0221305Y0026500D01*
X0220861Y0027111D01*
X0220327Y0027646D01*
X0219716Y0028090D01*
X0219043Y0028433D01*
X0218324Y0028666D01*
X0217578Y0028784D01*
X0214400Y0028784D01*
X0214400Y0024184D01*
X0214000Y0024184D01*
X0214000Y0023784D01*
X0206400Y0023784D01*
X0206400Y0023607D01*
X0206400Y0024184D02*
X0214000Y0024184D01*
X0214000Y0028784D01*
X0210822Y0028784D01*
X0210076Y0028666D01*
X0209357Y0028433D01*
X0208684Y0028090D01*
X0208073Y0027646D01*
X0207539Y0027111D01*
X0207095Y0026500D01*
X0206752Y0025827D01*
X0206518Y0025108D01*
X0206400Y0024362D01*
X0206400Y0024184D01*
X0206569Y0025264D02*
X0191380Y0025264D01*
X0191950Y0026862D02*
X0207358Y0026862D01*
X0209443Y0028461D02*
X0191950Y0028461D01*
X0193246Y0030059D02*
X0262800Y0030059D01*
X0263413Y0028461D02*
X0244557Y0028461D01*
X0244643Y0028433D02*
X0243924Y0028666D01*
X0243178Y0028784D01*
X0240000Y0028784D01*
X0240000Y0024184D01*
X0247600Y0024184D01*
X0247600Y0024362D01*
X0247482Y0025108D01*
X0247248Y0025827D01*
X0246905Y0026500D01*
X0246461Y0027111D01*
X0245927Y0027646D01*
X0245316Y0028090D01*
X0244643Y0028433D01*
X0246642Y0026862D02*
X0265012Y0026862D01*
X0266610Y0025264D02*
X0247431Y0025264D01*
X0247600Y0023784D02*
X0240000Y0023784D01*
X0240000Y0019184D01*
X0243178Y0019184D01*
X0243924Y0019303D01*
X0244643Y0019536D01*
X0245316Y0019879D01*
X0245927Y0020323D01*
X0246461Y0020857D01*
X0246905Y0021469D01*
X0247248Y0022142D01*
X0247482Y0022860D01*
X0247600Y0023607D01*
X0247600Y0023784D01*
X0247600Y0023665D02*
X0345200Y0023665D01*
X0345200Y0022066D02*
X0247210Y0022066D01*
X0246072Y0020468D02*
X0345200Y0020468D01*
X0345200Y0025264D02*
X0292390Y0025264D01*
X0293988Y0026862D02*
X0345200Y0026862D01*
X0345200Y0028461D02*
X0295587Y0028461D01*
X0297000Y0030059D02*
X0297000Y0030059D01*
X0297000Y0031658D02*
X0297000Y0031658D01*
X0297000Y0032884D02*
X0297000Y0032884D01*
X0297000Y0033256D02*
X0297000Y0033256D01*
X0297000Y0034855D02*
X0297000Y0034855D01*
X0297000Y0036453D02*
X0297000Y0036453D01*
X0299371Y0036453D02*
X0345200Y0036453D01*
X0345200Y0034855D02*
X0300969Y0034855D01*
X0301200Y0033256D02*
X0345200Y0033256D01*
X0345200Y0031658D02*
X0301200Y0031658D01*
X0300114Y0030059D02*
X0345200Y0030059D01*
X0345200Y0038052D02*
X0294843Y0038052D01*
X0293245Y0039650D02*
X0345200Y0039650D01*
X0345200Y0041249D02*
X0291646Y0041249D01*
X0280012Y0026862D02*
X0278988Y0026862D01*
X0277390Y0025264D02*
X0281610Y0025264D01*
X0252600Y0042847D02*
X0345200Y0042847D01*
X0345200Y0044446D02*
X0252305Y0044446D01*
X0251643Y0046044D02*
X0345200Y0046044D01*
X0345200Y0047643D02*
X0250801Y0047643D01*
X0249800Y0049241D02*
X0345200Y0049241D01*
X0345200Y0073219D02*
X0337274Y0073219D01*
X0340792Y0074817D02*
X0345200Y0074817D01*
X0240000Y0028461D02*
X0239600Y0028461D01*
X0239600Y0028784D02*
X0236422Y0028784D01*
X0235676Y0028666D01*
X0234957Y0028433D01*
X0234284Y0028090D01*
X0233673Y0027646D01*
X0233139Y0027111D01*
X0232695Y0026500D01*
X0232352Y0025827D01*
X0232118Y0025108D01*
X0232000Y0024362D01*
X0232000Y0024184D01*
X0239600Y0024184D01*
X0239600Y0023784D01*
X0240000Y0023784D01*
X0240000Y0024184D01*
X0239600Y0024184D01*
X0239600Y0028784D01*
X0239600Y0026862D02*
X0240000Y0026862D01*
X0240000Y0025264D02*
X0239600Y0025264D01*
X0239600Y0023784D02*
X0232000Y0023784D01*
X0232000Y0023607D01*
X0232118Y0022860D01*
X0232352Y0022142D01*
X0232695Y0021469D01*
X0233139Y0020857D01*
X0233673Y0020323D01*
X0234284Y0019879D01*
X0234957Y0019536D01*
X0235676Y0019303D01*
X0236422Y0019184D01*
X0239600Y0019184D01*
X0239600Y0023784D01*
X0239600Y0023665D02*
X0240000Y0023665D01*
X0240000Y0022066D02*
X0239600Y0022066D01*
X0239600Y0020468D02*
X0240000Y0020468D01*
X0233528Y0020468D02*
X0220472Y0020468D01*
X0221610Y0022066D02*
X0232390Y0022066D01*
X0232000Y0023665D02*
X0222000Y0023665D01*
X0221831Y0025264D02*
X0232169Y0025264D01*
X0232958Y0026862D02*
X0221042Y0026862D01*
X0218957Y0028461D02*
X0235043Y0028461D01*
X0231780Y0033256D02*
X0222220Y0033256D01*
X0224130Y0034855D02*
X0229870Y0034855D01*
X0228401Y0036453D02*
X0225599Y0036453D01*
X0226261Y0038052D02*
X0227739Y0038052D01*
X0227077Y0039650D02*
X0226923Y0039650D01*
X0227000Y0039835D02*
X0227000Y0043734D01*
X0228492Y0047336D01*
X0229841Y0048684D01*
X0224159Y0048684D01*
X0225508Y0047336D01*
X0227000Y0043734D01*
X0227000Y0039835D01*
X0227000Y0041249D02*
X0227000Y0041249D01*
X0227000Y0042847D02*
X0227000Y0042847D01*
X0226705Y0044446D02*
X0227295Y0044446D01*
X0227957Y0046044D02*
X0226043Y0046044D01*
X0225201Y0047643D02*
X0228799Y0047643D01*
X0221034Y0050840D02*
X0220947Y0050840D01*
X0214400Y0028461D02*
X0214000Y0028461D01*
X0214000Y0026862D02*
X0214400Y0026862D01*
X0214400Y0025264D02*
X0214000Y0025264D01*
X0214000Y0023665D02*
X0214400Y0023665D01*
X0214400Y0022066D02*
X0214000Y0022066D01*
X0214000Y0020468D02*
X0214400Y0020468D01*
X0207928Y0020468D02*
X0166072Y0020468D01*
X0167210Y0022066D02*
X0206790Y0022066D01*
X0160000Y0022066D02*
X0159600Y0022066D01*
X0159600Y0020468D02*
X0160000Y0020468D01*
X0159600Y0019184D02*
X0156422Y0019184D01*
X0155676Y0019303D01*
X0154957Y0019536D01*
X0154284Y0019879D01*
X0153673Y0020323D01*
X0153139Y0020857D01*
X0152695Y0021469D01*
X0152352Y0022142D01*
X0152118Y0022860D01*
X0152000Y0023607D01*
X0152000Y0023784D01*
X0159600Y0023784D01*
X0160000Y0023784D01*
X0160000Y0024184D01*
X0159600Y0024184D01*
X0159600Y0023784D01*
X0159600Y0019184D01*
X0159600Y0023665D02*
X0160000Y0023665D01*
X0159600Y0024184D02*
X0152000Y0024184D01*
X0152000Y0024362D01*
X0152118Y0025108D01*
X0152352Y0025827D01*
X0152695Y0026500D01*
X0153139Y0027111D01*
X0153673Y0027646D01*
X0154284Y0028090D01*
X0154957Y0028433D01*
X0155676Y0028666D01*
X0156422Y0028784D01*
X0159600Y0028784D01*
X0159600Y0024184D01*
X0159600Y0025264D02*
X0160000Y0025264D01*
X0160000Y0026862D02*
X0159600Y0026862D01*
X0159600Y0028461D02*
X0160000Y0028461D01*
X0155043Y0028461D02*
X0138957Y0028461D01*
X0141042Y0026862D02*
X0152958Y0026862D01*
X0152169Y0025264D02*
X0141831Y0025264D01*
X0142000Y0023665D02*
X0152000Y0023665D01*
X0152390Y0022066D02*
X0141610Y0022066D01*
X0140472Y0020468D02*
X0153528Y0020468D01*
X0151780Y0033256D02*
X0142220Y0033256D01*
X0144130Y0034855D02*
X0149870Y0034855D01*
X0148401Y0036453D02*
X0145599Y0036453D01*
X0146261Y0038052D02*
X0147739Y0038052D01*
X0147077Y0039650D02*
X0146923Y0039650D01*
X0147000Y0039835D02*
X0147000Y0043734D01*
X0148492Y0047336D01*
X0149841Y0048684D01*
X0144159Y0048684D01*
X0145508Y0047336D01*
X0147000Y0043734D01*
X0147000Y0039835D01*
X0147000Y0041249D02*
X0147000Y0041249D01*
X0147000Y0042847D02*
X0147000Y0042847D01*
X0146705Y0044446D02*
X0147295Y0044446D01*
X0147957Y0046044D02*
X0146043Y0046044D01*
X0145201Y0047643D02*
X0148799Y0047643D01*
X0141034Y0050840D02*
X0140947Y0050840D01*
X0152669Y0065226D02*
X0154200Y0065226D01*
X0154200Y0066825D02*
X0151070Y0066825D01*
X0134400Y0084408D02*
X0134000Y0084408D01*
X0134000Y0086007D02*
X0134400Y0086007D01*
X0134400Y0087605D02*
X0134000Y0087605D01*
X0134000Y0089204D02*
X0134400Y0089204D01*
X0134400Y0090802D02*
X0134000Y0090802D01*
X0134000Y0092401D02*
X0134400Y0092401D01*
X0107000Y0092401D02*
X0107000Y0092401D01*
X0107000Y0090802D02*
X0107000Y0090802D01*
X0107000Y0089204D02*
X0107000Y0089204D01*
X0103680Y0089204D02*
X0099800Y0089204D01*
X0099800Y0090802D02*
X0102082Y0090802D01*
X0102050Y0092401D02*
X0099800Y0092401D01*
X0099800Y0094000D02*
X0102050Y0094000D01*
X0100215Y0095598D02*
X0099800Y0095598D01*
X0084200Y0095598D02*
X0033785Y0095598D01*
X0032636Y0094449D02*
X0035435Y0097248D01*
X0036950Y0100905D01*
X0036950Y0104864D01*
X0035435Y0108521D01*
X0032636Y0111320D01*
X0028979Y0112834D01*
X0025021Y0112834D01*
X0021364Y0111320D01*
X0018565Y0108521D01*
X0017050Y0104864D01*
X0017050Y0100905D01*
X0018565Y0097248D01*
X0021364Y0094449D01*
X0022050Y0094165D01*
X0022050Y0092884D01*
X0022050Y0090834D01*
X0024950Y0087934D01*
X0027000Y0087934D01*
X0029050Y0087934D01*
X0031950Y0090834D01*
X0031950Y0092884D01*
X0027000Y0092884D01*
X0027000Y0087934D01*
X0027000Y0092884D01*
X0027000Y0092884D01*
X0022050Y0092884D01*
X0027000Y0092884D01*
X0027000Y0092884D01*
X0027000Y0092884D01*
X0031950Y0092884D01*
X0031950Y0094165D01*
X0032636Y0094449D01*
X0031950Y0094000D02*
X0084200Y0094000D01*
X0080000Y0092401D02*
X0079600Y0092401D01*
X0079600Y0093784D02*
X0076422Y0093784D01*
X0075676Y0093666D01*
X0074957Y0093433D01*
X0074284Y0093090D01*
X0073673Y0092646D01*
X0073139Y0092111D01*
X0072695Y0091500D01*
X0072352Y0090827D01*
X0072118Y0090108D01*
X0072000Y0089362D01*
X0072000Y0089184D01*
X0079600Y0089184D01*
X0079600Y0093784D01*
X0079600Y0090802D02*
X0080000Y0090802D01*
X0080000Y0089204D02*
X0079600Y0089204D01*
X0079600Y0088784D02*
X0072000Y0088784D01*
X0072000Y0088607D01*
X0072118Y0087860D01*
X0072352Y0087142D01*
X0072695Y0086469D01*
X0073139Y0085857D01*
X0073673Y0085323D01*
X0074284Y0084879D01*
X0074957Y0084536D01*
X0075676Y0084303D01*
X0076422Y0084184D01*
X0079600Y0084184D01*
X0079600Y0088784D01*
X0079600Y0087605D02*
X0080000Y0087605D01*
X0080000Y0086007D02*
X0079600Y0086007D01*
X0079600Y0084408D02*
X0080000Y0084408D01*
X0084200Y0082810D02*
X0008800Y0082810D01*
X0008800Y0084408D02*
X0049750Y0084408D01*
X0050076Y0084303D02*
X0050822Y0084184D01*
X0054000Y0084184D01*
X0054000Y0088784D01*
X0054400Y0088784D01*
X0054400Y0084184D01*
X0057578Y0084184D01*
X0058324Y0084303D01*
X0059043Y0084536D01*
X0059716Y0084879D01*
X0060327Y0085323D01*
X0060861Y0085857D01*
X0061305Y0086469D01*
X0061648Y0087142D01*
X0061882Y0087860D01*
X0062000Y0088607D01*
X0062000Y0088784D01*
X0054400Y0088784D01*
X0054400Y0089184D01*
X0062000Y0089184D01*
X0062000Y0089362D01*
X0061882Y0090108D01*
X0061648Y0090827D01*
X0061305Y0091500D01*
X0060861Y0092111D01*
X0060327Y0092646D01*
X0059716Y0093090D01*
X0059043Y0093433D01*
X0058324Y0093666D01*
X0057578Y0093784D01*
X0054400Y0093784D01*
X0054400Y0089184D01*
X0054000Y0089184D01*
X0054000Y0088784D01*
X0046400Y0088784D01*
X0046400Y0088607D01*
X0046518Y0087860D01*
X0046752Y0087142D01*
X0047095Y0086469D01*
X0047539Y0085857D01*
X0048073Y0085323D01*
X0048684Y0084879D01*
X0049357Y0084536D01*
X0050076Y0084303D01*
X0047430Y0086007D02*
X0008800Y0086007D01*
X0008800Y0087605D02*
X0046601Y0087605D01*
X0046400Y0089184D02*
X0054000Y0089184D01*
X0054000Y0093784D01*
X0050822Y0093784D01*
X0050076Y0093666D01*
X0049357Y0093433D01*
X0048684Y0093090D01*
X0048073Y0092646D01*
X0047539Y0092111D01*
X0047095Y0091500D01*
X0046752Y0090827D01*
X0046518Y0090108D01*
X0046400Y0089362D01*
X0046400Y0089184D01*
X0046400Y0089204D02*
X0030320Y0089204D01*
X0031918Y0090802D02*
X0046744Y0090802D01*
X0047828Y0092401D02*
X0031950Y0092401D01*
X0035384Y0097197D02*
X0048738Y0097197D01*
X0045330Y0098795D02*
X0036076Y0098795D01*
X0036738Y0100394D02*
X0043732Y0100394D01*
X0042578Y0101992D02*
X0036950Y0101992D01*
X0036950Y0103591D02*
X0041915Y0103591D01*
X0041400Y0105189D02*
X0036815Y0105189D01*
X0036153Y0106788D02*
X0041400Y0106788D01*
X0041400Y0108386D02*
X0035491Y0108386D01*
X0033971Y0109985D02*
X0041918Y0109985D01*
X0042580Y0111583D02*
X0032000Y0111583D01*
X0030811Y0113684D02*
X0036200Y0119074D01*
X0036200Y0126695D01*
X0030811Y0132084D01*
X0023189Y0132084D01*
X0017800Y0126695D01*
X0017800Y0119074D01*
X0023189Y0113684D01*
X0030811Y0113684D01*
X0031907Y0114780D02*
X0045337Y0114780D01*
X0043738Y0113182D02*
X0008800Y0113182D01*
X0008800Y0114780D02*
X0022093Y0114780D01*
X0020495Y0116379D02*
X0008800Y0116379D01*
X0008800Y0117977D02*
X0018896Y0117977D01*
X0017800Y0119576D02*
X0008800Y0119576D01*
X0008800Y0121174D02*
X0017800Y0121174D01*
X0017800Y0122773D02*
X0008800Y0122773D01*
X0008800Y0124371D02*
X0017800Y0124371D01*
X0017800Y0125970D02*
X0008800Y0125970D01*
X0008800Y0127568D02*
X0018673Y0127568D01*
X0020272Y0129167D02*
X0008800Y0129167D01*
X0008800Y0130765D02*
X0021870Y0130765D01*
X0032130Y0130765D02*
X0061870Y0130765D01*
X0060272Y0129167D02*
X0033728Y0129167D01*
X0035327Y0127568D02*
X0058673Y0127568D01*
X0057800Y0125970D02*
X0036200Y0125970D01*
X0036200Y0124371D02*
X0057800Y0124371D01*
X0057800Y0122773D02*
X0036200Y0122773D01*
X0036200Y0121174D02*
X0057800Y0121174D01*
X0057800Y0119576D02*
X0036200Y0119576D01*
X0035104Y0117977D02*
X0058896Y0117977D01*
X0059646Y0116379D02*
X0060495Y0116379D01*
X0048754Y0116379D02*
X0033505Y0116379D01*
X0022000Y0111583D02*
X0008800Y0111583D01*
X0008800Y0109985D02*
X0020029Y0109985D01*
X0018509Y0108386D02*
X0008800Y0108386D01*
X0008800Y0106788D02*
X0017847Y0106788D01*
X0017185Y0105189D02*
X0008800Y0105189D01*
X0008800Y0103591D02*
X0017050Y0103591D01*
X0017050Y0101992D02*
X0008800Y0101992D01*
X0008800Y0100394D02*
X0017262Y0100394D01*
X0017924Y0098795D02*
X0008800Y0098795D01*
X0008800Y0097197D02*
X0018616Y0097197D01*
X0020215Y0095598D02*
X0008800Y0095598D01*
X0008800Y0094000D02*
X0022050Y0094000D01*
X0022050Y0092401D02*
X0008800Y0092401D01*
X0008800Y0090802D02*
X0022082Y0090802D01*
X0023680Y0089204D02*
X0008800Y0089204D01*
X0008800Y0081211D02*
X0084200Y0081211D01*
X0084200Y0079613D02*
X0008800Y0079613D01*
X0008800Y0078014D02*
X0084200Y0078014D01*
X0084200Y0076416D02*
X0008800Y0076416D01*
X0008800Y0074817D02*
X0084200Y0074817D01*
X0084200Y0073219D02*
X0008800Y0073219D01*
X0008800Y0071620D02*
X0084200Y0071620D01*
X0084200Y0070022D02*
X0008800Y0070022D01*
X0031070Y0066825D02*
X0062930Y0066825D01*
X0061331Y0065226D02*
X0032669Y0065226D01*
X0034267Y0063628D02*
X0059733Y0063628D01*
X0058134Y0062029D02*
X0035866Y0062029D01*
X0036200Y0060431D02*
X0057800Y0060431D01*
X0057800Y0058832D02*
X0036200Y0058832D01*
X0036200Y0057234D02*
X0057800Y0057234D01*
X0057800Y0055635D02*
X0036200Y0055635D01*
X0036163Y0054037D02*
X0057837Y0054037D01*
X0059435Y0052438D02*
X0034565Y0052438D01*
X0032966Y0050840D02*
X0047453Y0050840D01*
X0044798Y0049241D02*
X0031368Y0049241D01*
X0029442Y0047643D02*
X0043199Y0047643D01*
X0042357Y0046044D02*
X0032912Y0046044D01*
X0034510Y0044446D02*
X0041695Y0044446D01*
X0041400Y0042847D02*
X0035714Y0042847D01*
X0036376Y0041249D02*
X0041400Y0041249D01*
X0041477Y0039650D02*
X0036950Y0039650D01*
X0036950Y0038052D02*
X0042139Y0038052D01*
X0042801Y0036453D02*
X0036950Y0036453D01*
X0036515Y0034855D02*
X0044270Y0034855D01*
X0046180Y0033256D02*
X0035853Y0033256D01*
X0034845Y0031658D02*
X0099155Y0031658D01*
X0100754Y0030059D02*
X0033246Y0030059D01*
X0031950Y0028461D02*
X0049443Y0028461D01*
X0049357Y0028433D02*
X0048684Y0028090D01*
X0048073Y0027646D01*
X0047539Y0027111D01*
X0047095Y0026500D01*
X0046752Y0025827D01*
X0046518Y0025108D01*
X0046400Y0024362D01*
X0046400Y0024184D01*
X0054000Y0024184D01*
X0054000Y0028784D01*
X0050822Y0028784D01*
X0050076Y0028666D01*
X0049357Y0028433D01*
X0047358Y0026862D02*
X0031950Y0026862D01*
X0031380Y0025264D02*
X0046569Y0025264D01*
X0046400Y0023665D02*
X0029781Y0023665D01*
X0022620Y0025264D02*
X0008800Y0025264D01*
X0008800Y0026862D02*
X0022050Y0026862D01*
X0054000Y0026862D02*
X0054400Y0026862D01*
X0054400Y0025264D02*
X0054000Y0025264D01*
X0054000Y0023665D02*
X0054400Y0023665D01*
X0054400Y0022066D02*
X0054000Y0022066D01*
X0054000Y0020468D02*
X0054400Y0020468D01*
X0054400Y0028461D02*
X0054000Y0028461D01*
X0060947Y0050840D02*
X0061034Y0050840D01*
X0058650Y0084408D02*
X0075350Y0084408D01*
X0073030Y0086007D02*
X0060970Y0086007D01*
X0061799Y0087605D02*
X0072201Y0087605D01*
X0072000Y0089204D02*
X0062000Y0089204D01*
X0061656Y0090802D02*
X0072344Y0090802D01*
X0073428Y0092401D02*
X0060572Y0092401D01*
X0059662Y0097197D02*
X0074338Y0097197D01*
X0070930Y0098795D02*
X0063070Y0098795D01*
X0054400Y0092401D02*
X0054000Y0092401D01*
X0054000Y0090802D02*
X0054400Y0090802D01*
X0054400Y0089204D02*
X0054000Y0089204D01*
X0054000Y0087605D02*
X0054400Y0087605D01*
X0054400Y0086007D02*
X0054000Y0086007D01*
X0054000Y0084408D02*
X0054400Y0084408D01*
X0027000Y0089204D02*
X0027000Y0089204D01*
X0027000Y0090802D02*
X0027000Y0090802D01*
X0027000Y0092401D02*
X0027000Y0092401D01*
X0008800Y0132364D02*
X0074200Y0132364D01*
X0074200Y0133962D02*
X0008800Y0133962D01*
X0008800Y0135561D02*
X0074200Y0135561D01*
X0074200Y0137159D02*
X0008800Y0137159D01*
X0008800Y0138758D02*
X0074200Y0138758D01*
X0074200Y0140356D02*
X0008800Y0140356D01*
X0008800Y0141955D02*
X0074200Y0141955D01*
X0074200Y0143553D02*
X0008800Y0143553D01*
X0008800Y0145152D02*
X0074200Y0145152D01*
X0074200Y0146750D02*
X0008800Y0146750D01*
X0008800Y0148349D02*
X0074200Y0148349D01*
X0074200Y0149947D02*
X0008800Y0149947D01*
X0008800Y0151546D02*
X0074200Y0151546D01*
X0074200Y0153144D02*
X0008800Y0153144D01*
X0008800Y0154743D02*
X0074200Y0154743D01*
X0074200Y0156341D02*
X0008800Y0156341D01*
X0008800Y0157940D02*
X0074200Y0157940D01*
X0074200Y0159538D02*
X0008800Y0159538D01*
X0008800Y0161137D02*
X0074200Y0161137D01*
X0074200Y0162735D02*
X0008800Y0162735D01*
X0008800Y0164334D02*
X0074200Y0164334D01*
X0074820Y0165933D02*
X0008800Y0165933D01*
X0008800Y0167531D02*
X0075616Y0167531D01*
X0077214Y0169130D02*
X0008800Y0169130D01*
X0008800Y0170728D02*
X0088894Y0170728D01*
X0086527Y0172327D02*
X0008800Y0172327D01*
X0008800Y0173925D02*
X0085197Y0173925D01*
X0084535Y0175524D02*
X0008800Y0175524D01*
X0008800Y0177122D02*
X0084200Y0177122D01*
X0084200Y0178721D02*
X0008800Y0178721D01*
X0008800Y0180319D02*
X0084200Y0180319D01*
X0084200Y0181918D02*
X0008800Y0181918D01*
X0008800Y0183516D02*
X0084200Y0183516D01*
X0084200Y0185115D02*
X0008800Y0185115D01*
X0008800Y0186713D02*
X0084200Y0186713D01*
X0084200Y0188312D02*
X0008800Y0188312D01*
X0008800Y0189910D02*
X0084200Y0189910D01*
X0084200Y0191509D02*
X0008800Y0191509D01*
X0008800Y0193107D02*
X0084200Y0193107D01*
X0084200Y0194706D02*
X0008800Y0194706D01*
X0008800Y0196304D02*
X0084200Y0196304D01*
X0084200Y0197903D02*
X0008800Y0197903D01*
X0008800Y0199501D02*
X0018630Y0199501D01*
X0016925Y0201100D02*
X0008800Y0201100D01*
X0008800Y0202698D02*
X0015541Y0202698D01*
X0014879Y0204297D02*
X0008800Y0204297D01*
X0008800Y0205895D02*
X0014216Y0205895D01*
X0014200Y0207494D02*
X0008800Y0207494D01*
X0008800Y0209092D02*
X0014200Y0209092D01*
X0014555Y0210691D02*
X0008800Y0210691D01*
X0008800Y0212289D02*
X0015217Y0212289D01*
X0015048Y0213888D02*
X0008800Y0213888D01*
X0008800Y0215486D02*
X0014386Y0215486D01*
X0014200Y0217085D02*
X0008800Y0217085D01*
X0008800Y0218683D02*
X0014200Y0218683D01*
X0014386Y0220282D02*
X0008800Y0220282D01*
X0008800Y0221880D02*
X0015048Y0221880D01*
X0015217Y0223479D02*
X0008800Y0223479D01*
X0008800Y0225077D02*
X0014555Y0225077D01*
X0014200Y0226676D02*
X0008800Y0226676D01*
X0008800Y0228274D02*
X0014200Y0228274D01*
X0014216Y0229873D02*
X0008800Y0229873D01*
X0008800Y0231471D02*
X0014878Y0231471D01*
X0015387Y0233070D02*
X0008800Y0233070D01*
X0008800Y0234669D02*
X0014725Y0234669D01*
X0014200Y0236267D02*
X0008800Y0236267D01*
X0008800Y0237866D02*
X0014200Y0237866D01*
X0014200Y0239464D02*
X0008800Y0239464D01*
X0008800Y0241063D02*
X0014709Y0241063D01*
X0015371Y0242661D02*
X0008800Y0242661D01*
X0008800Y0244260D02*
X0016516Y0244260D01*
X0018114Y0245858D02*
X0008800Y0245858D01*
X0008800Y0247457D02*
X0021501Y0247457D01*
X0032499Y0247457D02*
X0050541Y0247457D01*
X0049789Y0245858D02*
X0035886Y0245858D01*
X0052140Y0249055D02*
X0008800Y0249055D01*
X0008800Y0250654D02*
X0055374Y0250654D01*
X0033127Y0279223D02*
X0033661Y0279757D01*
X0034105Y0280369D01*
X0034448Y0281042D01*
X0034682Y0281760D01*
X0034800Y0282507D01*
X0034800Y0282684D01*
X0027200Y0282684D01*
X0027200Y0278084D01*
X0030378Y0278084D01*
X0031124Y0278203D01*
X0031843Y0278436D01*
X0032516Y0278779D01*
X0033127Y0279223D01*
X0033331Y0279427D02*
X0106683Y0279427D01*
X0105440Y0277828D02*
X0008800Y0277828D01*
X0008800Y0276230D02*
X0104778Y0276230D01*
X0104200Y0274631D02*
X0008800Y0274631D01*
X0008800Y0273033D02*
X0104200Y0273033D01*
X0104200Y0271434D02*
X0008800Y0271434D01*
X0008800Y0269836D02*
X0104655Y0269836D01*
X0105317Y0268237D02*
X0008800Y0268237D01*
X0008800Y0266639D02*
X0104948Y0266639D01*
X0104286Y0265040D02*
X0008800Y0265040D01*
X0008800Y0263442D02*
X0104200Y0263442D01*
X0104200Y0261843D02*
X0008800Y0261843D01*
X0008800Y0260245D02*
X0104486Y0260245D01*
X0105148Y0258646D02*
X0008800Y0258646D01*
X0008800Y0257048D02*
X0105117Y0257048D01*
X0104455Y0255449D02*
X0008800Y0255449D01*
X0008800Y0253851D02*
X0104200Y0253851D01*
X0104200Y0252252D02*
X0008800Y0252252D01*
X0008800Y0279427D02*
X0020669Y0279427D01*
X0020873Y0279223D02*
X0021484Y0278779D01*
X0022157Y0278436D01*
X0022876Y0278203D01*
X0023622Y0278084D01*
X0026800Y0278084D01*
X0026800Y0282684D01*
X0027200Y0282684D01*
X0027200Y0283084D01*
X0034800Y0283084D01*
X0034800Y0283262D01*
X0034682Y0284008D01*
X0034622Y0284192D01*
X0035551Y0284576D01*
X0038308Y0287333D01*
X0039800Y0290935D01*
X0039800Y0294834D01*
X0038308Y0298436D01*
X0035551Y0301192D01*
X0031949Y0302684D01*
X0022051Y0302684D01*
X0018449Y0301192D01*
X0015692Y0298436D01*
X0014200Y0294834D01*
X0014200Y0290935D01*
X0015692Y0287333D01*
X0018449Y0284576D01*
X0019378Y0284192D01*
X0019318Y0284008D01*
X0019200Y0283262D01*
X0019200Y0283084D01*
X0026800Y0283084D01*
X0026800Y0282684D01*
X0019200Y0282684D01*
X0019200Y0282507D01*
X0019318Y0281760D01*
X0019552Y0281042D01*
X0019895Y0280369D01*
X0020339Y0279757D01*
X0020873Y0279223D01*
X0019560Y0281025D02*
X0008800Y0281025D01*
X0008800Y0282624D02*
X0019200Y0282624D01*
X0019303Y0284222D02*
X0008800Y0284222D01*
X0008800Y0285821D02*
X0017204Y0285821D01*
X0015656Y0287419D02*
X0008800Y0287419D01*
X0008800Y0289018D02*
X0014994Y0289018D01*
X0014332Y0290616D02*
X0008800Y0290616D01*
X0008800Y0292215D02*
X0014200Y0292215D01*
X0014200Y0293813D02*
X0008800Y0293813D01*
X0008800Y0295412D02*
X0014440Y0295412D01*
X0015102Y0297010D02*
X0008800Y0297010D01*
X0008800Y0298609D02*
X0015865Y0298609D01*
X0017464Y0300207D02*
X0008800Y0300207D01*
X0008800Y0301806D02*
X0019930Y0301806D01*
X0008800Y0303404D02*
X0104200Y0303404D01*
X0104200Y0301806D02*
X0034070Y0301806D01*
X0036536Y0300207D02*
X0104501Y0300207D01*
X0105163Y0298609D02*
X0038135Y0298609D01*
X0038898Y0297010D02*
X0105102Y0297010D01*
X0104440Y0295412D02*
X0039560Y0295412D01*
X0039800Y0293813D02*
X0104200Y0293813D01*
X0104200Y0292215D02*
X0039800Y0292215D01*
X0039668Y0290616D02*
X0104332Y0290616D01*
X0104994Y0289018D02*
X0039006Y0289018D01*
X0038344Y0287419D02*
X0105656Y0287419D01*
X0107204Y0285821D02*
X0036796Y0285821D01*
X0034697Y0284222D02*
X0109303Y0284222D01*
X0109200Y0282624D02*
X0034800Y0282624D01*
X0034440Y0281025D02*
X0108282Y0281025D01*
X0129668Y0290616D02*
X0130284Y0290616D01*
X0129800Y0292215D02*
X0176900Y0292215D01*
X0176900Y0293813D02*
X0129800Y0293813D01*
X0129560Y0295412D02*
X0176900Y0295412D01*
X0176900Y0297010D02*
X0128898Y0297010D01*
X0128836Y0298609D02*
X0177344Y0298609D01*
X0178106Y0300207D02*
X0129499Y0300207D01*
X0129800Y0301806D02*
X0179705Y0301806D01*
X0129800Y0303404D02*
X0345200Y0303404D01*
X0345200Y0301806D02*
X0339070Y0301806D01*
X0341536Y0300207D02*
X0345200Y0300207D01*
X0345200Y0298609D02*
X0343135Y0298609D01*
X0343898Y0297010D02*
X0345200Y0297010D01*
X0345200Y0295412D02*
X0344560Y0295412D01*
X0344800Y0293813D02*
X0345200Y0293813D01*
X0345200Y0292215D02*
X0344800Y0292215D01*
X0344668Y0290616D02*
X0345200Y0290616D01*
X0345200Y0289018D02*
X0344006Y0289018D01*
X0343729Y0287419D02*
X0345200Y0287419D01*
X0345200Y0285821D02*
X0344391Y0285821D01*
X0344800Y0284222D02*
X0345200Y0284222D01*
X0345200Y0282624D02*
X0344800Y0282624D01*
X0344800Y0281025D02*
X0345200Y0281025D01*
X0345200Y0279427D02*
X0344175Y0279427D01*
X0343560Y0277828D02*
X0345200Y0277828D01*
X0345200Y0276230D02*
X0344222Y0276230D01*
X0344800Y0274631D02*
X0345200Y0274631D01*
X0345200Y0273033D02*
X0344800Y0273033D01*
X0344800Y0271434D02*
X0345200Y0271434D01*
X0345200Y0269836D02*
X0344345Y0269836D01*
X0343683Y0268237D02*
X0345200Y0268237D01*
X0345200Y0266639D02*
X0344052Y0266639D01*
X0344714Y0265040D02*
X0345200Y0265040D01*
X0345200Y0263442D02*
X0344800Y0263442D01*
X0344800Y0261843D02*
X0345200Y0261843D01*
X0345200Y0260245D02*
X0344514Y0260245D01*
X0343852Y0258646D02*
X0345200Y0258646D01*
X0345200Y0257048D02*
X0343883Y0257048D01*
X0344545Y0255449D02*
X0345200Y0255449D01*
X0345200Y0253851D02*
X0344800Y0253851D01*
X0344800Y0252252D02*
X0345200Y0252252D01*
X0345200Y0250654D02*
X0344683Y0250654D01*
X0345200Y0249055D02*
X0344021Y0249055D01*
X0343714Y0247457D02*
X0345200Y0247457D01*
X0345200Y0245858D02*
X0344376Y0245858D01*
X0344800Y0244260D02*
X0345200Y0244260D01*
X0345200Y0242661D02*
X0344800Y0242661D01*
X0344800Y0241063D02*
X0345200Y0241063D01*
X0345200Y0239464D02*
X0344191Y0239464D01*
X0343529Y0237866D02*
X0345200Y0237866D01*
X0345200Y0236267D02*
X0342242Y0236267D01*
X0340643Y0234669D02*
X0345200Y0234669D01*
X0345200Y0305003D02*
X0129730Y0305003D01*
X0129068Y0306602D02*
X0345200Y0306602D01*
X0345200Y0308200D02*
X0128406Y0308200D01*
X0126945Y0309799D02*
X0345200Y0309799D01*
X0345200Y0311397D02*
X0125057Y0311397D01*
X0108943Y0311397D02*
X0008800Y0311397D01*
X0008800Y0309799D02*
X0107055Y0309799D01*
X0105594Y0308200D02*
X0008800Y0308200D01*
X0008800Y0306602D02*
X0104932Y0306602D01*
X0104270Y0305003D02*
X0008800Y0305003D01*
X0008800Y0312996D02*
X0345200Y0312996D01*
X0345200Y0314594D02*
X0008800Y0314594D01*
X0008800Y0316193D02*
X0345200Y0316193D01*
X0345200Y0317791D02*
X0008800Y0317791D01*
X0008800Y0319390D02*
X0345200Y0319390D01*
X0345200Y0320988D02*
X0008800Y0320988D01*
X0026800Y0282624D02*
X0027200Y0282624D01*
X0027200Y0281025D02*
X0026800Y0281025D01*
X0026800Y0279427D02*
X0027200Y0279427D01*
X0095000Y0215084D02*
X0108260Y0215084D01*
X0107800Y0214624D01*
X0107800Y0212884D01*
X0107800Y0211145D01*
X0110260Y0208684D01*
X0112000Y0208684D01*
X0113189Y0208684D01*
X0118189Y0203684D01*
X0125811Y0203684D01*
X0131200Y0209074D01*
X0131200Y0215084D01*
X0133160Y0215084D01*
X0132800Y0214214D01*
X0132800Y0210554D01*
X0134201Y0207173D01*
X0136789Y0204585D01*
X0140170Y0203184D01*
X0143830Y0203184D01*
X0147211Y0204585D01*
X0149799Y0207173D01*
X0151200Y0210554D01*
X0151200Y0214214D01*
X0150840Y0215084D01*
X0173552Y0215084D01*
X0176418Y0216272D01*
X0178489Y0218342D01*
X0177588Y0216783D01*
X0176900Y0214214D01*
X0176900Y0211555D01*
X0177588Y0208986D01*
X0178224Y0207884D01*
X0177588Y0206783D01*
X0176900Y0204214D01*
X0176900Y0201555D01*
X0177133Y0200684D01*
X0170448Y0200684D01*
X0167582Y0199497D01*
X0165387Y0197303D01*
X0164200Y0194436D01*
X0164200Y0185684D01*
X0147311Y0185684D01*
X0149799Y0188173D01*
X0151200Y0191554D01*
X0151200Y0195214D01*
X0149799Y0198596D01*
X0147211Y0201184D01*
X0143830Y0202584D01*
X0140170Y0202584D01*
X0136789Y0201184D01*
X0134201Y0198596D01*
X0132800Y0195214D01*
X0132800Y0191554D01*
X0134201Y0188173D01*
X0136689Y0185684D01*
X0127811Y0185684D01*
X0131200Y0189074D01*
X0131200Y0196695D01*
X0125811Y0202084D01*
X0118189Y0202084D01*
X0113189Y0197084D01*
X0112000Y0197084D01*
X0112000Y0192884D01*
X0112000Y0188684D01*
X0113189Y0188684D01*
X0116189Y0185684D01*
X0099800Y0185684D01*
X0099800Y0209436D01*
X0098613Y0212303D01*
X0096418Y0214497D01*
X0095000Y0215084D01*
X0097027Y0213888D02*
X0107800Y0213888D01*
X0107800Y0212884D02*
X0112000Y0212884D01*
X0112000Y0208684D01*
X0112000Y0212884D01*
X0112000Y0212884D01*
X0107800Y0212884D01*
X0107800Y0212289D02*
X0098618Y0212289D01*
X0099280Y0210691D02*
X0108254Y0210691D01*
X0109852Y0209092D02*
X0099800Y0209092D01*
X0099800Y0207494D02*
X0114380Y0207494D01*
X0115978Y0205895D02*
X0099800Y0205895D01*
X0099800Y0204297D02*
X0117577Y0204297D01*
X0117205Y0201100D02*
X0099800Y0201100D01*
X0099800Y0202698D02*
X0176900Y0202698D01*
X0176922Y0204297D02*
X0146516Y0204297D01*
X0148522Y0205895D02*
X0177350Y0205895D01*
X0177999Y0207494D02*
X0149932Y0207494D01*
X0150594Y0209092D02*
X0177560Y0209092D01*
X0177131Y0210691D02*
X0151200Y0210691D01*
X0151200Y0212289D02*
X0176900Y0212289D01*
X0176900Y0213888D02*
X0151200Y0213888D01*
X0147295Y0201100D02*
X0177022Y0201100D01*
X0167592Y0199501D02*
X0148894Y0199501D01*
X0150086Y0197903D02*
X0165988Y0197903D01*
X0164974Y0196304D02*
X0150749Y0196304D01*
X0151200Y0194706D02*
X0164312Y0194706D01*
X0164200Y0193107D02*
X0151200Y0193107D01*
X0151181Y0191509D02*
X0164200Y0191509D01*
X0164200Y0189910D02*
X0150519Y0189910D01*
X0149857Y0188312D02*
X0164200Y0188312D01*
X0164200Y0186713D02*
X0148340Y0186713D01*
X0135660Y0186713D02*
X0128840Y0186713D01*
X0130438Y0188312D02*
X0134143Y0188312D01*
X0133481Y0189910D02*
X0131200Y0189910D01*
X0131200Y0191509D02*
X0132819Y0191509D01*
X0132800Y0193107D02*
X0131200Y0193107D01*
X0131200Y0194706D02*
X0132800Y0194706D01*
X0133251Y0196304D02*
X0131200Y0196304D01*
X0129992Y0197903D02*
X0133914Y0197903D01*
X0135106Y0199501D02*
X0128394Y0199501D01*
X0126795Y0201100D02*
X0136705Y0201100D01*
X0137484Y0204297D02*
X0126423Y0204297D01*
X0128022Y0205895D02*
X0135478Y0205895D01*
X0134068Y0207494D02*
X0129620Y0207494D01*
X0131200Y0209092D02*
X0133406Y0209092D01*
X0132800Y0210691D02*
X0131200Y0210691D01*
X0131200Y0212289D02*
X0132800Y0212289D01*
X0132800Y0213888D02*
X0131200Y0213888D01*
X0115606Y0199501D02*
X0099800Y0199501D01*
X0099800Y0197903D02*
X0114008Y0197903D01*
X0112000Y0197084D02*
X0112000Y0192884D01*
X0112000Y0192884D01*
X0112000Y0188684D01*
X0110260Y0188684D01*
X0107800Y0191145D01*
X0107800Y0192884D01*
X0112000Y0192884D01*
X0112000Y0192884D01*
X0107800Y0192884D01*
X0107800Y0194624D01*
X0110260Y0197084D01*
X0112000Y0197084D01*
X0112000Y0196304D02*
X0112000Y0196304D01*
X0112000Y0194706D02*
X0112000Y0194706D01*
X0112000Y0193107D02*
X0112000Y0193107D01*
X0112000Y0192884D02*
X0112000Y0192884D01*
X0112000Y0191509D02*
X0112000Y0191509D01*
X0112000Y0189910D02*
X0112000Y0189910D01*
X0113562Y0188312D02*
X0099800Y0188312D01*
X0099800Y0189910D02*
X0109034Y0189910D01*
X0107800Y0191509D02*
X0099800Y0191509D01*
X0099800Y0193107D02*
X0107800Y0193107D01*
X0107882Y0194706D02*
X0099800Y0194706D01*
X0099800Y0196304D02*
X0109480Y0196304D01*
X0115160Y0186713D02*
X0099800Y0186713D01*
X0084200Y0199501D02*
X0035370Y0199501D01*
X0072130Y0130765D02*
X0074200Y0130765D01*
X0074200Y0129167D02*
X0073728Y0129167D01*
X0153505Y0116379D02*
X0154354Y0116379D01*
X0155104Y0117977D02*
X0178896Y0117977D01*
X0177800Y0119576D02*
X0156200Y0119576D01*
X0156200Y0121174D02*
X0177800Y0121174D01*
X0177800Y0122773D02*
X0156200Y0122773D01*
X0156200Y0124371D02*
X0177800Y0124371D01*
X0180495Y0116379D02*
X0165246Y0116379D01*
X0168663Y0114780D02*
X0182093Y0114780D01*
X0193505Y0116379D02*
X0208754Y0116379D01*
X0215129Y0124371D02*
X0196200Y0124371D01*
X0196200Y0122773D02*
X0217800Y0122773D01*
X0217800Y0121174D02*
X0196200Y0121174D01*
X0196200Y0119576D02*
X0217800Y0119576D01*
X0218896Y0117977D02*
X0195104Y0117977D01*
X0219646Y0116379D02*
X0220495Y0116379D01*
X0177241Y0215486D02*
X0174522Y0215486D01*
X0177231Y0217085D02*
X0177763Y0217085D01*
X0219396Y0233070D02*
X0234200Y0233070D01*
X0112000Y0212884D02*
X0112000Y0212884D01*
X0112000Y0212289D02*
X0112000Y0212289D01*
X0112000Y0210691D02*
X0112000Y0210691D01*
X0112000Y0209092D02*
X0112000Y0209092D01*
X0107000Y0026862D02*
X0107000Y0026862D01*
X0107000Y0025264D02*
X0107000Y0025264D01*
X0107000Y0023665D02*
X0107000Y0023665D01*
M02*
